<?xml version="1.0" standalone="no"?>
<!DOCTYPE svg PUBLIC "-//W3C//DTD SVG 20010904//EN"
 "http://www.w3.org/TR/2001/REC-SVG-20010904/DTD/svg10.dtd">
<svg version="1.0" xmlns="http://www.w3.org/2000/svg"
 width="700.000000pt" height="700.000000pt" viewBox="0 0 700.000000 700.000000"
 preserveAspectRatio="xMidYMid meet">
<metadata>
Created by potrace 1.14, written by Peter Selinger 2001-2017
</metadata>
<g transform="translate(0.000000,700.000000) scale(0.100000,-0.100000)"
fill="#000000" stroke="none">
<path d="M3598 6845 c-2 -1 -28 -5 -59 -8 -31 -2 -70 -12 -87 -21 -17 -9 -43
-16 -57 -16 -65 0 -148 -61 -166 -121 -8 -26 -18 -39 -29 -39 -10 0 -35 -7
-56 -16 -21 -9 -62 -18 -90 -19 -29 -2 -71 -12 -95 -23 -24 -10 -60 -25 -79
-32 -43 -17 -77 -52 -87 -88 -16 -57 -5 -290 18 -372 7 -29 9 -66 5 -101 l-7
-56 -42 4 c-28 3 -59 -2 -92 -15 -42 -16 -59 -31 -107 -98 -66 -90 -98 -150
-93 -173 2 -9 7 -31 11 -49 l7 -32 -29 15 c-38 20 -78 19 -117 -2 -18 -9 -41
-18 -51 -20 -34 -6 -100 -39 -134 -68 -31 -26 -134 -152 -174 -214 -15 -22
-17 -45 -15 -152 4 -134 1 -125 81 -276 22 -41 27 -62 24 -105 l-3 -53 -20 33
c-11 18 -49 51 -85 74 -36 23 -99 63 -141 90 -81 52 -114 61 -164 46 -16 -5
-53 -10 -81 -12 -28 -3 -68 -11 -89 -20 -21 -9 -48 -18 -62 -20 -26 -5 -81
-46 -128 -96 -16 -18 -55 -45 -85 -61 -72 -39 -124 -70 -130 -78 -3 -4 -23
-20 -45 -37 -21 -16 -47 -37 -57 -46 -10 -10 -25 -18 -34 -18 -25 0 -84 -31
-114 -59 -29 -27 -39 -50 -45 -102 -3 -17 -6 -38 -9 -48 -3 -9 -8 -36 -11 -61
-3 -25 -10 -56 -15 -70 -31 -86 -33 -231 -4 -311 7 -23 14 -54 14 -69 0 -15
12 -45 27 -66 14 -21 39 -61 56 -89 16 -27 37 -55 47 -62 9 -7 39 -44 65 -84
54 -79 104 -118 162 -126 44 -5 201 37 242 66 14 10 33 18 41 19 8 0 49 8 90
17 47 10 101 15 145 12 39 -2 81 0 95 5 68 26 123 2 157 -70 9 -18 28 -45 43
-60 14 -15 34 -49 44 -77 61 -171 75 -219 70 -242 l-6 -24 -18 28 c-27 45 -47
56 -113 61 -122 9 -128 8 -203 -40 -82 -53 -116 -100 -122 -169 -3 -40 3 -61
41 -140 24 -52 59 -128 77 -169 50 -116 53 -121 74 -132 24 -13 61 -56 101
-118 17 -25 42 -61 56 -80 14 -19 43 -69 64 -110 21 -41 45 -86 52 -100 7 -14
13 -32 13 -40 0 -9 6 -24 14 -35 12 -19 30 -82 41 -150 2 -16 14 -66 25 -109
11 -44 20 -89 20 -100 0 -61 21 -96 98 -161 60 -51 84 -80 108 -129 38 -80 95
-150 138 -170 56 -26 150 -37 213 -25 37 8 49 -2 82 -73 13 -27 20 -56 16 -67
-3 -11 -7 -28 -9 -38 -2 -10 -11 -38 -20 -63 -9 -25 -16 -57 -16 -71 0 -30 35
-144 53 -174 7 -11 23 -47 36 -80 13 -33 33 -71 45 -84 33 -36 129 -80 193
-87 32 -4 64 -8 72 -9 7 -1 21 -25 32 -54 22 -63 28 -72 90 -132 41 -40 60
-50 131 -69 132 -36 258 -13 342 62 59 51 69 70 76 138 l5 55 40 0 c35 1 67 6
149 21 54 10 135 89 157 152 6 18 15 32 21 32 13 0 60 108 63 145 1 17 5 51
10 77 7 45 -4 119 -26 176 -13 33 32 92 70 92 16 0 41 12 61 30 18 17 40 30
48 30 19 0 120 56 150 84 13 12 33 39 44 61 11 22 46 65 78 95 32 30 81 91
109 135 28 44 57 87 65 96 21 21 46 83 46 114 0 14 10 39 21 54 15 20 24 53
29 108 5 43 15 92 23 108 8 17 34 71 58 120 23 50 59 108 80 131 20 23 40 56
44 75 4 19 15 45 25 59 37 53 65 118 69 163 1 4 7 7 14 7 8 0 27 16 43 36 16
20 50 61 75 90 59 69 111 166 111 208 0 61 -74 143 -219 244 -32 23 -97 30
-108 12 -3 -5 -15 -10 -25 -10 -10 0 -33 -12 -50 -26 l-31 -27 2 59 c5 121 62
244 156 335 37 35 71 63 76 61 4 -1 45 -5 90 -7 45 -3 109 -8 142 -11 33 -4
79 -8 103 -9 60 -4 203 -51 243 -80 54 -40 129 -27 186 33 73 77 109 117 118
132 5 9 25 39 43 66 18 27 37 67 43 89 5 22 21 68 34 101 13 34 24 70 23 80 0
11 3 77 7 148 l8 129 -28 -5 c-30 -6 -32 -3 -38 68 -2 33 -17 78 -40 126 -35
71 -40 76 -119 123 -98 58 -178 114 -178 124 0 5 -17 16 -38 25 -21 9 -42 27
-47 39 -14 30 -171 135 -214 143 -20 4 -50 13 -68 21 -18 7 -53 13 -78 13 -25
0 -60 7 -78 17 -39 20 -113 21 -149 2 -36 -19 -145 -110 -225 -187 -63 -61
-83 -69 -83 -32 0 10 -4 22 -10 25 -17 10 -11 75 9 103 33 47 53 105 62 177 5
39 12 95 16 125 12 83 -21 191 -89 291 -50 75 -58 82 -135 119 -102 50 -187
60 -265 30 -45 -17 -49 -17 -43 -2 20 51 41 131 39 147 -9 61 -24 84 -84 125
-19 13 -37 27 -40 31 -10 13 -47 27 -103 39 -44 10 -56 17 -53 29 8 31 16 69
21 107 4 21 8 46 11 56 3 9 7 80 9 158 4 150 -3 188 -41 221 -21 18 -240 119
-258 119 -6 0 -27 8 -46 19 -19 10 -51 23 -70 30 -21 6 -43 23 -53 40 -21 36
-77 80 -159 126 -23 13 -102 27 -110 20z m102 -133 c53 -30 105 -82 102 -100
-5 -24 19 -42 56 -42 21 0 74 -19 138 -50 57 -27 106 -50 110 -50 4 0 35 -13
69 -29 56 -27 62 -33 65 -63 8 -93 -2 -226 -25 -344 -36 -176 -41 -253 -21
-279 15 -20 16 -19 48 18 l33 38 52 -14 c65 -17 120 -54 132 -88 7 -20 -1 -49
-41 -145 -27 -65 -56 -134 -65 -153 -20 -43 -14 -172 10 -218 22 -42 73 -80
118 -87 41 -6 50 1 73 56 12 29 13 39 3 52 -12 17 -15 17 -50 0 -42 -20 -58
-15 -90 27 -18 25 -18 26 7 70 14 24 26 52 26 62 0 10 12 22 28 28 15 5 49 21
76 36 59 31 105 32 188 3 32 -11 65 -20 73 -20 18 0 66 -69 100 -145 35 -75
43 -151 22 -204 -9 -22 -16 -59 -15 -83 0 -45 -24 -105 -67 -163 -19 -25 -21
-40 -18 -90 3 -33 11 -67 19 -76 16 -18 19 -72 4 -98 -13 -26 -62 -44 -103
-38 -48 6 -53 11 -51 50 3 62 -61 101 -89 56 -16 -25 28 -126 63 -144 15 -8
35 -31 45 -52 9 -21 31 -52 48 -70 l30 -32 56 44 c45 35 108 98 170 167 7 9
136 124 215 193 32 28 71 56 88 63 27 11 34 10 66 -10 28 -16 54 -22 102 -23
84 -1 184 -39 241 -91 14 -13 29 -24 35 -24 5 0 16 -15 24 -33 8 -17 31 -41
51 -52 20 -11 47 -28 60 -38 13 -10 67 -43 119 -74 52 -30 102 -62 111 -70 27
-23 59 -125 60 -192 1 -36 5 -57 10 -50 4 7 5 -41 2 -107 -5 -95 -10 -128 -28
-164 -12 -25 -25 -57 -28 -71 -15 -62 -168 -248 -217 -264 -10 -3 -29 0 -42 8
-38 24 -231 77 -299 81 -35 3 -91 8 -124 11 -33 3 -76 7 -95 9 -19 2 -60 7
-90 11 l-55 6 -76 -78 c-48 -49 -92 -107 -120 -158 -57 -104 -64 -131 -75
-275 -7 -99 -8 -139 -6 -202 2 -32 6 -38 24 -38 21 0 50 27 130 122 22 27 44
48 50 48 5 0 6 -4 3 -10 -10 -16 11 -12 25 5 16 20 32 19 56 -3 10 -10 45 -37
77 -60 31 -24 57 -49 57 -57 0 -8 5 -15 10 -15 32 0 -30 -120 -100 -194 -22
-22 -40 -44 -40 -48 0 -4 -18 -19 -40 -33 -38 -24 -61 -54 -65 -85 -3 -25 -26
-80 -34 -80 -9 0 -51 -74 -51 -90 0 -7 -17 -29 -38 -50 -40 -40 -43 -45 -92
-155 -17 -38 -42 -93 -56 -120 -17 -35 -24 -67 -24 -106 0 -45 -5 -61 -24 -82
-17 -18 -24 -38 -24 -69 -1 -25 -6 -57 -11 -71 -21 -53 -140 -223 -194 -275
-31 -30 -62 -71 -71 -95 -13 -34 -28 -49 -74 -76 -34 -20 -72 -34 -96 -35 -31
-2 -41 -7 -49 -27 -8 -21 -10 -22 -16 -6 -6 17 -9 17 -31 -6 -14 -13 -41 -33
-61 -44 -27 -14 -35 -24 -32 -41 2 -17 -2 -22 -20 -22 -48 0 -50 -13 -16 -86
30 -63 32 -77 31 -154 -2 -47 -4 -94 -5 -105 -4 -29 -33 -91 -46 -99 -6 -4
-22 -28 -35 -54 -13 -26 -35 -57 -48 -69 -48 -45 -234 -61 -302 -27 -43 21
-48 18 -31 -22 8 -20 15 -65 15 -100 0 -56 -3 -67 -30 -98 -38 -43 -114 -68
-201 -68 -48 1 -130 36 -163 70 -71 72 -82 138 -35 201 12 17 21 33 18 35 -2
2 -22 -2 -44 -10 -77 -27 -215 -12 -276 29 -18 12 -39 36 -48 52 -9 17 -31 57
-50 89 -42 74 -45 137 -13 236 24 77 22 112 -9 174 -19 37 -28 68 -25 81 10
40 -15 48 -152 51 -70 1 -139 7 -153 12 -27 11 -80 84 -118 164 -16 33 -41 61
-90 98 -38 29 -73 62 -78 74 -15 31 -61 228 -78 327 -8 47 -21 99 -30 115 -8
16 -15 34 -15 41 0 18 -118 233 -146 266 -13 16 -24 33 -24 39 0 15 -68 107
-112 151 -21 21 -38 43 -38 48 0 5 -36 81 -80 168 -94 187 -94 193 -3 254 63
41 71 43 98 23 17 -12 23 -12 47 0 15 8 29 14 32 14 2 0 15 -19 29 -42 42 -71
106 -138 132 -138 40 0 54 45 41 126 -4 28 -2 50 8 69 8 15 13 33 11 39 -2 6
-13 45 -25 86 -29 104 -96 260 -111 260 -3 0 -20 26 -37 58 -44 83 -86 120
-150 132 -41 7 -61 7 -86 -4 -22 -9 -57 -12 -103 -9 -52 3 -90 -2 -144 -17
-41 -12 -92 -26 -114 -31 -22 -6 -54 -19 -72 -31 -39 -23 -125 -48 -168 -48
-32 1 -65 20 -65 39 0 6 -18 30 -40 53 -23 22 -48 54 -58 70 -9 15 -22 28 -30
28 -7 0 -20 17 -28 37 -9 20 -26 51 -38 67 -27 37 -46 122 -52 230 -3 64 1 94
20 155 13 42 27 94 30 115 6 37 9 52 21 112 6 28 55 54 101 54 17 0 55 22 109
65 46 36 87 65 91 65 18 0 141 87 191 135 34 34 63 54 77 53 11 0 41 9 66 20
24 11 48 19 52 16 4 -3 36 0 71 6 l65 12 48 -35 c27 -19 70 -46 96 -61 79 -46
134 -104 228 -245 61 -90 105 -127 144 -117 12 3 59 41 104 84 63 60 82 84 82
105 0 40 -58 91 -61 55 -3 -25 3 -43 18 -60 20 -23 11 -43 -29 -68 -62 -37
-100 -23 -149 56 -20 33 -23 49 -21 123 2 69 -2 97 -24 160 -15 42 -33 83 -40
91 -32 37 -42 86 -39 174 3 70 8 93 23 110 10 11 30 43 43 69 40 82 106 132
223 170 l48 15 76 -36 c75 -36 76 -38 93 -92 16 -50 17 -71 3 -137 -5 -25 -24
-29 -53 -11 -23 14 -51 4 -51 -20 0 -12 11 -21 33 -27 22 -7 33 -17 35 -32 4
-29 27 -29 69 0 47 31 63 83 60 190 -2 72 -6 91 -20 102 -12 8 -14 14 -6 17 8
3 7 13 -5 36 -9 18 -14 32 -10 32 3 0 -4 17 -16 38 -12 20 -28 54 -36 75 -12
34 -12 39 8 57 12 11 25 20 30 20 4 0 5 7 1 15 -8 24 38 103 67 114 50 18 56
18 76 2 19 -16 57 -76 97 -156 l19 -39 20 23 c15 20 18 36 14 95 -4 73 -8 87
-32 143 -10 23 -11 38 -4 58 13 33 4 164 -12 181 -4 3 -4 12 -2 19 3 7 1 23
-5 34 -7 11 -7 22 -2 25 5 4 3 31 -6 64 -17 63 -12 150 9 164 7 4 31 14 53 20
22 7 59 27 83 45 36 28 52 33 96 33 29 0 79 9 111 20 32 11 66 20 75 20 10 0
29 9 43 20 21 17 25 26 20 54 -7 44 24 73 86 81 25 4 57 11 70 16 13 5 49 12
80 16 31 3 58 7 60 9 7 7 43 -7 91 -34z"/>
<path d="M3402 6588 c-6 -8 -13 -47 -15 -88 -2 -41 -9 -87 -15 -101 -6 -15 -9
-29 -7 -31 4 -4 12 -80 20 -183 3 -33 9 -74 14 -91 5 -17 7 -51 4 -75 -7 -63
-6 -86 9 -159 12 -63 15 -233 8 -545 -3 -130 1 -231 16 -395 5 -56 8 -370 5
-595 -1 -38 1 -86 4 -105 5 -40 17 -209 16 -227 -2 -43 0 -174 4 -203 2 -19 4
-42 4 -50 2 -30 18 -40 69 -45 73 -7 82 8 83 156 0 63 -1 119 -2 124 -2 9 6
67 17 118 2 9 6 27 9 38 8 38 8 223 0 259 -12 51 -9 114 11 265 9 70 11 249 3
280 -4 17 -10 86 -13 155 -4 69 -8 154 -10 190 -2 36 1 73 5 82 5 9 11 45 13
80 2 35 7 79 10 98 3 19 8 185 10 368 2 183 6 335 8 338 3 2 0 28 -7 57 -7 32
-9 61 -4 76 10 26 18 69 24 123 7 61 -34 89 -122 86 -32 -1 -81 2 -109 6 -37
5 -54 3 -62 -6z"/>
<path d="M3772 6442 c-22 -3 -23 -7 -23 -105 0 -56 0 -156 0 -222 0 -66 0
-160 1 -210 1 -107 -10 -245 -27 -320 -4 -22 -12 -247 -18 -510 -2 -93 -7
-209 -10 -257 -4 -48 -4 -95 0 -105 12 -29 3 -232 -12 -255 -2 -4 -4 -35 -4
-69 -1 -48 3 -65 19 -80 18 -16 20 -28 16 -111 -2 -51 -6 -114 -8 -140 l-4
-46 49 -12 c27 -7 52 -17 56 -23 13 -22 28 75 22 142 -4 45 -2 76 7 96 23 53
47 129 50 160 1 17 9 68 18 115 8 47 18 105 21 130 3 25 10 72 15 105 5 33 12
96 15 140 2 44 7 91 11 105 5 24 24 194 25 235 1 11 0 54 -1 95 -1 47 3 89 12
110 10 24 13 62 11 119 -3 72 0 88 19 119 14 23 23 54 24 82 0 25 5 77 9 115
5 39 8 74 7 78 -1 4 4 34 12 65 15 61 31 225 27 281 -4 47 -28 77 -77 96 -22
8 -55 26 -74 40 -38 28 -130 46 -188 37z"/>
<path d="M3159 6379 c-52 -21 -100 -37 -106 -34 -27 9 -46 -45 -50 -138 -3
-51 -5 -99 -5 -107 -2 -25 11 -99 20 -118 5 -9 12 -29 16 -44 5 -22 3 -28 -10
-28 -13 0 -15 -11 -13 -57 1 -32 6 -66 11 -76 14 -27 18 -52 27 -167 5 -58 11
-112 14 -120 3 -8 8 -48 11 -89 3 -41 10 -79 16 -86 15 -18 25 -212 11 -229
-9 -11 -7 -28 9 -75 13 -41 20 -86 20 -140 0 -43 6 -113 14 -155 8 -41 16
-119 17 -173 1 -54 8 -143 16 -198 7 -55 16 -143 18 -195 3 -52 8 -112 11
-133 l6 -38 47 6 c25 4 59 11 75 17 l29 12 -7 165 c-8 197 -15 303 -25 351 -4
19 -7 58 -5 85 9 186 15 302 21 385 8 123 8 230 -2 410 -4 80 -7 159 -7 175 3
137 1 159 -10 167 -10 6 -10 8 1 8 11 0 11 3 0 16 -10 12 -13 69 -15 227 -2
198 -11 384 -20 398 -11 19 -50 12 -135 -22z"/>
<path d="M2692 5738 c-9 -12 -25 -58 -27 -83 -1 -5 7 -32 18 -60 47 -124 57
-198 42 -336 -8 -76 -49 -153 -101 -188 -45 -31 -114 -35 -184 -10 -41 14 -56
16 -61 7 -11 -17 -96 -12 -126 8 -38 25 -13 44 57 44 l58 0 -13 28 c-32 64
-23 113 28 165 52 53 74 63 82 36 8 -25 25 -25 25 1 0 46 -97 75 -174 53 -42
-12 -52 -21 -90 -81 -24 -37 -56 -78 -70 -91 -38 -35 -36 -90 4 -131 17 -17
30 -41 30 -54 0 -13 14 -53 30 -89 30 -62 38 -121 40 -282 0 -18 2 -17 23 7
28 33 52 44 103 47 51 3 73 -17 105 -98 13 -31 29 -60 36 -64 7 -4 13 -19 13
-33 0 -21 35 -54 73 -67 4 -1 9 -11 11 -20 1 -10 7 -22 12 -25 6 -4 13 -15 17
-24 3 -10 13 -18 20 -18 7 0 19 -12 26 -27 7 -16 20 -43 29 -61 9 -18 40 -56
69 -85 30 -29 65 -69 80 -89 14 -21 33 -40 42 -43 9 -3 32 -26 51 -51 42 -54
58 -64 115 -69 l43 -5 -1 38 c-1 20 2 43 7 50 5 9 -2 12 -27 12 -36 0 -88 32
-74 46 4 4 29 8 56 8 48 1 49 2 55 34 3 19 1 58 -5 88 -6 30 -11 107 -13 172
-2 64 -7 128 -10 142 -19 65 -27 123 -31 217 -2 56 -8 126 -14 155 -6 29 -13
77 -16 107 -3 30 -10 61 -14 70 -5 9 -14 41 -20 71 -6 30 -14 66 -18 80 -3 14
-7 61 -8 105 l-1 80 -50 51 c-72 75 -196 213 -220 246 -17 22 -24 25 -32 16z
m265 -311 c17 -11 3 -47 -21 -52 -68 -13 -83 -12 -113 7 -40 24 -42 36 -5 44
15 3 30 6 34 7 20 5 96 0 105 -6z m-637 -157 c0 -20 -18 -36 -40 -34 -8 1 -23
2 -33 3 -13 1 -17 8 -15 23 5 38 88 45 88 8z m588 5 c34 -10 23 -36 -20 -51
-42 -14 -48 -11 -48 26 0 32 8 42 29 36 9 -2 26 -7 39 -11z m45 -155 c49 -13
56 -20 35 -38 -37 -30 -142 -21 -165 14 -30 46 10 54 130 24z m-128 -155 c61
-2 91 -11 99 -30 9 -26 -35 -38 -149 -42 -210 -7 -356 0 -413 18 -64 21 12 48
158 56 58 3 107 8 110 10 3 3 37 2 75 -2 39 -4 93 -9 120 -10z m-215 -175 c21
-11 65 -14 99 -6 48 11 222 9 234 -3 6 -6 7 -11 3 -11 -5 0 -3 -7 5 -16 10
-13 10 -17 -2 -25 -8 -5 -24 -9 -36 -10 -90 -7 -138 -9 -206 -10 -47 0 -75 -4
-72 -9 7 -11 -8 -6 -87 28 -25 11 -49 18 -52 15 -3 -4 -6 -2 -6 3 0 10 68 51
88 53 7 1 22 -3 32 -9z m325 -175 c33 -4 64 -10 68 -14 13 -13 -4 -41 -24 -41
-11 0 -30 -6 -42 -14 -12 -7 -35 -11 -52 -9 -16 2 -67 5 -112 6 -46 1 -83 5
-83 9 0 4 -12 8 -27 10 -37 4 -40 26 -6 40 56 23 147 27 278 13z m5 -150 c7
-8 26 -15 42 -15 32 0 47 -22 29 -44 -7 -8 -51 -18 -109 -25 -53 -6 -115 -14
-137 -17 -32 -5 -38 -4 -28 7 10 10 9 16 -4 31 -13 14 -14 23 -5 42 13 28 30
33 128 35 53 1 75 -3 84 -14z m133 -204 c5 -5 7 -16 4 -24 -6 -15 -45 -25
-130 -32 -43 -4 -49 -2 -59 20 -20 44 2 55 95 50 44 -3 85 -9 90 -14z"/>
<path d="M4268 5679 c-27 -29 -48 -54 -48 -58 0 -3 -20 -19 -45 -36 -64 -43
-67 -52 -80 -238 -3 -43 -10 -88 -14 -100 -4 -12 -6 -38 -4 -57 3 -19 0 -57
-6 -85 -6 -27 -13 -87 -15 -132 -3 -44 -12 -98 -21 -120 -19 -46 -25 -100 -15
-154 4 -22 4 -41 0 -44 -11 -7 -34 -97 -32 -124 1 -14 -7 -57 -18 -97 -11 -40
-20 -94 -19 -121 2 -43 -7 -94 -31 -178 -5 -16 -12 -46 -15 -65 -3 -19 -10
-53 -15 -75 -5 -22 -7 -42 -4 -44 11 -11 40 -9 54 3 8 7 27 17 43 22 35 12
160 112 181 145 8 14 45 55 81 90 36 35 80 86 97 114 17 27 48 77 70 111 21
33 38 71 38 85 0 25 43 98 67 112 21 13 43 64 43 102 0 30 3 35 24 35 14 0 36
4 50 10 32 12 116 -22 116 -48 1 -25 35 -66 49 -58 8 5 7 16 -3 41 -8 18 -12
36 -9 38 3 3 7 32 10 64 3 32 13 72 23 89 11 19 15 37 10 45 -5 7 -1 28 10 50
11 20 27 67 36 105 9 38 24 77 32 86 13 16 12 18 -12 28 -21 8 -25 14 -20 34
11 44 -50 126 -112 152 -18 8 -63 14 -99 14 l-65 0 -18 -37 c-13 -29 -14 -37
-4 -41 7 -2 25 -14 39 -26 37 -32 44 -117 14 -179 -27 -57 -73 -79 -151 -73
-45 3 -59 9 -82 35 -15 17 -31 31 -36 31 -16 0 -50 45 -62 82 -16 50 0 261 21
274 5 3 9 12 9 20 0 8 9 27 20 42 12 16 28 54 36 85 18 71 8 97 -39 97 -26 0
-41 -10 -79 -51z m-26 -263 c4 -6 1 -18 -7 -26 -22 -24 -100 -13 -100 15 0 31
88 41 107 11z m-38 -121 c20 -8 36 -17 36 -19 0 -2 -16 -13 -35 -25 -19 -11
-35 -27 -35 -36 0 -25 -24 -17 -42 16 -17 30 -17 31 7 55 29 28 24 28 69 9z
m592 -11 c6 -8 16 -14 23 -14 16 0 14 -16 -5 -34 -19 -20 -18 -19 -54 -1 -17
9 -32 15 -35 15 -21 -1 -25 2 -25 14 0 8 7 22 16 30 18 18 62 12 80 -10z
m-491 -168 c14 -15 23 -31 20 -35 -2 -5 -36 -9 -74 -10 -58 -1 -72 2 -80 16
-30 57 85 81 134 29z m516 2 c3 -28 -3 -44 -23 -60 -25 -22 -48 -23 -48 -4 0
9 -12 16 -27 18 -34 4 -46 44 -16 50 55 10 113 8 114 -4z m-416 -130 c3 -8 25
-13 58 -13 28 0 67 -6 86 -13 18 -7 45 -12 60 -11 46 4 92 -11 89 -29 -3 -15
-24 -17 -158 -21 -252 -5 -277 -5 -358 12 -29 6 -51 15 -49 21 8 24 92 44 180
42 72 -1 84 1 70 12 -16 11 -16 12 0 12 10 0 20 -6 22 -12z m74 -205 c14 -10
33 -21 41 -24 31 -14 -46 -30 -145 -31 -55 0 -111 -5 -124 -10 -24 -9 -91 2
-153 24 l-28 10 36 19 c29 14 59 18 161 18 68 -1 126 1 128 3 12 11 62 6 84
-9z m-77 -185 c12 -9 19 -20 15 -24 -11 -11 -266 -12 -307 -1 -56 14 -38 27
60 40 69 9 209 0 232 -15z m-153 -149 c23 -8 31 -17 31 -35 0 -18 -6 -24 -22
-25 -13 -1 -48 -3 -78 -5 -84 -5 -130 4 -130 26 0 21 15 27 85 36 27 3 52 7
54 10 7 7 26 5 60 -7z m-90 -190 c19 -32 2 -40 -75 -37 -61 3 -69 5 -69 22 0
16 11 22 55 31 64 13 71 11 89 -16z m-145 -185 c-31 -27 -27 -26 -48 -18 -42
16 2 55 52 46 l24 -5 -28 -23z"/>
<path d="M1483 4694 c-51 -25 -93 -51 -93 -56 0 -6 -11 -21 -24 -33 -16 -15
-26 -38 -31 -76 -4 -30 -13 -73 -20 -95 -9 -30 -9 -47 -2 -60 6 -11 12 -25 13
-32 8 -46 44 -59 60 -21 8 16 34 27 119 50 61 15 125 28 143 29 36 0 81 -19
102 -44 9 -12 16 -13 26 -5 31 25 168 46 189 29 19 -16 19 -57 1 -67 -27 -15
-132 -3 -155 18 -17 16 -21 17 -21 5 0 -8 6 -19 14 -23 7 -4 26 -28 41 -53 15
-25 34 -49 41 -53 9 -5 14 -26 14 -52 0 -25 5 -45 12 -47 7 -3 13 -18 14 -34
3 -50 15 -137 25 -174 15 -58 11 -84 -22 -128 -17 -23 -28 -42 -25 -42 4 0 2
-9 -4 -21 -10 -19 -10 -20 9 -10 15 9 20 8 23 -3 4 -19 127 -146 140 -146 15
0 37 -32 38 -53 0 -9 4 -25 9 -35 27 -53 61 -132 61 -143 0 -7 10 -23 22 -36
16 -18 21 -34 19 -72 -1 -28 3 -69 8 -93 7 -31 6 -50 -4 -73 -7 -16 -15 -56
-18 -87 -10 -111 -91 -186 -185 -172 -60 9 -106 40 -172 114 -55 64 -70 72
-70 39 0 -30 11 -46 85 -124 71 -76 110 -138 101 -162 -9 -21 33 -88 93 -151
28 -29 60 -72 70 -95 137 -300 161 -366 176 -477 7 -51 70 -244 90 -276 7 -11
35 -44 62 -73 26 -29 60 -74 75 -99 15 -26 28 -44 28 -39 0 4 31 -9 69 -29 60
-31 79 -36 138 -36 88 0 123 -17 145 -68 11 -27 23 -40 36 -40 27 0 34 -11 16
-25 -14 -10 -14 -15 -1 -46 19 -47 84 -104 102 -89 19 16 93 9 111 -11 8 -9
29 -23 45 -29 33 -14 37 -35 12 -62 -16 -18 -17 -18 -37 1 -37 34 -86 41 -134
19 -53 -25 -111 -90 -114 -126 -1 -15 -2 -36 -3 -47 -2 -30 20 -109 41 -144
21 -35 84 -83 133 -99 19 -7 64 -12 101 -12 55 0 73 5 111 28 58 37 114 100
129 146 8 25 18 36 31 36 10 0 19 -4 19 -9 0 -4 11 -20 25 -35 14 -15 23 -31
20 -36 -3 -5 5 -16 19 -25 13 -9 26 -24 29 -34 6 -26 52 -54 91 -57 17 -1 54
-5 82 -9 55 -7 100 10 189 73 52 36 61 59 69 164 7 86 6 88 -19 112 -15 13
-31 28 -36 33 -5 4 -23 24 -41 44 -29 31 -39 36 -75 35 -24 -1 -43 0 -43 2 0
2 17 10 38 19 l37 16 -32 10 c-48 14 -40 29 13 25 48 -3 47 -3 72 50 5 9 23
25 41 34 18 9 43 25 55 35 11 11 44 28 71 40 81 34 190 73 203 73 6 0 26 17
44 37 18 21 85 89 148 153 117 116 147 161 155 230 2 19 6 46 9 60 4 14 8 47
11 75 9 77 34 165 66 227 16 31 39 83 51 115 11 32 35 72 52 89 63 63 124 141
139 175 8 20 27 46 43 58 15 12 41 44 58 70 17 27 44 68 60 92 93 138 100 155
69 180 -14 12 -17 12 -21 0 -9 -27 -74 -90 -115 -111 -23 -12 -57 -35 -74 -51
-37 -32 -51 -30 -120 15 -58 39 -73 52 -73 67 0 8 -7 23 -15 33 -29 38 -17
183 25 322 6 17 10 44 10 62 0 45 16 79 40 87 13 4 29 25 41 52 10 24 26 51
34 60 18 17 48 73 40 73 -3 0 1 14 10 30 9 17 19 30 23 30 5 0 17 8 28 18 41
37 107 81 116 76 12 -7 10 0 -7 32 -8 16 -15 41 -15 55 0 15 -12 48 -27 75
-22 40 -27 60 -27 116 1 56 5 73 23 91 11 13 21 31 21 40 0 9 11 38 25 64 13
27 27 56 29 66 3 9 13 17 23 18 10 0 34 20 53 43 19 24 44 49 55 56 37 24 118
20 237 -12 62 -17 124 -31 138 -32 25 -1 25 0 23 69 -3 64 -18 137 -45 208
-14 36 -77 89 -128 110 -26 10 -67 15 -113 14 -120 -3 -203 -57 -344 -225 -27
-31 -64 -73 -83 -93 -33 -33 -142 -174 -206 -265 -130 -186 -368 -428 -555
-565 -134 -98 -137 -101 -136 -137 1 -51 -134 -324 -183 -369 -108 -100 -162
-143 -177 -143 -10 0 -44 -18 -75 -39 -53 -36 -63 -39 -131 -40 -60 -1 -79 3
-100 19 -13 11 -49 25 -78 31 -75 16 -144 53 -165 89 -16 27 -26 34 -44 32 -3
0 -21 22 -40 51 -19 28 -50 71 -68 95 -53 70 -93 154 -97 205 -4 62 -33 147
-50 147 -35 0 -178 116 -313 253 -31 32 -109 111 -173 175 -109 111 -117 122
-149 205 -39 97 -60 127 -105 145 -19 8 -39 29 -53 55 -12 23 -35 58 -50 76
-38 49 -232 241 -242 241 -5 0 -32 14 -61 31 -28 16 -70 34 -93 39 -23 5 -52
12 -66 15 -18 4 -51 -7 -117 -41z m4015 -70 c14 -4 22 -13 20 -23 -3 -13 -19
-16 -90 -17 -47 -1 -91 -4 -96 -8 -18 -11 -21 6 -5 30 14 21 23 24 82 24 36 0
76 -3 89 -6z m-3867 -19 c9 2 25 6 36 9 24 8 46 -15 37 -38 -7 -18 -8 -18 -84
-16 -71 1 -92 8 -88 28 4 19 46 32 68 22 8 -4 22 -6 31 -5z m3714 -72 c137 -3
177 -9 220 -32 56 -30 27 -41 -104 -41 -158 0 -252 10 -258 27 -9 22 6 65 20
56 6 -4 61 -8 122 -10z m-3627 -65 c8 -8 9 -15 1 -25 -8 -9 -43 -13 -125 -13
-126 0 -185 16 -157 43 12 13 268 8 281 -5z m3476 -77 c14 -16 15 -23 6 -41
-10 -18 -17 -20 -63 -15 -62 7 -81 20 -67 45 9 17 26 22 91 28 9 1 24 -7 33
-17z m-104 -143 c36 -43 26 -53 -58 -50 -31 1 -81 35 -82 55 0 13 43 25 83 22
25 -2 44 -11 57 -27z m-2984 11 c3 -5 16 -9 29 -9 31 0 39 -14 19 -34 -20 -21
-58 -30 -93 -23 -16 4 -42 2 -59 -2 -25 -8 -31 -5 -46 19 -15 26 -15 30 -1 44
18 17 141 21 151 5z m80 -159 c77 -9 87 -15 79 -48 -9 -38 -21 -41 -79 -26
-28 8 -80 13 -116 12 -74 -2 -110 7 -110 27 0 19 16 27 58 32 19 2 42 8 51 13
9 6 25 7 36 4 11 -3 48 -9 81 -14z m2846 -22 c23 -31 23 -58 -1 -58 -10 0 -24
6 -30 14 -6 7 -21 11 -34 9 -34 -7 -77 13 -77 36 0 38 113 37 142 -1z m-2687
-158 c3 0 5 -6 5 -14 0 -24 -30 -29 -182 -32 -130 -2 -150 0 -170 16 l-23 18
39 16 c30 12 57 15 120 10 67 -6 84 -4 95 9 11 15 17 14 62 -3 27 -11 52 -20
54 -20z m2686 13 c7 -7 9 -23 5 -37 -7 -29 -16 -30 -118 -17 -31 4 -65 4 -76
0 -25 -9 -78 31 -69 53 5 14 25 16 126 14 73 -1 126 -7 132 -13z m9 -163 c18
-10 18 -12 2 -39 -14 -26 -22 -30 -57 -28 -22 0 -71 -1 -110 -3 -38 -1 -81 0
-95 3 -14 4 -59 9 -100 12 -77 5 -100 18 -100 56 0 16 18 17 221 13 121 -2
229 -9 239 -14z m-2770 -3 c58 1 124 3 146 4 25 1 51 -5 65 -14 l22 -16 -27
-11 c-24 -9 -155 -18 -354 -24 -39 -1 -74 3 -93 13 l-31 14 29 15 c15 9 41 16
56 18 15 1 31 4 34 7 3 3 15 3 27 -1 11 -4 68 -6 126 -5z m313 -180 c115 -4
154 -14 131 -37 -9 -9 -152 -33 -170 -29 -5 1 -26 -1 -47 -5 -28 -6 -43 -4
-63 9 -18 11 -41 15 -77 13 -48 -2 -117 16 -117 31 0 10 75 31 78 22 3 -8 112
5 121 14 2 3 9 1 16 -5 6 -5 64 -11 128 -13z m2113 13 c114 1 134 -2 154 -18
16 -13 21 -25 17 -36 -7 -17 -22 -18 -200 -12 -105 4 -201 9 -212 11 -11 2
-25 4 -32 4 -7 1 -17 11 -24 22 -17 33 5 40 91 34 41 -4 134 -6 206 -5z
m-2219 -174 c26 -4 58 -1 85 8 51 16 164 13 243 -8 30 -7 56 -11 59 -8 3 2 8
-3 12 -12 12 -31 -12 -39 -118 -41 -57 -1 -124 -7 -149 -12 -25 -5 -54 -8 -65
-6 -10 2 -64 6 -119 8 -55 3 -112 5 -127 6 -22 1 -27 6 -24 23 2 16 13 23 44
29 23 4 54 14 69 22 15 8 32 10 37 6 6 -5 30 -11 53 -15z m2198 -10 c61 -5
127 -16 138 -23 4 -2 7 -13 7 -24 0 -17 -7 -19 -59 -19 -33 0 -62 4 -65 9 -9
13 -130 23 -284 23 -77 0 -150 4 -166 10 -27 11 -27 12 -10 25 15 11 57 13
204 9 102 -3 208 -8 235 -10z m-192 -123 c20 7 35 6 51 -2 16 -9 29 -9 50 -1
23 8 34 7 61 -10 18 -11 53 -23 79 -26 50 -7 55 -14 29 -35 -12 -11 -45 -13
-137 -10 -193 5 -306 5 -374 -3 -44 -5 -68 -4 -78 5 -21 17 -17 25 19 39 17 8
39 19 47 26 17 14 170 24 205 13 11 -3 33 -2 48 4z m-1691 -29 c91 1 108 -1
117 -17 9 -14 6 -20 -21 -37 -18 -11 -44 -21 -58 -21 -65 -4 -333 2 -341 6 -5
3 -32 9 -61 12 -29 3 -66 12 -82 18 l-28 12 45 12 c25 6 76 11 114 12 37 0 76
4 87 8 10 4 41 4 70 0 28 -3 99 -6 158 -5z m-332 -163 c19 -1 127 -3 240 -5
113 -2 221 -7 240 -11 19 -5 39 -9 44 -9 5 -1 11 -6 13 -12 6 -18 -79 -34
-212 -40 -251 -12 -359 -4 -423 30 -25 14 -25 15 -5 16 12 0 30 11 40 24 10
13 20 20 23 16 3 -4 21 -8 40 -9z m2072 -5 c140 -2 194 -13 186 -38 -2 -6 -61
-12 -155 -14 -83 -2 -162 -8 -175 -13 -14 -5 -30 -6 -36 -2 -6 4 -46 8 -89 9
-43 2 -87 5 -98 7 -11 2 -37 4 -57 4 -26 1 -40 7 -47 20 -9 17 -6 19 37 21 65
3 93 3 122 1 30 -3 122 8 129 14 2 3 13 3 22 0 10 -4 83 -7 161 -9z m-1842
-176 c14 -5 108 -7 210 -6 102 1 190 -1 195 -5 6 -4 23 -9 40 -11 18 -2 31
-10 33 -20 3 -15 -5 -17 -62 -14 -36 2 -83 0 -103 -4 -64 -14 -186 -17 -233
-5 -50 12 -298 13 -372 1 -55 -9 -72 -3 -59 23 9 16 68 32 171 47 18 2 36 7
39 9 6 7 110 -5 141 -15z m1749 5 c128 -4 244 -10 256 -15 17 -7 22 -14 18
-30 -7 -27 -42 -34 -116 -24 -34 5 -160 8 -279 7 -120 0 -216 3 -213 8 3 4
-29 9 -72 9 -43 0 -91 2 -106 3 -28 3 -50 24 -41 39 3 4 54 6 115 3 60 -2 120
0 132 5 12 4 33 7 47 5 14 -2 130 -7 259 -10z m-289 -150 c47 -2 155 -7 240
-11 150 -7 209 -7 336 1 42 2 72 -2 100 -14 28 -13 47 -15 69 -9 31 8 55 4 55
-10 0 -16 -56 -39 -85 -34 -56 9 -1164 -3 -1210 -13 -35 -8 -172 -8 -265 -1
-74 6 -194 8 -325 4 -49 -1 -213 1 -362 5 -250 6 -273 5 -273 -10 0 -15 -2
-14 -14 2 -11 15 -27 19 -72 19 -33 1 -72 -3 -87 -8 l-29 -9 16 31 c20 39 42
51 81 46 62 -9 215 -13 219 -5 3 4 35 2 73 -4 37 -7 75 -8 84 -4 21 10 222 21
364 20 155 -2 309 -3 385 -3 36 0 110 1 165 1 120 0 318 11 325 18 3 2 32 2
65 -2 33 -4 98 -8 145 -10z m75 -161 c138 -2 300 -5 360 -8 61 -2 135 -5 166
-6 73 -3 84 -9 68 -43 -15 -33 -30 -39 -67 -25 -21 8 -57 9 -128 1 -55 -5
-236 -11 -404 -12 -168 -1 -328 -5 -355 -9 -61 -8 -495 -7 -705 1 -85 4 -292
9 -460 12 -285 5 -429 12 -439 21 -13 12 31 35 74 40 28 3 255 8 505 9 250 2
460 4 465 5 6 1 19 1 30 1 11 -1 70 0 130 2 61 2 160 5 222 7 62 1 127 6 145
10 18 5 58 6 88 3 30 -4 168 -7 305 -9z m-1361 -193 c21 -1 47 -6 56 -11 10
-5 30 -6 47 -1 16 5 59 7 94 4 49 -4 650 -6 859 -3 19 0 60 -1 90 -2 30 0 109
2 175 6 66 5 140 8 165 8 39 1 421 -10 428 -11 1 -1 2 -12 2 -25 0 -28 -34
-41 -72 -28 -13 4 -45 7 -73 6 -27 -1 -111 -5 -185 -8 -116 -5 -1199 -18
-1540 -18 -156 0 -423 10 -486 17 -33 4 -54 3 -58 -4 -13 -20 -36 -12 -36 13
0 32 11 35 168 40 72 3 138 9 145 13 16 10 148 20 167 12 8 -3 33 -7 54 -8z
m401 -172 c83 1 258 3 390 6 132 2 260 3 285 3 81 -2 224 0 290 5 36 2 76 0
89 -5 15 -5 28 -5 37 3 8 7 25 8 46 3 18 -4 35 -8 38 -9 3 0 11 -4 18 -8 6 -5
16 -5 22 -2 5 3 19 0 31 -8 13 -10 31 -12 52 -8 45 10 50 9 75 -15 30 -28 18
-35 -55 -33 -164 5 -218 2 -393 -18 -62 -8 -57 -8 -309 1 -121 4 -198 2 -224
-5 -44 -12 -66 -12 -377 -4 -113 3 -304 7 -425 9 -121 2 -242 7 -270 11 -27 4
-79 8 -115 9 -62 1 -65 2 -65 26 0 18 5 24 18 22 10 -2 16 3 15 10 -3 13 1 13
182 8 36 -1 121 -1 190 2 73 2 132 -1 142 -6 12 -7 30 -6 60 5 32 12 50 14 73
6 17 -5 98 -9 180 -8z m-127 -168 c8 -4 34 -4 58 1 30 7 49 6 57 -1 7 -5 42
-11 78 -12 132 -3 249 -1 284 5 11 2 30 0 42 -5 20 -7 112 -18 178 -20 17 -1
109 2 205 7 205 9 216 9 295 2 34 -3 65 -1 73 5 8 6 26 6 55 -2 23 -6 58 -12
77 -13 23 -2 35 -8 35 -18 0 -10 -12 -16 -35 -17 -48 -4 -939 -13 -1525 -16
-356 -2 -486 -6 -502 -15 -34 -19 -63 -15 -63 8 0 10 -8 24 -17 29 -16 9 -15
11 7 11 14 1 34 3 45 6 28 6 249 15 444 18 141 2 164 5 173 19 10 19 17 21 36
8z m-368 -183 c102 0 271 0 375 0 324 -1 339 -1 395 2 30 1 109 0 175 -3 73
-3 125 -1 132 5 7 5 22 6 35 2 13 -4 95 -8 183 -10 88 -1 192 -5 230 -9 39 -4
96 -8 127 -9 81 -3 107 -37 38 -49 -14 -3 -37 -8 -51 -12 -21 -5 -27 -3 -32
15 -6 21 -6 21 -239 14 -219 -6 -284 -7 -633 -4 -114 1 -150 -2 -195 -18 -30
-10 -64 -17 -75 -14 -11 3 -47 6 -80 7 -33 1 -80 6 -105 10 -25 4 -139 9 -255
10 -182 2 -259 7 -338 19 -60 9 22 55 85 48 24 -3 126 -5 228 -4z m74 -182
c32 2 61 5 64 8 2 3 13 1 23 -4 12 -7 20 -7 24 0 4 6 12 7 18 3 9 -6 111 -14
162 -14 39 0 95 8 101 14 4 4 15 0 24 -8 13 -12 23 -13 42 -6 16 6 29 6 35 0
5 -5 37 -3 80 5 79 15 273 13 315 -3 14 -5 28 -8 31 -5 2 3 90 4 193 3 104 -1
262 -2 352 -3 89 0 162 -4 162 -7 0 -14 -34 -19 -115 -19 -45 0 -100 -6 -121
-13 -40 -14 -202 -14 -387 -2 -122 8 -368 7 -437 -2 -58 -8 -573 -7 -720 2
-47 2 -95 5 -108 5 -13 0 -21 4 -18 8 7 12 107 33 131 28 12 -2 32 2 45 9 14
7 29 10 35 5 5 -4 36 -6 69 -4z m586 -142 c69 -3 130 -5 135 -5 6 0 37 2 70 5
63 6 140 7 425 4 96 0 196 2 221 7 31 5 49 4 53 -4 13 -21 -5 -51 -44 -71 -30
-15 -44 -17 -71 -9 -34 9 -366 12 -509 3 -41 -2 -264 -5 -495 -7 -231 -1 -425
-6 -431 -9 -12 -8 -84 27 -96 45 -4 6 -2 17 4 24 9 11 14 11 28 -2 11 -10 27
-14 41 -10 13 3 62 7 109 9 47 2 114 11 150 19 36 9 82 14 103 13 22 -2 53 0
70 4 18 3 50 2 72 -3 22 -5 96 -11 165 -13z m-5 -194 c0 -16 -54 -39 -97 -39
-15 -1 -30 -5 -33 -11 -8 -13 -56 -13 -89 -1 -31 12 -25 51 8 52 35 1 100 10
104 14 2 2 27 3 56 2 38 -2 51 -6 51 -17z m340 -6 c113 -3 105 -3 105 -12 0
-33 -208 -57 -259 -30 -34 18 -38 38 -7 38 13 0 28 5 31 11 4 6 14 7 24 3 9
-4 57 -9 106 -10z m-179 -181 c42 -27 53 -47 59 -108 3 -31 27 -94 40 -105 13
-11 15 -8 16 16 1 16 2 36 3 44 1 17 65 62 77 54 5 -3 2 -15 -6 -27 -24 -37
-46 -111 -40 -134 3 -13 23 -35 45 -49 22 -15 38 -29 35 -32 -9 -9 17 -32 36
-32 10 0 23 9 29 20 9 17 5 25 -22 49 l-33 30 22 22 21 22 44 -34 c24 -18 46
-38 50 -44 9 -11 1 -63 -17 -115 -11 -32 -13 -33 -19 -13 -10 32 -32 35 -65 7
-23 -19 -32 -22 -38 -12 -9 14 -63 51 -134 91 -46 26 -99 90 -99 119 0 9 -4
19 -9 22 -5 3 -14 26 -20 50 -14 57 -60 95 -85 71 -8 -9 -18 -42 -22 -74 -3
-33 -14 -70 -23 -83 -22 -34 -76 -79 -133 -112 -25 -15 -52 -33 -58 -41 -7 -8
-27 -15 -44 -15 -18 0 -38 -6 -45 -12 -10 -11 -14 -10 -22 5 -6 9 -18 17 -28
17 -28 0 -29 9 -22 132 2 51 88 102 120 72 8 -7 13 -15 10 -16 -2 -2 -17 -10
-33 -18 -23 -12 -29 -22 -31 -53 -4 -70 44 -87 118 -41 23 15 46 33 50 40 4 8
21 21 37 29 16 8 36 27 44 42 26 49 74 152 82 175 11 37 35 68 52 68 8 0 34
-12 58 -27z m-236 -456 c0 -10 -15 -38 -36 -65 -9 -12 -80 -19 -110 -10 l-36
9 42 31 c55 41 140 62 140 35z m418 -23 c47 -18 76 -24 101 -20 34 5 35 4 16
-10 -40 -31 -71 -42 -111 -39 -40 2 -83 19 -85 33 -7 43 -6 62 3 62 6 0 41
-12 76 -26z"/>
<path d="M2458 4528 c-10 -10 -17 -21 -17 -25 3 -21 -3 -32 -19 -37 -24 -8
-72 -81 -72 -111 0 -12 -9 -34 -21 -49 l-21 -27 33 -67 c50 -100 90 -156 195
-277 14 -16 46 -61 70 -100 24 -38 47 -73 51 -77 5 -4 59 -57 122 -117 80 -79
111 -103 107 -86 -7 27 28 131 49 142 7 5 25 36 39 71 40 95 42 91 -139 277
-172 176 -216 231 -259 322 -9 17 -34 52 -56 78 -30 35 -39 52 -34 70 7 30 -6
37 -28 13z"/>
<path d="M4560 4494 c-8 -9 -19 -24 -25 -34 -5 -10 -35 -56 -66 -102 -30 -45
-67 -101 -81 -123 -14 -22 -43 -58 -64 -81 -22 -22 -48 -52 -59 -65 -117 -141
-107 -134 -217 -148 -3 -1 -16 -16 -27 -34 -25 -41 -19 -72 32 -146 25 -36 38
-67 42 -106 8 -58 13 -62 48 -43 12 6 45 17 73 24 31 7 74 28 107 53 75 55
197 175 197 194 0 8 11 18 25 21 18 5 41 30 72 79 26 40 63 95 84 122 85 116
87 164 9 236 -30 27 -50 54 -50 67 0 12 -9 29 -19 39 -10 10 -20 27 -23 38 -4
25 -40 31 -58 9z"/>
<path d="M1132 4409 c-49 -19 -142 -135 -142 -175 0 -12 -6 -24 -14 -27 -7 -3
-18 -24 -24 -47 -16 -63 25 -267 62 -310 7 -8 26 -39 41 -67 27 -51 28 -54 10
-73 -15 -16 -16 -25 -8 -43 10 -21 16 -23 60 -20 26 3 61 11 76 18 16 8 63 17
105 21 101 9 114 15 101 53 -6 17 -21 37 -35 46 -17 11 -24 24 -22 43 1 17 -8
41 -24 63 -14 19 -29 50 -32 70 -3 20 -16 72 -30 115 -30 98 -41 170 -37 255
2 62 1 66 -24 77 -30 14 -32 14 -63 1z"/>
<path d="M5853 4383 c-8 -30 -10 -142 -4 -210 3 -29 -1 -49 -11 -60 -8 -10
-30 -47 -49 -83 -18 -36 -61 -107 -95 -157 -60 -89 -62 -94 -46 -113 28 -34
57 -38 228 -32 47 2 55 6 108 58 79 78 87 102 91 268 l4 139 -42 80 c-33 63
-51 86 -86 109 -58 37 -88 37 -98 1z"/>
<path d="M5325 4301 c-77 -49 -83 -57 -95 -121 -6 -29 -16 -65 -23 -80 -8 -14
-12 -35 -10 -46 2 -10 6 -57 8 -104 4 -108 11 -147 30 -176 15 -23 20 -24 131
-23 64 0 123 3 131 6 7 3 23 24 35 47 11 22 31 52 44 66 27 29 41 88 22 95 -7
2 -32 9 -56 15 -24 6 -52 20 -63 31 -10 10 -25 19 -32 19 -7 0 -23 11 -35 25
-13 14 -34 30 -48 35 -22 9 -24 14 -20 52 9 69 45 87 66 32 13 -33 22 -30 54
18 55 84 41 135 -41 144 -32 4 -48 -2 -98 -35z"/>
<path d="M1625 4287 c-11 -7 -22 -13 -24 -15 -2 -1 -5 -24 -7 -51 -1 -26 -5
-58 -9 -70 -4 -12 -2 -21 4 -21 6 0 14 0 19 0 4 0 7 4 7 9 0 14 9 20 36 24 36
6 57 -9 65 -48 11 -58 -11 -78 -123 -114 -54 -17 -109 -33 -122 -36 -32 -6
-46 -21 -66 -67 -15 -38 -15 -38 18 -75 19 -21 39 -48 46 -61 20 -38 70 -51
178 -46 120 5 147 19 187 97 27 53 29 66 29 160 0 78 -5 112 -18 138 -32 61
-56 89 -96 109 -21 11 -39 27 -39 35 0 15 -37 45 -55 44 -5 0 -19 -6 -30 -12z"/>
<path d="M5572 4287 c-5 -6 -13 -41 -16 -76 -3 -34 -10 -70 -15 -78 -4 -8 -6
-26 -3 -40 5 -29 37 -43 103 -49 43 -3 46 -2 57 29 6 18 14 57 17 87 4 30 8
57 10 60 1 3 -1 15 -6 27 -5 15 -22 26 -51 34 -70 19 -85 20 -96 6z"/>
<path d="M1422 4270 c-50 -18 -55 -18 -78 -3 -19 12 -28 13 -36 5 -14 -14 -13
-104 1 -131 6 -11 11 -37 11 -58 0 -50 21 -88 46 -86 10 1 39 7 64 13 25 7 52
13 60 15 21 3 15 40 -17 101 l-26 50 21 30 c12 16 24 41 28 57 7 32 0 33 -74
7z"/>
<path d="M3240 3898 c-19 -13 -46 -43 -58 -66 -13 -23 -36 -49 -51 -57 -33
-17 -91 -80 -91 -99 0 -7 -7 -26 -15 -43 -8 -16 -12 -40 -9 -54 3 -13 7 -57 9
-96 2 -40 9 -92 16 -115 13 -50 17 -68 18 -85 1 -7 22 -34 47 -60 25 -25 54
-65 64 -87 17 -41 73 -105 117 -133 31 -20 78 -2 99 38 14 28 16 119 2 119 -4
0 -7 28 -6 62 2 57 0 63 -29 87 -36 31 -56 86 -55 155 1 61 21 113 63 161 31
35 32 37 31 143 0 150 2 146 -63 150 -44 2 -61 -2 -89 -20z"/>
<path d="M3712 3853 c-6 -11 -13 -59 -17 -107 -5 -70 -3 -93 10 -112 8 -13 15
-32 15 -42 0 -11 7 -25 16 -32 41 -35 52 -132 25 -227 -13 -47 -55 -103 -77
-103 -8 0 -18 -10 -23 -22 -9 -25 -7 -148 4 -196 10 -43 42 -60 83 -43 38 16
182 165 182 189 0 10 7 27 15 38 8 10 15 26 15 35 0 9 9 42 19 75 29 87 32
108 32 228 0 102 -2 111 -24 135 -14 14 -30 42 -36 61 -15 46 -110 123 -154
126 -18 1 -42 5 -54 9 -15 5 -24 2 -31 -12z"/>
<path d="M3470 3520 c-27 -6 -40 -43 -31 -89 5 -33 74 -64 108 -48 41 18 48
85 12 123 -22 23 -39 26 -89 14z"/>
<path d="M3471 3192 c-8 -16 -24 -81 -26 -107 -3 -46 17 -151 31 -166 19 -22
73 -25 122 -8 28 10 30 13 21 31 -6 11 -12 30 -14 42 -1 11 -7 53 -13 91 -7
39 -14 84 -16 100 -2 17 -5 31 -5 32 -1 1 -13 -2 -27 -7 -17 -7 -32 -7 -44 0
-15 8 -21 6 -29 -8z"/>
<path d="M3460 659 c-25 -28 -46 -51 -48 -53 -2 -2 -5 -18 -7 -36 -2 -17 -15
-44 -28 -60 -43 -51 -18 -128 51 -157 69 -30 150 -15 195 35 27 30 31 94 8
123 -10 13 -22 39 -25 56 -4 18 -25 54 -47 80 -21 26 -39 51 -39 55 0 17 -17
5 -60 -43z"/>
</g>
</svg>
