<svg xmlns="http://www.w3.org/2000/svg" width="19.97" height="10.3" viewBox="0 0 19.97 10.3" fill="currentColor"><path d="M.14,10.22c-.14-.07-.14-.14-.14-.22,0-.14,.43-.29,1.3-.29,.72,0,1.37-.14,1.44-.22,.14-.14,.36-.22,.65-.29,.29-.07,.58-.22,.58-.29s.07-.14,.14-.14c.22,0,.36-.07,.94-.65,.14-.14,.36-.22,.58-.22,.36,0,2.52-2.23,2.88-2.95,.14-.29,.22-.58,.22-.79,0-.36-.22-.65-.65-.72-.58-.07-1.22-.65-1.22-1.01,0-.43,.36-1.37,.65-1.58,.36-.29,.94-.58,1.44-.79,.14-.07,.58-.07,.94-.07s.79,.14,.86,.36l.14,.43c.22,.58,.43,1.22,.43,2.16,0,1.58-.14,2.02-.72,2.02-.36,0-1.44,.86-3.1,2.52-.5,.5-1.01,.94-1.08,.94s-.5,.22-.86,.5c-.43,.36-.86,.5-1.01,.5s-.29,.07-.29,.22c0,.07-.43,.29-.79,.29-.43,0-.86,.07-1.01,.22-.14,.14-.72,.14-1.3,.14-.43,0-.86,0-1.01-.07Zm9.79,0c.22-.07,.36-.14,.36-.22s.5-.29,1.15-.29,1.3-.14,1.3-.22c0-.14,.36-.22,.65-.29,.29-.07,.58-.22,.58-.29s.07-.14,.22-.14c.22,0,.79-.5,1.94-1.51,.72-.65,2.02-2.81,1.94-3.24-.07-.29-.29-.43-.72-.5-.36-.07-.65-.22-.65-.29s-.14-.14-.36-.14c-.29,0-.36-.14-.36-.5,0-.94,.72-2.09,1.22-2.09,.07,0,.22-.07,.22-.22,0-.07,.07-.14,.29-.22,.22-.07,.43-.07,.58-.07,.36,0,.58,.07,.79,.29l.65,.79c.22,.29,.29,.5,.22,1.44-.07,.65-.36,1.3-.5,1.58-.14,.29-.36,.5-.36,.58,0,.22-.94,1.58-1.37,1.87-.22,.14-.29,.29-.29,.36,0,.29-1.51,1.66-2.23,1.94-.36,.14-.72,.36-.72,.43s-.22,.14-.43,.14c-.29,0-.43,.07-.43,.14s-.43,.22-.94,.29c-.5,.07-.86,.22-.94,.29-.07,.07-.5,.14-1.15,.14-.58,0-.86,0-.65-.07Z"/></svg>