<?xml version="1.0" encoding="utf-8"?>
<!-- Generator: Adobe Illustrator 27.0.0, SVG Export Plug-In . SVG Version: 6.00 Build 0)  -->
<svg version="1.1" id="Livello_1" xmlns="http://www.w3.org/2000/svg" xmlns:xlink="http://www.w3.org/1999/xlink" x="0px" y="0px"
	 viewBox="0 0 99.2 99.2" style="enable-background:new 0 0 99.2 99.2;" xml:space="preserve">
<style type="text/css">
	.st0{fill:#E3CC87;}
</style>
<path class="st0" d="M47.7,8.4c0,0.6,0.2,1.1,0.1,1.7c0,0.1,0.1,0.1,0.1,0.2c0,0.2,0,0.5,0.1,0.7c0,0.1-0.1,0.2-0.1,0.2
	c0.1,0.6,0.2,1.2,0.3,1.8c0.1,0.5,0.2,1.1-0.1,1.6c-0.1,0.1-0.1,0.3,0,0.4c0,0.2,0.2,0.5,0.2,0.7c0,0.7,0.3,1.4,0.3,2.2
	c0,0.6,0,1.2,0,1.8c0.1,1.3-0.2,2.6-0.2,3.8c0,0.6,0,1.2,0,1.8c0,0.3,0,0.6,0.1,0.9c0,0.4,0,0.7,0,1.1c0,0.6,0.1,1.1,0.2,1.7
	c0,0.1,0,0.2,0,0.4c0,0.6,0.1,1.3,0.1,1.9c0,0.5,0,1.1,0,1.6c0,0.1,0,0.2,0,0.3c0,0.3,0,0.7,0,1c0,0.8,0,1.7,0,2.5
	c0,0.5-0.1,1-0.1,1.5c0.1,1,0.2,1.9,0.3,2.9c0,0.3,0,0.6,0,0.9c0.1,0.5,0.1,1.1,0,1.6c0,0.2-0.1,0.4,0,0.6c0,0.4,0.1,0.8,0.1,1.2
	c0,0.3,0.1,0.6,0.1,1c0.1,0.4,0.4,0.5,0.7,0.4c0.1,0,0.2,0,0.3,0c0.5,0.2,0.5,0.2,0.8-0.1c0.2-0.2,0.3-0.5,0.3-0.8
	c0-0.5,0-1.1,0-1.6c0-0.3,0.1-0.5,0-0.8c0-0.4-0.1-0.8,0-1.2c0.1-0.3,0.2-0.6,0.2-1c0.1-0.3,0.2-0.7,0.2-1c0-0.4,0-0.7,0-1.1
	s0.1-0.7,0.1-1.1c0-0.4-0.1-0.8-0.2-1.3c0-0.2-0.1-0.4-0.1-0.6c0-0.6,0.1-1.2,0.2-1.7c0-0.4,0-0.8,0.1-1.2c0.1-0.4,0.1-0.7,0.1-1.1
	c0-0.4,0-0.8,0-1.1c0.1-0.7,0.1-1.4-0.1-2.1c-0.1-0.3-0.1-0.6-0.1-1c0-0.4,0.1-0.8,0-1.2c0-0.7-0.2-1.4-0.2-2.1c0-0.4,0-0.7,0-1.1
	c0-0.2,0.1-0.5,0.2-0.7c0.1-0.5,0.1-1.1,0.1-1.6c0.1-0.5,0.3-1,0.2-1.5c0-0.4,0-0.9,0-1.3c0-0.6,0-1.2,0.1-1.8c0-0.1,0-0.1,0-0.2
	c0-0.5-0.1-0.9-0.1-1.3c0-0.1,0-0.2,0-0.2c0-0.6,0.1-1.1,0.1-1.7c0-0.3,0-0.6,0-0.8s0-0.6,0-0.9c0-0.1,0-0.2,0-0.4
	c0.2-0.5,0.1-1.1-0.1-1.6c-0.1-0.2-0.1-0.5,0-0.7c0.1-0.4,0.2-0.8,0.3-1.2c0.1-0.3,0-0.6,0.1-1c0.1-0.1-0.3-0.6-0.4-0.6
	C52,6.3,51.9,6.1,51.8,6c0,0-0.1,0-0.1-0.1c-0.1,0-0.3-0.1-0.4-0.1c-0.2,0-0.4,0-0.5,0c-0.3,0-0.6,0.4-0.9,0h-0.1
	c-0.4,0.1-0.6-0.1-1-0.1c-0.1,0-0.4,0-0.5,0c-0.1,0.2-0.4,0.3-0.3,0.6c0.1,0.4,0,0.9-0.1,1.3c0.3,0.1,0.2,0.2,0.1,0.4
	c-0.1,0.1-0.1,0.2-0.1,0.4L47.7,8.4z"/>
<path class="st0" d="M50,51.4C50,51.4,50,51.4,50,51.4c0.1,0,0.2,0,0.2-0.1c0.1-0.1,0.4-0.2,0.4-0.3c0.1-0.2,0.2-0.6,0.2-0.8
	c0-0.4-0.4-1-0.9-1c-0.2,0-0.5,0.1-0.7,0.1c-0.4,0.1-0.5,0.2-0.5,0.6c0,0.1,0,0.2,0,0.4c0,0.3,0,0.6,0.2,0.7
	C49.3,51.2,49.7,51.3,50,51.4L50,51.4z"/>
<path class="st0" d="M49.3,57.9c0.1,0.2,0.4,0.3,0.6,0.2c0.4,0,0.8,0.1,1.1-0.2c0.2,0,0.3,0,0.4,0c0-0.1,0-0.3-0.1-0.4
	c0-0.1-0.1-0.1-0.2-0.2c0-0.1,0-0.3,0-0.4c0.1-0.2-0.1-0.4-0.1-0.5c-0.1-0.4-0.1-0.9-0.2-1.3c-0.1-0.4-0.1-0.7-0.1-1
	c0-0.1,0-0.2-0.1-0.4c-0.4,0.3-0.8,0.3-1.2,0.1c-0.2-0.1-0.2,0-0.3,0.2c0,0.4-0.1,0.7-0.2,1c0,0.1-0.1,0.2-0.1,0.4
	c0.1,0.7,0.1,1.3,0.2,2C49,57.6,49.1,57.7,49.3,57.9L49.3,57.9z"/>
<path class="st0" d="M47.9,53.9c0-0.4,0.2-0.7,0-1.1c-0.1-0.2-0.2-0.6-0.6-0.6c-0.1,0-0.2-0.2-0.2-0.3c-0.1-0.1-0.1-0.3-0.2-0.5
	c-0.2-0.6-0.3-1.3-0.1-2c0-0.2,0.1-0.3,0.2-0.5c0.1-0.6,0.5-1,0.9-1.4c0.1-0.1,0.2-0.2,0.2-0.4c0-0.4,0-0.7,0-1.1c0-0.1,0-0.3,0-0.4
	c0-0.4,0.1-0.8,0-1.1c0-0.2-0.1-0.4-0.1-0.5c0-0.2-0.1-0.4-0.4-0.3c0,0-0.1,0-0.2,0c-0.3,0-0.6-0.1-0.8-0.1c-0.1,0-0.3,0.2-0.4,0.2
	c-0.1,0-0.1,0.1-0.2,0.1c-0.1,0-0.2,0-0.3,0.1c-0.1,0.2-0.2,0.4-0.4,0.5c-0.3,0.4-0.3,1-0.9,1.2c-0.3,0.1-0.5,0.4-0.8,0.6
	c-0.2,0.2-0.5,0.5-0.5,0.8c0,0.1,0,0.3-0.1,0.4c-0.4,0.4-0.3,0.9-0.2,1.3c0.1,0.2,0.1,0.5,0.1,0.7c-0.1,0.7,0,1.4,0.2,2
	c0.1,0.2,0.1,0.5,0.2,0.7c0,0.4,0.1,0.7,0.4,1c0.2,0.2,0.4,0.5,0.6,0.6c0.2,0.1,0.5,0.5,0.5,0.7c0.1,0.3,0.2,0.5,0.4,0.8
	c0.1,0.2,0.3,0.4,0.5,0.6c0.2,0.2,0.5,0.4,0.7,0.6c0.3,0.3,0.6,0.4,1,0.2c0.6-0.3,1-1.1,0.7-1.7c-0.1-0.2-0.2-0.4,0.2-0.5
	C47.8,54.5,47.9,54.2,47.9,53.9L47.9,53.9z"/>
<path class="st0" d="M42.4,12.3c0,0.7,0.2,1.5,0.4,2.2c0.1,0.2,0.2,0.5,0.2,0.7c0.1,0.3,0,0.4-0.2,0.3c-0.2,0-0.2,0.1-0.2,0.2
	c0,0.4,0.1,0.8,0.1,1.2c0,0.2,0.2,0.5,0.2,0.7c0,0.1,0.1,0.1,0.1,0.2c0.1,0.4,0.1,0.8,0.2,1.3c0,0.2,0,0.4,0,0.6c0,0.3,0,0.6,0,0.9
	c0,0.2,0,0.4,0.2,0.3c0,0.2,0,0.4,0,0.5c0.1,0.1,0.1,0.2,0.1,0.4c0,0.1,0,0.1,0,0.2c0,0.4,0.1,0.7,0.1,1.1c0,0.3,0,0.6,0.2,0.8
	c0,0,0.1,0.1,0.1,0.2c0.1,0.9,0.2,1.8,0.2,2.7c0,0.1,0,0.2-0.1,0.3c-0.3,0.2-0.2,0.4-0.1,0.6c0.3,0.6,0.4,1.2,0.5,1.9
	c0,0.1,0,0.3,0,0.4c-0.1,0.5-0.1,1.1,0,1.6c0.2,1,0.5,1.9,0.4,3c-0.1,0.4,0,0.8,0,1.2c0.1,0.6,0.1,1.2,0.2,1.8
	c0.1,0.5,0.1,0.9,0.2,1.4c0.1,0.7,0.1,1.3,0.1,2c0,0.3,0,0.6,0.1,0.9c0.1,0.2,0.1,0.4,0.1,0.6c0,0.1,0,0.2,0.1,0.3c0,0,0.2,0,0.3,0
	c0.2-0.1,0.4-0.2,0.6-0.1c0.1,0,0.3,0,0.4-0.1c0.2,0,0.4-0.1,0.5-0.2c0.1,0,0.2-0.1,0.2-0.2c0-0.4,0-0.7,0-1c0.1-0.3,0-0.6,0-0.9
	c0-0.5-0.1-1.1-0.1-1.6c0-0.3,0-0.7,0-1c0-0.3-0.1-0.5-0.1-0.8c-0.1-0.6,0-1.2-0.2-1.8c-0.2-0.8-0.1-1.6,0-2.4
	c0-0.5,0.1-0.9,0.1-1.3c0-0.2-0.1-0.4,0-0.6c0-0.8,0-1.7,0.1-2.5c0-0.4,0-0.7,0.1-1.1c0-0.4,0.1-0.7,0.1-1.1c0-0.6-0.1-1.3-0.1-1.9
	c0-0.4-0.1-0.8-0.1-1.3c0-0.3,0-0.6,0-0.8c0-0.4-0.1-0.8-0.1-1.2c0-0.5-0.1-1.1,0-1.6c0-0.1,0.1-0.2,0.1-0.4c0-0.4-0.1-0.7-0.1-1.1
	c-0.1-0.1-0.2-0.1-0.4-0.2c0.2,0,0.2,0,0.4,0c0-0.1,0-0.1,0-0.1C47,17.2,47,16.9,47,16.7c0-0.5,0-0.9,0-1.4c0-0.2-0.1-0.4-0.1-0.6
	c0-0.4,0.2-0.8,0-1.1c0-0.1,0-0.1,0-0.2c0-0.5,0.1-1.1,0.1-1.6c0-0.6-0.1-1.3-0.2-1.9c0-0.4,0-0.7,0-1.1c0-0.4-0.4-0.6-0.7-0.5
	c-0.4,0.1-0.7,0.2-1.1,0.4c-0.2,0.1-0.5,0.2-0.7,0.3c-0.4,0.2-0.7,0.3-1.1,0.3c-0.2,0-0.3,0.1-0.4,0.3c-0.1,0.2-0.2,0.4-0.2,0.6
	c0,0.1,0,0.2,0,0.3c0,0.1,0,0.3,0,0.5c0,0.2-0.1,0.5-0.1,0.6c0.1,0.4,0.1,0.7,0,1.1L42.4,12.3z"/>
<path class="st0" d="M52.1,57c0,0,0.2,0.1,0.4,0.2c0.2,0.1,0.3,0.1,0.5,0c0.1-0.1,0.4-0.2,0.5-0.3c0.1,0,0.2-0.1,0.2-0.1
	c0.2-0.2,0.5-0.5,0.7-0.7c0.1-0.1,0.2-0.3,0.3-0.4c0.1-0.1,0.2-0.3,0.4-0.4c0.2-0.2,0.5-0.3,0.5-0.6c0-0.1,0.1-0.3,0.1-0.4
	c0.1-0.3,0.4-0.6,0.4-0.9c0.1-0.7,0.4-1.3,0.6-2c0.1-0.4,0.1-0.8,0.1-1.3c0-0.2,0.1-0.4,0.1-0.6c0-0.6-0.1-1.1-0.1-1.7
	c0-0.3-0.1-0.6-0.5-0.7c-0.1,0-0.1-0.1-0.1-0.2c-0.1-0.2-0.1-0.3-0.2-0.5c-0.1-0.2-0.1-0.4-0.2-0.5c0-0.1-0.1-0.1-0.2-0.2
	c-0.2-0.2-0.5-0.4-0.7-0.6c-0.4-0.3-0.6-0.7-1.2-0.5c-0.2,0.1-0.3,0-0.5-0.1c-0.2-0.2-0.4-0.2-0.6,0c-0.1,0.2-0.2,0.5-0.2,0.7
	c0,0.3,0,0.6,0,1c-0.1,0.6-0.3,1.2,0.3,1.7c0,0,0,0.1,0,0.2c0,0.3,0,0.5,0.3,0.7c0.1,0.1,0.2,0.1,0.2,0.2c0,0.4,0.5,0.7,0.3,1.2
	c0,0,0,0.1,0,0.1c0,0.1,0.1,0.2,0.1,0.4c-0.2,0.7-0.2,1.5-0.7,2.2c-0.2,0.2-0.4,0.4-0.6,0.5c-0.3,0.1-0.5,0.2-0.5,0.5
	c0,0.4,0,0.7-0.1,1.1c0,0.4,0,0.9,0.2,1.2c0.1,0.1,0.2,0.3,0.1,0.4C51.9,56.7,52.1,56.9,52.1,57L52.1,57z"/>
<path class="st0" d="M65.4,35.6c0.1-0.2-0.1-0.3-0.2-0.3c-0.1,0-0.2,0-0.2-0.1c-0.2,0.2-0.7,0.3-0.6,0.8c0,0-0.1,0.1-0.1,0.1
	c-0.2,0.2-0.4,0.3-0.5,0.5c-0.1,0.2-0.2,0.5-0.4,0.7c-0.4,0.6-0.8,1.2-1.2,1.9c-0.2,0.3-0.3,0.6-0.6,0.8c-0.1,0.1-0.2,0.2-0.3,0.3
	c-0.3,0.3-0.6,0.6-0.8,0.9c-0.2,0.3-0.5,0.6-0.7,0.8c-0.3,0.4-0.5,0.8-1,1.1c-0.1,0-0.3,0-0.4,0.1c-0.1,0.1-0.3,0.1-0.5,0.1
	c-0.2,0-0.5,0-0.7,0.2c-0.1,0.2-0.2,0.4-0.4,0.6c-0.2,0.3,0,0.6,0.1,0.9c0.2,0.6,0.8,1,1,1.7c0.2,0.5,0.2,0.9,0.2,1.3
	c0,0.2,0,0.2,0.2,0.2c0.4-0.2,0.8-0.4,1.3-0.5c0.1,0,0.2-0.1,0.3-0.1c0.2,0.1,0.5,0,0.7-0.2c0.1-0.1,0.1-0.1,0.2-0.2
	c0.1-0.1,0.1-0.1,0.2-0.1c0.2-0.2,0.5-0.3,0.7-0.5c0.2-0.1,0.3-0.3,0.5-0.4c0.1-0.1,0.2-0.2,0.3-0.3c0.2-0.2,0.5-0.5,0.8-0.7
	c0.2-0.2,0.4-0.4,0.5-0.6c0.1-0.1,0.1-0.2,0.2-0.3c0.1-0.3,0.2-0.5,0.6-0.5c0.1,0,0.2-0.1,0.3-0.2c0.2-0.4,0.5-0.7,0.7-1.1
	c0.2-0.4,0.5-0.8,0.8-1.2c0.2-0.3,0.4-0.5,0.6-0.8c0.2-0.3,0.3-0.7,0.5-1c0.1-0.2,0.3-0.4,0-0.6c0,0,0-0.1,0-0.1
	c0.1-0.3-0.1-0.6-0.3-0.7c-0.4-0.4-0.7-0.7-1.1-1c-0.1-0.1-0.1-0.2-0.1-0.2c0-0.1,0-0.2,0-0.4c0-0.2-0.1-0.4-0.4-0.4
	C65.5,35.9,65.4,35.7,65.4,35.6L65.4,35.6z"/>
<path class="st0" d="M52.7,38.4c0,0.2,0.1,0.5,0,0.7c-0.1,0.5-0.1,1,0,1.5c0,0.1,0,0.3-0.1,0.4c-0.1,0.1-0.1,0.2-0.1,0.4
	c0,0.1,0,0.2,0,0.2c0,0.3,0,0.5,0,0.8c0.2,0,0.4,0.1,0.6,0.1c0.3,0.1,0.7,0,0.9,0.5c0.2-0.5,0.4-1,0.3-1.5c-0.1-0.5,0-1-0.1-1.4
	c-0.1-0.4,0.2-0.7,0.4-1.1c0.1-0.4,0.2-0.8,0.4-1.3c0.1-0.5,0-1,0.2-1.4c0.2-0.8,0.3-1.6,0.4-2.5c0.1-0.6,0.2-1.3,0.3-1.9
	c0.1-0.5,0.1-1,0.1-1.4c0-0.6,0.1-1.2,0.2-1.8c0.1-0.5,0.2-1,0.2-1.4c0-0.4,0-0.7,0-1c0-0.2,0.2-0.4,0.2-0.6c0-0.5,0-1.1-0.1-1.6
	c0-0.2,0-0.4,0-0.6c0-0.1,0-0.3,0-0.5c0.3-0.6,0.5-1.2,0.4-1.8c0-0.3,0-0.6-0.1-0.9s0-0.5,0.1-0.7c0.2-0.5,0.6-0.8,0.6-1.4
	c0-0.1,0-0.3,0-0.5c0-0.2,0-0.4,0-0.7c0-0.2,0.1-0.5,0.1-0.7c0.1-0.5,0.2-0.9,0.1-1.4c0-0.1,0-0.1,0.1-0.2c0.2-0.6,0.3-1.2,0.3-1.8
	c0-0.4,0.1-0.7,0.1-1.1c0-0.3,0.1-0.6,0.1-0.9c0-0.3,0-0.6-0.1-1c0-0.1,0-0.1-0.1-0.2c-0.1-0.1-0.2-0.2-0.3-0.4
	c-0.1-0.1-0.2-0.2-0.3-0.2c-0.6-0.1-1.2-0.5-1.7-0.9c-0.1-0.1-0.2-0.1-0.3-0.1c-0.4-0.1-0.8-0.2-1.2-0.2c-0.3,0-0.6,0-0.9,0
	c-0.1,0-0.2,0.1-0.2,0.1c-0.1,0.2-0.1,0.5-0.1,0.8c0,0.5,0.2,1.1,0.2,1.6c0,0.1,0,0.2-0.1,0.3c0,0-0.1,0.1-0.1,0.1
	c0,0.3-0.1,0.6-0.1,1c0,0.3,0.1,0.6,0.1,0.9c0,0.5-0.1,1,0,1.4c0,0.5,0.1,0.9,0.1,1.4c0,0.1,0.1,0.2,0,0.4c0,0.3-0.1,0.6-0.1,0.8
	c0,0.6,0,1.2-0.1,1.7c0,0.3-0.1,0.6-0.1,0.8c-0.1,0.5-0.1,1-0.2,1.4c0,0.1,0,0.3,0,0.5c0,0.3-0.1,0.6-0.1,0.9c0,0.6,0,1.2,0,1.8
	c0,0.5,0,0.9,0,1.4c0,0.3,0,0.6,0,0.8c0,0.1,0,0.3,0,0.4c0,0.4-0.1,0.8-0.1,1.2c0,0.5,0.1,1,0.1,1.5c0,0.1,0,0.1,0,0.2
	c0,0.1,0,0.1,0,0.2c-0.3,0.3-0.2,0.8-0.3,1.2c0,0.2,0.1,0.5,0,0.7c-0.1,0.5,0,0.9,0.2,1.3c0,0.1,0,0.1,0,0.2c-0.1,0.3-0.1,0.6,0,0.9
	c0,0,0,0.1,0,0.1c-0.1,0.5-0.1,1.1-0.2,1.6c0,0.2-0.1,0.4-0.1,0.6c0,0.4-0.1,0.7-0.1,1.1c0,0.2,0.1,0.5,0.1,0.7L52.7,38.4z"/>
<path class="st0" d="M89.5,39.4c0,0,0-0.4-0.1-0.5c0-0.5,0.1-1-0.2-1.5c0-0.1-0.1-0.3-0.2-0.4l-0.1-0.2c-0.1-0.4-0.3-1-0.8-1.4
	c-0.2-0.2-0.7-0.5-1.3-0.8c-0.4-0.2-0.9-0.5-1.1-0.7c-0.3-0.2-0.6-0.4-0.8-0.5c-0.1-0.2-0.5-0.6-1-0.8c-0.3-0.1-0.3-0.1-0.4-0.3
	c-0.1-0.2-0.3-0.6-0.5-0.7c-0.2-0.1-0.4-0.3-0.6-0.3c-0.1-0.1-0.1-0.1-0.2-0.2c-0.2-0.1-0.5-0.3-0.7-0.5c-0.2-0.1-0.5-0.3-0.8-0.4
	c-0.2-0.1-0.5-0.2-0.7-0.2c0,0-0.1,0-0.1,0c-0.5-0.2-1-0.4-1.4-0.4c-0.2,0-0.5,0-0.7,0.1c-0.6-0.4-1.1-0.6-1.7-0.6
	c-0.1,0-0.2,0-0.2,0c-0.8,0.1-1.6,0.7-2.3,1.4l-0.2,0.2c0,0-0.1,0.1-0.2,0.1L73,31c-0.2,0.1-0.4,0.2-0.6,0.5c-0.5,0.6-1,1-1.4,1.3
	c0,0-0.1,0.1-0.2,0.1c0-0.5-0.2-0.8-0.4-1.1c0,0,0-0.1,0-0.1v-0.4c0,0,0-0.2,0-0.3c0.2-0.2,0.4-0.5,0.5-0.7c0.3-0.5,0.4-0.8,0.5-1.2
	l0.1-0.2c0.1-0.2,0.2-0.8,0-1.3l0,0c0,0,0.1-0.2,0.1-0.3l0.1-0.2c0.3-0.8,0.2-1.5,0.1-2c-0.1-0.4-0.2-0.7-0.3-1.1
	c-0.1-0.4-0.2-0.8-0.5-1.1c-0.1-0.3-0.3-0.5-0.4-0.6l-0.3-0.4c-0.1-0.2-0.2-0.4-0.4-0.6c-0.3-0.4-0.7-0.5-0.9-0.6
	c-0.2-0.1-0.4-0.1-0.5-0.2l-0.3-0.1L68,20.2c-0.2-0.1-0.5-0.2-0.7-0.2c-0.4-0.1-0.6-0.1-0.9-0.1h-0.2c0,0-0.3,0-0.4,0
	c-0.2,0-0.4,0-0.6,0.1c-0.3,0.1-0.6,0.2-0.8,0.3c-0.1,0-0.2,0.1-0.2,0.1l0.1-0.4l0.1-0.2c0.1-0.3,0.2-0.6,0.3-0.9
	c0.4-1.2-0.2-1.9-0.5-2.2c-0.3-0.2-0.6-0.4-0.9-0.6L63,15.8c-0.6-0.4-1.3-0.5-1.9-0.6h-0.2c0,0-0.1,0-0.1,0c0-0.2,0.1-0.4,0.1-0.6
	l0.1-0.4l0.1-0.4l0.1-0.7c0.1-0.6,0.2-1.2,0.2-1.8c0-0.2,0-0.6,0.1-1c0-0.4,0-0.7,0-0.8c0-0.4,0-0.7-0.1-0.9c0.1-0.3,0-0.6-0.1-0.8
	c-0.1-0.2-0.4-0.8-1.1-1c-0.1,0-0.5-0.2-0.7-0.3c-0.5-0.2-1-0.5-1.4-0.6c-0.2-0.1-0.4-0.2-0.6-0.3l-0.4-0.1
	c-0.2-0.1-0.4-0.1-0.5-0.2c-0.5-0.3-1.1-0.5-1.6-0.6C55,4.4,54.8,4.2,54.6,4c-0.1-0.1-0.2-0.3-0.4-0.5c-0.2-0.1-0.4-0.2-0.6-0.4
	c-0.1-0.1-0.2-0.1-0.4-0.2c-0.1-0.1-0.2-0.1-0.3-0.2c-0.4-0.4-0.9-0.5-1.4-0.5c0,0-0.2,0-0.2,0H51c-0.5,0.1-1,0.1-1.5,0.2
	c-0.4,0.1-0.7,0.2-0.9,0.4c-0.1,0-0.2,0-0.3,0c-0.6,0.1-1.4,0.2-2,0.9C46,3.8,45.7,4.3,45.7,5c-0.5,0.1-0.9,0.2-1.3,0.4L44,5.6h0
	c-0.1,0-0.1,0-0.2,0c-0.2,0-0.3,0-0.5,0c-0.3,0-0.6,0-0.8,0.1c-0.2,0-0.4,0.1-0.7,0.3c-0.1,0-0.1,0.1-0.2,0.1l0,0c0,0-0.1,0-0.2,0.1
	c-0.5,0.1-1.1,0.3-1.5,0.8c-0.6,0.7-0.5,2.3-0.5,2.5c0.1,0.4,0.1,0.7,0.2,1.1c0,0,0,0.1,0,0.1c-0.1,0.2-0.1,0.6,0.1,1.1
	c-0.1,0.4-0.1,0.7,0.1,1c0,0.1,0.1,0.1,0.1,0.2c0,0.1,0.1,0.3,0.1,0.5c0,0.1-0.1,0.4,0,0.7c-0.2,0.4-0.2,0.7-0.2,1
	c-0.2-0.1-0.5-0.2-0.8-0.2c-0.6,0.1-1.1,0.2-1.6,0.5c-0.5,0.2-0.7,0.7-0.8,0.9c-0.2,0.3-0.3,0.4-0.4,0.6c-0.2,0.2-0.3,0.4-0.4,0.6
	c-0.6,0.5-0.9,1.3-0.6,2c0,0.3,0.1,0.5,0.2,0.7c-0.1,0-0.1-0.1-0.2-0.1c-0.3-0.2-0.7-0.4-1-0.4s-0.8,0.1-1.1,0.4c0,0,0,0-0.2,0.1
	c-0.6,0.1-1.2,0.3-1.7,0.6c-0.6,0.4-1.1,0.8-1.4,1.3c-0.3,0.3-0.5,0.7-0.7,1L29,23.2c0,0-0.1,0.2-0.2,0.4C28,24.1,27.7,25.1,28,26
	c0,0,0,0.2,0,0.4c-0.1,0.5-0.2,1.1,0.1,1.7c0,0.1,0,0.2,0,0.3c0,0.2,0.1,0.4,0.3,0.7c0.1,0.1,0.2,0.2,0.2,0.4
	c0.1,0.1,0.1,0.2,0.2,0.2v0.1c0,0,0.1,0.4,0.4,0.7c0,0.1,0.1,0.2,0.1,0.2c0.1,0.5,0.3,0.8,0.2,1.1c0,0.3,0,0.6,0,0.9l0,0
	c-0.2-0.2-0.4-0.5-0.6-0.8c-0.1-0.2-0.4-0.4-0.6-0.5c-0.1-0.1-0.2-0.1-0.3-0.2c0,0-0.2-0.2-0.4-0.3l-0.4-0.2c0,0-0.3-0.2-0.5-0.3
	c-0.2-0.1-0.4-0.3-0.6-0.4s-0.5-0.3-0.6-0.4c-0.5-0.4-1-0.5-1.3-0.5c-0.2,0-0.3,0-0.5,0.1c-0.7,0.2-1,0.2-1,0.2c0,0-0.1,0-0.3,0
	c-0.6,0-1.1,0.2-1.7,0.5l0,0c-0.7,0-1.2,0.5-1.3,0.6c0,0-0.1,0.1-0.1,0.1c-0.2,0.1-0.5,0.4-0.8,0.7c-0.1,0.1-0.2,0.2-0.4,0.4
	l-0.2,0.2c0,0-0.3,0.1-0.4,0.2L17,32.3c-0.2,0.1-0.5,0.3-0.7,0.5c-0.1,0-0.4,0.1-0.6,0.3c-0.2,0.1-0.3,0.3-0.5,0.4
	c-0.4,0.3-0.6,0.5-0.9,0.7L14,34.5c0,0-0.1,0.1-0.1,0.1c-0.6,0.1-1.3,0.3-1.8,0.8c-0.1,0.1-0.2,0.2-0.4,0.3c-0.4,0.5-0.4,1-0.4,1.3
	l0,0c-0.1,0.3-0.1,0.6-0.2,0.8c0,0.2-0.1,0.4-0.1,0.6c0,0.3-0.1,0.5-0.1,0.8c0,0.1,0,0.1-0.1,0.2c-0.1,0.2-0.2,0.5-0.2,0.8l-0.1,0.3
	c0,0.2-0.1,0.4-0.1,0.6c0,0.3,0,0.5,0,0.6v0.5l0.1,0.5v0.2c0,0.2,0,0.5,0.1,0.8c0.1,0.3,0.2,0.6,0.3,0.8v0.1
	c-0.1,0.8,0.4,1.3,0.6,1.6c0.2,0.3,0.4,0.5,0.5,0.7c0.2,0.6,0.5,1,0.9,1.2l0,0c0.2,0.3,0.5,0.6,0.7,0.9c0.1,0.2,0.2,0.5,0.5,0.7
	c0.1,0.2,0.2,0.5,0.4,0.6s0.8,0.7,1.7,0.7c0.2,0,0.4,0,0.6-0.1c0.1,0,0.3-0.1,0.5-0.1c0.8-0.2,1.8-0.4,2.4-1c0.1,0,0.1,0,0.2,0
	c0.2,0,0.5-0.1,0.6-0.1l0.3-0.1c0,0,0.3-0.1,0.4-0.1c0.1,0,0.1,0,0.2,0c0.1,0,0.3,0,0.5-0.1s0.3-0.1,0.4-0.1c0.1,0,0.2,0,0.2,0h0.3
	h0.3h0.2c0.3,0.1,0.5,0.1,0.7,0.1c0,0,0,0,0,0c0.2,0,0.4,0,0.6-0.1l0.5-0.1l0.3-0.1c0.2,0.1,0.4,0.1,0.6,0.1
	c0.2,0.2,0.5,0.5,0.7,0.7l0.1,0.2c0.1,0.3,0.3,0.6,0.5,0.8c0.1,0.2,0.2,0.4,0.4,0.4c0.1,0.1,0.1,0.2,0.2,0.4
	c0.1,0.1,0.2,0.3,0.2,0.4c0.1,0.5,0.2,0.8,0.4,1.1c0,0.1,0.1,0.2,0.1,0.3c0.2,0.5,0.3,1,0.5,1.5l0.1,0.4c-0.1,0.2-0.2,0.4-0.2,0.6
	l-0.1-0.1c-0.2-0.7-0.8-1.2-1.7-1.2c-0.2,0-0.4,0-0.6,0.1c-0.2-0.1-0.5-0.2-0.8-0.2c-0.3,0-0.7,0.1-0.9,0.3l-0.1,0.1
	c0,0-0.2,0.1-0.3,0.2c-0.7,0.4-1.6,0.9-1.8,1.8c-0.1,0.1-0.1,0.2-0.1,0.3c-0.1,0.5-0.1,0.8,0,1.2c0.2,0.5,0.5,1.1,0.7,1.6
	c0.1,0.2,0.2,0.4,0.3,0.5c0.1,0.1,0.1,0.2,0.2,0.4c0.1,0.2,0.1,0.3,0.2,0.5c0.1,0.3,0.2,0.6,0.4,0.9l0.1,0.2c0,0,0.1,0.2,0.1,0.2
	c0,0.5,0.4,1.1,1,1.3v0.1c0.2,0.2,0.4,0.4,0.6,0.6c0.1,0.1,0.2,0.2,0.2,0.3c0,0.1,0.1,0.2,0.1,0.2c0.1,0.2,0.3,0.5,0.5,0.7
	c0.1,0.3,0.2,0.5,0.4,0.6c0.1,0.1,0.2,0.2,0.3,0.4c0.1,0.1,0.2,0.2,0.2,0.3c0.2,0.5,0.5,0.9,0.7,1.4l0.4,0.7c0,0,0.1,0.2,0.2,0.4
	c0.1,0.5,0.3,1,0.5,1.3l0.1,0.3c0,0,0,0.2,0.1,0.2l0.1,0.7c0.1,0.4,0.1,0.7,0.2,1.1c0.1,0.3,0.1,0.6,0.2,0.9l0.1,0.3l0.3,1.1
	c0,0,0,0,0,0.1c-0.1,0.8,0.2,1.6,1,2.1c0.2,0.1,0.4,0.3,0.5,0.4c0.2,0.2,0.4,0.4,0.6,0.5c0.2,0.1,0.5,0.4,0.5,0.5
	c0.1,0.4,0.3,0.8,0.5,1.2c0.1,0.2,0.3,0.5,0.5,0.7c0.1,0.1,0.2,0.2,0.3,0.4c0.3,0.5,0.8,0.8,1.4,1h0.2c0.2,0.1,0.5,0.1,0.7,0.2
	c0.1,0,0.3,0,0.5,0h0.2c0,0,0.2,0,0.3,0c0.1,0,0.2,0,0.4,0c0.2,0,0.3,0,0.4-0.1c0,0,0,0,0.1,0c0.1,0,0.2,0,0.4,0
	c0,0.1,0.1,0.2,0.1,0.3c0.1,0.2,0.2,0.5,0.4,0.7l0.2,0.5c0,0,0,0.1,0.1,0.1c0,0.2,0,0.4-0.1,0.5c-0.1,0.3-0.1,0.5-0.1,0.6
	c-0.2,0.3-0.2,0.6-0.3,0.9c-0.1,0.2-0.2,0.4-0.2,0.7c0,0.5,0.1,0.9,0.2,1.2c0,0.1,0,0.1,0.1,0.2c0.1,0.6,0.3,1,0.5,1.3l0.1,0.2
	c0,0,0.1,0.2,0.2,0.4l0.1,0.4c0.1,0.3,0.3,0.6,0.4,0.9c0.4,0.6,1.1,1,1.6,1.2c0.1,0.1,0.4,0.2,0.7,0.3c0.6,0.1,1.2,0.2,1.8,0.2
	c0.1,0,0.1,0,0.2,0c0.1,1,0.7,1.9,0.8,2c0.1,0.1,0.2,0.2,0.4,0.4c0.5,0.6,1.2,1.1,2,1.2c0.1,0,0.2,0.1,0.4,0.1
	c0.3,0.1,0.7,0.2,1.2,0.2c0.3,0,0.5,0,0.8-0.1c0.9,0,2-0.4,2.7-1.1c0.4-0.4,1-0.9,1-1.8c0-0.2,0-0.4,0-0.6c0-0.1,0-0.2,0-0.3
	c0.3,0,0.5,0,0.7,0c0.1,0,0.3,0,0.4,0c0.2,0,0.4-0.1,0.7-0.1c0.1,0,0.2-0.1,0.2-0.1c0.7,0,1.2-0.2,1.7-0.6c0.6-0.5,1.1-1.1,1.3-1.8
	c0.1-0.2,0.1-0.2,0.1-0.2c0.5-0.3,0.6-0.8,0.7-1.1v0l0,0c0.2-0.3,0.4-0.8,0.3-1.2V88c0,0,0.1-0.3,0.1-0.4c0,0,0-0.1,0-0.1
	c0.2-0.4,0.2-0.8,0.1-1.3l-0.1-0.2c0,0-0.1-0.3-0.1-0.4c0-0.5-0.2-0.9-0.3-1.1c0,0,0,0,0-0.1c0.2-0.2,0.4-0.5,0.5-0.8l0,0
	c0.1,0,0.2-0.1,0.4-0.1c0,0,0.1,0,0.1,0c0.4,0,0.7-0.1,0.9-0.4l0.4-0.4l0,0c0.5-0.1,1-0.2,1.4-0.6c0,0,0.2-0.1,0.2-0.1
	c0.4-0.1,0.6-0.3,0.8-0.5c0.6-0.4,0.7-1,0.8-1.3c0.2-0.1,0.4-0.4,0.6-0.7c0,0,0,0,0.1,0l0.2-0.2c0.2-0.2,0.4-0.4,0.6-0.5
	c0.2-0.2,0.3-0.4,0.4-0.5l0.2-0.3c0.2-0.3,0.4-0.6,0.6-0.9c0.1-0.1,0.2-0.3,0.3-0.5c0-0.1,0.1-0.2,0.1-0.3c0.1-0.1,0.2-0.3,0.4-0.4
	c0.2-0.2,0.3-0.5,0.4-0.7c0.1-0.2,0.2-0.5,0.2-0.7v-0.6c0,0,0.1-0.1,0.1-0.1c0.3-0.2,0.5-0.6,0.6-1.2c0.1-0.3,0-0.5,0-0.7
	c0-0.5,0.1-0.8,0.2-1.1l0.1-0.2c0,0,0.2-0.3,0.2-0.4c0.1-0.2,0.1-0.4,0.2-0.5l0.2-0.4l0.2-0.4l0.2-0.4c0.1-0.3,0.2-0.5,0.4-0.8
	c0.1-0.2,0.1-0.3,0.2-0.3c0.1-0.1,0.2-0.2,0.3-0.4c0.4-0.2,0.7-0.7,0.7-1.1c0.1-0.4,0.2-0.7,0.4-0.9c0.2-0.2,0.4-0.6,0.4-0.7
	l0.3-0.6c0,0,0.2-0.4,0.2-0.8c0,0,0,0,0-0.1c0.1-0.1,0.2-0.1,0.2-0.1c0,0,0.3-0.1,0.5-0.4c0.2-0.2,0.4-0.4,0.5-0.6
	c0.1-0.2,0.3-0.4,0.5-0.6c0.6-0.6,1-1.2,1.3-1.8c0.1-0.2,0.2-0.4,0.3-0.5c0.2-0.4,0.3-0.9,0.2-1.3c-0.1-0.3-0.2-0.5-0.5-0.7
	c-0.1-0.4-0.4-0.8-1-1.1c-0.1-0.1-0.4-0.3-0.6-0.5c-0.6-0.5-1-0.8-1.4-1c-0.1-0.1-0.3-0.1-0.5-0.1c-0.3,0-0.6,0.1-0.8,0.3
	c-0.3,0-0.7,0.1-0.9,0.4l-0.1,0.1c0,0-0.2,0.2-0.3,0.3c0-0.4,0-0.7,0-1V54v-0.2c0-0.2,0-0.3,0.1-0.4c0,0,0-0.1,0-0.2
	c0.2-0.3,0.3-0.7,0.3-1c0,0,0,0,0-0.1l0.6-1.1l0.4-0.7c0.7-0.5,1.2-1.1,1.7-1.6c0.1,0,0.2,0,0.3,0l0.4,0.1c0.4,0,0.7,0,1.1,0.1h0.5
	h0.2c0.3,0,0.6,0,0.9,0c0.2,0.1,0.4,0.1,0.5,0.1c0.4,0.1,0.7,0.1,1,0.1c0,0,0,0,0,0c0.2,0,0.3,0,0.4,0c0.2,0.1,0.5,0.1,0.8,0.2
	l0.2,0.1l0.6,0.2c0.4,0.1,0.8,0.2,1.2,0.4c0.3,0.4,0.7,0.6,1.2,0.6c0.3,0,0.6-0.1,1-0.3l0.2-0.1c0.2-0.1,0.5-0.3,0.6-0.5
	c0.2-0.2,0.4-0.4,0.6-0.7l0.2-0.2c0,0,0.3-0.4,0.5-0.5c0.1-0.1,0.2-0.2,0.2-0.4c0,0,0.1-0.1,0.1-0.2c0.7-0.6,1.1-1.4,1.3-2.4
	c0-0.2,0.1-0.3,0.1-0.4c0-0.1,0.1-0.2,0.1-0.3c0.1-0.2,0.3-0.5,0.4-0.8c0.1-0.4,0.1-0.8,0.1-1c0-0.3,0-0.4,0-0.5l0.1-1.1l0.1-1.1
	c0-0.2,0-0.5,0-0.7v-0.2L89.5,39.4z M88.2,40.2C88.1,41,88,41.7,88,42.4c0,0.2,0,0.3,0,0.5c0,0.2,0,0.5,0,0.7
	c-0.1,0.3-0.3,0.6-0.5,1c-0.1,0.2-0.1,0.4-0.2,0.6c-0.2,0.7-0.5,1.3-1,1.8c-0.1,0.1-0.1,0.2-0.2,0.3c-0.1,0.1-0.1,0.2-0.2,0.2
	c-0.1,0.2-0.3,0.3-0.4,0.5c-0.2,0.2-0.5,0.5-0.7,0.7c-0.2,0.2-0.5,0.4-0.8,0.5c-0.2,0.1-0.3,0.1-0.3-0.1c0-0.2-0.2-0.3-0.4-0.3
	c-0.4-0.1-1.7-0.5-2.1-0.6c-0.4-0.1-0.8-0.2-1.3-0.4c-0.1,0-0.3,0.1-0.4,0.1c-0.3,0-0.6-0.1-0.8-0.1c-0.2,0-0.4-0.1-0.6-0.1
	c-0.4,0-0.7,0-1.1-0.1c-0.5,0-1,0-1.4-0.1c0.2,0-0.4,0-0.1,0c0,0,0.1,0,0.1,0l0,0c-0.4-0.1-0.8-0.2-1.2-0.2c-0.2,0-0.4,0.2-0.5,0.3
	c-0.5,0.6-1.1,1.2-1.7,1.7c-0.1,0-0.1,0.1-0.1,0.2c-0.4,0.6-0.7,1.3-1.1,1.9c-0.1,0.1-0.1,0.2-0.2,0.3c0,0-0.1,0.1-0.1,0.1
	c0.1,0.2,0.1,0.5-0.1,0.7c0,0.1-0.1,0.2-0.1,0.3c0,0.2-0.1,0.4-0.1,0.6c0,0.2,0,0.4,0,0.5c0,0.7,0,1.4-0.2,2.1c-0.1,0.2,0,0.5,0,0.7
	s0.1-0.2,0.1,0s-0.1,0.1,0,0.4c-0.1,0.1,0,0.2,0,0.2c0,0.5-0.2,0.7,0.2,0.7c0.2,0,0.6-0.1,0.7-0.3c0-0.1,0.1-0.2,0.2-0.3
	c0.3-0.3,0.6-0.6,0.8-0.8c0.1-0.2,0.2-0.4,0.4-0.6c0.1-0.2,0.3-0.3,0.5-0.5c0,0,0.1,0,0.1,0.1c0,0.1,0,0.2-0.1,0.4
	c0.3-0.2,0.5-0.5,0.7-0.7c0.4,0.2,1.5,1.2,1.9,1.4c0.2,0.1,0.5,0.2,0.5,0.6c0,0.1,0.1,0.2,0.2,0.2c0.2,0.1,0.2,0.3,0.1,0.5
	c-0.4,0.7-0.7,1.5-1.3,2c-0.4,0.4-0.7,0.9-1.1,1.3c-0.1,0.1-0.2,0.1-0.4,0.2c-0.2,0.1-0.4,0.2-0.5,0.4c-0.1,0.3-0.4,0.5-0.2,0.8
	c0,0.1,0,0.1-0.1,0.2c-0.1,0.2-0.2,0.4-0.3,0.6c0,0.1-0.1,0.2-0.2,0.3c-0.5,0.5-0.7,1-0.8,1.6c0,0.1,0,0.1-0.1,0.1
	c-0.3,0.1-0.4,0.4-0.6,0.5c-0.2,0.2-0.3,0.4-0.4,0.6c-0.2,0.4-0.4,0.8-0.6,1.3c-0.1,0.3-0.3,0.6-0.4,0.8c-0.1,0.1-0.1,0.3-0.1,0.4
	c-0.1,0.2-0.2,0.4-0.3,0.5c-0.3,0.5-0.4,1-0.4,1.6c0,0.2,0,0.4,0,0.6c0,0.2-0.1,0.5-0.5,0.6c-0.1,0-0.1,0.1-0.1,0.2
	c0,0.4-0.1,0.8-0.1,1.3c0,0.1,0,0.2-0.1,0.4c-0.1,0.2-0.1,0.3-0.2,0.5c-0.1,0.1-0.2,0.3-0.4,0.5c-0.1,0.2-0.2,0.5-0.4,0.7
	c-0.2,0.4-0.5,0.7-0.7,1.1c-0.1,0.1-0.2,0.3-0.3,0.4c-0.2,0.2-0.5,0.5-0.8,0.7c-0.1,0.1-0.2,0.1-0.2,0.2c-0.1,0.2-0.3,0.4-0.5,0.6
	c-0.4,0.4-0.1,0.8-0.6,1.2c-0.2,0.1-0.4,0.2-0.7,0.4c-0.2,0.1-0.3,0.2-0.5,0.3c-0.2,0.2-1,0.3-1.3,0.2c-0.1,0-0.2,0.1-0.2,0.2
	c0,0.1,0.1,0.1,0.1,0.1c-0.1,0.1-0.2,0.2-0.4,0.4c0-0.2,0.1-0.4,0.1-0.5c-0.2,0.2-0.6,0.2-0.7,0.6c0,0.1-0.3,0.1-0.4,0.2
	c-0.1,0-0.3,0.2-0.4,0.3c0,0.1-0.1,0.1-0.2,0.2c0-0.1-0.1-0.1-0.2-0.2c0,0.3,0,0.5,0.1,0.7c-0.2,0.1-0.6,0.1-0.9,0.2
	c0,0-0.1,0.2-0.1,0.2c0.2,0.4,0.4,0.8,0.6,1.2c0.1,0.2,0.2,0.4,0.2,0.5c0,0.4,0.1,0.7,0.2,1.1c0,0.1,0,0.2,0,0.2
	C58.9,87,59,87.2,59,87.4c0,0.2-0.1,0.4-0.1,0.6c0,0.1,0,0.1,0,0.2s0,0.1,0,0.2c-0.3,0.3-0.2,0.7-0.6,1c-0.2,0.2-0.4,0.5-0.5,0.8
	c-0.2,0.5-0.6,1-0.9,1.2c-0.3,0.2-0.6,0.3-0.9,0.3c-0.4,0-0.7,0.2-1,0.2c-0.3,0-1.3,0-1.7-0.1c-0.4,0-0.7-0.4-1.1-0.4
	c0,0.3,0.4,1,0.4,1.3c0,0.3,0,0.6,0,0.8c0,0.2,0,0.4,0,0.5c0,0.4-0.4,0.6-0.6,0.9c-0.5,0.5-1.3,0.7-1.9,0.7c0,0-0.1,0-0.1,0
	c-0.7,0.3-1.3-0.1-1.9-0.2c-0.5-0.1-0.9-0.3-1.1-0.7c-0.1-0.1-0.2-0.2-0.4-0.4c-0.3-0.4-0.7-1.1-0.5-1.7c0.1-0.2,0-0.5,0.3-0.6
	c0.2-0.1,0.2-0.4,0.4-0.7c-0.4,0.1-0.7,0.1-1,0.3c-0.4,0.2-0.7,0.1-1.1,0.1c-0.6,0-1.1-0.1-1.6-0.2c-0.2,0-0.4-0.2-0.5-0.2
	c-0.3-0.1-0.8-0.4-0.9-0.6c-0.2-0.4-0.4-0.8-0.6-1.2c-0.1-0.1-0.1-0.2-0.2-0.3c-0.2-0.4-0.5-0.7-0.5-1c0-0.4-0.2-0.7-0.2-1.1
	c0-0.2,0.2-0.4,0.3-0.5c-0.1-0.1-0.1-0.3,0-0.5c0.2-0.3,0.2-0.6,0.3-1c0.1-0.3,0.1-0.6,0.1-0.9c0-0.2-0.1-0.4-0.2-0.6
	c-0.2-0.4-0.4-0.7-0.6-1.1c0-0.1,0-0.2,0-0.3c0.2-0.2,0.1-0.4,0-0.5c-0.3-0.4-1.1-0.2-1.6-0.3c-0.4,0,0.1-0.2-0.3-0.1
	c-0.2,0.1-0.4,0.2-0.6,0.1c-0.1-0.1-0.4,0-0.5,0c-0.1,0-0.3,0-0.5,0c-0.3,0-0.6-0.1-0.8-0.2c-0.2,0-0.4-0.1-0.5-0.4
	c-0.2-0.4-0.5-0.6-0.7-1c-0.2-0.3-0.3-0.6-0.4-0.9c-0.1-0.4-0.7-1-1.1-1.2c-0.2-0.1-0.3-0.3-0.5-0.4c-0.2-0.2-0.4-0.3-0.6-0.5
	c-0.4-0.3-0.5-0.6-0.4-1c0-0.1,0-0.2-0.1-0.3c-0.1-0.4-0.2-0.8-0.3-1.2c-0.1-0.4-0.2-0.8-0.3-1.2c-0.1-0.6-0.2-1.2-0.3-1.8
	c0-0.2-0.1-0.4-0.1-0.6c-0.2-0.4-0.5-0.8-0.5-1.3c0-0.2-0.2-0.5-0.4-0.7c-0.4-0.7-0.7-1.4-1.1-2.1c-0.1-0.3-0.4-0.5-0.6-0.8
	c-0.1-0.1-0.2-0.2-0.2-0.4c0-0.2-0.1-0.3-0.2-0.4c-0.1-0.1-0.2-0.4-0.4-0.5c-0.1-0.1-0.1-0.3-0.2-0.4c-0.2-0.3-0.5-0.5-0.7-0.8
	c-0.2-0.2-0.3-0.5-0.6-0.5c-0.1,0-0.1-0.1-0.1-0.2c0-0.4-0.2-0.7-0.4-1c-0.2-0.4-0.4-0.9-0.6-1.3c-0.1-0.3-0.4-0.6-0.5-0.9
	c-0.2-0.5-0.5-1-0.7-1.5c0-0.1,0-0.2,0-0.2c0-0.1,0.1-0.2,0.1-0.3c0.1-0.5,1.2-1.1,1.6-1.3c0.1-0.1,0.1-0.1,0.3-0.2
	c0.1,0.1,0.2,0.1,0.3,0.2c0.5,0.3,0.4,0.4,0.8,0c0.3-0.2,0.6-0.1,0.7,0.2c0,0.1,0.1,0.2,0.1,0.2c0.2,0.3,0.4,0.6,0.6,0.9
	c0.3,0.4,0.6,0.7,1,1.1c0.2,0.2,0.2,0,0.5,0c0.4-0.1,0.3-0.2,0.4-0.5c0.2-0.4,0.1-0.7,0-1.2c-0.1-0.4-0.1-0.7,0.1-1
	c0.2-0.2,0.2-0.5,0.1-0.8c-0.2-0.7-0.4-1.4-0.6-2.1c-0.1-0.4-0.4-0.7-0.5-1.2c-0.1-0.5-0.4-0.8-0.6-1.3c-0.1-0.1-0.3-0.2-0.4-0.4
	c-0.2-0.4-0.4-0.7-0.6-1.1c0-0.1-0.1-0.1-0.1-0.2c-0.3-0.3-0.6-0.6-0.9-0.9c-0.1-0.1-0.2-0.1-0.3-0.1c-0.3-0.1-0.7,0-1-0.2
	c0,0-0.1,0-0.1,0c-0.4,0.1-0.8,0.2-1.2,0.4c0,0-0.1,0-0.1,0c-0.4,0-0.1-0.1-0.5-0.1c-0.1,0-0.3,0-0.4,0c-0.4,0-0.8,0-1.2,0
	c-0.1,0-0.2,0.1-0.4,0.2c-0.2,0.1-0.5,0.1-0.7,0.1c-0.3,0.1-0.6,0.2-0.8,0.3c-0.1,0-0.2,0.1-0.4,0.1c-0.4,0-0.7,0.1-1,0.4
	c-0.4,0.4-1.8,0.6-2.3,0.7c-0.4,0.1-0.7-0.1-1-0.3c-0.1-0.1,0-0.4-0.1-0.6c-0.5,0-0.6-0.5-0.8-0.7c-0.3-0.3-0.5-0.7-0.8-1
	c0,0,0-0.1-0.1-0.1c-0.4,0-0.4-0.4-0.5-0.6c-0.1-0.3-0.3-0.5-0.5-0.8c-0.2-0.3-0.5-0.6-0.4-1c0,0,0-0.1,0-0.2
	c-0.1-0.3-0.2-0.6-0.3-1c-0.1-0.2,0-0.5,0-0.8c0-0.3-0.1-0.6-0.1-0.9c0-0.1,0-0.2,0-0.4c0-0.3,0.1-0.6,0.2-0.8
	c0-0.3,0.2-0.5,0.3-0.8c0.1-0.5,0.2-1,0.3-1.5c0.1-0.3,0.1-0.6,0.2-0.9c0.1-0.2-0.1-0.8,0.1-0.6c0.1-0.3,0.9-0.6,1.3-0.6
	c0.2,0,0.6,0,0.7-0.2c0,0,0.1-0.1,0.1-0.1c0.4-0.3,0.8-0.6,1.2-0.9c0.2-0.1,0.4-0.4,0.6-0.5c0.1-0.1,0.4-0.1,0.5-0.2
	c0.4-0.2,0.7-0.5,1.1-0.7c0.1,0,0.1-0.1,0.2-0.1c0.1-0.1,0.2-0.1,0.3-0.2c0.3-0.2,0.6-0.5,0.8-0.8c0.2-0.3,0.6-0.4,0.8-0.7
	c0.2-0.2,0.3-0.2,0.5-0.1c0.2,0.1,0.4-0.1,0.6-0.2c0.4-0.2,0.7-0.4,1.2-0.3c0.2,0,1.1-0.2,1.4-0.2c0.2-0.1,0.4,0,0.6,0.1
	c0.3,0.3,1,0.7,1.3,0.9c0.3,0.2,0.6,0.4,1,0.6c0.1,0,0.1,0.1,0.2,0.2c0.1,0.1,0.3,0.2,0.4,0.3c0.1,0.1,0.2,0.1,0.3,0.2
	c0.5,0.7,1.1,1.4,1.6,2.1c0.2,0.3,0.4,0.7,0.6,1c0.1,0.2,0.3,0.4,0.5,0.6c0.3,0.2,0.4,0.2,0.7,0.4c0.2,0.1,0.8,0,0.9-0.2
	c0.5-0.5,0.6-0.5,0.9-0.8c0.1-0.3,0.5-0.5,0.8-0.8c0.5-0.4,0.6-0.9,0.3-1.4c-0.1-0.2-0.3-0.3-0.4-0.4c-0.1,0-0.2,0-0.3,0.1
	c-0.1,0.1-0.1,0.3,0,0.5c0,0.1,0.2,0.3,0.3,0.4c0.4,0.2,0.1,0.4,0,0.6c-0.4,0.4-0.8,0.7-1.3,0.7c-0.4,0-0.7-0.3-0.9-0.6
	c-0.2-0.4-0.7-0.8-0.7-1.3c0-0.4,0-0.9,0.1-1.3c0-0.6-0.1-1.1-0.3-1.7c-0.1-0.2-0.1-0.5-0.3-0.7c0,0,0-0.1-0.1-0.2
	c0-0.1-0.1-0.3-0.1-0.4c-0.1-0.2-0.3-0.5-0.5-0.7c-0.1-0.1-0.1-0.2-0.1-0.3c0-0.1,0-0.2-0.1-0.3c-0.3-0.7,0.2-1.4,0-2.1
	c-0.1-0.4,0.1-0.8,0.5-1c0,0,0.1,0,0.1-0.1c0.1-0.2,0.1-0.4,0.2-0.6c0.2-0.3,0.3-0.6,0.6-0.9c0.4-0.4,0.8-0.8,1.2-1.1
	c0.3-0.2,0.7-0.4,1.1-0.4c0.3,0,0.6-0.1,0.8-0.3c0.2-0.1,0.4-0.1,0.5,0c0.5,0.4,1.1,0.5,1.6,0.8c0.3,0.1,0.5,0.5,0.5,0.9
	c0,0.2,0.1,0.4,0.2,0.6c0,0.1,0.1,0.1,0.1,0.2c-0.1,0.5-0.1,0.9-0.2,1.3c0,0.1-0.2,0.3-0.3,0.3c-0.1,0-0.3-0.1-0.4-0.2
	c-0.1-0.3-0.3-0.1-0.5-0.1c-0.2,0-0.3,0.2-0.3,0.4c0,0.2,0.1,0.3,0.4,0.3c0.4,0,0.6,0.2,0.6,0.6c0,0.3,0.2,0.2,0.4,0.2
	c0.4-0.1,0.7-0.4,1-0.7c0.2-0.2,0.3-0.5,0.4-0.8c0.1-0.4,0-0.7,0-1.1c0-0.3,0-0.6,0-0.9c0-0.2,0-0.5,0-0.7c0-0.1-0.1-0.2-0.2-0.2
	c-0.1-0.1-0.2-0.1-0.3-0.2c0.1-0.1,0.2-0.1,0.3-0.1c-0.1-0.2-0.2-0.4-0.3-0.6c-0.1-0.1-0.1-0.1-0.1-0.3c0-0.1,0-0.2,0-0.3
	c-0.3-0.5-0.6-0.8-0.7-1.4c0-0.1,0-0.1-0.1-0.2c-0.1-0.2,0-0.5,0.2-0.6c0.2-0.1,0.4-0.2,0.5-0.3c0,0,0-0.1,0-0.1
	c-0.3-0.3,0-0.5,0.1-0.7c0.1-0.1,0.2-0.2,0.2-0.4c0.1-0.1,0.2-0.4,0.3-0.5c0.3-0.1,0.7-0.3,1-0.3c0.2,0,0.4,0.2,0.5,0.3
	c0.5,0.3,0.4,0.8,0.7,1.2c0.3,0.3,0.5,0.6,0.6,1.1c0,0.1,0.2,0.2,0.2,0.3c0.5-0.3,0.6-0.6,0.5-1.1c0-0.1,0-0.2,0-0.4
	c0-0.4,0-0.8-0.1-1.2c-0.1-0.4-0.2-0.7-0.4-1c-0.1-0.2-0.2-0.5,0-0.7c0.1-0.3,0.2-0.6,0.1-0.9c-0.1-0.2,0-0.4,0-0.6
	c0-0.3-0.1-0.6-0.2-0.8c0-0.1,0.2-0.4-0.2-0.3c0.2-0.3,0.2-0.5,0-0.7c-0.1-0.1-0.2-0.4,0.1-0.5v-0.1c-0.1-0.5-0.3-1-0.4-1.6
	c0-0.2,0.1-1.2,0.2-1.4c0.2-0.2,1.1-0.4,1.3-0.5c0.1,0,0.2,0,0.3-0.1C42.5,7,42.6,7.1,42.7,7c0.5-0.2,1,0.1,1.5-0.1c0,0,0.1,0,0.1,0
	c0.5-0.2,1.1-0.4,1.6-0.5c0.2,0,0.4-0.1,0.6-0.2C47,6,47.1,5.7,46.9,5.1c0-0.2,0-0.3,0.2-0.5c0.4-0.4,0.8-0.4,1.3-0.5
	c0.1,0,0.1,0,0.2,0c0.2,0.1,0.3,0,0.5-0.1c0.1-0.1,0.4-0.2,0.5-0.2c0.6-0.1,1.2-0.1,1.7-0.2c0.2,0,0.5,0.1,0.7,0.2
	c0.2,0.2,0.6,0.4,0.8,0.5c0.2,0.1,0.4,0.2,0.5,0.3c0.1,0,0.1,0.1,0.1,0.2c0,0.1,0.1,0.1,0.2,0.2C54,5.3,54,5.4,53.8,5.7
	c0.3,0.2,0.4,0.5,0.9,0.4c0.4,0,0.9,0.1,1.3,0.4c0.4,0.2,0.7,0.3,1.1,0.5c0.3,0.1,0.5,0.4,0.8,0.4c0.6,0.1,1.5,0.7,2.1,0.9
	c0.1,0,0.2,0.2,0.1,0.2c-0.2,0.4,0.1,0.7,0.1,1.1c0,0.4-0.1,1.5-0.1,1.9c-0.1,0.8-0.2,1.6-0.4,2.4c0,0.1,0,0.2-0.1,0.4
	c-0.1,0.6-0.2,1.1-0.3,1.7c-0.1,0.4-0.1,0.7-0.1,1.1c0,0.1,0.1,0.3,0.2,0.5s0.1,0.2,0.2,0.4c0.2,0-0.2-0.1,0-0.1
	c0.1,0,0.2-0.1,0.3-0.2c0.2-0.2,0.3-0.5,0.5-0.7c0-0.1,0.2-0.1,0.2-0.1c0.5,0.1,1,0.1,1.5,0.4c0.3,0.2,0.7,0.4,1,0.7
	c0.2,0.2,0.2,0.6,0.1,0.9c-0.1,0.3-0.2,0.6-0.4,1c-0.2,0.5-0.4,1-0.6,1.4c-0.1,0.4-0.3,0.8-0.5,1.2c-0.3,0.5-0.2,1.1-0.2,1.7
	c0,0.6,0.2,1.2,0.5,1.7c0.1,0.1,0.2,0.2,0.3,0.3c0.2,0.2,0.4,0.4,0.6,0.5c0.3,0.1,0.7,0.2,1,0.2c0.1,0,0.2-0.1,0.3-0.2
	c0.2-0.3,0.3-0.6,0.5-0.9c0.1-0.2-0.1-0.6-0.3-0.7c0,0-0.1,0-0.2,0c-0.1,0.1-0.3,0.2-0.5,0.3c-0.2,0.2-0.7,0.1-0.8-0.1
	c-0.1-0.1-0.1-0.1-0.2-0.2c-0.3-0.2-0.4-0.5-0.2-0.8c0.2-0.4,0.5-0.7,0.5-1.1c0.1-0.4,0.3-0.6,0.7-0.6c0,0,0.1,0,0.1,0
	c0.2-0.2,0.4-0.3,0.6-0.4c0.3-0.1,0.5-0.3,0.8-0.4c0.3-0.1,0.6,0,0.8,0c0.2,0,0.4,0,0.6,0.1c0.3,0.1,0.6,0.2,0.9,0.3
	c0.2,0.1,0.5,0.1,0.7,0.2c0.1,0,0.3,0.1,0.4,0.2c0.2,0.2,0.4,0.5,0.5,0.8c0.1,0.2,0.3,0.4,0.4,0.6c0.1,0.3,0.2,0.6,0.4,0.9
	c0.1,0.3,0.2,0.6,0.2,1c0.1,0.5,0.1,0.9-0.1,1.3c-0.2,0.5-0.4,0.9-0.2,1.4c0,0.1,0,0.3-0.1,0.5c-0.1,0.3-0.2,0.7-0.4,1
	c-0.2,0.3-0.3,0.6-0.6,0.8c-0.1,0.1-0.3,0.7-0.2,0.8c0,0.1,0.1,0.1,0.1,0.2c0,0.3,0,0.6,0,0.9c0,0.1,0,0.3,0.1,0.3
	c0.4,0.2,0.3,0.5,0.3,0.8c0,0.2,0,0.5-0.1,0.7c-0.1,0.2-0.4,0.3-0.5,0.4c-0.2,0.1-0.4,0.1-0.6,0.2c-0.1,0-0.3-0.1-0.5-0.1
	c-0.2,0-0.4-0.1-0.6-0.1c0-0.3,0-0.6,0-0.9c0-0.4-0.3-0.6-0.6-0.8c-0.2-0.1-0.4,0-0.6,0.2c-0.1,0.1-0.3,0.4-0.1,0.6
	c0.1,0.1,0.1,0.3,0.2,0.5c0.1,0.4,0.2,0.8,0.7,1c0.4,0.2,0.6,0.6,0.8,1c0.1,0.5,0.1,0.3,0.4,0.6c0.2,0.2,0.4,0.4,0.6,0.6
	c0.5-0.4,0.9-0.7,1.4-1.1c0.1-0.1,0.2-0.3,0.4-0.4c0.4-0.4,1-0.8,1.2-1.4c0-0.1,0.1-0.1,0.2-0.2c0.7-0.4,1.2-1,1.8-1.6
	c0.1-0.1,0.3-0.2,0.4-0.3c0.2-0.1,0.4-0.2,0.5-0.4c0.4-0.4,1.2-1.2,1.8-1.3c0.4-0.1,1.1,0.5,1.4,0.6c0.1,0.1,0.3,0,0.5,0
	c0.6-0.2,1.1-0.1,1.6,0.2c0.2,0.1,0.3,0.3,0.5,0.1h0.1c0.2,0.1,0.5,0.3,0.8,0.5c0.2,0.1,0.4,0.2,0.6,0.4c0.1,0.1,0.1,0.1,0.2,0.2
	c0.1,0.1,0.1,0.2,0.2,0.2c0.1,0.1,0.2,0.1,0.2-0.1c0.1,0.1,0.1,0.1,0.1,0.2c0.2,0.7,0.6,1.1,1.3,1.2c0.1,0,0.1,0.1,0.2,0.2
	c0.2,0.3,0.4,0.5,0.8,0.6c0.1,0,0.2,0.1,0.4,0.2c0.5,0.4,1.9,1.1,2.4,1.5c0.3,0.2,0.3,0.6,0.4,0.9c0,0.1,0.3,0.6,0.3,0.7
	c0.2,0.3-0.1,0.9,0.1,1.2c0,0,0,0.1,0,0.1c0,0.2,0,0.5,0,0.8L88.2,40.2z"/>
<path class="st0" d="M80.3,41.9c0.1,0.2,0.2,0.1,0.3,0c0.1-0.2,0.1-0.4,0.2-0.5c0-0.2,0.1-0.3,0.1-0.5c0.1-0.5,0.1-0.9,0.2-1.3
	c0,0,0,0,0,0c0-0.2,0.1-0.3,0-0.5c0-0.1-0.1-0.3-0.2-0.4c-0.5-0.1-1.1-0.3-1.6-0.4c-0.3-0.1-0.5,0.2-0.5,0.4c0,0.4-0.1,0.8-0.1,1.3
	c0,0.2-0.1,0.3-0.1,0.5c-0.2,0.3-0.2,0.8,0,1.1c0,0,0.1,0.1,0.2,0.1c0.1,0,0.4,0,0.5,0.1c0.2,0.2,0.4,0.2,0.7,0
	C80,41.7,80.2,41.7,80.3,41.9L80.3,41.9z"/>
<path class="st0" d="M78.8,42.9c-0.4-0.2-1-0.2-1.3-0.7c0-0.1-0.2-0.1-0.3-0.1C77,42,76.8,42,76.8,41.9c-0.2-0.4-0.6-0.7-1.1-0.7
	c0-0.4,0-0.8,0.1-1.2c0-0.2,0.2-0.4,0.3-0.4c0.1,0,0.5-0.1,0.5,0.3c0,0.1,0.1,0.3,0.2,0.4c0.1,0.2,0.2,0.2,0.4-0.1
	c0-0.1,0.1-0.3,0.2-0.4c0.3-0.3,0.5-0.6,0.5-1.1c0-0.1,0-0.3,0-0.4c-0.2-0.4-0.7-0.5-1.1-0.6c-0.2,0-0.6,0.1-0.8,0.2
	c-0.3,0.2-0.6,0.4-0.9,0.6c-0.2,0.1-0.4,0.2-0.6,0.4c-0.3,0.4-0.4,0.8-0.4,1.2c0,0.3-0.1,0.6-0.2,0.8c-0.3,0.5-0.4,0.9-0.1,1.4
	c0,0.1,0,0.1,0,0.2c0,0.3,0,0.6-0.1,0.9c-0.1,0.2,0,0.5,0.1,0.8c0,0.1,0.1,0.2,0.1,0.3c-0.1,0.5,0.1,0.9,0.3,1.3
	c0,0.1,0.1,0.2,0.3,0.2c0.4,0,0.9,0.1,1.3,0.1c0.3,0,0.6-0.1,0.8-0.1c0.1,0,0.2,0,0.3,0c0.7,0.2,1.2,0,1.4-0.5
	c0.1-0.3,0.3-0.6,0.4-0.9c0-0.1,0.1-0.1,0.2-0.1c0.3-0.2,0.5-0.5,0.5-0.9c0-0.1,0.1-0.2,0.1-0.4c0-0.1,0-0.2-0.1-0.2
	C79.2,43,78.9,42.9,78.8,42.9L78.8,42.9z"/>
<path class="st0" d="M85.8,39.3c0-0.7-0.7-1.1-0.8-1.7c0,0,0,0-0.1-0.1c-0.4-0.3-0.8-0.6-1.3-0.8c-0.2-0.1-0.5,0-0.6,0.2
	c-0.1,0.2-0.1,0.4-0.1,0.6c-0.2,0.8-0.2,1.6,0,2.3c0.1,0.4,0.2,0.8-0.2,1.1c0,0-0.1,0.1-0.1,0.1c-0.3,0.6-0.6,1.3-1,1.9
	c-0.1,0.2-0.2,0.5-0.4,0.7c-0.2,0.2-0.4,0.5-0.5,0.7c-0.1,0.2-0.2,0.4-0.4,0.6c-0.1,0.2-0.3,0.4-0.4,0.6c-0.1,0.2,0.1,0.6,0.4,0.7
	c0.6,0.2,1.1,0.3,1.7,0.2c0.1,0,0.3,0,0.5,0.1c0.3-0.2,0.4-0.2,0.7-0.1c0.2,0,0.5-0.1,0.7-0.1c0.1,0,0.2-0.1,0.2-0.1
	c0.4-0.3,0.7-0.6,1-0.9c0.2-0.2,0.4-0.5,0.6-0.8c0.2-0.4,0.3-0.8,0.4-1.2c0-0.2,0-0.5,0-0.7c0-0.1,0-0.2,0-0.4c0-0.4-0.1-0.8,0-1.2
	c0.1-0.6,0.1-1.1-0.1-1.6C85.9,39.4,85.8,39.3,85.8,39.3L85.8,39.3z"/>
<path class="st0" d="M19,44.8c0.1-0.2,0-0.4-0.1-0.5c-0.4-0.4-0.7-0.7-0.7-1.3c0-0.3-0.1-0.6-0.2-0.8c-0.1-0.6-0.3-1.1-0.5-1.7
	c-0.1-0.5-0.2-1-0.2-1.4c0-0.2-0.1-0.5-0.1-0.7c0-0.2,0.1-0.4,0.1-0.6c0-0.2,0-0.4,0-0.5c0-0.2,0.1-0.5-0.2-0.5
	c-0.2-0.1-0.4-0.2-0.6-0.2c-0.2,0-0.5,0.1-0.7,0.2c-0.2,0.1-0.4,0.4-0.6,0.6c-0.4,0.4-0.8,0.7-1,1.3c0,0-0.1,0.1-0.1,0.1
	c0,0.1,0,0.2-0.1,0.3c0,0.2,0.1,0.5-0.2,0.5c-0.1,0-0.2,0.2-0.2,0.3c-0.1,0.2-0.2,0.5-0.2,0.7c0,0.2-0.1,0.4,0,0.5
	c0.1,0.5,0.2,1,0.3,1.5c0.1,0.3,0.1,0.7,0.2,1c0.1,0.3,0.1,0.7,0.5,1c0.1,0,0.1,0.2,0.2,0.4c0.1,0.2,0.3,0.5,0.4,0.7
	c0.1,0.2,0.2,0.3,0.3,0.5c0.2,0.3-0.7,0.7-0.4,0.9c0.1,0.1,0.1,0.2,0.2,0.4c0.4,0.1,1.6,0,2-0.3c0.1-0.1,0.2-0.1,0.3-0.2
	c0,0,0.2,0,0.2,0c0.1,0.2,0.3,0.1,0.4,0c0.2-0.1,0.4-0.2,0.6-0.1c0,0,0.1,0,0.1,0c0.2,0,0.4,0,0.6,0c0.2,0,0.5-0.1,0.6-0.2
	c0.1-0.1-0.1-0.8-0.4-1C19.1,45.5,18.8,45.2,19,44.8L19,44.8z"/>
<path class="st0" d="M21,39.4c0.1-0.3,0.2-0.6,0.3-0.8c0-0.1,0-0.1,0-0.2c-0.1,0-0.2-0.1-0.3,0c-0.6,0.2-1.1,0.4-1.7,0.6
	c0-0.1-0.1-0.1-0.1-0.2c-0.1-0.2-0.4-0.2-0.6-0.2s-0.2,0.2-0.2,0.4c0,0.2-0.1,0.5,0,0.8c0,0.3,0.1,0.5,0.2,0.8
	c0.1,0.2,0.2,0.4,0.1,0.5c-0.1,0.4,0,0.8,0.2,1.2c0.1,0.1,0.2,0.3,0.4,0.4c0.1,0,0.2-0.1,0.4-0.2c0.1,0,0.2-0.1,0.3-0.1
	c0.5-0.1,1-0.2,1.4-0.3c0-0.2,0-0.3-0.1-0.4c-0.1-0.4-0.3-0.8-0.5-1.1c-0.1-0.1-0.1-0.3-0.2-0.4c-0.2-0.2-0.2-0.3,0.1-0.4
	C20.9,39.5,21,39.4,21,39.4L21,39.4z"/>
<path class="st0" d="M33.5,40.1c0.1,0.3,0.3,0.6,0.5,0.9c0.2,0.3,0.4,0.6,0.6,0.8c0.1,0.2,0.3,0.3,0.4,0.5c0.1,0.2,0.4,0.3,0.4,0.5
	c0.1,0.2,0.2,0.4,0.5,0.6c0.2,0.1,0.4,0.4,0.5,0.6c0.1,0.1,0.1,0.2,0.2,0.4c0.3,0.4,0.7,0.8,0.8,1.3c0.1,0.2,0.2,0.3,0.4,0.4
	c0.2,0.2,0.5,0.4,0.7,0.6c0.2,0.2,0.5,0.5,0.7,0.7c0.1,0.1,0.3,0.2,0.4,0.3c0.5,0.5,0.9,1,1.3,1.5c0,0,0.1,0,0.1-0.1
	c0-0.1,0-0.2-0.1-0.3c-0.2-0.3,0-0.6,0.1-0.8c0.1-0.2,0.1-0.4,0.2-0.6c0.1-0.1,0.1-0.3,0.2-0.4c0.2-0.2,0.4-0.4,0.5-0.6
	c0.2-0.5,0.4-1,0.6-1.4c0-0.1,0-0.2,0-0.2c0-0.1-0.1-0.2-0.1-0.4c0-0.1,0-0.2,0-0.2c-0.2-0.2-0.5-0.4-0.7-0.7
	c-0.4-0.6-0.9-1-1.4-1.5c-0.2-0.2-0.3-0.4-0.5-0.5c-0.3-0.3-0.6-0.6-0.9-0.9c-0.2-0.2-0.4-0.5-0.6-0.7C38,39.2,37.2,39,37,38.2
	L37,38.2c-0.1-0.2-0.3-0.4-0.4-0.6c-0.1-0.2-0.2-0.5-0.3-0.7c-0.4-0.5-0.7-0.8-1.1-1.3c-0.1-0.1-0.1-0.2,0-0.3
	c0.2-0.3,0.2-0.4-0.2-0.6c0,0.3,0,0.3-0.2,0.4c-0.2,0.1-0.3,0.1-0.2,0.3c0.1,0.4,0.1,0.4-0.3,0.5c-0.2,0.1-0.5,0.2-0.5,0.5
	c0,0.1-0.1,0.3-0.2,0.4c-0.3,0.2-0.4,0.6-0.3,0.9c0,0.1-0.1,0.2-0.1,0.3c-0.2,0.2-0.4,0.3-0.5,0.5c0.1,0.2,0.2,0.4,0.2,0.5
	C33,39.3,33.4,39.7,33.5,40.1L33.5,40.1z"/>
<path class="st0" d="M51.3,92c0-0.2-0.1-0.4-0.1-0.5c0-0.3-0.3-0.5-0.2-0.8c0,0-0.1-0.1-0.2-0.2c-0.2-0.3-0.5-0.6-0.7-0.9
	c-0.1-0.1-0.2-0.2-0.3-0.4c-0.1-0.1-0.1-0.2-0.2,0c-0.1,0.2-0.2,0.4-0.4,0.5c-0.2,0.2-0.4,0.4-0.6,0.6c-0.2,0.2-0.5,0.5-0.3,0.8
	c0,0.1,0,0.2-0.1,0.3c0,0.1-0.1,0.3-0.2,0.4c0,0.1-0.1,0.1-0.2,0.2c0,0-0.1,0-0.1,0.1c-0.3,0.6-0.2,1.5,0.5,1.9
	c0.8,0.5,1.6,0.6,2.5,0.2c1-0.4,1.1-1.3,0.9-2.2C51.5,91.9,51.4,91.8,51.3,92L51.3,92z"/>
<path class="st0" d="M26.2,41c-0.4-0.7-0.7-1.4-1.6-1.7c-0.1,0-0.1-0.1-0.2-0.1c-0.1-0.1-0.2-0.2-0.2-0.4c-0.2-0.3-0.5-0.6-1-0.5
	c0,0,0,0-0.1,0c0.1,0,0.1,0.1,0.2,0.1c-0.8,0.2-0.7,0.2-0.7,1c0,0.3,0,0.6-0.1,0.9c-0.1,0.4-0.1,0.4,0.3,0.5c0.1-0.2,0-0.5,0.4-0.6
	c0.4-0.1,0.7-0.1,1,0.2c0.1,0.1,0.1,0.2,0.1,0.4c0.2,0.5,0,1.1-0.5,1.3c-0.8,0.3-1.7,0.5-2.4,0.8c-0.4,0.2-1,0-1.3,0.6
	c-0.1,0.2-0.2,0.5-0.3,0.8c-0.1,0.2,0,0.4,0.2,0.6c0.4,0.3,0.7,0.6,0.8,1c0.1,0.2,0.2,0.3,0.4,0.4c0.3,0.1,0.6,0.2,0.9,0.4
	c0.3-0.1,0.6-0.3,1-0.1c0.1,0,0.1,0,0.2,0c0.5-0.2,1,0,1.5-0.2c0.3-0.1,0.6-0.2,0.8-0.5c0.2-0.4,0.5-0.8,0.6-1.2
	c0.1-0.2,0.2-0.5,0.2-0.7c0-0.3,0-0.6,0-0.9C26.4,42.3,26.5,41.6,26.2,41L26.2,41z"/>
<path class="st0" d="M81,35.9c0,0,0-0.1-0.1-0.2c0-0.1-0.1-0.2-0.1-0.4c-0.1-0.3-0.2-0.7-0.3-1c-0.3-0.6-0.8-1.1-1.4-1.4
	c-1-0.5-2.1-0.6-3.1-0.3c-0.8,0.2-1.6,0.7-2.2,1.3c-0.4,0.4-0.7,0.7-1,1.1c-0.2,0.2-0.4,0.4-0.6,0.6c-0.3,0.4-0.6,0.8-1,1.2
	c-0.4,0.5-1,0.8-1.2,1.4c0,0,0,0,0,0c-0.3,0.3-0.5,0.7-0.8,1c-0.1,0.2-0.3,0.4-0.4,0.5c-0.3,0.4-0.5,0.8-0.8,1.2
	c-0.2,0.4-0.5,0.6-0.8,1c-0.4,0.5-0.8,1-1.2,1.5c-0.1,0.1-0.2,0.3-0.3,0.4c-0.4,0.4-0.8,0.8-1.2,1.2c-0.2,0.3-0.5,0.5-0.8,0.8
	c-0.1,0.1-0.2,0.2-0.4,0.4c-0.3,0.3-0.6,0.6-0.9,0.9c-0.5,0.5-1.1,0.9-1.7,1.3c-0.7,0.5-1.4,1.1-2.2,1.6c-0.2,0.2-0.4,0.4-0.2,0.6
	c0.1,0.3,0,0.6-0.1,0.8C58,51.8,58,52,57.9,52.1c0,0.1,0,0.2-0.1,0.2c-0.3,0.5-0.6,1-0.8,1.5c-0.2,0.4-0.4,0.9-0.6,1.3
	c-0.3,0.5-0.7,1-1.2,1.3c-0.4,0.2-0.6,0.5-1,0.8c0,0,0,0.1-0.1,0.2c-0.2,0.2-0.4,0.4-0.6,0.5c-0.3,0.1-0.6,0-0.8,0.2
	c-0.4,0.2-0.7,0.6-1.1,0.8c-0.1,0.1-0.3,0.1-0.4,0.2c-0.4,0-0.9-0.1-1.3,0c-0.5,0.1-0.9-0.1-1.2-0.4c-0.1-0.1-0.2-0.2-0.4-0.2
	c-0.1-0.1-0.3-0.1-0.5-0.1c-0.3-0.1-0.6-0.1-0.8-0.2c-0.4-0.1-0.7-0.3-1.1-0.5c-0.1-0.1-0.3-0.2-0.4-0.4c-0.1-0.1-0.1-0.2-0.2-0.3
	c-0.1-0.2-0.2-0.4-0.6-0.4c0,0-0.1,0-0.1-0.1c-0.2-0.2-0.4-0.5-0.5-0.7c-0.2-0.3-0.4-0.7-0.7-1c-0.2-0.3-0.4-0.5-0.6-0.8
	c-0.2-0.4-0.4-0.7-0.6-1.1c-0.2-0.4-0.4-0.7-0.3-1.2c0-0.1,0-0.1,0-0.2c0-0.2-0.1-0.3-0.1-0.5c-0.1-0.4-0.2-0.8-0.4-1.2
	c0-0.1-0.1-0.2-0.2-0.2c-0.4,0-0.6-0.3-1-0.5c-0.5-0.4-1.1-0.8-1.6-1.2c-0.1-0.1-0.2-0.3-0.3-0.5c-0.1-0.1-0.1-0.2-0.2-0.2
	c-0.4-0.1-0.6-0.5-1-0.6c0,0,0-0.1,0-0.1c0-0.2-0.1-0.3-0.3-0.4c-0.2-0.1-0.4-0.2-0.5-0.4c-0.5-0.9-1.4-1.4-2-2.3
	c-0.5-0.1-0.6-0.7-1-0.8c-0.2-0.1-0.4-0.4-0.6-0.6c-0.1-0.2-0.2-0.6-0.3-0.8c0-0.1,0-0.2-0.1-0.3c0-0.1-0.1-0.1-0.1-0.2
	c-0.2-0.4-0.3-0.8-0.5-1.2c-0.1-0.3-0.4-0.5-0.6-0.8c-0.1-0.1-0.2,0-0.4-0.1c-0.1,0-0.1-0.1-0.2-0.1c-0.3-0.1-0.5-0.3-0.5-0.7
	c0-0.1-0.1-0.1-0.1-0.2c-0.4-0.3-0.5-0.8-0.9-1.1c0,0-0.1-0.1-0.1-0.2c-0.2-0.3-0.4-0.6-0.7-0.8c-0.2-0.1-0.3-0.2-0.5-0.4
	c-0.2-0.2-0.4-0.4-0.6-0.6c-0.3-0.3-0.6-0.5-0.8-0.8c-0.1-0.2-0.2-0.4-0.6-0.4c-0.1,0-0.2-0.1-0.2-0.1c-0.1-0.1-1.1-0.6-1.2-0.7
	c-0.1,0-0.2-0.1-0.3-0.1c-0.2,0-0.4-0.1-0.6-0.1c-0.1,0-0.2,0-0.4-0.1c-0.3-0.2-0.7-0.2-1.1,0c-0.4,0.2-0.8,0.5-1.3,0.7
	c-0.5,0.2-1.1,0.4-1,1.1c-0.2-0.2-0.4-0.2-0.5,0.2c-0.1,0.4-0.2,0.8-0.2,1.1c-0.1,0.5-0.2,1-0.4,1.5c0,0.2-0.1,0.4,0.2,0.4
	c0,0,0.1,0.2,0.1,0.4c0,0.1-0.1,0.1,0,0.2c0.1,0.2,0.2,0.5,0.5,0.5s0.3-0.2,0.4-0.5v-0.1c0.2-0.1,0.5-0.2,0.7-0.2
	c0.5-0.1,1-0.2,1.5-0.4c0.3-0.1,0.6-0.1,0.8-0.2c0.4-0.1,0.7-0.1,1.1,0c0.2,0,0.4,0.1,0.6,0.2c0.2,0.2,0.5,0.4,0.7,0.6
	c0.2-0.4,0.6-0.4,1-0.5c0.3-0.1,0.7-0.1,1-0.2c0.4-0.2,1,0.1,1,0.6c0.1,0.4-0.4,0.7-0.7,0.6c-0.2-0.1-0.5-0.1-0.8-0.1
	c-0.5,0-0.9,0-1.1-0.5c-0.2,0.1-0.3,0.2-0.1,0.4c0.1,0.1,0.3,0.1,0.4,0.2c0.2,0.4,0.4,0.7,0.6,1.1c0.1,0.1,0.1,0.2,0.2,0.2
	c0.3,0.1,0.4,0.3,0.3,0.6c0,0.2,0,0.4,0,0.5c0,0.2,0.1,0.3,0.3,0.4c0,0,0.1,0.1,0.1,0.2c0,0.4,0,0.8,0.1,1.2
	c0.1,0.6,0.1,1.2,0.3,1.8c0.2,0.7,0.1,1.2-0.5,1.7C27.1,46,27,46.2,27,46.3c0.1,0.4-0.1,0.5-0.4,0.4c0,0,0,0,0,0
	c0.2,0.4,0.4-0.1,0.6,0.1c0-0.1,0-0.1,0.1-0.3c0,0.1,0.1,0.2,0.1,0.2c-0.2,0.2,0,0.4,0.2,0.5c0.4,0.4,0.8,0.8,1.2,1.2c0,0,0,0,0,0
	c0.1,0.3,0.3,0.4,0.6,0.5c0.1,0,0.1,0,0.2,0.1c0.1,0.1,0.2,0.3,0.3,0.4c0,0,0.1,0.1,0,0.2c-0.1,0.2,0,0.4,0.1,0.5
	c0.1,0.1,0.2,0.1,0.2,0.2c-0.1,0.4,0.2,0.6,0.3,0.8c0,0.1,0.1,0.1,0.1,0.2c0,0.4,0.5,0.7,0.3,1.1c0,0,0,0,0,0
	c0.3,0.1,0.4,0.4,0.6,0.7c0,0,0,0.1,0,0.2c0,0.6-0.1,1.1,0.1,1.7c0.1,0.5,0.2,0.9-0.2,1.3c-0.1,0.1-0.1,0.2-0.1,0.3
	c0,0.3,0.1,0.6,0,0.9c-0.1,0.3-0.1,0.7-0.4,1c-0.2,0.4-0.5,0.8-0.9,1c-0.4,0.2-0.8,0.5-1.3,0.2c-0.2-0.1-0.5,0-0.7-0.1
	c-0.3-0.1-0.6-0.4-0.9-0.6c-0.1-0.1-0.3-0.2-0.4-0.3c-0.4-0.6-0.8-1.1-1.4-1.5c0,0.1-0.1,0.1-0.1,0.1c-0.1,0.3,0.2,1,0.4,1.2
	c0.3,0.2,0.6,0.5,0.8,0.8c0.1,0.1,0.2,0.3,0.4,0.4c0.5,0.5,0.9,1,1.1,1.6c0,0.1,0,0.2,0,0.3c-0.2,0.2-0.1,0.3,0,0.5
	c0.2,0.3,0.4,0.7,0.7,1c0.2,0.2,0.4,0.5,0.6,0.7c0.3,0.4,0.8,0.5,0.9,1.1c0.1,0.3,0.3,0.6,0.4,0.8c0.2,0.5,0.3,1,0.6,1.5
	c0.4,0.7,0.7,1.5,1,2.2c0.2,0.7,0.4,1.3,0.5,2c0.1,0.4,0.1,0.8,0.2,1.2c0.1,0.4,0.3,0.8,0.4,1.2c0.2,0.5,0.3,1,0.5,1.5
	c0.1,0.3,0.2,0.6,0.5,0.8c0.4,0.5,0.8,0.9,1.2,1.3l0,0c0.3,0.5,0.6,0.9,0.8,1.4c0.1-0.1,0.3-0.1,0.3-0.1c0.1,0.3,0.5,0.2,0.7,0.4
	c0.4,0.3,0.7,0.5,1.2,0.5c0.4,0,0.7,0.2,1.2,0.1c0.1-0.1,0.3-0.1,0.4-0.1c0.5,0.2,1.1,0.3,1.2,1c0.1,0.4,0.5,0.7,0.9,0.7
	c0.1,0,0.2,0,0.2,0.1c-0.1,0.1-0.1,0.1-0.2,0.1c-0.2,0-0.3,0.1-0.2,0.4c0,0,0,0.1,0,0.2c0.1,0.2,0.2,0.5,0.4,0.7
	c0.2,0.2,0.5,0.5,0.8,0.7c0.1,0.1,0.2,0.1,0.3,0c0.1-0.1,0.3-0.2,0.5-0.2c0.3,0,0.5,0.1,0.8,0.1c0.1,0,0.1,0,0.2,0.1
	c0.2,0.3,0.6,0.5,0.9,0.6c0.3,0.1,0.4,0.4,0.2,0.6c0,0-0.1,0.1-0.1,0.1c-0.2,0.4-0.3,0.4-0.6,0.1c-0.4-0.4-0.9-0.5-1.4-0.5
	c-0.1,0-0.2,0-0.2,0.1c-0.2,0.1-0.3,0.1-0.5,0.2c-0.2,0.1-0.4,0.3-0.6,0.4c-0.1,0.1-0.1,0.2-0.2,0.2c-0.7,0.7-0.8,1.6-0.6,2.5
	c0.1,0.4,0.2,0.9,0.5,1.3c0.1,0.3,0.4,0.5,0.6,0.7c0.3,0.2,0.6,0.5,0.9,0.6c0.4,0.1,0.7,0.3,1.2,0.3c0.4,0,0.8,0,1.2,0
	c0.7-0.1,1.3-0.5,1.8-1c0.5-0.5,1-1,1.1-1.7c0-0.1,0.1-0.1,0.1-0.2c0.1-0.2,0.5-0.2,0.5,0c0.1,0.3,0.3,0.5,0.6,0.7
	c0.1,0,0.1,0.1,0.1,0.2c-0.1,0.3,0.1,0.5,0.4,0.6c0.1,0.1,0.3,0.1,0.2,0.4c0,0,0.1,0.2,0.1,0.2c0.2,0.2,0.5,0.4,0.8,0.5
	c0.1,0.1,0.4,0.1,0.5,0.1c0.1,0,0.2,0,0.4,0c0.4,0.1,0.9,0.2,1.3,0.2c0.3,0,0.6-0.2,1-0.4c0.4-0.2,0.8-0.6,1.3-0.8
	c0.5-0.4,0.7-0.8,0.7-1.4c0-0.4,0-0.8,0.1-1.2c0.2-0.7-0.1-1.4-0.8-1.6c-0.1,0-0.1,0-0.1-0.1c-0.1-0.2-0.3-0.5-0.5-0.7
	c-0.2-0.2-0.4-0.4-0.7-0.4c-0.3,0-0.6,0-1,0c0.4-0.4,0.8-0.3,1.2-0.5c-0.3-0.1-0.5-0.1-0.7-0.2c-0.1,0-0.2-0.1-0.4-0.2
	c0.1-0.1,0.3-0.2,0.4-0.2c0,0,0.1,0,0.2,0.1c0.3,0,0.6,0.1,0.8,0c0.1,0,0.2-0.3,0.2-0.5c0.2-0.4,0.4-0.7,0.8-0.8
	c0.2,0,0.5-0.1,0.6-0.3c0.3-0.5,0.9-0.5,1.3-0.8c0.3-0.2,0.8-0.2,1.2-0.4c0.3-0.1,0.5-0.2,0.8-0.3c0.2-0.1,0.4-0.2,0.5-0.2
	c0.5,0,0.7-0.4,1-0.7c0.2-0.2,0.4-0.5,0.6-0.7c0.1-0.1,0.4-0.2,0.4-0.4c0.3-0.6,1-1,1.4-1.4c0.4-0.3,0.7-0.7,1.1-1
	c0,0,0.1-0.1,0.1-0.1c0-0.6,0.6-1,0.5-1.7c0-0.1,0-0.3,0.1-0.5c0.1-0.4,0.1-0.8,0.2-1.3c0-0.1,0-0.3,0-0.4c0-0.2,0.1-0.4,0.1-0.6
	c0.2-0.6,0.3-1.2,0.5-1.7c0.2-0.5,0.5-0.9,0.7-1.3c0.2-0.5,0.4-1.1,0.6-1.6c0.2-0.4,0.5-0.7,0.8-0.9c0.2-0.1,0.3-0.4,0.5-0.5
	c0.2-0.2,0.3-0.5,0.5-0.7c0.3-0.2,0.5-0.5,0.6-0.8c0.1-0.5,0.4-0.8,0.8-1.1c0.2-0.1,0.4-0.4,0.5-0.6c0.3-0.6,0.7-1.1,1.1-1.6
	c0.1-0.1,0.2-0.4,0.3-0.5c0.1-0.4,0.4-0.6,0.6-0.9c0.1-0.1,0.3-0.8,0.3-0.9c0,0,0-0.1-0.1-0.1c-0.1-0.1-0.3-0.2-0.4-0.3
	c-0.1,0.1-0.1,0.3-0.2,0.4c-0.2,0.3-0.5,0.5-0.7,0.8c-0.1,0.2-0.3,0.3-0.5,0.4c-0.5,0.2-0.9,0.5-1.3,0.7c0,0,0,0,0,0.1
	c-0.3,0.5-0.7,0.5-1.2,0.2c-0.4-0.2-0.7-0.4-1.1-0.7c-0.3-0.2-0.5-0.4-0.5-0.7c0-0.1-0.1-0.1-0.1-0.2c-0.3-0.4-0.5-0.8-0.3-1.3
	c0-0.1,0-0.2,0-0.3c0-0.4-0.1-0.7,0-1c0-0.6,0.5-1.2,0.4-1.9c0,0,0-0.1,0.1-0.1c0.1-0.3,0.3-0.6,0.2-0.8c-0.1-0.4,0.1-0.7,0.1-1
	c0-0.2,0.2-0.4,0.4-0.4c0.3-0.1,0.5-0.3,0.6-0.6c0.1-0.4,0.2-0.7,0.5-1c0.3-0.4,0.6-0.7,0.6-1.2c0-0.1,0-0.1,0.1-0.2
	c0.1-0.5,0.6-0.6,0.9-0.9c0.3-0.3,0.7-0.5,1-0.8c0.2-0.2,0.4-0.2,0.6-0.1c0,0,0-0.1,0-0.1s0-0.1,0-0.1c-0.3-0.3-0.4-0.7-0.4-1.1
	c0-0.2,0-0.6-0.2-0.7c-0.4-0.2-0.2-0.7-0.6-1c0.1-0.3,0.1-0.5-0.1-0.8c0,0,0-0.1,0-0.1c0-0.2,0.2-0.4,0.2-0.7c0-0.2-0.1-0.5,0.2-0.6
	c0.1,0,0.1-0.3,0.3-0.3c0,0,0.1-0.1,0.1-0.2c-0.2-0.3,0-0.5,0.1-0.7c0.1-0.2,0.2-0.3,0.3-0.4c0.1-0.2,0.2-0.6,0.3-0.9
	c0.1-0.2,0.1-0.4,0.4-0.2c0,0,0.1,0,0.2-0.1c0.1-0.2,0.3-0.4,0.4-0.5c0.4-0.4,0.7-0.9,1.2-1c0.4-0.1,0.7-0.2,1.1-0.1
	c0.9,0.1,1.8,0.4,2.6,0.6c0,0,0,0,0.1,0c0.4,0.1,0.8,0.3,1.3,0.4c0,0,0.2,0,0.2-0.1c0-0.1,0.1-0.3,0.1-0.4c0-0.5-0.2-0.9-0.1-1.3
	L81,35.9z M22.2,33.8c0.2,0,0.4,0,0.6,0.1c0.2,0.1,0.5,0.1,0.8-0.1c0.2-0.2,0.6,0.1,0.6,0.4s-0.3,0.5-0.7,0.4c-0.2,0-0.4,0-0.6,0
	c-0.4,0-0.7,0-1-0.1c-0.1,0-0.2-0.2-0.3-0.4C21.7,34,22.1,33.8,22.2,33.8L22.2,33.8z M24,36.4c-0.8,0-1.7,0-2.6,0
	c-0.4,0-0.8,0-1.2-0.4c0.2-0.2,0.5-0.4,0.8-0.3c0.1,0,0.3,0,0.4,0c0.8,0,1.7,0,2.5,0c0.3,0,0.6,0.2,0.6,0.4
	C24.6,36.1,24.2,36.4,24,36.4L24,36.4z M75.9,33.6c0.3,0,0.6,0,0.8,0c0.2,0,0.5-0.1,0.7,0c0.2,0,0.5,0.1,0.7,0.1
	c0.1,0,0.2,0.2,0.1,0.4c0,0.1-0.2,0.2-0.3,0.2c-0.6,0-1.3,0-1.9,0c-0.1,0-0.2-0.1-0.3-0.1c0,0.1,0,0.1-0.1,0.2c-0.1,0-0.1,0-0.2,0
	c0,0-0.1-0.1-0.1-0.1C75.4,34,75.6,33.6,75.9,33.6L75.9,33.6z M69.5,41.1c0,0,0.3,0,0.5-0.1c0.4-0.1,0.6,0,1,0.1c0,0,0,0,0.1,0
	c0,0,0.1,0,0.1,0.1c0,0.4,0.5,0.5,0.4,0.9c0,0.1-0.1,0.1-0.3,0.2c-0.2-0.1-0.4-0.2-0.5-0.3c-0.1-0.1-0.2-0.1-0.4-0.1
	c-0.4,0.1-0.7,0-1-0.2c-0.1-0.1-0.1-0.2-0.1-0.4C69.2,41.1,69.3,41.1,69.5,41.1L69.5,41.1z M67.8,43.2c0.4,0,0.8,0.1,1.2,0.1
	c0.2,0,0.5,0,0.7,0c0.5,0,0.9-0.1,1.3,0c0.2,0,0.4,0.2,0.5,0.3c0,0.1,0,0.2-0.1,0.4c-0.1,0.1-0.1,0.4-0.4,0.4c-0.2,0-0.4,0-0.6-0.1
	c-0.4-0.2-0.7-0.1-1.1-0.1c-0.2,0-0.4,0-0.5,0c0,0-0.1,0-0.1,0c-0.1,0-0.3,0.1-0.4,0.1c-0.3-0.2-0.5-0.4-0.7-0.6
	C67.5,43.5,67.7,43.2,67.8,43.2z M58.7,53.6c0.2-0.4,0.5-0.5,0.9-0.6c0.1,0,0.2,0,0.2-0.1c0.2-0.4,0.7-0.3,1-0.3
	c0.6,0,1.2,0,1.7-0.1c0.1,0,0.2,0,0.2,0c0.3,0.3,0.6,0.1,0.8,0c0.3-0.1,0.5-0.1,0.8,0.1c0.2,0.2,0.4,0.1,0.6,0
	c0.1,0,0.2-0.1,0.3-0.1c0.2-0.1,0.3-0.1,0.4,0.1c0.1,0.1,0.3,0.2,0.5,0.3c0.1,0,0.2,0.1,0.4,0.1c0.4,0.1,0.8,0.1,1.2,0.2
	c-0.1,0.3-0.4,0.5-0.6,0.5c-0.1,0-0.2,0-0.2,0c-0.2,0.2-0.4,0.2-0.7,0.1c0,0-0.1,0-0.1,0c-0.6,0-1.2,0-1.7-0.1
	c-0.6,0-1.2-0.1-1.8-0.1s-1.2,0-1.8,0.1c-0.2,0-0.3,0.2-0.5,0.2c0-0.1-0.1-0.2-0.1-0.2c-0.1,0-0.2,0.1-0.3,0.1
	c-0.1,0-0.2,0.1-0.3,0.1c-0.2,0-0.4-0.1-0.5-0.1c-0.2,0-0.3-0.1-0.2-0.3L58.7,53.6z M57.4,55.6c0-0.2,0.1-0.2,0.2-0.2
	c0.3,0.1,0.6,0.1,0.9,0c0.4-0.1,0.7-0.1,1.1,0c0.3,0.1,0.6,0.1,0.9-0.1c0.1,0,0.2-0.1,0.3,0c0.3,0.1,0.5,0,0.8-0.1
	c0.1,0,0.2-0.1,0.4,0c0.4,0.1,0.7,0.1,1.1,0.1c0.4,0,0.8,0,1.2,0c0.2,0,0.5,0,0.7,0c0.5,0,1,0,1.4,0.2c0,0,0,0,0.1,0
	c0.4,0.1,0.5,0.3,0.2,0.7c-0.1,0-0.2-0.1-0.3-0.1c-0.4-0.2-0.8-0.2-1.2-0.1c-0.2,0.1-0.6,0.1-0.9,0.1c-0.3,0-0.6,0-1,0
	c-0.4,0-0.8-0.1-1.1,0.2c-0.1,0.1-0.2,0-0.4,0c-0.1,0-0.3,0-0.4-0.1c-0.5,0-0.9-0.1-1.4-0.1c-0.2,0-0.4,0-0.5,0
	c-0.5,0-0.9-0.1-1.3-0.1c-0.5,0-0.5,0-0.7-0.2c0-0.1,0-0.2,0-0.3L57.4,55.6z M55.2,57.7c0.2,0,0.4,0,0.6,0c0.5,0,0.9,0.1,1.3,0.1
	c0.5,0,1,0,1.5-0.1c0,0,0.1,0,0.1,0c0.1-0.3,0.4-0.1,0.5-0.1c0.2,0,0.4,0.1,0.7,0.1c0.1,0,0.2,0,0.4,0c0.3,0,0.6-0.2,0.8,0.1
	c0.2-0.2,0.6,0,0.8-0.1c0.5,0,0.9-0.1,1.3,0c0.8,0.2,1.7,0.1,2.5,0.1c0.4,0,0.7,0.1,1,0.2c0.2,0,0.2,0.2,0.1,0.3
	c-0.1,0.1-0.1,0.2-0.1,0.3c-0.1,0.1-0.2,0.2-0.3,0.2c-0.6,0-1.3,0-1.9-0.1c-0.4-0.1-0.7-0.2-1.1-0.2c-0.5,0-1,0-1.4,0
	c-0.5,0-1,0-1.4,0.1c-0.4,0-0.7,0-1,0c-0.3,0-0.6,0.1-1,0.1c-0.2,0-0.4,0-0.5,0c0,0,0-0.1,0-0.1c0,0,0.1-0.1,0.2-0.2
	c-0.3,0-0.6-0.1-0.8,0c-0.4,0.1-0.7,0-1,0c-0.4,0-0.8-0.1-1.2-0.1c-0.1,0-0.2-0.2-0.2-0.2C54.9,57.8,55,57.7,55.2,57.7L55.2,57.7z
	 M42.9,57.9c0.2,0,0.5,0.1,0.7-0.1c0,0,0.2,0,0.2,0c0.1,0.4,0.5,0.3,0.7,0.3c0.4,0,0.4,0.1,0.4,0.4c0,0.2-0.1,0.2-0.3,0.2
	c-0.4-0.1-0.7-0.2-1.1-0.1c-0.5,0-1,0-1.4,0.2c-0.2,0.1-0.5,0-0.7,0c-0.5,0-1,0.1-1.4,0.1c-0.3,0-0.6-0.1-0.9-0.2
	c-0.1,0-0.1-0.1-0.2-0.1c-0.6,0-1.3,0-1.9,0c-0.2,0-0.5,0-0.7,0c-0.5,0-1.1,0-1.6,0c-0.1,0-0.3,0.1-0.5,0.1
	c-0.4,0.1-0.7,0.1-1.1,0.1c-0.1-0.4,0.1-0.7,0.5-0.7c0.4-0.1,0.7-0.1,1.1-0.2c0.1,0,0.3-0.1,0.5-0.2c0.2,0.1,0.5,0.1,0.7-0.1
	c0,0,0.1,0,0.2,0c0.1,0,0.2,0,0.3,0c0.2-0.1,0.4-0.1,0.6,0.1c0.1,0.1,0.3,0,0.4,0c0.2,0,0.5-0.1,0.7,0.1c0,0,0.1,0.1,0.2,0.1
	c0.4,0,0.7,0,1.1,0c0.4,0,0.8,0,1.3,0c0.2,0,0.4,0,0.6,0C41.8,57.9,42.4,57.9,42.9,57.9L42.9,57.9z M42.4,55.6c0,0,0.2,0.1,0.2,0.1
	c0,0.1-0.1,0.1-0.1,0.2c-0.8,0.3-1.6,0.5-2.5,0.4c-0.1,0-0.1,0-0.2,0c-0.3,0-0.5-0.2-0.8,0c-0.3,0.1-0.7,0.1-1.1,0.1
	c0,0-0.1,0-0.1,0c-0.2,0.2-0.5,0.2-0.7,0c0,0-0.2,0-0.3,0c-0.2,0.1-0.4,0.2-0.6,0c0,0-0.1,0-0.2,0c-0.3,0-0.7,0.2-0.9,0
	c-0.5-0.3-1.1-0.1-1.5-0.4c-0.1-0.1-0.3-0.1-0.4-0.2c0,0,0-0.1,0-0.1c0.6,0.2,0.7-0.3,1-0.7c0.1,0.3,0.4,0.3,0.6,0.2
	c0.2-0.1,0.5,0,0.7,0.1c0.1,0.1,0.2,0.1,0.4,0.1c0.4,0,0.8,0,1.2,0c0.1,0,0.1,0,0.2,0c0.4-0.2,0.8-0.1,1.2,0c0.4,0.1,0.8,0,1.1-0.1
	c0.2-0.1,0.5-0.1,0.7,0c0.4,0.1,0.8,0.1,1.2,0.1C41.7,55.6,42,55.6,42.4,55.6L42.4,55.6z M41.2,53.2c0,0,0.2,0.1,0.2,0.2
	s-0.1,0.1-0.2,0.2c-0.1,0.1-0.3,0.1-0.4,0.2C40.5,54,40.3,54.1,40,54c0,0-0.1,0-0.1,0c-0.4,0.3-0.7,0.1-1.1,0c0,0-0.1,0-0.2,0
	c-0.1,0-0.2,0-0.3,0c-0.1,0-0.2,0-0.2,0c-0.1,0-0.2,0-0.4,0c-0.1,0-0.1,0-0.2,0c-0.1,0-0.2,0-0.4,0c-0.1,0-0.3,0-0.5,0
	c-0.1,0.1-0.4,0-0.5,0c-0.1,0-0.2,0-0.3,0c-0.2,0.1-0.4,0.1-0.6-0.1c-0.1-0.1-0.3-0.1-0.5-0.1h0c-0.4-0.2-0.8,0.1-1.2-0.2
	c-0.1-0.1-0.2-0.1-0.3-0.1c-0.1,0-0.2-0.1-0.4-0.1c0,0,0-0.1,0-0.1c0.1,0,0.3,0,0.5-0.1C33.9,53,34.5,53,35,53c0.5,0,1.1,0,1.6-0.2
	c0.1-0.1,0.3,0,0.5,0.1c0.2,0,0.4,0,0.6,0c0.5,0,1.1,0.1,1.6,0.1c0.1,0,0.2,0,0.4,0c0.1,0,0.1-0.1,0.2,0c0.4,0.1,0.7,0,1-0.1
	c0.2-0.1,0.3,0,0.2,0.3c0.1,0,0.1,0,0.2,0L41.2,53.2z M38.7,50.4c0,0,0.3,0,0.5,0.1c0.4,0.1,0.8,0.2,1.2,0.3c0.2,0,0.4,0,0.5,0.3
	c0,0.2-0.4,0.5-0.6,0.4c-0.4,0-0.9,0-1.3,0c-0.2,0-0.4,0-0.6,0c-0.2,0-0.4,0-0.5,0c-0.4,0.2-0.8,0.2-1.2,0.2c-0.1,0-0.1,0.1-0.2,0.1
	c-0.1,0-0.3,0-0.4,0c-0.1,0-0.3-0.1-0.4-0.1c-0.3-0.1-0.6,0-1,0c-0.3,0.1-0.6-0.1-1-0.1c-0.2,0.3-0.3,0.2-0.6,0
	c-0.1-0.1-0.4-0.1-0.6-0.1c-0.1,0-0.2,0-0.3,0.1c0-0.1,0-0.2,0-0.4c0-0.2,0-0.2,0.2-0.3c0.4,0,0.7-0.1,1-0.2c0.2,0,0.3-0.2,0.5-0.3
	c0.1,0,0.3-0.1,0.4,0c0.4,0.3,0.8,0.2,1.2,0.3c0.1,0,0.1,0,0.2,0c0.4-0.1,0.8-0.2,1.2-0.4c0.1,0,0.1,0,0.2,0
	C37.6,50.5,38.2,50.5,38.7,50.4L38.7,50.4z M27.8,38.8c0.3-0.1,0.6-0.2,0.9-0.1c0.2,0.1,0.5,0,0.8,0c0.1,0,0.3,0,0.4,0.1
	C30,39,30.1,39,30.4,39c0.1,0,0.2,0,0.3,0.1c0,0.1-0.1,0.2-0.1,0.3c-0.2,0.2-0.5,0.4-0.9,0.5c-0.3-0.1-0.6-0.2-0.9-0.2
	c-0.1,0-0.2,0.1-0.4,0.1s-0.2,0.1-0.4,0.1c-0.1,0-0.1-0.1-0.2-0.2c-0.1-0.1-0.1-0.2-0.1-0.2C27.5,39.2,27.5,38.9,27.8,38.8
	L27.8,38.8z M28.9,41.1c0.2,0,0.4-0.1,0.5-0.2s0.3-0.2,0.5,0c0.1,0,0.1,0.1,0.2,0.1c0.2,0,0.5,0.1,0.7,0.1c0.2,0,0.5,0,0.7,0
	c0.2,0.1,0.5,0.2,0.7,0.3c0,0,0,0.1,0,0.1c0,0.2-0.2,0.7-0.4,0.8c-0.2,0-0.4,0-0.6-0.1c-0.7-0.2-1.5-0.4-2.3-0.2
	c-0.5,0.1-1-0.1-1.2-0.4C28,41,28.5,41.2,28.9,41.1L28.9,41.1z M28.2,43.7c0.4-0.1,0.8-0.3,1.2-0.4c0.1,0,0.2,0,0.4,0.1
	c0.1,0,0.1,0.1,0.2,0.1c0.4,0,0.8,0,1.2,0c0.1,0,0.1,0,0.2,0c0.1-0.1,0.3-0.3,0.4-0.4c0.2,0.1,0.3,0.1,0.5,0.2
	c0.3,0.1,0.6,0.2,0.9,0.4c0.2,0.1,0.2,0.3,0,0.4c-0.3,0.2-0.6,0.4-1.1,0.2c-0.2-0.1-0.4,0-0.6,0c-0.4,0-0.9-0.1-1.3,0
	c-0.5,0-0.9,0.1-1.3,0.1c-0.2,0-0.5-0.2-0.7-0.4C28.1,44,28.1,43.8,28.2,43.7L28.2,43.7z M30.6,46.7c-0.5,0-0.9,0-1.3,0
	c-0.3,0-0.6-0.2-0.9-0.4v-0.1c0.4,0,0.6-0.5,1-0.3c0.1,0,0.2,0,0.3-0.1c0.2-0.1,0.5-0.2,0.7,0c0.1,0.1,0.3,0,0.4,0
	c0.2,0,0.4,0,0.6,0c0.1,0,0.2,0,0.4,0c0,0,0.1,0.1,0.2,0.1c0.4,0,0.8,0.1,1.2,0c0.2,0,0.5-0.2,0.7-0.3c0.1,0,0.2,0,0.4,0
	c0,0,0.1,0.1,0.1,0.1c0,0,0.1,0.1,0.1,0.1c0.1-0.2,0.2,0,0.3,0c0.1,0,0.3,0.1,0.4,0.2c0.1,0,0.1,0.1,0.2,0.1
	c-0.1,0.1-0.1,0.2-0.2,0.2c-0.4,0.1-0.7,0.3-1.1,0.2c-0.1,0-0.3,0.1-0.5,0.1c-0.1-0.2-0.6-0.2-0.9,0.1c-0.1-0.1-0.5-0.2-0.7-0.1
	c-0.1,0-0.1,0-0.2,0C31.5,46.7,31,46.6,30.6,46.7L30.6,46.7z M31.7,48.7c0,0,0.1-0.2,0.2-0.2c0.1-0.1,0.2-0.1,0.4-0.1
	c0.2-0.1,0.4-0.2,0.6-0.2v0.2c0.6-0.1,1.3-0.2,1.9-0.3c0,0.1,0,0.2,0.2,0.2c0.8,0,1.7,0.1,2.5,0.1c0.2,0,0.4,0,0.6,0
	c0.2,0,0.3,0,0.4,0.2c0.1,0.2,0,0.3-0.1,0.4c-0.2,0.1-0.4,0.1-0.6,0.1c-0.2,0-0.5,0.1-0.7,0.1c-0.2,0-0.4,0.1-0.6,0.1
	c-0.1,0-0.2,0-0.3,0c-0.2,0-0.4-0.1-0.5,0c-0.4,0.2-0.8,0.2-1.3,0C34.3,49,34.1,49,33.9,49c-0.4,0-0.8,0.1-1.3,0.1
	c-0.1,0-0.2,0-0.2-0.1c-0.1-0.1-0.2-0.1-0.4-0.2C31.9,48.8,31.8,48.8,31.7,48.7L31.7,48.7z M46,80.5c-0.2,0-0.4-0.1-0.5-0.1
	c-0.2,0-0.4-0.1-0.4-0.4c0-0.2,0.2-0.4,0.4-0.4c0.4,0,0.8,0,1.3-0.1c0.2,0,0.4-0.1,0.7-0.2c0.1,0.2,0.4,0.1,0.7,0.1
	c0.2,0,0.4-0.1,0.4,0.2c0,0.3-0.2,0.3-0.4,0.4c-0.1,0-0.2,0.1-0.4,0.1c-0.1,0-0.2,0.1-0.4,0.1c-0.2,0-0.5,0-0.7,0.1
	C46.5,80.6,46.3,80.5,46,80.5L46,80.5z M46.8,89.8c-0.3,0.1-0.7,0.1-1.1,0.1c-0.2,0-0.5-0.1-0.8-0.2c0.5-0.4,0.9-0.7,1.4-1
	c0.1-0.1,0.2,0,0.4,0c0.2-0.1,0.5-0.1,0.7-0.2c0,0,0.1,0,0.1,0s0,0.1,0,0.1C47.4,89.1,47.2,89.5,46.8,89.8L46.8,89.8z M52.9,90
	c-0.5-0.1-0.8-0.5-0.7-1.1c0-0.2,0.2-0.3,0.4-0.2c0.2,0.1,0.5,0.3,0.8,0.4c0.5,0.1,1,0.5,1.5,0.3c0.1,0,0.2-0.1,0.4-0.1
	c0,0,0,0.1,0,0.1C54.6,89.9,53.8,90.3,52.9,90L52.9,90z M54,87.2c0.1,0.2,0.2,0.4,0.5,0.4c0.3,0,0.5-0.2,0.6-0.4
	c0-0.1,0-0.2-0.1-0.3c-0.2-0.2-0.5-0.5-0.8-0.7c0.1-0.2,0.3-0.4,0.4-0.5c0.1-0.1,0.3-0.1,0.4,0c0.3,0.2,0.5,0.4,0.8,0.6
	c0.4,0.2,0.5,0.5,0.4,0.8c0,0.2,0,0.4-0.1,0.6c-0.1,0.3-0.2,0.6-0.3,1.1c-0.1-0.2-0.2-0.4-0.3-0.6c-0.2-0.2-0.4-0.2-0.6,0
	c-0.1,0.1-0.3,0.3-0.5,0.5c0,0,0,0-0.1,0c-0.1-0.1-0.1-0.2-0.2-0.3c-0.3-0.2-0.7-0.5-1-0.7c-0.5-0.3-1.2-0.5-1.6-1
	c-0.2-0.4-0.6-0.6-0.6-1.1c0-0.2-0.2-0.4-0.3-0.5c-0.1-0.3-0.2-0.6-0.2-1c-0.1-0.2-0.7-0.7-0.9-0.7c-0.1,0-0.3,0.1-0.3,0.1
	C49.1,83.7,49,84,49,84.3c-0.1,0.3-0.1,0.6-0.1,0.9c0,0.5-0.4,0.6-0.5,1c0,0.1-0.1,0.1-0.2,0.1c-0.2,0.2-0.5,0.4-0.7,0.6
	c-0.3,0.2-0.7,0.4-1,0.6c-0.2,0.1-0.4,0.1-0.5,0.4c-0.1,0.1-0.4,0.3-0.6,0.3c-0.4-0.1-0.6-0.1-0.8,0.2c0,0-0.1,0.1-0.1,0.1
	c-0.2-0.2-0.3-0.7-0.8-0.4c-0.1-0.3-0.2-0.6-0.1-1c0,0,0-0.1,0-0.2c-0.1-0.5,0-0.9,0.2-1.3c0.2-0.4,0.7-0.5,1.1-0.6
	c0.4-0.1,0.6,0,0.6,0.4c-0.2,0-0.4,0.1-0.5,0.2c-0.4,0.1-0.5,0.2-0.4,0.7c0,0.1,0,0.1,0,0.2c-0.1,0.3,0,0.5,0.2,0.7
	c0.4,0.2,0.6,0.2,1,0c0.3-0.2,0.6-0.4,1-0.6c0.1-0.1,0.2-0.3,0.4-0.5c0.1-0.1,0.2-0.1,0.3-0.2c0.3-0.1,0.5-0.3,0.6-0.6
	c0,0,0-0.1,0-0.1c0.5-0.3,0.4-0.9,0.7-1.3c0.2-0.2,0.3-0.6,0.4-0.9c0.1-0.4,0.3-0.7,0.5-1c0,0,0.1-0.1,0.2-0.1c0.1,0,0.2,0,0.3,0
	c0.3,0.2,0.6,0.4,0.8,0.5c0.2,0.1,0.4,0.2,0.5,0.5c0.1,0.4,0.2,0.7,0.1,1c0,0.1,0.1,0.1,0.1,0.2c0.1,0.2,0.2,0.4,0.2,0.7
	c0,0.2,0.2,0.4,0.4,0.6c0,0,0.1,0,0.1,0c0-0.3,0.1-0.6,0.1-1c0-0.1,0-0.1,0.1-0.2c0.2-0.2,0.5-0.4,0.8-0.5c0.1,0,0.2,0,0.3,0
	c0,0.1,0,0.2-0.1,0.2c-0.3,0.6-0.7,1.2-0.7,1.9c0,0.2,0.1,0.4,0.2,0.5c0.1,0.2,0.4,0.3,0.5,0.4c0.1,0.1,0.2,0.1,0.4,0.2
	c0.1,0.1,0.2,0.1,0.2,0.2L54,87.2z M54.7,80.1c-0.2,0.2-0.6,0.2-0.8,0.4v-0.1c-0.5,0-0.9,0.1-1.3,0.1c-0.6,0-1.1,0.1-1.7-0.3
	c-0.1-0.1-0.2-0.2-0.2-0.3c0-0.1,0.1-0.2,0.3-0.1c0.1,0,0.3,0,0.4-0.1c0.1-0.2,0.3-0.2,0.5-0.1c0.6,0.1,1.1,0.2,1.7,0.2
	c0.3,0,0.6-0.1,1-0.1c0.1,0,0.2,0.1,0.2,0.1C54.8,79.9,54.8,80.1,54.7,80.1L54.7,80.1z M61.3,77.7c0,0-0.2,0-0.3,0
	c-0.1,0-0.2,0.1-0.3,0.1c-0.2,0.2-0.4,0.4-0.7,0.2c-0.2-0.1-0.5,0-0.5-0.2c-0.8,0-1.6,0-2.4,0c-0.6,0-1.1-0.1-1.7,0
	c-1.2,0-2.4,0.1-3.7,0.1c-0.1,0-0.1,0-0.2,0C51,78,50.5,78,50,78c-0.5,0.1-1,0-1.4,0c-0.6,0-1.3,0-1.9,0c-0.2,0-0.5,0-0.7,0
	c-0.4,0-0.9,0-1.3,0c-0.3,0-0.6,0-1,0c-1.1,0-2.3,0-3.4,0c-0.1,0-0.1,0-0.2,0c-0.3,0.1-0.6,0.2-1,0.1c-0.2,0-0.4-0.2-0.6-0.3
	c-0.1-0.1-0.2-0.1-0.3-0.2c-0.2-0.1-0.2-0.2-0.1-0.5c0.1-0.2,0.3-0.1,0.4,0c0.1,0.1,0.1,0.1,0.2,0.2c0.1,0,0.3,0.1,0.4,0
	c0.2-0.1,0.3-0.1,0.5-0.1c0.3,0,0.6,0,1,0c0.4,0,0.8-0.1,1.2-0.1c0,0,0.1,0,0.1,0c0.6-0.1,1.1-0.2,1.7-0.4c0.1,0,0.3,0,0.5,0
	c0.5,0.1,0.9,0.1,1.3-0.1c0.1,0,0.2,0,0.4,0c0.2,0,0.4,0.1,0.5,0.1c0.2,0,0.4,0,0.5,0.1c0.2,0.1,0.4,0.1,0.6,0.1
	c0.2,0,0.5,0,0.7,0.1c0.1,0,0.1,0,0.2,0c0.5-0.2,1.1,0,1.5-0.1c0.4-0.2,0.6,0.2,0.8,0.1c0,0,0.1,0,0.1,0c0.5-0.2,1-0.1,1.5-0.2
	c0.1,0,0.2,0,0.4,0c0.5,0,0.9,0,1.4-0.1c0.1,0,0.2,0,0.2,0c0.2,0.2,0.4,0.1,0.6,0c0.1,0,0.2-0.1,0.3,0.1c0,0,0.1,0.1,0.2,0.1
	c0.6,0,1.2,0,1.7,0c0.5,0,1,0,1.5,0c0.3,0,0.6,0.1,1,0.1c0.1,0,0.2-0.1,0.4-0.1c0.2-0.1,0.4-0.2,0.5-0.2c0.3,0,0.6,0,0.9,0
	c0.1,0,0.2,0.1,0.2,0.1c0.2,0.3-0.1,0.4-0.2,0.7L61.3,77.7z M63.2,75.3c-0.3,0.1-0.6,0.1-0.9,0.1c-0.2,0-0.5,0-0.7,0
	c-0.1,0-0.2,0-0.3,0c-0.7,0-1.3,0.1-1.9,0.4c-0.1,0-0.4,0.1-0.5,0c-0.3-0.2-0.6-0.1-0.9-0.1c-0.2,0-0.4,0-0.5,0
	c-0.2,0-0.4-0.1-0.5,0c-0.4,0.2-0.7,0-1,0c-0.5,0-1.1-0.1-1.6-0.1c-0.4,0-0.8,0-1.2-0.1c-0.8,0-1.7,0-2.5,0c-0.7,0-1.4,0-2.2,0.1
	c-0.4,0-0.8,0.1-1.2,0.2c-0.2,0-0.5,0-0.8,0c-1.4,0-2.8-0.1-4.1-0.1c-0.8,0-1.6,0-2.4,0c-0.4,0-0.7,0-1,0c-0.6,0-1.1-0.2-1.7-0.1
	c-0.4,0-0.7-0.1-1-0.1c0,0-0.1-0.1-0.1-0.1s0.1-0.1,0.1-0.1h0.1c0.4,0,0.8-0.2,1.2-0.3c0.1,0,0.1,0,0.2,0c0.5,0.1,1,0,1.4-0.3
	c0.2,0.2,0.4,0.4,0.7,0.1c0,0,0.1,0,0.2,0c0.4,0.2,0.7,0.1,1,0c0.2-0.1,0.2-0.1,0.4,0c0.2,0.2,0.5,0,0.6-0.1
	c0.4,0.4,0.7,0.3,1.1,0.1c0.1,0,0.2-0.1,0.2,0c0.2,0.2,0.5,0.1,0.8,0.2c0.1,0,0.3,0.1,0.5,0c0.2,0,0.3-0.1,0.5-0.2
	c0.4,0.2,0.4,0.2,0.8-0.1c0.1,0.1,0.1,0.1,0.2,0.2c0.1,0.2,0.3,0.2,0.5,0.1c0.2-0.1,0.4-0.2,0.6,0c0.1,0.1,0.3,0.1,0.5,0
	c0.6-0.1,1.3-0.2,1.9-0.3c0.3,0,0.6,0.1,0.8,0c0.1,0,0.3,0.1,0.4,0.1c0.3,0,0.7-0.1,1,0s0.7-0.1,1,0.2c0.1,0.1,0.3,0,0.4,0
	c0.2,0,0.4,0,0.6,0c0.1,0,0.3-0.1,0.4-0.1c0,0,0.1,0,0.1,0c0.4,0.2,0.8,0,1.3,0c0.5,0,1.1,0.1,1.6,0.1c0.2,0,0.4,0,0.6,0
	c0.2,0,0.4,0,0.5,0c0.3,0,0.6,0,1,0.1c0.1,0,0.3,0,0.5-0.1c0.2,0,0.4-0.1,0.5,0.1c0.1,0.1,0.4,0,0.5,0s0.3,0,0.5,0c0,0,0.1,0,0.1,0
	c0.4-0.2,0.8,0,1.2,0c0.1,0,0.3-0.1,0.5-0.1c0.1,0,0.3,0.1,0.3,0.1C63.3,75,63.3,75.3,63.2,75.3L63.2,75.3z M63.3,73.3
	c-0.3,0-0.6,0.1-0.8,0.2c-0.1,0-0.2,0-0.4,0.1c0-0.4-0.1-0.6-0.5-0.6c-1.1,0-2.2,0-3.3,0.1c-0.4,0-0.7-0.1-1,0c-0.4,0-0.7,0-1,0
	c-0.5,0-1.1,0.1-1.6,0.1c-0.3,0-0.6,0-0.9,0c-0.1,0-0.2,0-0.3,0c-0.2,0.1-0.5,0.1-0.8,0c-0.2-0.1-0.4,0-0.6,0c-0.3,0-0.6-0.1-1-0.1
	s-0.7,0-1,0s-0.6-0.1-0.9,0c-0.6,0-1.2,0-1.7,0.1c-0.4,0.1-0.8,0.3-1.3,0.4c-0.1,0-0.2,0.1-0.4,0c-0.5-0.2-1.1-0.3-1.6-0.1
	c-0.1,0-0.2,0-0.3,0c-0.4-0.1-0.8-0.2-1.2-0.2c-0.4-0.1-0.8-0.1-1.3-0.1c-0.4,0-0.7,0-1.1,0c-0.5,0-0.9,0-1.4,0c-0.2,0-0.5,0-0.7,0
	c-0.5,0-1.1,0-1.6-0.1c-0.7,0-1.4-0.1-2.1-0.2c0,0-0.1-0.1-0.1-0.1c0.3-0.4,0.7-0.5,1.1-0.6c0.1,0,0.1,0,0.2,0
	c0.6,0.1,1.2,0,1.7,0.1c0.5,0.1,1.1,0.1,1.6,0.1c0.6,0,1.2,0,1.8,0c0.3,0,0.6,0,0.9-0.1c0.4,0,0.8-0.1,1.2-0.1
	c0.3,0,0.6-0.1,0.8-0.1c0.1,0,0.2,0,0.3,0c0.4,0.1,0.7,0.2,1.1,0.2c0.5,0,1.1-0.1,1.6,0c0.7,0,1.3,0.1,2,0.1c0.2,0,0.5-0.1,0.8-0.1
	c0.6-0.1,1.3-0.2,1.9,0c0.2,0.1,0.4,0,0.7,0c0.5,0,1.1,0.2,1.6,0c0,0,0.1,0,0.1,0c0.3,0.2,0.6,0.1,0.8-0.1c0.1-0.1,0.2-0.1,0.4,0
	c0.2,0.1,0.6,0.1,0.8,0.1c0.3,0,0.6,0.1,0.8,0l0,0c0.4,0,0.9,0.1,1.3,0.1c0.2,0,0.4,0,0.6,0c0.4,0,0.8-0.1,1.1-0.1c0,0,0,0,0.1,0
	c0.4,0.3,0.9,0.1,1.3,0.2c0.5,0.1,1,0.1,1.4,0.1c0.4,0,0.7,0,1,0c0.1,0,0.2,0.1,0.2,0.1C64,72.9,63.6,73.4,63.3,73.3L63.3,73.3z
	 M64.9,70.7c-0.6-0.1-1.2-0.1-1.9,0.1c-0.1,0-0.3,0-0.5,0c-0.7,0-1.5,0-2.2,0c-0.9,0-1.8,0-2.7,0c-0.3,0-0.7,0-1,0
	c-0.5,0-1.1,0-1.6,0c-0.4,0-0.8,0-1.3,0c-0.4,0-0.7,0-1.1,0c-0.5,0-1,0-1.5,0c-0.9,0-1.8,0.1-2.6,0.2c-0.4,0-0.8-0.1-1.3-0.1
	c-0.5,0-1,0-1.6,0c-0.3,0-0.7,0-1,0c-0.1,0-0.2,0-0.4,0c-0.6,0-1.2,0-1.8,0c-0.6,0-1.3,0.1-1.9,0.1c0,0-0.1,0-0.1,0
	c-0.9-0.2-1.8,0-2.6-0.1c-0.4,0-0.8,0-1.3,0c-0.1,0-0.2,0-0.2,0c-0.4,0.1-0.7,0.2-1.1,0.4c-0.4,0.1-0.6,0-0.5-0.4
	c0.1-0.2,0-0.3-0.2-0.3c-0.1,0-0.2-0.1-0.3-0.1c0,0,0-0.1,0-0.1c0.2,0,0.3,0,0.5,0c0.6-0.1,1.3-0.1,1.9-0.2c0.5,0,0.9,0,1.3,0
	c0.6,0,1.1,0,1.7-0.1c0.2,0,0.4-0.1,0.6,0c0.1,0.1,0.4,0,0.6-0.1c0.1,0,0.2,0,0.3,0c0.1,0,0.2,0.1,0.3,0.1c0.5-0.2,1,0.2,1.6-0.1
	c0.2-0.1,0.5,0.1,0.7,0.1c0.2,0,0.2,0,0.2-0.2c0-0.3,0.2-0.4,0.5-0.2s0.5,0.1,0.8,0c0.4-0.1,0.8-0.3,1.1,0.2c0,0,0.2,0,0.2,0
	c0.2,0,0.4-0.1,0.6-0.1c0.1,0,0.2,0,0.2,0.1c0.1,0.3,0.4,0.1,0.6,0.1c0.1-0.1,0.3-0.1,0.5-0.2c0.1,0,0.2,0,0.3,0
	c0.1,0,0.2,0.1,0.4,0.1c0.5-0.1,1,0.2,1.5-0.1c0.4,0.2,0.8-0.2,1.3,0.1c0.1,0.1,0.4,0.1,0.5,0.1c0.7,0.1,1.5,0.2,2.2,0.2
	c0.5,0,1-0.1,1.5-0.1c0.2,0,0.4,0,0.6,0c0.4,0,0.8-0.1,1.2-0.1c0.5,0,1,0.1,1.4,0c0.3,0,0.6-0.1,0.8-0.2c0.1,0,0.2,0,0.2,0
	c0.1,0.2,0.2,0.2,0.4,0.2c0.5,0,1,0.1,1.5,0.1c0.1,0,0.2,0,0.3-0.1c0.1-0.3,0.3-0.2,0.5-0.1c0.3,0.2,1,0.3,1.3,0.2
	c0.1,0,0.3,0,0.4,0c0.1,0,0.2,0.2,0.2,0.3c0,0.1,0,0.4-0.3,0.3L64.9,70.7z M66,68.2c0,0-0.1,0.1-0.2,0.1c-0.2,0-0.4,0-0.6,0
	c-0.4,0.1-0.8,0.1-1.2-0.1c-0.1,0-0.2,0-0.3,0c-0.1,0-0.2,0-0.4,0c-0.3,0-0.7,0-1,0.1c-0.4,0-0.8,0-1.2,0.1c-0.3,0-0.6,0.1-0.9,0.1
	c-0.5,0-1,0.1-1.5,0.1l0,0c-0.5,0.2-0.9,0-1.4,0c-0.5,0.1-1.1-0.1-1.6-0.1c-0.1,0-0.1,0-0.2,0c-0.5,0.2-1-0.1-1.4,0
	c-0.6,0.1-1.3-0.2-1.9,0c-0.8,0.3-1.6,0.3-2.4,0.3c-0.4,0-0.8-0.1-1.2-0.1c-0.7,0-1.4-0.2-2.1-0.1c-0.7,0.1-1.4,0.2-2.2,0
	c-0.1,0-0.2,0-0.2,0c-0.2,0.2-0.5,0-0.7,0c-0.2,0-0.4,0-0.6-0.1c-0.2,0-0.4,0-0.6,0c-0.5,0-1,0-1.5,0c-0.4,0-0.8,0-1.2,0
	c-0.2,0-0.5,0-0.7,0c-0.4,0-0.7,0-1,0c-0.6,0-1.1-0.1-1.7-0.2c-0.6,0-1.2-0.2-1.7,0c-0.3,0.1-0.3-0.2-0.4-0.4c0-0.1,0-0.2,0-0.4
	c0.2,0,0.3,0.1,0.5,0.1c0-0.4,0-0.4,0.4-0.4c0.7,0,1.4,0,2.1,0.2c0.4,0.1,0.9,0,1.3-0.1c0.5-0.1,0.9-0.1,1.4,0c0.5,0.1,1,0,1.5-0.1
	c0.2,0,0.4,0,0.5,0.1c0.3,0.2,0.6,0.2,1,0c0.4-0.2,0.8-0.3,1.3,0c0.1,0.1,0.4,0.1,0.6,0.1c0.5,0,0.9,0,1.3,0c0.1,0,0.2,0,0.3,0
	c0.2,0,0.3,0,0.5,0c0,0,0.1,0,0.1,0c0.6,0,1.2,0,1.8-0.1c0.6-0.1,1.3-0.2,1.9-0.1c0.1,0,0.3-0.1,0.4,0c0.2,0,0.5,0.1,0.7,0.1
	c0.3,0,0.6,0,0.9,0c0.5,0,1,0,1.5,0c0.2,0,0.5,0,0.7-0.1c0.3,0,0.6-0.1,0.9-0.1c0.2,0,0.5,0,0.7,0.1c0.4,0.1,0.8,0.1,1.2,0.1
	c0.5,0,1.1-0.1,1.6-0.1c0.2,0,0.4,0,0.5-0.1c0.1,0,0.2,0,0.3,0c0.3,0,0.6-0.1,0.8,0c0.2,0,0.4,0.1,0.6,0.1c0.1,0.1,0.2,0.1,0.4,0
	c0.2-0.2,0.4-0.3,0.6-0.1c0.1,0.1,0.4,0.1,0.5,0.1c0.1,0,0.3,0,0.3,0.1c0.1,0.2,0.2,0.2,0.4,0.1c0.2-0.1,0.3-0.1,0.4,0.1
	c0.2,0.3,0.6,0.1,0.8,0.1c0.2,0,0.5-0.1,0.7-0.1c0.2,0,0.3,0.1,0.2,0.3C66,68,66,68.1,66,68.2L66,68.2z M67.2,65.9c0,0-0.2,0-0.2,0
	c-0.5-0.3-1-0.2-1.5-0.2c-0.6,0-1.1,0.1-1.7,0.1c-0.6,0-1.2,0.1-1.8,0.1c-0.3,0-0.7,0-1,0c-0.7,0-1.4,0-2,0c-0.5,0-0.9,0-1.4,0
	c-0.2,0-0.5,0-0.7,0c-0.3,0-0.5,0-0.8,0c-0.4,0-0.7,0-1.1,0c-0.2,0-0.4,0-0.6,0c-0.2,0-0.4,0-0.6,0c-0.2,0-0.3,0-0.5,0
	c-0.4,0-0.7,0-1.1,0.1c-0.5,0-1.1,0-1.6,0h-5.1c-0.4,0-0.8,0-1.2,0c-0.5,0-1.1,0.1-1.6,0.1c-0.6,0-1.2,0-1.8,0c-0.2,0-0.4,0-0.5,0
	c-0.7,0-1.4-0.1-2.1-0.1c-0.5,0-1.1,0-1.6,0c-0.4,0-0.8-0.1-1.1-0.1c-0.1,0-0.1,0-0.2,0c-0.5,0-0.9-0.1-1.3-0.1
	c-0.2,0-0.5-0.1-0.7,0.2c0,0.1-0.3,0-0.4,0c0-0.1,0-0.1,0-0.1c0-0.6,0-0.6,0.6-0.7c0.8-0.1,1.7,0,2.6-0.1c0.4,0,0.7,0,1.1-0.1
	c0.1,0,0.2-0.1,0.3-0.1c0,0,0.1-0.1,0.1-0.1c0.4,0,0.7,0,1.1,0c0.2,0,0.4-0.1,0.6-0.1c0.1,0,0.3,0,0.4,0.1c0.1,0,0.1,0.1,0.2,0.1
	c0.3-0.1,0.6,0,1,0c0.1,0,0.2,0,0.2,0.1c0.2,0.2,0.4,0.2,0.6,0.1c0.5-0.2,1.1-0.2,1.6-0.1c0.6,0.1,1.1,0,1.7,0.1
	c0.2,0,0.4,0.1,0.6,0c0.2,0,0.4-0.1,0.6-0.1c0.1,0,0.1,0,0.2,0c0.1,0,0.2,0.1,0.4,0.1c0.5,0,1.1,0,1.6,0c0.2,0,0.4,0,0.5,0
	c0.5,0,0.9,0,1.3,0c1.2,0,2.4,0,3.6,0c0.4,0,0.8,0.1,1.3-0.1c0.2-0.1,0.4,0.1,0.6-0.1c0,0,0.1,0.1,0.2,0.1c0.1,0.1,0.1,0.1,0.3,0.1
	c0.3,0,0.7,0,1,0c0.6,0,1.1-0.1,1.7-0.1c0.1,0,0.3,0,0.4,0c0.2,0,0.5,0,0.8,0c0.2,0,0.3,0,0.5-0.1c0.1,0,0.3-0.1,0.5-0.1
	c0.2,0,0.4,0,0.6,0c0.7,0.1,1.4,0.2,2.1,0.1c0.8-0.1,1.6,0,2.3,0.1c0.1,0,0.3,0,0.5,0c0.2,0,0.5,0,0.8,0c0.1,0,0.3,0.1,0.3,0.2
	c0,0.2-0.1,0.4-0.1,0.5L67.2,65.9z M68.3,62.9c0,0-0.1,0.3-0.2,0.4c-0.1,0.2-0.4,0.2-0.6,0.1c-0.2-0.2-0.4-0.3-0.6-0.2
	c-0.2,0.1-0.4,0-0.6,0c-0.2,0-0.5,0-0.7,0.1c-0.8,0.1-1.6,0.1-2.4,0.2c-0.4,0-0.8,0-1.2,0c-1,0-1.9,0-2.8,0c-0.6,0-1.2,0-1.7,0
	c-0.6,0-1.3,0-1.9,0c-0.6,0-1.2,0.2-1.8,0.2c-0.1,0-0.2,0-0.3,0c-0.5,0-0.9,0.1-1.3,0.1c-0.2,0-0.4-0.1-0.5-0.1c-0.1,0-0.3,0-0.4,0
	c-0.3,0-0.5,0.1-0.8,0.1c-0.4,0-0.7,0-1.1,0c0,0-0.1,0-0.1,0c-0.6,0-1.1-0.1-1.7-0.1c-0.1,0-0.2,0-0.3,0c-0.3,0-0.6-0.1-0.9-0.1
	c-0.4,0-0.8,0-1.3-0.1c-0.4,0-0.7,0-1.1,0c-0.3,0-0.6,0-1,0c-0.4,0-0.8,0-1.2,0c-1.3,0-2.5,0-3.8,0c-0.6,0-1.2,0-1.7-0.1
	s-1.1,0-1.7,0c-0.5,0-1.1-0.1-1.6-0.2c-0.2,0-0.5,0-0.7,0c-0.1,0-0.2,0-0.3,0c0.2-0.6,0.6-0.7,1.1-0.6c0,0,0.1,0,0.1,0
	c0.2-0.2,0.6-0.1,0.8-0.1c0.1,0,0.3,0,0.4,0c0.2,0,0.4,0,0.6,0c0.2,0,0.5,0,0.7,0c0.1,0,0.2,0,0.3,0c0.2,0,0.4,0,0.5-0.1
	c0.2-0.1,0.5,0,0.7,0c0.4,0.1,0.8,0,1.2,0c0.1,0,0.2,0,0.4,0c0.2,0,0.4,0,0.5,0c0,0,0,0,0.1,0c0.5,0,1,0.1,1.5,0.1
	c0.2,0,0.4,0,0.6,0c0.4,0,0.8-0.1,1.3-0.1c0.4,0,0.8,0.2,1.3,0c0,0,0.2,0,0.2,0c0.1,0,0.2,0.1,0.4,0.1c0.4,0,0.7-0.1,1.1-0.1
	c0,0,0,0,0.1,0c0.3,0.2,0.6,0,0.8-0.1c0.1,0,0.2,0,0.3,0c0.3,0.2,0.5,0.1,0.8,0c0.2-0.1,0.5-0.1,0.7,0c0.2,0.1,0.4,0,0.6,0
	c0.2,0,0.4,0,0.6,0c0.5,0,0.9,0,1.4-0.1c0.1,0,0.3,0,0.5,0c0.5,0,1,0,1.6,0c0.4,0,0.7-0.1,1-0.1c0.1,0,0.2,0,0.4-0.1
	c0.6-0.1,1.1,0,1.7,0.1c0.1,0,0.2,0,0.3,0c0.4,0,0.7,0.1,1.1,0.1c0.1,0,0.2,0,0.3,0c0.3-0.2,0.3-0.2,0.5,0.1
	c0.1-0.1,0.2-0.1,0.4-0.2c0.1,0,0.2-0.1,0.3,0c0.2,0.1,0.4,0.2,0.6,0.1c0.3-0.1,0.6-0.1,1-0.1c0.4,0,0.8-0.1,1.2,0
	c0.6,0,1.1,0.1,1.7,0.2c0.1,0,0.2,0,0.4,0c0.7,0,1.3-0.1,2,0c0.7,0,1.4,0.1,2.1,0.1c0.2,0,0.2,0.1,0.2,0.3L68.3,62.9z M68.6,60.3
	c0.3,0.2,0.8,0.1,1.2-0.1c0.1,0.1,0.2,0.1,0.4,0.2c0,0,0,0.2,0,0.2c-0.4,0.2-0.8,0.5-1.3,0.4c-0.1,0-0.3,0-0.4-0.1
	c-0.5-0.2-0.9-0.1-1.4-0.1c-1.1,0.1-2.2,0.1-3.4,0.1c-0.5,0-1,0-1.5,0c-0.5,0-1.1,0.1-1.6,0.1c-0.6-0.1-1.2,0.1-1.8,0
	c-0.6-0.1-1.2,0-1.8,0c-0.2,0-0.4,0-0.6,0s-0.4,0-0.6,0c-0.7,0-1.5,0-2.3,0c-1,0.1-2,0.2-3,0.3h-0.1c-0.4-0.2-0.8,0-1.2,0
	c-0.1,0-0.1,0-0.2,0c-0.3-0.3-0.7-0.1-1-0.1c-0.1,0-0.3-0.1-0.5-0.1c-0.5,0-1.1,0-1.6-0.1c-0.2,0-0.5-0.1-0.7,0
	c-0.2,0-0.4,0-0.6,0.1c-0.3,0.2-0.6,0.1-0.8,0c-0.1,0-0.2,0-0.3,0c-0.5,0.2-0.9,0.2-1.4,0c0,0,0,0-0.1,0c-0.5,0-1,0-1.5,0
	c0,0-0.1,0-0.1,0c-0.7-0.1-1.4-0.1-2.1-0.1c-0.7,0-1.5,0-2.3,0c-0.5,0-1.1-0.1-1.6-0.1c0,0.1,0,0.2,0,0.5c-0.1-0.1-0.2-0.2-0.2-0.3
	c-0.1-0.2-0.3-0.2-0.5-0.2c-0.2,0-0.4-0.1-0.6-0.1c-0.2,0-0.5,0-0.7,0.1c-0.2,0-0.3,0.1-0.5,0.2c-0.2,0.1-0.3,0-0.2-0.2
	c0.1-0.3,0.3-0.6,0.5-0.8c0.1-0.1,0.3-0.1,0.5-0.1c0.5,0,1,0.1,1.4,0.2c0.2,0,0.5,0.1,0.7-0.1c0.1-0.1,0.2-0.1,0.4,0
	c0.2,0.2,0.6,0.2,0.8,0c0.1-0.1,0.2-0.2,0.4,0h0c0.5-0.1,0.9,0.2,1.4,0.1c0,0,0.1,0,0.1,0c0.2,0.1,0.3,0.1,0.5,0
	c0.1-0.1,0.3-0.1,0.5-0.1s0.5,0,0.7-0.1c0.1,0,0.1-0.1,0.2,0c0.4,0.2,0.8,0.1,1.2,0c0.4,0,0.7,0,1.1-0.2c0.1-0.1,0.3-0.1,0.4,0.1
	c0.1,0.2,0.2,0.1,0.4,0c0.1,0,0.2-0.1,0.2-0.1c0.2,0.2,0.4,0.1,0.6,0c0,0,0.1,0,0.2,0c0.1,0,0.2,0.1,0.4,0.1c0.2,0,0.4-0.1,0.6,0.1
	c0,0,0.1,0,0.2,0c0.1,0,0.2,0,0.3,0c0.3,0,0.6,0,0.9,0c0.5,0,0.9,0.1,1.3,0c0.5,0,0.9-0.1,1.3-0.1c0.1,0,0.2,0,0.2,0
	c0.4,0,0.8,0.1,1.2,0.1c0.6,0,1.2,0.1,1.8,0c0.1,0,0.3,0,0.4,0c0.1,0,0.1,0,0.2,0c0.2-0.2,0.5-0.2,0.7-0.1c0.1,0,0.4-0.1,0.5-0.1
	c0.4,0.1,0.7-0.1,1.1,0c0.3,0,0.6,0.1,0.9-0.1c0.1-0.1,0.4,0,0.5,0c0.3,0,0.6,0,0.9,0.1c0.2,0,0.5,0,0.8,0.1c0.4,0,0.8,0,1.1,0
	c1.1,0,2.2,0.1,3.3,0.1c0.5,0,1,0.1,1.4,0.1c0.4,0,0.6,0,0.9,0.1c0.3,0.1,0.4-0.1,0.7-0.2c0.2,0.2,0.4,0.2,0.6,0.1
	c0.3-0.1,0.7-0.2,0.9-0.2c0.5,0.2,1,0,1.4,0.3L68.6,60.3z M66.8,51.7c0,0-0.2,0-0.2-0.1c-0.2-0.2-0.5-0.2-0.7-0.2
	c-0.3,0-0.7-0.1-1-0.1c-0.3,0-0.6,0.1-0.9,0c-0.6,0-1.2-0.1-1.7-0.1c-0.3,0-0.7,0.1-1,0.1c-0.2,0-0.3,0-0.5,0c-0.1,0-0.2,0-0.4,0
	c-0.2-0.1-0.4-0.3-0.6-0.4c0-0.1,0.1-0.2,0.1-0.2c0,0,0,0,0,0.1c0.2-0.1,0.3-0.2,0.5-0.2c0.1,0,0.1,0,0.2,0c0.5,0,1,0,1.4,0
	c0.1,0,0.2,0,0.2,0c0.5,0,1.1,0.1,1.6,0.1c0.2,0,0.5,0.1,0.7,0c0.2,0,0.4-0.1,0.6-0.1c0.1,0,0.2,0,0.2,0c0.3,0.1,0.6,0.3,1,0.1h0.1
	c0.5,0.3,1,0.2,1.5,0.3c0.4,0.1,0.5,0.2,0.4,0.7C67.9,51.7,67.4,51.7,66.8,51.7L66.8,51.7z M69,49c0,0-0.2,0.2-0.3,0.2
	c-0.4,0-0.8,0-1.2,0l0,0c-0.4,0-0.7,0-1.1-0.1c-1,0-2,0-3-0.1c-0.3,0-0.7,0-1-0.3c-0.2-0.2-0.2-0.4-0.1-0.5c0.1-0.1,0.4-0.2,0.5-0.2
	c0.4,0,0.8,0.2,1.2,0.1c0.1,0,0.3,0.1,0.5,0.1c0.4,0,0.9,0,1.3,0c0.6-0.1,1.1,0,1.7,0c0.1,0,0.2,0,0.4,0c0.4-0.1,0.7,0.1,1,0.3
	C69,48.6,69,48.8,69,49L69,49z M71.5,46.3c0,0-0.1,0.1-0.1,0.1c-0.1,0.4-0.4,0.4-0.6,0.3c-0.5-0.1-0.9,0.1-1.4,0.1
	c-0.4,0-0.7,0-1.1,0c-0.2,0-0.4,0-0.6-0.1c-0.7-0.1-1.4-0.1-2.1-0.2c0,0-0.1,0-0.1,0c-0.1,0-0.4,0-0.4-0.1c-0.1-0.2-0.2-0.5-0.2-0.7
	c0-0.3,0.2-0.2,0.4-0.2s0.4,0,0.6,0c0.1,0,0.3,0,0.4,0c0.4,0.2,0.8,0.1,1.3,0.1c0.1,0,0.2,0,0.3,0c0.1,0,0.3,0.1,0.4,0
	c0.5,0,1.1-0.1,1.6,0c0.6,0.1,1.2-0.2,1.8,0.3C71.6,46.1,71.5,46.3,71.5,46.3L71.5,46.3z M72,39.7c0,0-0.3,0.1-0.5,0.1
	c0,0-0.1,0-0.1,0c-0.2,0-0.3-0.1-0.5-0.1c-0.1,0-0.3,0-0.3-0.3c0,0-0.1-0.1-0.1-0.1c-0.3,0-0.3-0.2-0.4-0.4c0.1-0.1,0.2-0.2,0.2-0.2
	c0.5-0.1,0.9-0.1,1.4-0.1c0.1,0,0.2,0,0.2,0.1c0.1,0.2,0.3,0.4,0.4,0.5C72.6,39.5,72.5,39.6,72,39.7L72,39.7z M73.4,37.8
	c-0.4,0-0.8,0-1.2-0.1c-0.2,0-0.3-0.2-0.5-0.3c0,0,0-0.2,0.1-0.3c0.1-0.1,0.2-0.2,0.4-0.3c0.3,0.2,0.6,0,0.8-0.1
	c0.2-0.1,0.4-0.1,0.5,0.2c0,0,0.1,0.1,0.1,0.1c0.1,0.1,0.3,0.2,0.2,0.4S73.7,37.9,73.4,37.8L73.4,37.8z M79.1,35.9
	c0,0-0.2,0.1-0.4,0.1c-0.7,0-1.4,0-2.2,0c-0.6,0-1.1,0-1.7-0.1c-0.3,0-0.6,0-0.9-0.1c-0.2,0-0.3-0.3-0.2-0.6c0-0.1,0-0.2,0.1-0.3
	c0-0.1,0.1-0.1,0.1-0.2c0.1,0.1,0.1,0.1,0.2,0.2c0,0.1,0,0.1,0.1,0.2c0.2-0.1,0.3-0.2,0.4-0.2c0.5,0.1,1-0.1,1.5,0.1
	c0.1,0.1,0.3,0,0.4,0c0.2,0,0.4,0,0.6,0c0.2,0,0.4,0,0.6,0c0.1,0,0.3,0.1,0.4,0.1c0.5,0,0.7,0.4,1.2,0.5c0,0,0,0.1,0,0.1L79.1,35.9z
	"/>
<path class="st0" d="M44.6,41.8c-0.4,0-0.7,0-1,0c-0.1,0-0.3-0.2-0.4-0.2c0,0-0.1-0.1-0.1-0.1c-0.1-0.1-0.2-0.1-0.2-0.2
	c0-0.1,0.1-0.2,0.2-0.2c0.4,0,0.8-0.4,1.2,0c0,0,0.1,0,0.2,0c0-0.4,0.1-0.7,0.1-1.1c0-0.1-0.1-0.3-0.1-0.5c-0.1-0.6-0.1-1.2-0.2-1.7
	c0-0.2,0-0.3,0-0.5s0.1-0.4,0.1-0.5c0-0.3,0-0.6-0.1-0.9c0-0.1,0-0.2,0-0.3c-0.1-0.5-0.2-1-0.4-1.4c0,0,0-0.1,0-0.1
	c0-0.2,0-0.4,0-0.5c-0.1-0.4-0.2-0.8-0.2-1.2c0-0.5,0.1-1,0-1.4c0-0.5-0.1-0.9-0.2-1.4c-0.1-0.4-0.1-0.8-0.2-1.2
	c0-0.4,0-0.7-0.1-1.1c-0.2-0.4-0.3-0.8-0.4-1.2c-0.1-0.5-0.2-1.1-0.3-1.6c0-0.1-0.1-0.2-0.1-0.4c0-0.5,0-0.9,0-1.4
	c0.3-0.1,0.1-0.4,0.1-0.5c-0.2,0-0.4,0-0.4-0.1c-0.1-0.2-0.2-0.3-0.4-0.5c-0.3-0.2-0.6-0.6-0.8-0.9c-0.3-0.4-0.6-0.7-1-1.1
	c-0.2-0.2-0.5-0.5-0.7-0.7c-0.3-0.4-0.6-0.7-0.8-1.1c0,0-0.2-0.1-0.2,0c-0.2,0.5-0.6,1-0.4,1.5c0.1,0.3,0.2,0.6,0.3,0.9
	c0,0.2,0.1,0.3,0.2,0.4c0.1,0.1,0.2,0.2,0.1,0.4c0,0.1,0,0.2,0,0.3c0.1,0.2,0.2,0.4,0.2,0.5c0.1,0.2,0.1,0.4,0.1,0.5
	c0,0.2,0.1,0.4,0.1,0.6c0,0.3-0.2,0.6-0.1,1c0,0.1,0,0.2,0,0.3c0,0.2-0.1,0.4-0.1,0.6c0,0.6-0.2,1.2-0.6,1.7c-0.4,0.6-0.8,1-1.6,1.2
	c-0.4,0.1-0.7,0-1.1,0c-0.2,0-0.5-0.1-0.7-0.2c-0.3-0.2-0.7-0.1-0.9-0.5c-0.1-0.1-0.2-0.3-0.2-0.5c-0.2-0.4-0.4-0.7-0.4-1.1
	c0-0.5,0.1-0.9,0.4-1.3c0.1-0.1,0.2-0.2,0.3-0.3c0.2-0.1,0.4-0.3,0.6-0.5c0.1-0.1,0.3-0.1,0.5-0.2c0,0.5,0.1,0.6,0.5,0.6
	c-0.1-0.1-0.1-0.2-0.1-0.2c0-0.4-0.2-0.6-0.5-0.7c-0.6-0.4-1.2-0.4-1.9-0.2c-0.4,0.1-0.8,0.2-1,0.6c-0.2,0.4-0.5,0.7-0.7,1.1
	c-0.1,0.2-0.2,0.5-0.5,0.6c-0.3,0.2-0.5,0.5-0.5,0.9c0,0.4,0,0.8,0.2,1C31,27,31,27.3,31,27.6c0,0.2,0,0.5,0.1,0.6
	c0.3,0.6,0.7,1.1,0.8,1.9s0.1,1.5,0.1,2.3c0,0.2,0,0.5,0,0.8c0,0,0.1,0,0.1,0c0,0,0.1-0.1,0.1-0.1c0.2-0.4,0.4-0.7,0.8-0.8
	c0.4-0.1,0.8-0.2,1.2-0.2c0,0,0,0,0,0c0.3,0.2,0.6,0.4,0.8,0.7c0.2,0.4,0.3,0.8,0.5,1.2c0.1,0.2,0.1,0.4,0.3,0.5
	c0.1,0,0.2,0.2,0.2,0.4c0,0.4,0.3,0.7,0.7,0.8c0.4,0.1,0.5,0.3,0.5,0.6c0,0.1,0,0.2,0.1,0.2c0.2,0,0.2,0.2,0.3,0.4
	c0.1,0.1,0.1,0.2,0.2,0.2c0.4,0.1,0.5,0.4,0.6,0.7c0,0.1,0.1,0.2,0.1,0.4c0.2,0.3,0.5,0.7,0.7,1c0.1,0.1,0.1,0.1,0.2,0.2
	c0.2,0.2,0.5,0.4,0.7,0.6c0.3,0.3,0.5,0.7,0.8,1c0.1,0.1,0.2,0.4,0.4,0.4c0.5,0.2,0.6,0.7,1,1c0.2,0.2,0.3,0.4,0.5,0.6
	c0.2,0.1,0.5,0.1,0.7,0.2c0,0,0.1,0,0.1,0c0.2-0.2,0.4-0.1,0.7,0.1c0-0.2,0-0.3,0-0.4c0-0.1,0-0.2,0-0.2c0.2-0.2,0-0.4-0.1-0.6
	L44.6,41.8z M42.4,26.8c0,0,0.1,0.1,0.2,0.2c-0.2,0.2-0.4,0.5-0.8,0.3c-0.4,0.3-0.7,0.1-1.1,0.1c-0.4,0-0.7-0.2-0.8-0.6
	c-0.1-0.4,0.1-0.5,0.4-0.4c0.1,0,0.1,0,0.2,0C41.1,26.4,41.7,26.6,42.4,26.8L42.4,26.8z M40.2,25.1c0-0.3,0.1-0.6,0.1-0.8
	c0.2,0,0.4,0,0.5,0c0.1,0,0.7,0.2,0.8,0.4c0,0,0,0.1,0,0.1c-0.1,0.1-0.2,0.2-0.4,0.3c-0.3,0.1-0.6,0.2-0.9,0.2
	C40.4,25.2,40.2,25.1,40.2,25.1L40.2,25.1z M39.8,22.3c0,0,0.3-0.1,0.5-0.1c0.2,0,0.5,0,0.7,0c0.2,0,0.4,0,0.6,0
	c0.2,0,0.4,0.1,0.4,0.3c0,0.2,0,0.4-0.2,0.5c-0.4,0.1-0.8,0.1-1.4,0.2c-0.1-0.1-0.4-0.2-0.6-0.4C39.4,22.6,39.5,22.4,39.8,22.3z
	 M32.1,24.2c0,0,0.2,0,0.2,0c0,0,0,0,0-0.1c0.2,0.1,0.4,0.1,0.5,0.2c0.2,0.1,0.1,0.4,0,0.5C32.7,25,32.5,25,32.4,25
	c-0.1,0-0.3,0-0.5,0c-0.2,0-0.4-0.2-0.3-0.4C31.6,24.4,31.8,24.2,32.1,24.2z M32.1,27.4c0,0-0.3-0.1-0.4-0.2c-0.1-0.1,0-0.3,0-0.4
	c0.1-0.1,0.3-0.1,0.5-0.2c0,0,0,0,0,0.1c0.4,0,0.7-0.1,1.1-0.1c0.1,0,0.4,0.2,0.5,0.4c0,0.2-0.1,0.5-0.4,0.6
	C32.9,27.5,32.5,27.5,32.1,27.4L32.1,27.4z M35,29.8c-0.2,0-0.5,0-0.7,0c-0.5,0-0.9-0.2-1.3-0.4c0,0,0-0.1,0-0.1
	c0.2-0.1,0.4-0.1,0.6-0.2c0.1,0,0.3-0.1,0.4-0.1c0.4-0.2,0.7-0.2,1.1-0.1c0,0,0,0,0.1,0c0.5-0.4,1,0,1.4-0.1
	c0.4-0.1,0.9-0.1,1.3-0.2c0.1,0,0.2,0,0.2,0c0.6,0.1,1.1,0.2,1.7,0.3c0.2,0,0.5-0.1,0.7-0.1c0.2,0,0.3,0,0.5,0.1
	c0.1,0,0.2,0.1,0.3,0.2c0.2,0.1,0.2,0.4,0,0.5c-0.4,0.2-0.7,0.4-1.2,0.2c-0.3-0.1-0.6,0-1,0s-0.7,0-1,0.1c-0.2,0-0.4,0.1-0.5,0.1
	c-0.1,0-0.2,0-0.3,0c-0.1-0.1-0.2-0.1-0.3-0.1c-0.2,0-0.5,0-0.7,0c-0.4,0-0.8,0-1.1,0C35.3,29.8,35.2,29.8,35,29.8L35,29.8z
	 M35.2,31.9c0,0,0.1-0.2,0.2-0.2c0.3,0,0.5-0.2,0.7-0.3c0.2-0.2,0.6-0.4,0.9-0.1c0.3,0.2,0.6,0.2,0.9,0.2c0.5-0.1,1-0.2,1.5-0.2
	c0.2,0,0.5,0,0.8,0c0,0,0,0,0.1,0c0.4-0.1,0.7,0,1.1,0c0.3,0,0.4,0,0.3,0.4c0,0,0.1,0,0.1,0.1c0.1,0.1,0.2,0.1,0.2,0.2
	c0,0.1-0.1,0.2-0.2,0.2c-0.3,0.1-0.6,0.1-1,0.2c-0.3,0-0.7,0-1,0c-0.2,0-0.5,0-0.7,0.1c-0.1,0.1-0.4,0.2-0.6,0c0,0-0.1,0-0.1,0
	c-0.4,0-0.8-0.1-1.2,0.1c0.1,0,0.1,0.1,0.2,0.1v0.1C36.6,32.3,36,32.1,35.2,31.9z M38.2,34.9v-0.2c-0.3-0.1-0.6-0.1-0.8-0.2
	c-0.1,0-0.1-0.1-0.2-0.2c0.1-0.1,0.1-0.2,0.2-0.2c0.2-0.1,0.5-0.2,0.7-0.3c0.3-0.1,0.6,0,0.9-0.1c0.4,0,0.8-0.1,1.3-0.1
	c0.1,0,0.3,0,0.4,0.1s0.3,0.1,0.5,0.1c0.4,0.1,0.8,0.1,1.2,0.1c0.2,0,0.3,0.2,0.2,0.4c-0.1,0.2-0.2,0.4-0.6,0.3
	c-0.1,0-0.3,0.1-0.4,0.2c-0.3,0.2-1,0.2-1.2,0c0,0-0.1,0-0.2,0c-0.2,0-0.4,0-0.6,0c-0.4,0-0.7-0.2-1.1,0
	C38.4,34.9,38.3,34.8,38.2,34.9L38.2,34.9z M39.5,37.3c0,0-0.2,0-0.2,0c-0.2,0.2-0.4,0.2-0.7,0c0.1-0.1,0.2-0.1,0.4-0.2
	c-0.1-0.1-0.1-0.1-0.2-0.2c-0.1-0.1-0.4-0.3-0.3-0.4c0.1-0.2,0.2-0.4,0.4-0.6c0.1-0.1,0.3,0,0.5-0.1c0.4-0.2,0.8-0.1,1.2-0.1
	c0.5,0,0.9-0.1,1.2,0.3c0,0.1,0.1,0.1,0.2,0.1c0.2,0,0.5,0.1,0.7,0.1c0.2,0.1,0.2,0.2,0.1,0.4c-0.2,0.2-0.4,0.5-0.7,0.4
	c-0.3,0-0.6,0-0.6,0.2c-0.2,0-0.4-0.1-0.6-0.1C40.4,37.3,40,37.3,39.5,37.3L39.5,37.3z M42.4,39.6c0,0-0.4,0.1-0.6,0.1
	c-0.1,0-0.1,0-0.2-0.1c-0.1,0-0.2,0.1-0.2,0.1c-0.4,0-0.7-0.5-0.5-0.9c0.1-0.3,0.4-0.3,0.6-0.2c0.4,0,0.8,0.1,1.3,0
	c0.3,0,0.6,0.1,0.8,0.2c0.1,0,0.1,0.3,0.1,0.4c-0.1,0.1-0.3,0.2-0.4,0.2C43,39.4,42.7,39.4,42.4,39.6L42.4,39.6z"/>
<path class="st0" d="M69.3,25.3c-0.2-0.2-0.4-0.4-0.1-0.7v-0.1c-0.1-0.2-0.2-0.4-0.3-0.6c-0.3-0.6-0.7-1-1.3-1.3
	c-0.2-0.1-0.5-0.2-0.7-0.2c-0.4,0.1-0.8-0.1-1.3,0c-0.2,0-0.4,0-0.5,0.1c-0.1,0.2-0.2,0.4-0.3,0.7c-0.1,0.2,0,0.3,0.2,0.4
	c0.4,0.1,0.7,0.4,0.8,0.8c0.1,0.4,0.2,0.8,0.1,1.3c-0.1,0.6-0.3,1.1-0.8,1.4c-0.5,0.3-1,0.6-1.6,0.3c0,0-0.1,0-0.2,0
	c-0.3,0.2-0.5,0-0.7-0.2c-0.2-0.2-0.4-0.4-0.6-0.6c0,0-0.1-0.1-0.1-0.1c-0.3,0.1-0.4-0.2-0.6-0.4c-0.2-0.2-0.2-0.4-0.3-0.6
	c-0.1-0.4-0.4-0.7-0.2-1.2c0.1-0.1,0-0.3,0.1-0.5c0,0,0-0.1,0-0.1c-0.1-0.2,0-0.4,0-0.6c0-0.3,0-0.6,0.1-0.8c0.1-0.3,0-0.7,0.3-0.9
	v-0.1c0-0.2,0.1-0.4,0.2-0.5c0.5-0.6,0.6-1.2,0.8-1.9c0.1-0.4,0-0.7-0.4-0.9c-0.2-0.1-0.8,0-1,0.2c-0.1,0.4-0.5,0.5-0.7,0.8
	c-0.1,0.1-0.1,0.2-0.2,0.3c-0.1,0.1-0.2,0.3-0.3,0.4c-0.4,0.2-0.7,0.4-1,0.7l0,0c-0.4,0.3-0.5,0.7-0.5,1.2c0,0.3-0.1,0.7-0.1,1
	c0,0.4-0.2,0.7-0.1,1c0.1,0.4,0,0.6-0.1,1c-0.1,0.4-0.2,0.7-0.1,1c0.1,0.2,0,0.5,0,0.8c0,0.3-0.2,0.5-0.2,0.7
	c-0.1,0.6-0.1,1.1-0.1,1.7c0,0.5-0.1,1-0.2,1.4c-0.2,0.4-0.4,0.8-0.4,1.3c0,0.5,0,0.9,0.1,1.4c0,0.1,0.1,0.2,0,0.3
	c-0.4,0.6-0.5,1.3-0.5,2c0,0.1,0,0.3,0,0.4c-0.1,0.4-0.3,0.8-0.4,1.3c-0.1,0.4-0.2,0.8-0.1,1.3c0.1,0.4,0.1,0.7-0.2,1
	c0,0,0,0.1,0,0.1c-0.1,0.6,0,1.2-0.4,1.7c0,0,0,0.1,0,0.2c-0.1,0.4-0.1,0.7-0.2,1.1c-0.1,0.3-0.1,0.6-0.2,1c0.5,0,0.8,0.1,1-0.3
	c0-0.1,0.2-0.1,0.2-0.1c0.3-0.1,0.5-0.1,0.8-0.3c0.2-0.1,0.5-0.3,0.6-0.5c0.5-0.5,1.1-0.7,1.4-1.3c0.3-0.5,0.7-0.9,1.2-1.3
	c0.6-0.5,1.1-1.1,1.5-1.8c0.3-0.6,0.7-1.2,1.1-1.8c0.2-0.3,0.4-0.5,0.2-0.9c0-0.1,0-0.2,0.1-0.2c0.2-0.4,0.5-0.8,0.8-1.2
	c0,0,0.1-0.1,0.1-0.1c0.4-0.2,0.4-0.6,0.6-0.9c0,0,0-0.1,0-0.2c0-0.2,0-0.4,0-0.6c0-0.2,0.1-0.2,0.3-0.2c0.2,0,0.4,0,0.6-0.1
	c0.2-0.1,0.4-0.2,0.7-0.1c0.2,0.1,0.4,0.2,0.7,0.3c0.4,0,0.4,0.2,0.4,0.5c0.1,0.3,0.2,0.5,0.4,0.7c0,0.1,0.2,0.1,0.3,0.1
	c0,0,0.1-0.1,0.1-0.2c0-0.1-0.1-0.3-0.1-0.4c-0.1-0.1-0.2-0.3-0.2-0.4c0.1-0.5,0.3-1,0.2-1.6v-0.1c0.1-0.3,0.2-0.6,0.4-0.8
	c0.2-0.3,0.2-0.5-0.1-0.6c0.2-0.3,0.3-0.7,0.5-1c0.2-0.3,0.2-0.7,0.3-1c0.1-0.3,0.1-0.7,0.2-1c0,0,0,0-0.1,0
	c0.1-0.1,0.2-0.1,0.3-0.2c0.2-0.1,0.2-0.3,0.1-0.5L69.3,25.3z M61.9,28.3c0.2,0,0.4,0.1,0.7,0.2c-0.4,0.2-0.5,0-0.7-0.1L61.9,28.3
	L61.9,28.3z M60.7,26.3c0,0,0.1,0.1,0.2,0.2c0.1,0.2,0.1,0.4,0.4,0.4c0,0,0.1,0.2,0.1,0.2c-0.1,0.1-0.2,0.2-0.4,0.3c0,0,0-0.1,0-0.1
	c-0.4,0-0.8,0.1-1.3,0.1c-0.2,0-0.5-0.1-0.6-0.2c-0.2-0.2,0-0.7,0.2-0.8c0.3-0.1,0.6-0.1,0.9-0.1C60.3,26.3,60.5,26.3,60.7,26.3
	L60.7,26.3z M59,22.2c0,0,0.3,0,0.5,0c0.1,0,0.2,0,0.3,0c0.2,0,0.4,0.2,0.4,0.4c0,0.1-0.2,0.3-0.4,0.4c-0.1,0.1-0.2,0-0.4,0l0,0
	c-0.2,0-0.4,0-0.6-0.1c-0.2,0-0.4-0.2-0.3-0.4C58.6,22.3,58.8,22.2,59,22.2z M58.7,24.1c0.2-0.1,0.4-0.2,0.7,0
	c0.1,0.1,0.3,0.1,0.4,0.1c0.1,0.1,0.2,0.1,0.3,0.2c-0.1,0.1-0.2,0.3-0.3,0.3c-0.5,0-0.6,0.4-0.8,0.8c-0.4,0.2-0.3-0.2-0.5-0.4
	c0,0,0-0.1-0.1-0.2c0-0.1-0.2-0.2-0.1-0.2C58.4,24.5,58.5,24.3,58.7,24.1L58.7,24.1z M56.6,41.7c-0.2,0.1-0.4,0.1-0.6-0.1
	c-0.1-0.2,0-0.4,0.2-0.5c0.3-0.1,0.6-0.1,1,0c0,0,0,0.1,0,0.1C57,41.4,56.8,41.6,56.6,41.7L56.6,41.7z M58.6,39.5c0,0,0-0.1,0-0.1
	c-0.5,0-1,0-1.4,0c-0.2,0-0.4-0.2-0.4-0.4c0-0.2,0.1-0.3,0.4-0.3c0.4,0,0.7-0.1,1.1-0.2c0.3-0.1,0.5,0.1,0.6,0.3
	c0.1,0.1,0.2,0.3,0.2,0.4C58.9,39.3,58.8,39.4,58.6,39.5L58.6,39.5z M60.4,37c-0.3,0-0.6,0.1-0.9,0.1l0,0c-0.5,0-1,0-1.4,0
	c-0.1,0-0.2,0-0.4-0.1c-0.2,0-0.4-0.1-0.3-0.4c0-0.1,0.2-0.3,0.4-0.3c0.6-0.1,1.2-0.1,1.7-0.3c0.2-0.1,0.5,0.1,0.8,0.2
	c0.1,0,0.1,0.1,0.2,0.1c0.2,0,0.2,0.1,0.2,0.3C60.7,36.9,60.6,37,60.4,37L60.4,37z M62.6,34.4c0,0-0.4,0.1-0.5,0.1
	c-0.3,0-0.6,0.1-1,0.1c-0.3,0-0.6-0.1-0.9-0.1c-0.2,0-0.3,0-0.5,0c-0.4,0-0.7,0-1.1,0c-0.2,0-0.5-0.1-0.7-0.2
	c-0.1,0-0.1-0.1-0.1-0.2c0,0,0.1-0.1,0.2-0.1c0.3-0.1,0.6-0.2,0.9-0.2c0,0,0,0,0,0.1c0.2,0,0.4,0,0.5-0.1c0.3-0.2,0.6-0.1,1,0
	c0.3,0.1,0.7,0.2,1.1,0c0.3-0.1,0.5-0.1,0.7,0.1c0.1,0.1,0.4,0.2,0.5,0.3C62.7,34.2,62.7,34.4,62.6,34.4L62.6,34.4z M63.6,32.1
	c-0.6,0.2-1.1,0.1-1.7,0.1c-0.3,0-0.6,0-0.8,0c-0.4,0-0.7,0-1,0.2c-0.2,0.1-0.4,0.1-0.6,0c-0.2-0.1-0.5-0.2-0.8-0.2s-0.6-0.2-1-0.3
	c0,0,0-0.1,0-0.1c0.1,0,0.2-0.1,0.3-0.1c0.1,0,0.2-0.1,0.3-0.1c0.2-0.3,0.4-0.2,0.7-0.3c0.5,0,1,0,1.4,0.1c0.3,0.1,0.6-0.1,1-0.1
	c0.6,0,1.2-0.1,1.8-0.1c0.1,0,0.2,0.1,0.3,0.2c0.1,0.3,0.4,0.3,0.6,0.3C64.1,32.1,63.9,32.1,63.6,32.1L63.6,32.1z M66.6,29.5
	c-0.3,0.4-0.6,0.3-1,0.2c-0.7,0-1.3-0.1-2,0.1c-0.1,0-0.3,0-0.4,0c-0.4-0.2-0.7-0.1-1,0c-0.3,0.1-0.6,0.2-1,0.1c0,0-0.1,0-0.2,0
	c-0.1,0-0.2,0-0.2,0c-0.2-0.3-0.4-0.2-0.6-0.2c-0.6,0.1-1.1-0.1-1.6-0.3c-0.1,0-0.1-0.1-0.2-0.1c0.1-0.1,0.2-0.1,0.3-0.2
	c0.1-0.1,0.3-0.1,0.4-0.2c0.4,0,0.8-0.4,1.2-0.2c0.2,0.1,0.5-0.1,0.7-0.1c0.1,0,0.2,0,0.4,0c0.2,0,0.3,0,0.5,0l0,0
	c0.5,0.3,1-0.2,1.5,0.1c0.1,0.1,0.4,0,0.6,0c0.1,0,0.1,0,0.2,0C64.5,29,64.8,29,65,29c0.5,0,1,0,1.5,0.2c0.1,0,0.2,0.1,0.2,0.1
	C66.7,29.4,66.6,29.4,66.6,29.5L66.6,29.5z M68.3,27.3c-0.2,0.3-0.5,0.4-0.8,0.5c-0.1,0-0.2-0.2-0.2-0.3c0,0,0,0,0-0.1
	c-0.1,0-0.3,0-0.4,0c-0.2,0-0.5-0.2-0.5-0.4s0.1-0.4,0.4-0.4c0.5,0,0.9-0.1,1.4-0.1C68.4,26.7,68.4,27,68.3,27.3L68.3,27.3z
	 M68,25.2c-0.2,0-0.4-0.1-0.6-0.2c-0.1,0-0.2-0.1-0.3-0.1c-0.3,0-0.5-0.1-0.5-0.4c0-0.2,0.2-0.5,0.6-0.5c0.2,0,0.5,0.1,0.7,0.1
	c0,0,0,0.2,0.1,0.2c0,0.1,0.1,0.2,0.2,0.2c0.1,0.1,0.2,0.1,0.3,0.2C68.3,25,68.1,25.2,68,25.2L68,25.2z"/>
</svg>
