<svg xmlns="http://www.w3.org/2000/svg" width="79px" height="95px" viewBox="0 0 22.34 26.9" fill="currentColor">
<path d="M10.62,1.79c0,.16,.07,.31,.02,.47,0,.02,.02,.04,.02,.06,0,.07,.01,.14,.02,.21,0,.02-.02,.05-.02,.07,.03,.17,.07,.35,.09,.52,.02,.15,.05,.3-.03,.45-.02,.03-.02,.08,0,.12,.01,.06,.05,.13,.05,.19,0,.21,.09,.41,.08,.63-.01,.16,0,.33,.01,.5,.03,.37-.05,.73-.05,1.09,0,.17,0,.35,0,.52,0,.08,.01,.17,.02,.25,0,.1,0,.2,0,.31,.01,.16,.03,.32,.05,.47,0,.03-.01,.07-.01,.11,.01,.18,.04,.37,.04,.55,0,.15-.01,.3-.01,.45,0,.03,.01,.05,.01,.08,0,.09,0,.19,0,.29,0,.24,0,.48-.01,.72,0,.14-.03,.28-.02,.42,.02,.27,.05,.54,.08,.81,0,.08-.01,.17,0,.25,.03,.15,.03,.3,0,.45,0,.05-.02,.11-.01,.16,.01,.12,.03,.24,.04,.35,.01,.09,.02,.18,.04,.27,.02,.1,.12,.14,.21,.11,.02,0,.06,0,.08,0,.13,.06,.15,.06,.24-.03,.06-.06,.09-.14,.09-.22,0-.15,0-.3,0-.45,0-.08,.02-.15,.01-.23,0-.11-.04-.22-.01-.33,.02-.09,.05-.18,.06-.27,.02-.09,.06-.19,.05-.28-.01-.11-.01-.21,0-.31,.01-.1,.02-.21,.02-.32,0-.12-.03-.24-.05-.36,0-.06-.02-.12-.02-.18,.01-.17,.04-.33,.05-.49,0-.12,0-.23,.03-.34,.03-.1,.03-.21,.04-.31,0-.11,0-.22,0-.32,.02-.2,.02-.4-.02-.59-.02-.09-.03-.18-.03-.27,0-.11,.02-.23,.01-.34-.01-.2-.05-.4-.06-.6,0-.11,0-.21,.01-.32,0-.07,.04-.14,.05-.21,.02-.15,.02-.3,.04-.44,.02-.15,.08-.28,.07-.43-.01-.12,0-.25,0-.38,0-.17,.01-.34,.02-.51,0-.02,0-.04,0-.06-.01-.13-.02-.25-.03-.38,0-.02,0-.05,0-.07,.01-.16,.03-.32,.04-.48,0-.08,0-.16,0-.24,0-.08,0-.17,0-.25,0-.03-.01-.07,0-.1,.05-.15,.03-.3-.02-.45-.02-.06-.02-.13,0-.19,.02-.11,.07-.22,.09-.33,.02-.09,0-.18,.03-.27,.02-.04-.08-.17-.11-.16-.07,.03-.1-.02-.14-.05-.01-.01-.03-.01-.04-.02-.04-.01-.08-.02-.12-.03-.05,0-.1,0-.15-.01-.09,0-.17,.11-.26,0,0,0-.02,0-.02,0-.1,.03-.18-.02-.27-.04-.04-.01-.11-.01-.13,.01-.04,.05-.12,.08-.09,.17,.04,.12,.01,.25-.03,.38,.08,.03,.05,.07,.02,.12-.02,.03-.04,.06-.03,.1Z" /><path d="M11.29,13.97s0,0,0-.01c.02,0,.05,0,.06-.02,.04-.03,.1-.05,.12-.09,.03-.07,.07-.16,.06-.24,0-.12-.1-.28-.26-.28-.07,0-.13,.02-.2,.03-.12,.03-.13,.05-.13,.18,0,.04-.01,.07-.01,.11,0,.08,0,.17,.07,.21,.09,.05,.19,.07,.28,.11Z" /><path d="M11.07,15.79c.04,.07,.1,.08,.17,.07,.11-.01,.24,.03,.32-.05,.05,0,.08,0,.11,0,0-.04,0-.08-.02-.12,0-.02-.04-.04-.05-.07,0-.04-.01-.08,0-.11,.02-.06-.02-.1-.03-.15-.04-.12-.02-.25-.06-.36-.03-.1-.04-.19-.04-.29,0-.03-.01-.06-.02-.1-.11,.08-.22,.08-.35,.03-.06-.03-.07,0-.08,.05-.01,.1-.03,.2-.05,.29,0,.04-.02,.07-.02,.11,.02,.19,.03,.38,.06,.57,0,.04,.03,.08,.05,.12Z" /><path d="M10.69,14.66c0-.1,.05-.2-.01-.31-.04-.07-.05-.16-.16-.18-.03,0-.05-.05-.07-.08-.02-.04-.04-.09-.05-.14-.06-.18-.08-.37-.03-.56,.01-.05,.04-.09,.05-.14,.04-.16,.14-.28,.25-.4,.03-.03,.07-.07,.07-.1,0-.1,0-.2-.01-.3,0-.04,0-.08,0-.12,0-.11,.02-.22,0-.32-.01-.05-.02-.1-.03-.15-.01-.05-.04-.1-.11-.08-.01,0-.03,0-.05-.01-.08-.01-.16-.03-.24-.03-.04,0-.08,.05-.12,.07-.02,.01-.04,.03-.07,.04-.02,0-.06,0-.08,.02-.04,.05-.07,.1-.11,.15-.08,.12-.09,.28-.26,.34-.09,.03-.15,.11-.23,.17-.07,.06-.14,.13-.13,.24,0,.04,0,.09-.03,.12-.11,.12-.09,.25-.06,.38,.02,.07,.03,.14,.03,.21-.02,.2,0,.39,.07,.57,.03,.06,.04,.13,.05,.2,.01,.11,.03,.21,.1,.29,.06,.06,.1,.13,.18,.18,.07,.04,.14,.13,.15,.2,.02,.09,.07,.15,.11,.22,.04,.06,.08,.12,.13,.17,.06,.07,.14,.12,.21,.18,.09,.09,.16,.12,.29,.06,.17-.09,.28-.31,.2-.49-.03-.06-.06-.12,.05-.15-.11-.08-.1-.17-.09-.27Z" /><path d="M9.14,2.88c-.01,.21,.06,.42,.11,.62,.02,.07,.05,.14,.07,.21,.02,.08,0,.1-.07,.09-.05,0-.07,.02-.06,.07,.01,.11,.02,.23,.04,.34,.01,.07,.05,.13,.07,.19,0,.02,.02,.03,.02,.05,.02,.12,.04,.24,.05,.37,0,.06-.01,.12-.01,.18,0,.08,0,.17,0,.25,0,.05,0,.1,.05,.08,0,.05-.01,.1,.01,.13,.03,.04,.04,.07,.03,.11,0,.02,0,.04,0,.06,.01,.1,.03,.21,.03,.31,0,.08,0,.16,.06,.23,.01,.01,.02,.03,.02,.05,.02,.25,.05,.51,.07,.76,0,.03,0,.07-.02,.08-.08,.05-.05,.11-.03,.16,.09,.17,.12,.35,.13,.54,0,.04,0,.08,0,.11-.02,.15-.04,.3,0,.46,.05,.28,.15,.55,.11,.84-.02,.11,0,.22,.01,.34,.02,.17,.04,.34,.06,.51,.02,.13,.04,.26,.06,.39,.02,.19,.02,.37,.04,.56,0,.08,0,.17,.03,.25,.02,.06,.03,.12,.02,.18,0,.03,.01,.07,.03,.09,.01,.01,.05,0,.08-.01,.05-.02,.1-.05,.16-.02,.03,.01,.08,0,.11-.02,.05-.01,.11-.03,.15-.05,.02-.01,.05-.04,.06-.06,0-.1,0-.2,.01-.29,.02-.09,0-.17,0-.25-.01-.15-.02-.31-.02-.46,0-.09,0-.19,0-.28,0-.08-.02-.15-.03-.23-.02-.17-.01-.35-.06-.51-.07-.23-.02-.45,0-.67,.01-.13,.03-.25,.04-.38,0-.06-.02-.12-.01-.17,0-.23,0-.47,.02-.7,0-.1,.01-.21,.02-.31,0-.1,.02-.2,.02-.3,0-.18-.02-.37-.03-.55,0-.12-.03-.24-.04-.36,0-.08,0-.16-.01-.24,0-.11-.03-.23-.03-.34,0-.15-.03-.3,.01-.44,0-.03,.03-.07,.03-.1,0-.1-.02-.21-.03-.3-.03-.02-.06-.04-.1-.07,.05,0,.07,0,.1-.01,0-.02,0-.04,0-.04-.09-.05-.08-.13-.08-.21,0-.13,0-.26,0-.39,0-.06-.03-.11-.03-.17,0-.11,.05-.22,0-.32,0-.02,0-.04,0-.06,.01-.15,.03-.3,.03-.45,0-.18-.04-.37-.05-.55,0-.1,.01-.2,.01-.3,0-.11-.11-.18-.21-.15-.11,.03-.21,.07-.32,.1-.07,.03-.15,.05-.21,.09-.1,.05-.19,.09-.3,.08-.07,0-.09,.03-.12,.09-.02,.06-.05,.12-.07,.18,0,.02,0,.05,0,.08,0,.04,0,.09,0,.13,0,.06-.03,.13-.02,.18,.03,.1,.02,.2,.01,.3Z" /><path d="M11.89,15.55s.07,.04,.1,.06c.05,.04,.09,.03,.13,0,.04-.04,.1-.06,.15-.09,.02-.01,.05-.02,.06-.04,.06-.06,.13-.13,.19-.19,.03-.04,.06-.08,.09-.12,.03-.04,.07-.08,.11-.11,.07-.05,.14-.08,.15-.17,0-.04,.03-.08,.04-.12,.04-.08,.1-.16,.12-.25,.04-.19,.11-.37,.18-.56,.04-.11,.02-.24,.03-.37,0-.05,.02-.11,.02-.16,0-.16-.02-.32-.03-.49,0-.09-.03-.17-.13-.21-.02,0-.03-.03-.04-.05-.02-.05-.04-.09-.06-.14-.02-.05-.04-.1-.06-.15-.01-.02-.03-.04-.05-.06-.07-.06-.14-.12-.21-.18-.1-.09-.18-.21-.34-.15-.06,.02-.09,0-.13-.03-.06-.05-.12-.05-.16,0-.03,.06-.05,.13-.06,.2-.01,.09,0,.18-.01,.27-.02,.16-.08,.33,.08,.47,.01,.01,.01,.04,0,.06,0,.08,.01,.15,.08,.21,.02,.02,.05,.04,.05,.06,.01,.12,.15,.2,.09,.34,0,0,0,.02,0,.03,0,.03,.03,.07,.02,.1-.05,.21-.06,.43-.2,.61-.05,.06-.11,.12-.17,.15-.09,.03-.13,.05-.14,.15,0,.1-.01,.21-.02,.31,0,.12,0,.25,.07,.35,.02,.03,.05,.09,.04,.1-.07,.07,0,.13,0,.17Z" /><path d="M15.63,9.49c.02-.07-.02-.08-.07-.08-.02,0-.05-.01-.07-.02-.07,.06-.19,.09-.16,.23,0,0-.02,.02-.03,.03-.05,.05-.11,.09-.15,.15-.04,.06-.06,.14-.1,.2-.11,.18-.23,.35-.33,.53-.05,.08-.09,.17-.18,.22-.03,.02-.06,.05-.08,.08-.08,.08-.16,.17-.24,.25-.07,.08-.14,.16-.2,.24-.08,.11-.14,.24-.28,.3-.03,.01-.08,0-.1,.03-.04,.04-.09,.04-.14,.04-.06,0-.14,0-.19,.06-.04,.05-.07,.11-.1,.16-.07,.09-.01,.17,.02,.25,.07,.17,.22,.28,.29,.47,.05,.13,.07,.25,.07,.38,0,.05,0,.07,.06,.05,.12-.05,.24-.1,.36-.15,.03-.01,.06-.03,.09-.02,.07,.02,.15,0,.19-.07,.02-.03,.04-.04,.07-.06,.02-.02,.04-.02,.06-.04,.07-.05,.13-.09,.2-.14,.05-.04,.09-.08,.13-.12,.03-.03,.06-.06,.09-.09,.07-.07,.15-.13,.22-.2,.05-.05,.1-.12,.14-.18,.02-.03,.04-.05,.05-.08,.03-.08,.07-.14,.16-.15,.03,0,.07-.02,.09-.05,.07-.1,.13-.21,.2-.32,.07-.12,.14-.23,.22-.35,.05-.08,.12-.14,.17-.22,.05-.09,.09-.19,.13-.28,.03-.06,.08-.12-.01-.17,0,0-.01-.03,0-.04,.02-.09-.02-.16-.08-.21-.1-.1-.21-.19-.31-.28-.02-.02-.03-.05-.04-.07,0-.03,0-.07,0-.1,0-.07-.02-.11-.1-.11-.01,0-.04-.04-.04-.05Z" /><path d="M12.04,10.29c.01,.07,.03,.14,.01,.21-.04,.15-.03,.29-.01,.43,0,.03,0,.08-.03,.1-.04,.03-.03,.06-.02,.1,0,.02,.01,.05,.01,.07,0,.08,0,.15,0,.23,.07,0,.12,.03,.16,.04,.09,.03,.21,.01,.25,.15,.07-.14,.12-.29,.08-.42-.04-.14,0-.27-.04-.41-.03-.12,.07-.21,.1-.32,.03-.12,.07-.24,.1-.36,.03-.13,.01-.28,.05-.41,.07-.23,.08-.46,.12-.7,.03-.18,.06-.37,.08-.55,.02-.13,.04-.27,.03-.4,0-.17,.03-.33,.07-.5,.04-.13,.05-.27,.07-.4,.01-.1,0-.19,.01-.29,0-.06,.05-.11,.05-.16,0-.15-.01-.31-.02-.46,0-.05,0-.11,0-.16,0-.04-.01-.09,0-.13,.09-.16,.13-.33,.1-.52-.01-.09,0-.18-.02-.26-.02-.08,0-.15,.03-.21,.07-.13,.18-.24,.16-.41,0-.04,.01-.09,.01-.13,0-.06,0-.12,.01-.19,0-.06,.03-.13,.04-.19,.03-.13,.07-.26,.04-.4,0-.02,.01-.04,.02-.06,.05-.16,.09-.33,.08-.5,0-.1,.02-.2,.03-.3,.01-.08,.03-.16,.03-.25,0-.09,0-.18-.02-.27,0-.02-.01-.04-.03-.06-.03-.04-.06-.07-.09-.1-.02-.02-.05-.05-.08-.05-.16-.03-.34-.13-.47-.25-.02-.02-.05-.03-.08-.04-.12-.03-.23-.05-.35-.07-.08-.01-.17,0-.26,0-.02,0-.05,.02-.05,.03-.02,.07-.04,.15-.03,.22,.01,.15,.05,.31,.07,.46,0,.03-.01,.06-.03,.09,0,.01-.03,.02-.03,.03,0,.09-.02,.18-.02,.28,0,.09,.03,.17,.03,.26,0,.14-.02,.28-.01,.41,0,.13,.02,.26,.03,.4,0,.04,.02,.07,.01,.11-.01,.08-.04,.16-.04,.24-.01,.16-.01,.33-.02,.49,0,.08-.02,.16-.03,.24-.02,.13-.04,.27-.05,.4,0,.04,.01,.09,.01,.13,0,.09-.03,.17-.03,.26,0,.17,0,.33,0,.5,0,.13,.01,.26,.01,.4,0,.08,0,.16,0,.24,0,.04,0,.08,0,.12,0,.12-.02,.23-.02,.35,0,.14,.02,.28,.03,.42,0,.02,0,.04,0,.06,0,.02,0,.04,0,.05-.09,.09-.06,.22-.09,.33-.01,.06,.02,.14,.01,.2-.02,.13-.01,.26,.05,.38,0,.02,.01,.04,0,.06-.04,.09-.03,.17,0,.26,0,.01,0,.03,0,.04-.02,.15-.04,.3-.07,.45,0,.06-.04,.11-.04,.17-.01,.11-.02,.21-.02,.32,0,.07,.03,.13,.04,.2Z" /><path d="M22.47,10.57s-.01-.1-.03-.15c.01-.13,.02-.28-.06-.42-.01-.02-.04-.08-.05-.12l-.02-.05c-.03-.11-.08-.27-.24-.39-.07-.06-.21-.14-.36-.22-.11-.06-.26-.15-.31-.19-.08-.06-.16-.11-.24-.13-.04-.07-.13-.18-.28-.22-.09-.02-.09-.03-.1-.09-.02-.07-.08-.16-.14-.21-.05-.04-.11-.08-.18-.09-.02-.02-.04-.03-.06-.05-.06-.04-.13-.09-.2-.13-.07-.04-.14-.08-.22-.12-.06-.03-.14-.06-.21-.06-.01,0-.02,0-.04,0-.14-.07-.27-.11-.41-.11-.06,0-.13,0-.19,.02-.17-.1-.32-.18-.48-.18-.02,0-.05,0-.07,0-.23,.03-.44,.21-.64,.4l-.05,.05s-.03,.02-.05,.03l-.06,.04c-.06,.04-.12,.07-.18,.13-.15,.16-.27,.29-.41,.37-.01,0-.03,.02-.05,.03,0-.13-.05-.23-.11-.32,0,0,0-.02,0-.03v-.12s0-.06,0-.09c.07-.07,.11-.15,.14-.2,.08-.14,.12-.24,.15-.33,0,0,.02-.05,.02-.05,.02-.07,.07-.22,.01-.38,0,0,0,0,0,0,0,0,.03-.05,.04-.08l.03-.07c.09-.23,.07-.43,.04-.58-.02-.11-.05-.21-.08-.32-.03-.11-.07-.22-.13-.32-.04-.08-.09-.13-.12-.17l-.08-.11c-.04-.06-.07-.11-.12-.16-.09-.11-.2-.15-.25-.17-.06-.02-.1-.03-.15-.05l-.08-.02-.08-.03c-.07-.02-.13-.05-.2-.06-.1-.02-.18-.03-.25-.03h-.06s-.08,0-.12,0c-.06,0-.12,0-.17,.02-.09,.02-.17,.06-.22,.09-.02,0-.05,.02-.07,.03l.04-.11,.02-.05c.03-.08,.07-.17,.09-.26,.1-.35-.05-.55-.15-.63-.08-.07-.16-.12-.25-.18l-.07-.05c-.18-.12-.38-.15-.53-.17,0,0-.05,0-.05,0-.01,0-.03,0-.04,0,0-.06,.02-.12,.03-.17l.02-.11,.02-.11,.03-.19c.03-.17,.05-.34,.07-.51,0-.06,.01-.18,.02-.29,0-.1,0-.19,.01-.24,.01-.11-.01-.2-.03-.26,.02-.08,.01-.17-.02-.24-.02-.05-.11-.23-.31-.27-.04,0-.13-.06-.19-.09-.13-.07-.27-.14-.41-.16-.06-.04-.11-.07-.16-.09l-.1-.04c-.06-.02-.11-.04-.14-.06-.14-.09-.3-.15-.46-.17-.03-.06-.08-.12-.14-.17-.02-.03-.05-.09-.12-.14-.05-.04-.11-.07-.16-.11-.04-.02-.07-.04-.11-.06-.03-.02-.07-.03-.09-.06-.12-.1-.26-.15-.41-.15-.01,0-.05,0-.06,0h-.07c-.15,.02-.29,.03-.43,.06-.1,.02-.19,.05-.25,.1-.02,0-.07,0-.09,0-.18,.03-.4,.06-.58,.26-.05,.05-.16,.18-.15,.38-.14,.03-.26,.07-.37,.12l-.12,.04s-.01,0-.01,0c-.02,0-.03,0-.05,0-.05,0-.09,0-.14,0-.09,0-.17,.01-.24,.04-.05,0-.12,.03-.19,.08-.02,0-.04,.02-.06,.02h0s-.04,0-.07,.02c-.15,.04-.31,.09-.42,.22-.16,.2-.14,.65-.14,.7,.02,.11,.04,.21,.07,.32,0,.01,0,.02-.01,.04-.02,.07-.03,.18,.02,.31-.03,.1-.02,.2,.04,.29,0,.02,.02,.03,.03,.05,.01,.04,.02,.09,.03,.14,0,.02-.02,.1,0,.19-.05,.11-.06,.2-.06,.28-.06-.03-.14-.07-.23-.07-.18,.02-.32,.06-.45,.13-.14,.07-.2,.19-.23,.25-.05,.08-.08,.12-.1,.17-.05,.06-.08,.12-.1,.18-.18,.14-.25,.37-.17,.58,.01,.08,.03,.15,.06,.21-.02-.01-.04-.02-.06-.04-.08-.06-.19-.1-.29-.1s-.22,.04-.31,.11c0,0-.01,0-.06,.02-.18,.03-.34,.09-.47,.17-.16,.11-.3,.24-.41,.36-.09,.09-.14,.19-.19,.27l-.03,.05s-.03,.07-.05,.1c-.23,.17-.32,.44-.23,.69,0,.01,0,.07-.01,.11-.02,.13-.05,.3,.02,.48,0,.03,.01,.06,.01,.08,.01,.05,.03,.12,.08,.19,.02,.04,.05,.07,.07,.11,.02,.02,.04,.05,.05,.07v.04s.02,.11,.1,.2c0,.03,.02,.05,.02,.07,.04,.13,.08,.23,.07,.32,0,.08-.01,.16-.01,.25h0c-.06-.07-.12-.15-.18-.23-.04-.06-.1-.11-.16-.15-.03-.02-.06-.04-.09-.06-.01,0-.05-.05-.1-.08l-.11-.06s-.09-.05-.13-.09c-.05-.04-.11-.08-.17-.12-.06-.04-.13-.08-.18-.12-.13-.12-.27-.15-.37-.15-.05,0-.09,0-.14,.02-.21,.05-.27,.06-.28,.06,0,0-.04,0-.08,0-.17,0-.32,.05-.47,.15,0,0,0,0,0,0-.2,0-.33,.13-.37,.17,0,0-.02,.02-.04,.03-.06,.04-.15,.11-.23,.21-.02,.03-.07,.07-.11,.1l-.07,.06s-.09,.04-.11,.05l-.11,.08c-.06,.04-.13,.09-.19,.13-.03,0-.1,.03-.17,.08-.05,.04-.09,.08-.13,.12-.1,.09-.18,.14-.25,.2l-.12,.09s-.03,.02-.04,.04c-.16,.02-.37,.08-.52,.22-.04,.02-.07,.05-.1,.08-.12,.13-.11,.29-.11,.37,0,0,0,0,0,0-.02,.09-.04,.16-.06,.24-.01,.05-.02,.11-.03,.17-.01,.08-.02,.15-.04,.23,0,.02-.01,.03-.02,.05-.02,.05-.05,.13-.07,.22l-.02,.09c-.01,.05-.02,.11-.03,.16-.01,.08,0,.14,0,.18v.13s.02,.14,.02,.14v.06c0,.06,0,.13,.02,.22,.02,.08,.05,.16,.08,.24v.02c-.02,.22,.11,.38,.16,.46,.06,.09,.1,.15,.13,.21,.05,.18,.15,.28,.25,.33h0c.06,.09,.13,.17,.2,.25,.03,.05,.07,.13,.15,.2,.02,.06,.06,.13,.12,.18,.06,.05,.23,.2,.47,.2,.06,0,.12,0,.18-.03,.03-.01,.08-.02,.13-.03,.24-.05,.51-.11,.68-.28,.02,0,.04,0,.06,0,.07,0,.13-.02,.16-.04l.09-.04s.08-.03,.12-.04c.02,0,.04,0,.07-.01,.04,0,.09-.01,.13-.02,.04-.01,.08-.03,.11-.04,.02,0,.05,0,.07,0h.08s.09,0,.09,0h.06c.08,.03,.15,.04,.19,.04,0,0,0,0,.01,0,.05,0,.12-.01,.16-.03l.13-.04,.08-.03c.06,.02,.12,.02,.17,.03,.06,.06,.13,.13,.19,.19l.03,.07c.04,.08,.08,.16,.13,.24,.03,.06,.07,.1,.1,.12,.02,.04,.04,.07,.06,.11,.02,.04,.05,.08,.05,.1,.02,.13,.07,.23,.11,.31,.01,.03,.03,.05,.04,.08,.05,.14,.09,.29,.13,.43l.03,.12c-.04,.06-.06,.12-.07,.18l-.02-.03c-.05-.2-.24-.35-.47-.35-.06,0-.12,.01-.18,.03-.07-.04-.15-.06-.23-.06-.09,0-.19,.03-.25,.09l-.03,.03s-.05,.03-.08,.05c-.19,.11-.44,.26-.51,.51-.02,.03-.03,.07-.04,.08-.04,.13-.04,.24,0,.34,.07,.15,.13,.3,.2,.44,.03,.05,.05,.1,.08,.15,.02,.03,.04,.07,.06,.1,.02,.05,.04,.09,.06,.14,.04,.09,.07,.18,.12,.26l.04,.07s.03,.06,.04,.07c.01,.15,.11,.31,.27,.38v.02c.06,.06,.11,.12,.16,.17,.02,.03,.05,.05,.07,.08,0,.02,.02,.05,.04,.07,.04,.07,.08,.14,.14,.2,.03,.09,.07,.15,.1,.18,.03,.04,.05,.07,.08,.11,.02,.03,.05,.06,.07,.09,.07,.13,.14,.26,.2,.4l.1,.19s.04,.06,.06,.1c.03,.14,.09,.27,.14,.37l.04,.09s.01,.05,.02,.07l.04,.2c.02,.11,.04,.21,.06,.31,.02,.08,.04,.17,.06,.26l.02,.09,.08,.31s0,.01,0,.02c-.03,.24,.06,.44,.27,.59,.05,.04,.1,.08,.15,.12,.05,.05,.1,.11,.18,.15,.05,.03,.13,.11,.14,.14,.03,.12,.08,.23,.13,.33,.04,.07,.09,.13,.14,.19,.03,.03,.05,.07,.08,.1,.09,.14,.22,.23,.39,.27h.06c.07,.03,.14,.04,.2,.05,.04,0,.09,.01,.14,.01h.07s.05,0,.08-.01c.04,0,.07,.01,.11,.01,.05,0,.09,0,.12-.02,0,0,.01,0,.02,0,.03,0,.06,0,.1,0,0,.03,.02,.06,.03,.08,.03,.07,.07,.13,.1,.19l.07,.13s0,.02,.02,.03c0,.05-.01,.1-.02,.14-.02,.08-.03,.14-.04,.17-.05,.09-.07,.18-.08,.25-.03,.06-.06,.12-.07,.2-.01,.14,.02,.25,.05,.33,0,.02,.01,.04,.02,.05,.02,.16,.09,.28,.14,.37l.04,.06s.04,.07,.07,.1l.04,.1c.04,.09,.08,.17,.12,.25,.1,.18,.3,.29,.46,.35,.04,.03,.11,.07,.21,.09,.17,.03,.33,.06,.5,.07,.02,0,.04,0,.05,0,.02,.28,.19,.53,.23,.58,.03,.04,.06,.07,.1,.1,.13,.17,.33,.3,.57,.34,.04,0,.07,.02,.1,.03,.09,.03,.21,.07,.35,.07,.08,0,.15-.01,.22-.03,.26-.01,.57-.1,.77-.32,.11-.1,.28-.25,.28-.5,0-.05,0-.11,0-.17,0-.03,0-.06,0-.08,.08,0,.15,0,.21,0,.04,0,.08,0,.11,0,.06,0,.12-.02,.19-.04,.02,0,.05-.02,.07-.02,.19,0,.35-.06,.48-.17,.16-.13,.3-.32,.38-.51,.02-.05,.03-.07,.03-.07,.13-.09,.18-.23,.2-.31,0,0,0-.01,0-.01,0,0,0,0,0,0,.07-.09,.1-.22,.08-.33v-.02s.02-.08,.02-.12c0,0,0-.02,0-.03,.06-.1,.07-.24,.03-.36l-.02-.06s-.03-.09-.03-.11c0-.14-.05-.25-.08-.32,0,0,0-.01,0-.02,.07-.06,.12-.13,.14-.22,0,0,0,0,0,0,.03-.01,.06-.02,.1-.04,.01,0,.02,0,.03,0,.1,0,.19-.04,.26-.11l.11-.11s0,0,0,0c.13-.02,.29-.06,.39-.16,0,0,.05-.02,.05-.03,.1-.04,.17-.08,.24-.13,.16-.12,.2-.28,.22-.37,.05-.04,.11-.1,.16-.19,0,0,.01-.01,.02-.01l.06-.05c.06-.05,.11-.1,.17-.15,.06-.05,.09-.11,.12-.15l.06-.09c.06-.08,.12-.17,.17-.26,.03-.04,.05-.09,.08-.14,.01-.03,.03-.05,.04-.08,.04-.04,.07-.08,.1-.11,.05-.07,.08-.14,.1-.2,.03-.07,.05-.14,.05-.21v-.16s.02-.03,.02-.04c.08-.07,.15-.17,.18-.34,.02-.08,.01-.14,.01-.19,0-.13,.02-.24,.06-.3l.03-.05s.05-.08,.07-.12c.03-.05,.04-.1,.05-.13l.06-.12,.05-.11,.06-.12c.03-.08,.07-.15,.11-.22,.03-.06,.04-.08,.05-.09,.03-.03,.06-.06,.08-.1,.1-.07,.19-.19,.21-.3,.02-.12,.05-.2,.12-.26,.07-.07,.11-.16,.12-.2l.08-.18s.06-.11,.06-.23c0,0,0-.01,.01-.02,.02-.02,.05-.03,.05-.04,.01,0,.08-.03,.14-.1,.05-.06,.1-.12,.14-.18,.04-.06,.08-.11,.14-.16,.18-.16,.27-.34,.36-.51,.03-.05,.05-.1,.08-.15,.07-.12,.09-.26,.05-.38-.02-.08-.07-.15-.13-.21-.04-.11-.12-.22-.29-.32-.04-.02-.1-.08-.17-.14-.18-.15-.29-.24-.41-.28-.04-.02-.09-.03-.14-.03-.09,0-.17,.03-.24,.08-.09,0-.19,.04-.25,.11l-.04,.04s-.06,.06-.08,.09c0-.1,0-.19,0-.28v-.05s0-.05,0-.05c0-.06,.01-.08,.02-.1,0,0,0-.03,.01-.05,.05-.09,.08-.19,.08-.29,0,0,0-.01,.01-.02l.17-.3,.12-.21c.19-.14,.34-.31,.47-.46,.03,0,.06,0,.08,.01l.1,.02c.12,0,.21,.01,.3,.02h.14s.06,0,.06,0c.08,0,.16,0,.25,.01,.07,.02,.1,.02,.13,.03,.12,.02,.19,.03,.27,.04,0,0,0,0,.01,0,.05,0,.09,0,.12,0,.07,.02,.14,.04,.22,.06l.06,.02,.16,.05c.11,.03,.23,.07,.33,.1,.08,.11,.2,.18,.34,.18,.09,0,.18-.03,.27-.09l.07-.04c.06-.04,.13-.08,.18-.13,.06-.06,.12-.12,.18-.19l.05-.06s.09-.1,.13-.15c.03-.03,.05-.06,.07-.1,0,0,.02-.03,.03-.05,.19-.18,.31-.4,.37-.67,.01-.05,.02-.09,.03-.1,.01-.03,.03-.05,.04-.08,.04-.07,.08-.14,.11-.22,.04-.11,.04-.22,.04-.29,0-.08,0-.12,0-.15l.03-.3,.03-.31c0-.07,0-.14,0-.21v-.05Zm-.38,.23c-.02,.2-.04,.41-.06,.61,0,.05,.01,.09,.01,.14,0,.07,0,.15-.01,.21-.03,.09-.09,.18-.14,.27-.02,.05-.04,.12-.05,.17-.05,.2-.14,.37-.29,.5-.02,.02-.04,.05-.05,.08-.02,.03-.04,.05-.05,.07-.04,.05-.08,.09-.12,.14-.06,.07-.13,.15-.2,.21-.07,.06-.15,.1-.22,.15-.05,.04-.08,.02-.08-.03,0-.07-.05-.08-.11-.09-.11-.02-.48-.14-.59-.17-.12-.03-.24-.07-.37-.1-.04,0-.08,.02-.11,.02-.08,0-.16-.02-.24-.03-.05,0-.11-.03-.16-.03-.11,0-.21-.01-.32-.02-.13,0-.27,0-.4-.02,.05,0-.1,0-.04,0,.01,0,.03,0,.04,0,0,0,0,0,0,0-.11-.02-.23-.05-.34-.05-.05,0-.11,.05-.14,.09-.14,.18-.3,.35-.48,.48-.02,.01-.03,.03-.04,.05-.1,.18-.21,.37-.31,.55-.02,.03-.04,.05-.06,.08,0,.01-.02,.03-.02,.04,.03,.07,.03,.14-.02,.21-.01,.02-.02,.05-.03,.08-.01,.05-.03,.11-.04,.16,0,.05,0,.1,0,.14,0,.2,0,.4-.07,.6-.02,.06,0,.14,0,.21,0,.07,.02-.06,.03,.01,.01,.07-.03,.04,0,.11-.03,.04-.01,.05-.01,.05,.01,.13-.05,.19,.07,.2,.07,0,.18-.02,.2-.09,.01-.03,.04-.06,.07-.09,.08-.08,.16-.16,.24-.24,.04-.05,.07-.11,.11-.16,.04-.05,.09-.09,.13-.14,0,0,.02,.01,.02,.02,0,.03-.01,.05-.03,.1,.08-.07,.14-.13,.21-.19,.12,.05,.42,.33,.54,.4,.05,.03,.13,.07,.13,.16,0,.03,.03,.06,.06,.07,.07,.04,.07,.09,.04,.15-.11,.19-.19,.42-.36,.57-.12,.11-.2,.25-.31,.36-.02,.03-.07,.04-.1,.06-.05,.04-.11,.07-.13,.12-.03,.08-.1,.15-.07,.24,0,.02-.01,.04-.02,.06-.03,.06-.05,.12-.08,.18-.01,.03-.02,.07-.05,.09-.13,.13-.2,.28-.23,.46,0,.02-.01,.04-.02,.04-.08,.02-.11,.1-.16,.15-.05,.05-.09,.12-.12,.18-.06,.12-.11,.24-.17,.36-.04,.08-.08,.16-.12,.24-.02,.03-.02,.08-.04,.11-.03,.05-.06,.1-.09,.15-.08,.13-.1,.29-.11,.44,0,.06,0,.12,0,.17-.01,.07-.04,.14-.13,.16-.02,0-.04,.04-.04,.06-.01,.12-.02,.24-.03,.36,0,.03-.01,.07-.03,.1-.02,.05-.04,.09-.07,.13-.03,.04-.07,.08-.1,.13-.04,.07-.07,.14-.12,.21-.07,.11-.14,.21-.21,.32-.02,.04-.05,.08-.08,.11-.07,.07-.14,.13-.22,.19-.02,.02-.06,.04-.07,.06-.03,.07-.09,.12-.15,.16-.12,.1-.04,.23-.16,.33-.05,.04-.12,.06-.19,.1-.05,.02-.09,.05-.13,.08-.05,.05-.27,.08-.37,.07-.02,0-.05,.04-.07,.06,.01,.02,.02,.03,.03,.04-.04,.04-.07,.07-.11,.11,0-.05,.02-.1,.03-.15-.06,.07-.17,.07-.21,.17-.01,.03-.08,.04-.12,.06-.03,.01-.09,.05-.11,.09-.01,.02-.03,.03-.05,.05-.01-.02-.03-.03-.06-.07,0,.08,.01,.14,.02,.2-.07,.02-.17,.04-.26,.07-.01,0-.02,.05-.02,.06,.05,.11,.11,.22,.16,.33,.02,.05,.05,.1,.05,.15,0,.11,.04,.21,.07,.31,0,.02,0,.06,0,.07-.06,.05-.04,.11-.04,.16,0,.06-.02,.11-.03,.17,0,.02,0,.04,0,.06,0,.02,.01,.04,0,.05-.08,.08-.06,.2-.16,.27-.07,.05-.11,.14-.14,.22-.05,.13-.16,.27-.26,.35-.08,.06-.16,.08-.26,.09-.1,0-.19,.05-.29,.06-.09,.01-.38-.01-.47-.02-.1,0-.2-.1-.31-.12,.01,.09,.11,.28,.12,.37,0,.08,0,.16,.01,.24,0,.05,0,.1,0,.15,0,.11-.12,.18-.18,.25-.13,.14-.36,.2-.53,.2-.01,0-.02,0-.03,0-.19,.09-.36-.04-.54-.07-.14-.02-.25-.09-.32-.19-.03-.04-.07-.07-.1-.11-.09-.12-.19-.32-.15-.47,.02-.07,0-.13,.08-.18,.05-.03,.06-.11,.11-.19-.11,.03-.2,.04-.28,.08-.11,.06-.21,.04-.32,.03-.16-.01-.31-.04-.46-.07-.05,0-.1-.05-.15-.07-.09-.04-.22-.1-.26-.18-.06-.11-.11-.23-.16-.35-.02-.03-.04-.06-.06-.09-.05-.1-.13-.19-.14-.29,0-.11-.07-.2-.06-.31,0-.05,.06-.1,.09-.15-.03-.04-.03-.08,0-.15,.05-.08,.06-.18,.08-.28,.02-.09,.03-.18,.03-.26,0-.05-.03-.11-.06-.16-.06-.11-.12-.21-.17-.32-.01-.02,0-.07,.01-.09,.06-.05,.04-.1,0-.14-.09-.1-.3-.06-.44-.08-.1-.01,.02-.05-.08-.02-.05,.02-.1,.05-.16,.02-.04-.02-.1,0-.15,.01-.04,0-.09,0-.13,0-.08-.01-.16-.03-.24-.05-.06-.01-.12-.04-.15-.1-.06-.1-.15-.18-.21-.28-.05-.08-.08-.17-.1-.25-.03-.12-.2-.29-.31-.35-.05-.03-.08-.08-.13-.12-.06-.05-.11-.09-.17-.13-.11-.08-.14-.16-.1-.29,0-.03-.01-.06-.02-.09-.03-.11-.06-.22-.09-.34-.03-.11-.06-.22-.08-.33-.03-.17-.06-.33-.09-.5-.01-.06-.02-.11-.04-.17-.05-.12-.13-.24-.15-.38-.01-.07-.07-.13-.1-.19-.1-.2-.2-.4-.3-.6-.04-.08-.11-.15-.16-.23-.02-.03-.05-.07-.05-.1,0-.06-.04-.09-.07-.12-.04-.04-.07-.1-.1-.15-.02-.04-.04-.09-.07-.12-.07-.08-.15-.15-.21-.23-.05-.06-.08-.13-.17-.14-.02,0-.04-.04-.04-.07,0-.11-.07-.19-.12-.28-.07-.12-.11-.25-.17-.38-.04-.09-.1-.17-.14-.25-.07-.14-.13-.28-.19-.42,0-.02,0-.05,0-.07,0-.03,.03-.05,.04-.08,.03-.15,.34-.3,.45-.37,.02-.02,.04-.04,.08-.07,.02,.02,.06,.04,.09,.06,.13,.09,.1,.1,.22,.01,.09-.07,.18-.04,.21,.07,0,.03,.02,.05,.04,.07,.06,.09,.11,.18,.18,.26,.09,.11,.18,.2,.27,.31,.05,.06,.07,.01,.14,0,.11-.02,.08-.07,.11-.14,.06-.11,.04-.21,0-.34-.02-.1-.03-.19,.04-.28,.05-.07,.05-.15,.03-.23-.06-.2-.11-.4-.17-.6-.04-.11-.11-.21-.13-.33-.02-.14-.11-.24-.16-.36-.02-.04-.08-.07-.1-.11-.06-.1-.11-.21-.17-.32-.01-.02-.02-.04-.04-.05-.08-.08-.16-.17-.25-.25-.02-.02-.05-.04-.08-.04-.09-.02-.19,0-.27-.06,0,0-.03,0-.04,0-.11,.04-.22,.07-.33,.11-.01,0-.02,0-.03,0-.11,0-.03-.04-.14-.04-.04,0-.08,0-.12,0-.11,0-.23,0-.34,0-.03,0-.07,.04-.1,.05-.07,.02-.14,.02-.21,.04-.08,.02-.16,.06-.23,.08-.04,.01-.07,.04-.11,.03-.11-.01-.2,.03-.27,.1-.12,.12-.5,.17-.65,.21-.12,.04-.21-.02-.29-.09-.03-.02-.01-.1-.02-.16-.14,.01-.16-.13-.23-.21-.09-.09-.15-.19-.23-.29,0,0-.01-.02-.02-.02-.11,0-.1-.1-.14-.17-.04-.08-.09-.15-.14-.22-.06-.09-.15-.16-.1-.29,0-.01,0-.03,0-.05-.03-.09-.07-.18-.09-.28-.02-.07,0-.15-.01-.22,0-.09-.02-.17-.02-.26,0-.04-.01-.07,0-.11,.01-.08,.03-.16,.05-.23,.01-.08,.06-.15,.08-.22,.04-.14,.05-.29,.08-.43,.02-.08,.04-.17,.06-.25,.02-.07-.03-.22,.04-.18,.03-.09,.26-.18,.36-.18,.07,0,.16,0,.19-.07,0-.01,.02-.03,.03-.04,.12-.09,.23-.17,.35-.26,.06-.04,.1-.11,.16-.15,.04-.03,.1-.04,.15-.07,.11-.07,.21-.14,.31-.21,.02-.01,.04-.02,.06-.03,.03-.02,.07-.03,.09-.05,.08-.07,.18-.14,.24-.23,.06-.09,.16-.12,.23-.2,.05-.05,.08-.07,.14-.04,.07,.03,.12-.04,.17-.07,.1-.07,.21-.1,.33-.08,.07,.01,.32-.05,.39-.07,.06-.02,.11,0,.16,.04,.09,.09,.27,.19,.38,.26,.08,.06,.18,.11,.27,.17,.02,.01,.03,.04,.05,.05,.04,.03,.08,.05,.12,.08,.03,.02,.06,.04,.08,.07,.15,.2,.3,.39,.45,.59,.07,.09,.12,.19,.18,.28,.04,.06,.09,.12,.15,.17,.09,.07,.1,.05,.19,.11,.05,.03,.22,0,.26-.05,.14-.14,.18-.13,.26-.23,.03-.09,.14-.15,.22-.22,.13-.12,.17-.25,.09-.41-.02-.05-.08-.09-.12-.12-.02,0-.07,0-.08,.02-.02,.04-.02,.09-.01,.13,.01,.04,.05,.08,.08,.1,.1,.06,.04,.12,0,.16-.1,.12-.23,.19-.37,.19-.1,0-.19-.08-.25-.17-.07-.12-.21-.24-.2-.38,0-.12,0-.25,.02-.37,.01-.17-.04-.32-.09-.48-.03-.07-.03-.15-.09-.2-.01-.01-.01-.04-.02-.06-.01-.04-.02-.09-.04-.12-.04-.07-.09-.13-.13-.19-.02-.03-.02-.06-.03-.09,0-.03,0-.06-.02-.09-.08-.19,.06-.41-.01-.6-.04-.12,.03-.23,.15-.29,.01,0,.03-.01,.03-.02,.03-.05,.04-.11,.07-.16,.05-.08,.09-.18,.16-.25,.1-.11,.22-.22,.34-.3,.09-.06,.21-.1,.32-.12,.08-.01,.16-.04,.22-.09,.05-.04,.11-.04,.15,0,.14,.1,.3,.15,.45,.22,.09,.04,.15,.14,.14,.26,0,.05,.04,.11,.07,.17,0,.02,.03,.04,.03,.05-.02,.13-.04,.26-.07,.38,0,.04-.06,.08-.09,.09-.03,0-.09-.02-.1-.05-.04-.08-.09-.04-.15-.03-.07,.01-.08,.07-.08,.12,0,.05,.04,.09,.1,.09,.11,0,.16,.05,.18,.16,.01,.08,.06,.06,.12,.05,.12-.03,.21-.1,.28-.2,.05-.07,.08-.15,.1-.23,.02-.1,0-.2,0-.3,0-.08,0-.16,0-.25,0-.06,0-.13,0-.19,0-.02-.03-.05-.06-.06-.02-.02-.05-.04-.08-.06,.04-.02,.05-.02,.08-.03-.03-.06-.05-.12-.09-.17-.03-.03-.04-.04-.03-.09,0-.02,0-.06,0-.08-.08-.13-.17-.24-.19-.4,0-.02-.01-.04-.02-.05-.03-.06,0-.14,.07-.16,.05-.02,.1-.06,.14-.09,0,0,.01-.03,0-.04-.08-.08,0-.13,.04-.19,.02-.04,.05-.07,.07-.11,.03-.04,.05-.11,.09-.13,.09-.04,.19-.08,.28-.09,.05,0,.1,.05,.15,.08,.15,.08,.1,.22,.21,.35,.08,.09,.15,.18,.18,.3,.01,.03,.05,.06,.07,.09,.14-.09,.17-.16,.14-.31,0-.03,0-.07,0-.1,0-.11,0-.23-.02-.34-.02-.1-.07-.19-.1-.28-.02-.07-.05-.13-.01-.21,.04-.08,.06-.16,.03-.25-.02-.05,.01-.11,0-.16-.01-.08-.03-.16-.05-.24-.01-.03,.06-.1-.05-.09,.06-.08,.05-.14,0-.2-.03-.04-.06-.11,.02-.15,0,0,0-.02,0-.02-.03-.15-.08-.29-.1-.44-.01-.07,.02-.35,.06-.4,.05-.06,.3-.1,.38-.14,.03-.01,.07-.01,.08-.03,.03-.04,.07-.03,.1-.04,.14-.06,.28,.02,.42-.02,.01,0,.02,0,.03,0,.15-.05,.3-.12,.45-.15,.07-.01,.12-.04,.18-.06,.13-.05,.15-.14,.11-.3-.01-.06,0-.08,.05-.13,.1-.12,.24-.12,.37-.14,.02,0,.04,0,.06,0,.05,.02,.09,0,.13-.03,.04-.03,.1-.07,.15-.07,.16-.02,.33-.04,.49-.05,.07,0,.14,.02,.2,.07,.07,.06,.16,.1,.24,.14,.05,.03,.1,.06,.14,.09,.02,.01,.02,.04,.03,.06,.01,.02,.03,.04,.05,.06,.08,.05,.09,.07,.04,.16,.08,.05,.12,.13,.25,.12,.12-.01,.26,.03,.36,.1,.1,.07,.21,.09,.32,.14,.08,.03,.15,.1,.24,.11,.17,.03,.43,.21,.59,.25,.02,0,.05,.05,.04,.06-.07,.11,.04,.2,.02,.3-.01,.12-.02,.43-.03,.54-.03,.23-.06,.46-.1,.69,0,.03-.01,.07-.02,.1-.03,.16-.06,.32-.08,.48-.02,.11-.03,.21-.03,.32,0,.04,.03,.09,.05,.13,.02,.04,.04,.07,.06,.1,.06,0-.05-.02,0-.03,.03,0,.07-.03,.09-.06,.05-.07,.09-.14,.15-.2,.01-.02,.05-.02,.07-.02,.14,.02,.29,.03,.42,.12,.09,.06,.2,.12,.28,.19,.07,.06,.06,.16,.04,.25-.03,.09-.06,.18-.1,.27-.05,.13-.11,.27-.16,.4-.04,.11-.08,.22-.13,.33-.08,.15-.06,.31-.07,.47-.01,.18,.06,.33,.15,.47,.02,.03,.05,.05,.08,.08,.06,.05,.11,.12,.17,.15,.09,.04,.19,.05,.29,.07,.02,0,.07-.03,.08-.05,.05-.08,.09-.16,.13-.25,.03-.06-.03-.18-.08-.21-.01,0-.04,0-.05,0-.04,.02-.09,.05-.13,.08-.07,.05-.19,.03-.24-.04-.02-.02-.04-.04-.06-.06-.08-.06-.1-.14-.06-.23,.05-.11,.13-.21,.15-.32,.03-.11,.08-.16,.19-.17,.01,0,.02,0,.03-.01,.05-.06,.11-.09,.18-.11,.08-.03,.14-.08,.22-.1,.08-.02,.16,0,.24,0,.06,0,.12,0,.18,.02,.09,.02,.17,.06,.26,.09,.07,.02,.14,.04,.2,.07,.04,.01,.08,.03,.1,.05,.06,.07,.1,.15,.15,.22,.04,.06,.09,.1,.12,.16,.04,.08,.07,.17,.1,.26,.03,.09,.05,.18,.07,.27,.02,.13,.03,.25-.02,.38-.05,.13-.12,.26-.07,.41,.01,.04,0,.09-.02,.14-.03,.09-.06,.19-.11,.28-.05,.08-.08,.17-.18,.22-.04,.02-.08,.2-.05,.24,.01,.02,.02,.04,.02,.06,0,.09-.01,.17,0,.26,0,.03,.01,.08,.04,.09,.1,.06,.09,.15,.08,.24,0,.07,0,.14-.04,.19-.03,.05-.1,.08-.15,.11-.05,.02-.1,.03-.17,.05-.03,0-.09-.02-.14-.03-.06-.01-.12-.02-.18-.03,0-.09,0-.17,0-.26,0-.11-.09-.18-.17-.24-.05-.04-.12,0-.16,.05-.03,.04-.08,.1-.02,.16,.03,.03,.04,.09,.05,.14,.02,.12,.06,.23,.19,.29,.11,.05,.18,.16,.22,.28,.04,.13,.02,.09,.1,.18,.05,.06,.11,.1,.18,.16,.13-.11,.26-.21,.39-.31,.04-.04,.07-.08,.11-.12,.12-.12,.28-.22,.35-.39,0-.02,.04-.04,.06-.05,.2-.11,.35-.27,.51-.44,.03-.03,.08-.05,.11-.08,.05-.03,.11-.06,.15-.1,.12-.11,.34-.33,.5-.36,.11-.02,.31,.13,.4,.18,.03,.02,.09,.01,.13,0,.16-.06,.3-.02,.44,.06,.05,.03,.09,.08,.15,.02,0,0,.02,0,.02,0,.07,.04,.15,.08,.22,.13,.06,.04,.12,.07,.17,.11,.02,.02,.04,.04,.06,.07,.02,.02,.03,.05,.05,.07,.04,.03,.07,.03,.07-.04,.02,.02,.04,.03,.04,.05,.05,.2,.16,.3,.37,.35,.02,0,.04,.03,.05,.05,.05,.08,.12,.15,.22,.17,.04,0,.07,.03,.1,.06,.14,.11,.53,.31,.67,.42,.09,.07,.08,.16,.12,.25,.01,.03,.08,.18,.09,.21,.05,.09-.02,.25,.03,.34,0,.01,0,.03,0,.04,0,.07,0,.15,0,.22Z" /><path d="M19.85,11.28c.03,.05,.06,.04,.08,0,.02-.05,.04-.1,.05-.15,.01-.05,.02-.09,.02-.14,.02-.13,.04-.25,.07-.38,0,0,0,0-.01,0,0-.05,.02-.09,.01-.14,0-.03-.02-.09-.05-.1-.15-.04-.3-.08-.44-.11-.08-.02-.14,.05-.15,.12,0,.12-.02,.24-.03,.36,0,.05-.02,.09-.04,.13-.05,.09-.05,.22,.01,.3,.01,.01,.04,.02,.06,.02,.04,.01,.1,.01,.13,.04,.06,.05,.12,.06,.19,.01,.04-.03,.08-.03,.1,.02Z" /><path d="M19.43,11.54c-.12-.07-.28-.07-.37-.19-.01-.02-.05-.02-.08-.03-.04-.02-.1-.03-.12-.06-.07-.12-.17-.2-.31-.2,0-.12,0-.23,.02-.34,0-.05,.06-.11,.09-.12,.04,0,.13-.02,.14,.08,0,.04,.04,.08,.07,.11,.04,.05,.07,.05,.1-.02,.01-.04,.03-.08,.06-.11,.09-.08,.15-.17,.13-.3,0-.04,0-.09-.01-.11-.07-.1-.19-.15-.31-.17-.07-.01-.16,.03-.22,.07-.09,.05-.16,.12-.25,.18-.05,.04-.12,.06-.16,.11-.09,.1-.1,.23-.12,.35-.01,.08-.03,.17-.07,.24-.08,.13-.1,.26-.04,.4,0,.02,.01,.04,0,.06,0,.08,.01,.17-.04,.25-.03,.05,0,.15,.02,.23,0,.03,.03,.05,.02,.08-.03,.14,.04,.25,.09,.37,.01,.03,.04,.06,.09,.06,.12,0,.25,.02,.38,.02,.08,0,.16-.02,.24-.02,.03,0,.05,0,.08,0,.2,.05,.33,0,.41-.14,.04-.08,.08-.17,.12-.25,0-.02,.03-.03,.05-.04,.09-.06,.15-.14,.14-.26,0-.03,.02-.07,.03-.11,0-.02,0-.06-.02-.07-.05-.03-.12-.05-.17-.08Z" /><path d="M21.42,10.53c-.01-.2-.2-.3-.24-.48,0,0-.01-.01-.02-.02-.12-.08-.24-.16-.36-.23-.07-.04-.14,0-.16,.07-.02,.06-.03,.12-.04,.18-.05,.22-.05,.44,0,.66,.02,.11,.06,.23-.07,.31-.01,0-.02,.03-.03,.04-.09,.18-.18,.36-.27,.54-.04,.07-.07,.14-.11,.21-.05,.07-.1,.14-.15,.21-.04,.05-.07,.11-.11,.16-.04,.06-.09,.12-.12,.18-.03,.07,.03,.17,.11,.19,.16,.05,.32,.08,.49,.07,.04,0,.08,.01,.13,.02,.08-.07,.1-.06,.21-.04,.06,.01,.13-.02,.19-.04,.03,0,.05-.02,.07-.04,.1-.08,.2-.16,.29-.26,.07-.07,.12-.15,.16-.24,.05-.11,.08-.22,.1-.33,.01-.06,0-.13,0-.2,0-.04,0-.07,0-.11,0-.12-.03-.24-.01-.35,.03-.16,.03-.31-.04-.45,0-.02-.02-.04-.02-.06Z" /><path d="M2.5,12.09c.02-.07,0-.1-.04-.14-.12-.1-.2-.21-.2-.38,0-.08-.03-.16-.05-.23-.04-.16-.09-.32-.13-.49-.03-.13-.05-.27-.07-.41-.01-.07-.03-.14-.03-.2,0-.06,.02-.12,.03-.18,0-.05,0-.1,0-.15,0-.06,.03-.13-.06-.15-.06-.02-.12-.06-.18-.06-.07,0-.14,.03-.19,.07-.07,.04-.12,.1-.18,.16-.11,.11-.24,.21-.29,.37,0,.01-.02,.02-.02,.04,0,.03-.01,.06-.02,.09,0,.05,.04,.13-.06,.15-.03,0-.06,.05-.07,.08-.03,.07-.05,.14-.07,.21-.01,.05-.02,.1-.01,.15,.03,.14,.06,.28,.09,.42,.02,.09,.02,.2,.06,.28,.04,.09,.02,.21,.13,.27,.03,.01,.04,.07,.06,.1,.04,.07,.08,.14,.12,.21,.03,.05,.06,.09,.09,.14,.05,.08-.2,.2-.12,.26,.03,.02,.04,.07,.07,.11,.12,.02,.45,0,.56-.08,.03-.02,.05-.04,.08-.05,.01,0,.05-.01,.05,0,.04,.06,.08,.03,.12,0,.05-.03,.11-.07,.17-.02,0,0,.02,0,.03,0,.05,0,.11,0,.16-.01,.06-.01,.14-.02,.17-.05,.04-.04-.04-.23-.1-.27-.07-.05-.15-.12-.12-.22Z" /><path d="M3.08,10.56c.03-.09,.06-.16,.08-.24,0-.02,0-.04,.01-.07-.03,0-.05-.02-.08,0-.16,.05-.32,.11-.47,.17-.01-.02-.02-.03-.03-.05-.03-.07-.1-.06-.16-.06-.06,0-.06,.05-.07,.1-.01,.07-.02,.15-.01,.22,0,.08,.02,.15,.06,.23,.02,.05,.05,.1,.04,.15-.02,.12,0,.24,.06,.34,.03,.04,.07,.09,.12,.1,.03,0,.07-.04,.11-.07,.02-.01,.05-.03,.08-.04,.14-.03,.27-.06,.41-.08,0-.05,0-.09-.02-.12-.04-.11-.09-.22-.14-.32-.02-.04-.04-.08-.07-.12-.05-.06-.05-.09,.03-.11,.02,0,.05-.02,.05-.02Z" /><path d="M6.62,10.75c.04,.09,.09,.17,.14,.25,.06,.08,.11,.16,.17,.24,.03,.05,.08,.09,.11,.13,.04,.05,.1,.09,.12,.14,.03,.07,.07,.12,.14,.17,.06,.04,.11,.1,.15,.16,.02,.03,.03,.07,.05,.1,.08,.12,.19,.22,.24,.36,.02,.05,.06,.08,.1,.12,.07,.06,.14,.1,.21,.16,.07,.06,.14,.13,.21,.2,.04,.03,.09,.05,.12,.08,.13,.14,.25,.29,.37,.43,0,0,.02-.01,.03-.02,0-.03-.01-.06-.03-.08-.05-.09-.01-.16,.04-.23,.03-.05,.04-.1,.06-.16,.02-.04,.03-.09,.05-.12,.05-.06,.11-.11,.15-.18,.06-.13,.11-.27,.16-.41,0-.02,0-.05,0-.07,0-.04-.02-.07-.03-.11,0-.02,0-.05,0-.06-.06-.06-.14-.12-.19-.19-.11-.17-.26-.29-.4-.43-.05-.05-.09-.1-.13-.15-.08-.09-.17-.17-.25-.25-.06-.07-.11-.14-.18-.2-.15-.13-.36-.18-.42-.4,0,0-.02-.02-.02-.02-.04-.05-.09-.11-.12-.16-.04-.07-.05-.15-.09-.21-.1-.13-.21-.24-.32-.36-.02-.02-.02-.07,0-.09,.06-.08,.05-.12-.05-.17,.01,.08,.01,.08-.06,.1-.05,.02-.08,.03-.06,.09,.03,.1,.02,.11-.09,.14-.07,.02-.13,.05-.15,.13,0,.04-.03,.08-.06,.11-.08,.07-.1,.16-.08,.26,0,.02-.02,.06-.04,.08-.05,.05-.1,.09-.15,.13,.03,.06,.05,.11,.07,.15,.08,.12,.18,.23,.23,.36Z" /><path d="M11.65,25.46c0-.06-.02-.11-.02-.15,0-.08-.09-.13-.06-.22,0-.01-.04-.04-.06-.06-.07-.08-.14-.17-.21-.25-.03-.03-.05-.07-.08-.1-.02-.03-.04-.06-.07-.01-.03,.05-.07,.1-.1,.14-.05,.06-.12,.11-.17,.18-.05,.07-.13,.13-.09,.23,0,.02,0,.05-.02,.08-.01,.04-.03,.08-.05,.11-.01,.02-.04,.04-.06,.06,0,0-.03,0-.03,.02-.08,.17-.05,.42,.13,.53,.22,.14,.46,.16,.7,.06,.28-.11,.31-.37,.26-.61,0-.04-.03-.06-.07,0Z" /><path d="M4.53,11.01c-.1-.21-.2-.41-.45-.47-.02,0-.04-.02-.06-.04-.03-.03-.05-.07-.07-.11-.06-.09-.14-.17-.27-.15,0,0,0,0-.02,.01,.02,.01,.03,.03,.05,.04-.22,.05-.21,.05-.21,.27,0,.09,0,.18-.02,.26-.03,.11-.03,.11,.09,.13,.02-.06,0-.14,.11-.17,.1-.03,.21-.04,.27,.06,.02,.03,.03,.07,.04,.1,.05,.13-.01,.32-.14,.37-.23,.08-.47,.14-.69,.22-.12,.05-.28,0-.37,.16-.04,.07-.06,.15-.09,.22-.03,.07,0,.12,.06,.16,.1,.08,.2,.16,.24,.29,.02,.06,.06,.08,.11,.1,.08,.03,.16,.07,.26,.11,.08-.04,.18-.09,.29-.04,.02,0,.04,0,.06,0,.14-.06,.29,0,.43-.06,.09-.04,.18-.06,.24-.14,.07-.1,.13-.22,.18-.33,.03-.06,.05-.13,.05-.2,0-.08-.01-.17-.01-.25,0-.18,.02-.36-.07-.54Z" /><path d="M20.05,9.58s-.01-.03-.02-.05c-.01-.03-.02-.07-.03-.1-.03-.09-.05-.19-.09-.27-.09-.18-.23-.3-.41-.39-.29-.15-.59-.16-.88-.08-.24,.06-.45,.19-.63,.37-.1,.1-.19,.2-.29,.31-.05,.06-.11,.12-.16,.18-.09,.11-.18,.22-.28,.33-.12,.13-.28,.22-.35,.39,0,0,0,0,0,.01-.08,.09-.15,.19-.23,.28-.04,.05-.08,.1-.12,.15-.08,.11-.15,.22-.23,.33-.07,.1-.15,.18-.22,.28-.12,.14-.23,.29-.34,.43-.03,.04-.06,.08-.09,.12-.11,.12-.22,.23-.34,.35-.07,.08-.15,.15-.23,.22-.03,.03-.07,.06-.1,.1-.09,.08-.17,.18-.26,.25-.15,.13-.31,.26-.48,.38-.2,.15-.4,.3-.61,.44-.07,.05-.1,.1-.07,.18,.04,.08,.01,.16-.02,.23-.02,.05-.03,.1-.05,.15,0,.02,0,.05-.02,.07-.08,.14-.17,.28-.24,.42-.07,.12-.12,.26-.18,.38-.08,.15-.19,.28-.34,.38-.1,.06-.18,.15-.27,.23-.01,.01,0,.04-.02,.05-.05,.05-.1,.1-.16,.13-.08,.03-.17,.01-.24,.05-.11,.07-.2,.16-.31,.24-.03,.03-.08,.04-.12,.05-.12,0-.25-.02-.37,0-.15,.03-.25-.02-.35-.12-.03-.03-.07-.05-.11-.07-.04-.02-.09-.02-.13-.03-.08-.02-.16-.03-.24-.06-.1-.04-.2-.09-.3-.14-.04-.02-.08-.06-.12-.1-.02-.02-.04-.05-.06-.08-.03-.07-.07-.12-.16-.12-.01,0-.03,0-.04-.02-.05-.06-.1-.13-.15-.19-.06-.09-.12-.19-.19-.28-.05-.08-.12-.15-.16-.24-.06-.1-.1-.21-.16-.31-.07-.11-.12-.21-.09-.34,0-.02,0-.04-.01-.06-.01-.05-.02-.09-.04-.14-.03-.12-.07-.24-.11-.35,0-.02-.04-.05-.06-.05-.11-.01-.18-.09-.27-.15-.15-.11-.3-.22-.44-.34-.04-.03-.06-.09-.09-.13-.02-.02-.03-.05-.06-.05-.12-.02-.18-.13-.27-.18,0,0-.01-.02-.01-.04,0-.06-.04-.08-.08-.11-.05-.03-.11-.06-.14-.11-.15-.25-.41-.4-.57-.64-.13-.04-.16-.19-.28-.24-.07-.03-.12-.11-.16-.18-.04-.07-.06-.16-.09-.24-.01-.03-.01-.06-.02-.09,0-.02-.03-.03-.04-.05-.05-.11-.08-.23-.14-.34-.04-.08-.11-.15-.18-.22-.02-.02-.07-.01-.11-.02-.02,0-.04-.02-.06-.03-.08-.04-.14-.09-.13-.19,0-.02-.02-.04-.03-.05-.1-.09-.13-.24-.26-.3-.01,0-.02-.03-.03-.05-.06-.08-.11-.17-.21-.22-.05-.02-.09-.07-.13-.11-.06-.06-.11-.11-.17-.17-.08-.08-.16-.15-.22-.24-.04-.06-.07-.12-.16-.12-.02,0-.05-.02-.06-.03-.03-.03-.3-.18-.35-.19-.03,0-.06-.02-.09-.03-.06-.01-.12-.02-.17-.03-.03,0-.07,0-.1-.02-.09-.06-.2-.06-.3,0-.12,.07-.24,.14-.37,.2-.15,.07-.3,.12-.29,.32-.07-.07-.11-.06-.14,.05-.03,.11-.05,.22-.07,.32-.03,.14-.07,.28-.11,.42-.01,.05-.03,.1,.05,.11,.01,0,.02,.06,.02,.1,0,.02-.02,.04-.01,.05,.03,.06,.05,.13,.14,.13,.09,0,.09-.07,.1-.14,0,0,0-.02,0-.02,.07-.02,.14-.05,.2-.06,.14-.04,.28-.07,.43-.1,.08-.02,.17-.02,.24-.05,.1-.04,.2-.02,.3,0,.06,0,.12,.02,.16,.05,.07,.05,.13,.11,.2,.17,.06-.12,.18-.11,.28-.14,.09-.03,.19-.04,.28-.07,.12-.05,.27,.04,.29,.16,.02,.12-.1,.2-.21,.18-.07-.02-.15-.04-.22-.03-.13,0-.25,0-.31-.14-.06,.03-.08,.07-.02,.11,.03,.03,.08,.04,.1,.07,.06,.1,.12,.2,.18,.3,.02,.03,.04,.05,.07,.06,.09,.03,.11,.08,.09,.17-.01,.05,.01,.1,0,.15,0,.07,.03,.09,.09,.11,.01,0,.03,.03,.03,.05,0,.11,0,.23,.02,.34,.02,.17,.04,.34,.09,.51,.06,.2,.02,.35-.13,.48-.02,.02-.05,.06-.05,.08,.03,.11-.02,.13-.11,.12,0,0,0,0,0,.01,.05,.1,.12-.02,.18,.02,0-.02,.01-.04,.03-.08,.01,.03,.02,.05,.02,.05-.05,.07,0,.1,.05,.15,.12,.1,.24,.22,.35,.33,0,0,0,0,0,.01,.02,.09,.09,.12,.17,.14,.02,0,.04,.01,.06,.03,.03,.04,.06,.08,.09,.12,0,.01,.02,.04,0,.05-.02,.06,0,.11,.04,.15,.02,.02,.05,.04,.05,.06-.02,.1,.06,.16,.09,.23,0,.02,.03,.04,.03,.07,0,.11,.13,.19,.09,.31,0,0,0,.01,.01,.01,.09,.03,.11,.12,.16,.19,.01,.01,.01,.04,0,.06-.01,.16-.02,.32,.02,.47,.04,.13,.06,.26-.06,.37-.02,.02-.02,.06-.02,.09,0,.08,.02,.18,0,.25-.04,.09-.04,.19-.1,.28-.07,.11-.14,.23-.26,.28-.11,.05-.23,.13-.37,.06-.06-.03-.14,0-.19-.04-.09-.04-.18-.1-.26-.16-.04-.03-.09-.05-.11-.09-.1-.16-.23-.3-.39-.42-.01,.02-.03,.02-.03,.03-.03,.09,.05,.27,.12,.34,.08,.07,.16,.15,.24,.23,.04,.04,.07,.09,.11,.12,.14,.13,.26,.27,.32,.45,0,.03,0,.07,0,.08-.06,.05-.02,.08,.01,.13,.07,.09,.12,.19,.19,.28,.05,.07,.11,.14,.17,.21,.09,.1,.22,.15,.26,.3,.02,.08,.08,.16,.11,.24,.06,.14,.09,.29,.16,.42,.1,.21,.2,.42,.28,.63,.07,.19,.11,.38,.14,.58,.02,.11,.03,.22,.06,.33,.03,.12,.08,.22,.12,.34,.05,.14,.09,.28,.14,.42,.03,.08,.07,.16,.13,.23,.11,.13,.24,.25,.35,.38,0,0,0,0,0,0,.08,.13,.16,.26,.24,.39,.04-.02,.09-.03,.09-.02,.04,.09,.14,.07,.19,.11,.1,.08,.2,.15,.35,.13,.11-.01,.21,.07,.33,.02,.04-.02,.09-.04,.12-.03,.14,.06,.32,.08,.35,.29,.02,.11,.14,.19,.25,.19,.02,0,.05,.01,.07,.02-.02,.03-.03,.04-.05,.04-.07,0-.09,.03-.06,.1,0,.01,0,.04,0,.05,.03,.07,.05,.14,.1,.2,.06,.07,.15,.13,.22,.2,.04,.03,.06,.03,.09,0,.04-.03,.09-.05,.13-.05,.08,0,.15,.02,.23,.03,.02,0,.04,.01,.06,.03,.07,.08,.16,.13,.26,.16,.08,.02,.1,.1,.05,.17,0,0-.02,.02-.02,.03-.05,.11-.09,.12-.18,.04-.11-.1-.25-.13-.39-.15-.02,0-.05,0-.07,.02-.05,.02-.09,.03-.14,.05-.06,.04-.12,.08-.18,.12-.02,.02-.03,.05-.05,.07-.2,.2-.22,.45-.18,.7,.02,.12,.07,.25,.13,.36,.04,.08,.1,.14,.17,.2,.08,.07,.16,.13,.25,.17,.1,.04,.21,.09,.33,.08,.12-.01,.24,0,.35-.01,.2-.03,.36-.14,.5-.28,.13-.13,.27-.27,.31-.47,0-.02,.02-.04,.03-.06,.03-.05,.13-.05,.14,0,.02,.09,.09,.14,.16,.19,.02,.01,.04,.04,.04,.05-.03,.09,.04,.13,.1,.18,.04,.03,.09,.04,.05,.1,0,.01,.02,.05,.03,.06,.07,.05,.14,.11,.22,.15,.04,.02,.1,.03,.15,.03,.03,0,.07,0,.1,0,.12,.02,.25,.06,.37,.05,.09,0,.18-.06,.27-.11,.12-.07,.24-.16,.36-.24,.13-.1,.2-.23,.2-.4,0-.11,0-.22,.03-.33,.06-.21-.04-.4-.24-.45-.02,0-.04-.01-.04-.02-.03-.07-.09-.13-.14-.19-.06-.07-.11-.1-.2-.11-.09,0-.18,0-.29,0,.1-.11,.22-.08,.33-.13-.08-.02-.14-.03-.2-.05-.03-.01-.07-.03-.1-.05,.04-.02,.08-.05,.12-.07,.01,0,.04,.01,.05,.02,.08,0,.16,.02,.23,0,.03,0,.05-.09,.07-.14,.05-.1,.1-.19,.22-.22,.06-.01,.14-.04,.17-.09,.09-.14,.26-.14,.38-.24,.08-.07,.22-.07,.33-.1,.08-.02,.15-.05,.22-.08,.05-.02,.1-.07,.15-.07,.14-.01,.2-.12,.29-.21,.06-.06,.12-.13,.18-.19,.04-.04,.1-.07,.12-.11,.09-.17,.27-.27,.4-.39,.1-.09,.21-.19,.31-.28,0,0,.02-.02,.02-.03,.01-.17,.17-.29,.13-.47,0-.04,.01-.09,.02-.13,.02-.12,.04-.24,.05-.36,0-.04,0-.08,0-.12,0-.06,.02-.12,.03-.18,.05-.16,.09-.33,.15-.48,.05-.13,.13-.25,.19-.38,.06-.15,.12-.3,.18-.44,.05-.11,.13-.19,.23-.25,.05-.03,.09-.1,.13-.15,.05-.07,.09-.15,.15-.2,.08-.07,.13-.14,.16-.24,.03-.13,.11-.24,.22-.32,.05-.04,.1-.1,.13-.16,.08-.16,.19-.3,.31-.44,.04-.04,.07-.1,.08-.15,.03-.11,.11-.18,.18-.26,.02-.03,.09-.22,.08-.26,0,0-.01-.02-.02-.03-.04-.03-.08-.06-.12-.09-.02,.04-.04,.09-.06,.12-.06,.08-.14,.14-.19,.22-.04,.06-.09,.08-.14,.1-.13,.06-.25,.13-.38,.19,0,0,0,.01-.01,.02-.09,.13-.19,.15-.33,.06-.1-.06-.2-.12-.3-.19-.08-.05-.15-.1-.15-.21,0-.02-.02-.04-.04-.05-.09-.11-.15-.23-.09-.38,0-.02,0-.06,0-.08,0-.1-.02-.2-.01-.29,0-.18,.13-.34,.1-.53,0-.01,.01-.02,.02-.04,.03-.08,.08-.17,.07-.24-.02-.1,.02-.19,.03-.28,.01-.07,.05-.1,.11-.12,.08-.03,.15-.08,.18-.18,.03-.1,.07-.21,.13-.29,.08-.1,.17-.19,.17-.33,0-.02,.01-.03,.02-.05,.04-.13,.17-.18,.26-.26,.09-.09,.2-.15,.29-.24,.05-.05,.1-.07,.16-.04,0-.01,0-.02,0-.02,0,0,0-.02-.01-.02-.09-.09-.11-.2-.11-.32,0-.07-.01-.18-.06-.21-.11-.07-.06-.21-.16-.28,.02-.08,.02-.15-.03-.22,0,0,0-.02,.01-.04,.01-.07,.06-.12,.06-.2,0-.05-.03-.13,.05-.18,.02-.01,.03-.08,.08-.09,.01,0,.03-.04,.02-.05-.05-.08,0-.14,.04-.2,.02-.05,.05-.08,.08-.12,.04-.07,.05-.16,.08-.25,.02-.05,.03-.11,.11-.07,.01,0,.04,0,.05-.02,.04-.05,.08-.1,.12-.14,.11-.11,.19-.25,.35-.28,.1-.02,.21-.05,.3-.04,.25,.04,.5,.11,.74,.16,0,0,.01,0,.02,0,.12,.04,.24,.08,.37,.12,.01,0,.05-.01,.05-.03,.01-.04,.02-.08,.02-.11,0-.13-.07-.25-.03-.38Zm-16.64-.61c.06,0,.12,.01,.18,.04,.07,.03,.14,.04,.22-.03,.06-.06,.18,.02,.18,.1,0,.08-.09,.13-.19,.11-.05,0-.1,0-.16,0-.1,0-.2,0-.29-.02-.04,0-.07-.07-.08-.11,0-.04,.1-.09,.15-.09Zm.52,.73c-.24,0-.49,0-.73,0-.12,0-.24,0-.33-.12,.06-.07,.13-.11,.23-.09,.04,0,.08,0,.12,0,.24,0,.48,0,.71,0,.09,0,.17,.05,.17,.1,0,.04-.11,.12-.18,.12Zm14.68-.79c.08-.01,.16,0,.24,0,.07,0,.14-.02,.21-.01,.07,0,.13,.02,.19,.04,.02,.01,.05,.07,.04,.1-.01,.03-.06,.07-.09,.07-.18,0-.36,0-.54,0-.03,0-.06-.02-.09-.03,0,.02-.01,.04-.02,.05-.02,.01-.04,.01-.06,.01-.01,0-.02-.02-.02-.04,0-.07,.07-.18,.15-.19Zm-1.8,2.12s.09,0,.13-.02c.1-.03,.18,.01,.27,.04,0,0,.01,0,.02,0,0,0,.02,.01,.02,.02,0,.1,.15,.13,.1,.25-.01,.03-.04,.04-.08,.07-.06-.03-.1-.06-.14-.08-.03-.02-.07-.04-.1-.03-.11,.02-.2,0-.28-.07-.03-.02-.04-.07-.04-.11,0-.07,.05-.06,.09-.06Zm-.48,.61c.12,.01,.23,.03,.34,.04,.07,0,.13,0,.2,0,.13,0,.25-.02,.38,0,.05,0,.1,.05,.13,.09,.01,.02-.01,.07-.04,.11-.03,.04-.02,.12-.1,.11-.06,0-.12,0-.17-.04-.11-.07-.21-.04-.32-.02-.05,.01-.1,0-.14,0-.01,0-.02,0-.03,0-.03,0-.08,.04-.1,.02-.08-.05-.15-.11-.21-.18-.04-.04,.02-.13,.06-.13Zm-2.59,2.95c.05-.1,.15-.14,.25-.16,.02,0,.05,0,.06-.02,.07-.11,.19-.09,.29-.08,.16,0,.33,0,.49-.04,.02,0,.05,0,.06,0,.08,.09,.16,.03,.23,0,.08-.03,.15-.04,.22,.02,.06,.05,.11,.04,.16,.01,.03-.01,.06-.03,.08-.04,.05-.03,.08-.04,.11,.03,.02,.04,.08,.06,.13,.08,.03,.01,.06,.02,.1,.02,.11,.02,.23,.03,.34,.05-.02,.09-.1,.15-.16,.14-.02,0-.05,0-.07,.01-.06,.06-.12,.06-.19,.04-.01,0-.03,0-.04,0-.16,0-.33-.01-.49-.02-.17,0-.35-.02-.52-.02s-.35,0-.52,.02c-.05,0-.09,.05-.13,.07-.01-.03-.03-.07-.04-.07-.03,0-.05,.02-.08,.03-.03,.01-.06,.03-.09,.02-.05,0-.1-.02-.15-.03-.07,0-.08-.03-.05-.09Zm-.37,.55c0-.05,.03-.06,.07-.05,.09,.03,.17,.02,.25,0,.1-.03,.2-.04,.3,0,.08,.03,.17,.04,.26-.02,.02-.01,.06-.02,.08,0,.08,.03,.15,0,.22-.03,.03-.01,.07-.02,.1,0,.11,.03,.2,.04,.32,.03,.1-.01,.22,0,.33,0,.07,0,.14,0,.21,0,.14,0,.27,0,.39,.07,0,0,.01,0,.02,.01,.11,.04,.13,.08,.07,.21-.03-.01-.06-.02-.09-.03-.11-.07-.22-.07-.35-.02-.07,.03-.17,.02-.25,.02-.09,0-.18,0-.27,.01-.11,0-.22-.02-.32,.05-.02,.02-.07,0-.11-.01-.04,0-.08-.01-.12-.02-.13-.01-.26-.02-.39-.03-.05,0-.1,0-.15,0-.13,0-.26-.02-.38-.03-.14-.01-.14,0-.21-.05,0-.03,0-.05,0-.08Zm-.63,.59c.05,0,.11,0,.17,0,.13,0,.25,.02,.37,.02,.14,0,.28,0,.42-.02,.01,0,.03,0,.03,0,.04-.08,.1-.03,.15-.02,.06,.01,.12,.02,.19,.02,.03,0,.06,0,.1,0,.08-.01,.16-.05,.22,.02,.07-.07,.16-.01,.23-.02,.13,0,.26-.02,.38,0,.23,.05,.47,.02,.7,.02,.1,0,.19,.04,.29,.06,.06,.01,.05,.05,.02,.09-.02,.02-.02,.06-.04,.08-.02,.03-.05,.06-.08,.06-.18,0-.36,0-.54-.02-.1-.02-.2-.06-.31-.06-.14,0-.28,0-.41,0-.14,0-.27,.01-.41,.02-.1,0-.19-.01-.29-.01-.09,0-.18,.02-.27,.02-.05,0-.1,0-.15-.01,0,0,0-.02,0-.03,.01-.01,.03-.02,.06-.05-.09,0-.16-.03-.22-.01-.1,.02-.19,0-.29,0-.12-.01-.23-.02-.35-.04-.02,0-.06-.05-.05-.06,0-.03,.04-.06,.07-.07Zm-3.46,.07c.07,0,.15,.02,.21-.04,0,0,.05,0,.05,.01,.04,.1,.13,.08,.21,.09,.1,.01,.11,.02,.1,.12,0,.06-.04,.07-.09,.06-.1-.02-.2-.05-.3-.04-.14,.01-.28,0-.41,.06-.06,.03-.14,0-.21,0-.13,0-.27,.03-.4,.03-.09,0-.18-.04-.26-.06-.02,0-.03-.02-.05-.02-.18,0-.37,0-.55,0-.07,0-.14,0-.21,0-.15,0-.3,0-.46,0-.04,0-.08,.03-.13,.03-.11,.02-.21,.03-.32,.04-.02-.11,.04-.19,.15-.21,.1-.02,.2-.04,.3-.07,.04-.01,.09-.03,.15-.05,.05,.03,.13,.04,.2-.02,.01-.01,.04,0,.06,0,.03,0,.06,.01,.08,0,.06-.03,.11-.03,.16,.03,.02,.02,.08,0,.12,0,.07,0,.13-.03,.19,.03,.01,.01,.04,.02,.06,.02,.1,0,.21-.01,.32-.01,.12,0,.24,.01,.36,.01,.06,0,.11-.01,.17-.01,.17,0,.35,0,.52,0Zm-.16-.64s.05,.03,.05,.04c0,.02-.02,.04-.04,.05-.23,.09-.46,.15-.71,.12-.02,0-.04-.01-.06-.01-.08,0-.14-.05-.23-.01-.09,.04-.2,.02-.31,.03-.01,0-.02,0-.03,0-.07,.05-.14,.06-.2-.01-.01-.01-.06,0-.08,.01-.06,.03-.11,.05-.17,0-.01-.01-.04,0-.07,0-.09,0-.2,.05-.26,0-.14-.09-.3-.04-.43-.11-.04-.02-.08-.04-.11-.06,0-.01,0-.02,0-.03,.17,.05,.21-.09,.29-.19,.04,.09,.1,.09,.17,.07,.07-.03,.13,0,.19,.04,.03,.02,.07,.03,.1,.03,.12,0,.23,0,.35,0,.02,0,.04,0,.05,0,.11-.07,.23-.02,.34,0,.11,.02,.22,0,.32-.03,.07-.03,.14-.02,.19,0,.12,.04,.23,.04,.35,.04,.1,0,.2,.02,.3,.04Zm-.34-.68s.05,.04,.05,.06c0,.02-.03,.04-.05,.06-.04,.02-.08,.02-.11,.05-.07,.05-.13,.08-.21,.03,0,0-.03,0-.04,0-.1,.08-.21,.04-.31,0-.01,0-.03,0-.05,0-.03,0-.06,0-.09,0-.02,0-.05,0-.07,0-.04,0-.07,0-.11,0-.02,0-.04,0-.06,0-.03,0-.07,0-.1,0-.04,0-.08,0-.13,.01-.04,.02-.1,0-.15,0-.03,0-.06-.01-.08,0-.07,.04-.12,.02-.17-.02-.04-.04-.08-.04-.13-.02,0,0-.01,0-.01,0-.11-.05-.23,.02-.33-.05-.02-.02-.05-.03-.08-.04-.03-.01-.07-.02-.1-.03,0-.01,0-.02,0-.04,.04,0,.09,0,.13-.02,.15-.05,.3-.06,.46-.05,.15,0,.3,0,.44-.07,.03-.02,.08,.01,.13,.02,.06,0,.12,0,.17,.01,.15,0,.31,.02,.46,.02,.04,0,.07,0,.11,0,.02,0,.04-.02,.06-.01,.1,.02,.19,0,.28-.04,.07-.02,.08,0,.06,.08,.02,0,.03,0,.05,0Zm-.7-.81s.09,.01,.13,.03c.11,.03,.22,.06,.34,.09,.05,.01,.12,0,.13,.08,0,.05-.12,.13-.18,.12-.12,0-.25,0-.37,0-.05,0-.11,0-.16-.01-.05,0-.1,0-.14,0-.11,.05-.23,.05-.34,.05-.02,0-.04,.02-.06,.02-.04,0-.08,0-.11,0-.04,0-.08-.02-.11-.04-.09-.03-.18,0-.27,.01-.08,.02-.18-.02-.28-.03-.06,.08-.09,.07-.18,0-.04-.03-.11-.02-.16-.02-.03,0-.05,.01-.09,.03,0-.04,0-.07,0-.1,0-.05,.01-.07,.07-.08,.1,0,.19-.03,.28-.05,.05-.01,.09-.06,.13-.08,.03-.01,.09-.02,.11,0,.1,.08,.22,.06,.33,.09,.02,0,.04,0,.06-.01,.12-.03,.23-.07,.35-.1,.02,0,.03,0,.05,0,.16,.04,.32,.04,.48,.02Zm-3.09-3.27c.08-.03,.16-.07,.26-.03,.07,.03,.15,0,.23,0,.04,0,.09,.01,.11,.04,.04,.05,.07,.05,.13,.03,.03,0,.06,.01,.09,.02-.01,.03-.02,.06-.04,.08-.07,.07-.14,.12-.25,.14-.08-.02-.16-.05-.25-.07-.03,0-.07,.02-.1,.03-.03,.01-.07,.04-.1,.04-.02,0-.04-.04-.06-.07-.02-.02-.03-.05-.04-.06-.07-.06-.07-.13,.02-.16Zm.31,.65c.05-.01,.1-.03,.15-.06,.05-.03,.09-.06,.14-.01,.02,.01,.04,.02,.06,.02,.07,.01,.13,.02,.2,.03,.06,0,.13,0,.2,0,.07,.02,.13,.05,.19,.08,0,0,.01,.02,.01,.03,.01,.06-.06,.21-.12,.22-.05,0-.11-.01-.16-.03-.21-.07-.42-.1-.64-.06-.13,.03-.29-.03-.34-.12,.07-.13,.2-.08,.3-.11Zm-.2,.73c.12-.04,.23-.08,.35-.11,.03,0,.07,0,.11,.02,.02,0,.04,.02,.07,.03,.11,0,.22,0,.33,.01,.02,0,.04,0,.05,0,.04-.04,.08-.09,.1-.12,.05,.02,.09,.04,.13,.06,.08,.03,.17,.06,.25,.1,.07,.03,.06,.08,0,.12-.09,.05-.18,.1-.3,.06-.05-.02-.11,.01-.16,.01-.12,0-.25-.02-.37-.01-.13,0-.26,.03-.38,.02-.07,0-.14-.07-.21-.11,0,0,.02-.06,.03-.07Zm.69,.84c-.13,0-.26,.01-.38,0-.09-.01-.17-.06-.25-.1v-.03c.1-.01,.17-.13,.29-.09,.02,0,.06-.01,.08-.03,.07-.04,.13-.05,.2,0,.03,.02,.08,0,.12,0,.05,0,.11,0,.16,0,.04,0,.07,0,.12,0,.01,0,.04,.02,.07,.02,.12,0,.23,.02,.35,0,.07,0,.13-.06,.2-.09,.03-.01,.06-.01,.1-.01,0,0,.02,.02,.03,.03,.01,0,.02,.02,.04,.03,.04-.07,.06,0,.08,.01,.04,.01,.08,.04,.12,.07,.02,.01,.04,.03,.05,.04-.02,.02-.03,.05-.05,.06-.1,.03-.2,.09-.32,.07-.04,0-.08,.02-.13,.03-.02-.06-.16-.06-.26,.02-.04-.04-.15-.06-.21-.03-.02,0-.04,0-.06,0-.11,0-.23-.01-.34-.02Zm.32,.57s.03-.05,.06-.06c.03-.02,.07-.02,.11-.04,.06-.02,.11-.05,.16-.07v.05c.18-.03,.36-.05,.54-.08,0,.04,0,.06,.06,.06,.23,0,.47,.02,.7,.03,.06,0,.12,0,.18,0,.05,0,.08,0,.1,.06,.02,.05,.01,.09-.04,.1-.05,.02-.1,.02-.16,.02-.07,0-.14,.02-.2,.03-.06,0-.11,.02-.17,.03-.03,0-.05,0-.08,0-.05,0-.1-.02-.14,0-.12,.06-.24,.05-.36-.01-.04-.02-.1-.02-.15-.02-.12,0-.24,.02-.37,.03-.02,0-.05-.01-.07-.02-.03-.02-.07-.04-.1-.06-.02-.01-.05-.03-.07-.04Zm4.05,9.01c-.05,0-.1-.03-.15-.03-.07,0-.12-.04-.12-.1,0-.06,.06-.1,.12-.1,.12,0,.24,0,.36-.02,.06,0,.11-.03,.19-.05,.04,.06,.12,.03,.2,.03,.05,0,.11-.02,.11,.07,0,.08-.05,.09-.11,.1-.04,0-.07,.03-.11,.04-.04,.01-.07,.02-.11,.03-.07,0-.14-.01-.21,.04-.03,.02-.11,0-.16-.01Zm.22,2.62c-.09,.04-.21,.04-.32,.04-.07,0-.14-.04-.23-.06,.14-.11,.26-.2,.39-.28,.03-.02,.07,0,.11-.01,.07-.02,.14-.04,.21-.06,.01,0,.04,0,.04,0,0,0,.01,.03,0,.04-.04,.13-.08,.27-.22,.33Zm1.72,.07c-.13-.04-.22-.14-.2-.3,0-.05,.07-.09,.11-.07,.07,.03,.14,.09,.22,.11,.14,.04,.27,.14,.43,.09,.03,0,.06-.03,.1-.04,0,0,0,.02,0,.03-.19,.16-.4,.26-.65,.19Zm.32-.8c.03,.06,.06,.1,.13,.1,.08,0,.14-.05,.17-.12,0-.02-.01-.06-.03-.08-.07-.07-.14-.13-.22-.2,.04-.05,.08-.1,.12-.13,.02-.02,.08-.02,.11,0,.08,.05,.15,.11,.22,.16,.1,.06,.13,.13,.1,.24-.01,.05,0,.11-.02,.17-.02,.09-.05,.18-.08,.3-.04-.07-.06-.12-.09-.16-.05-.07-.1-.07-.16-.01-.04,.04-.09,.09-.13,.13,0,0,0,0-.02,0-.02-.03-.04-.06-.07-.08-.09-.07-.19-.14-.29-.2-.15-.09-.33-.14-.44-.29-.07-.1-.17-.18-.18-.32,0-.05-.06-.1-.08-.15-.03-.09-.05-.18-.07-.27-.02-.07-.19-.2-.25-.19-.03,0-.08,.02-.09,.04-.03,.08-.04,.16-.05,.24-.02,.08-.04,.17-.04,.25,0,.13-.11,.18-.15,.28,0,.02-.03,.03-.05,.04-.07,.05-.14,.11-.21,.16-.09,.06-.19,.12-.29,.18-.05,.03-.1,.04-.13,.12-.02,.04-.12,.09-.17,.08-.1-.02-.17-.02-.23,.07,0,.01-.02,.02-.04,.03-.06-.07-.08-.2-.22-.12-.03-.09-.07-.17-.04-.27,0-.01,0-.03,0-.05-.04-.14,0-.26,.07-.37,.07-.1,.19-.14,.3-.18,.1-.03,.16,.01,.17,.12-.05,.01-.1,.03-.15,.05-.11,.04-.13,.07-.12,.19,0,.02,0,.03-.01,.05-.03,.08-.01,.14,.06,.19,.11,.07,.17,.07,.29,0,.09-.06,.18-.1,.27-.16,.04-.03,.07-.09,.11-.13,.02-.02,.05-.04,.08-.05,.09-.03,.15-.09,.16-.18,0-.01,0-.03,0-.03,.13-.09,.12-.25,.2-.36,.05-.07,.08-.17,.12-.25,.04-.1,.08-.2,.13-.29,0-.01,.04-.02,.07-.02,.04,0,.07,0,.09,0,.09,.05,.16,.1,.24,.13,.07,.03,.11,.07,.13,.15,.02,.1,.05,.19,.02,.29,0,.02,.02,.04,.03,.06,.02,.06,.06,.11,.06,.19,0,.06,.07,.12,.11,.18,.01,0,.02,0,.03,0,.01-.09,.02-.18,.04-.27,0-.02,0-.04,.02-.05,.07-.05,.14-.11,.22-.15,.02-.01,.05,0,.08,0,0,.02,0,.05-.02,.07-.09,.17-.2,.34-.2,.54,0,.05,.04,.11,.07,.15,.04,.05,.1,.08,.15,.11,.03,.02,.07,.03,.11,.05,.03,.02,.06,.04,.07,.07Zm.19-2.01c-.07,.05-.16,.07-.24,.1,0,0,0-.02,0-.02-.13,0-.25,.03-.38,.02-.16-.01-.32,.02-.47-.08-.03-.02-.05-.06-.05-.09,0-.04,.03-.05,.08-.04,.03,0,.09-.01,.12-.04,.04-.05,.08-.05,.14-.04,.16,.03,.32,.05,.48,.07,.09,0,.18-.02,.28-.02,.02,0,.06,.02,.06,.04,0,.04,0,.11-.02,.12Zm1.87-.67s-.05,0-.08,.01c-.03,0-.07,.02-.09,.04-.06,.07-.11,.11-.2,.07-.05-.02-.13,0-.14-.07-.23,0-.46,.01-.68,.01-.16,0-.31-.02-.47-.01-.35,0-.69,.02-1.04,.02-.02,0-.04,0-.06,0-.15,0-.3,0-.44,.02-.14,.03-.27,0-.4-.01-.18,0-.36,0-.54,0-.06,0-.13,0-.19,0-.12,0-.25,0-.37,0-.09,0-.18,0-.27,0-.32,0-.64,0-.96,0-.02,0-.04,0-.06,.01-.09,.02-.18,.05-.27,.04-.06,0-.12-.05-.18-.08-.03-.02-.05-.04-.08-.06-.07-.03-.07-.07-.04-.13,.04-.06,.08-.04,.12,0,.02,.02,.04,.04,.06,.05,.03,.01,.08,.03,.1,.01,.05-.04,.09-.02,.15-.02,.09,0,.18,0,.27,0,.11,0,.22-.02,.33-.02,.01,0,.02,.01,.03,0,.16-.03,.32-.07,.49-.1,.04,0,.09-.01,.13,0,.13,.03,.25,.03,.37-.03,.03-.01,.07,0,.1,0,.05,0,.1,.04,.14,.03,.06-.01,.1,.01,.15,.03,.05,.02,.11,.02,.16,.02,.06,0,.13,.01,.19,.02,.02,0,.04,.01,.05,0,.14-.05,.3,.01,.42-.04,.11-.05,.16,.06,.24,.03,0,0,.02,.01,.03,0,.13-.07,.29-.02,.43-.07,.03,0,.07,0,.11,0,.13,0,.26-.01,.39-.02,.02,0,.05,0,.06,0,.06,.07,.12,.03,.17,0,.04-.01,.07-.03,.09,.02,0,.01,.04,.02,.06,.02,.16,0,.33,0,.49,0,.14,0,.28,0,.42,.01,.09,0,.18,.02,.28,.02,.04,0,.07-.03,.11-.04,.05-.02,.1-.05,.15-.05,.08,0,.17,0,.25,.01,.02,0,.05,.02,.06,.04,.05,.08-.03,.12-.05,.19Zm.54-.69c-.08,.02-.18,.03-.26,.04-.06,0-.13,0-.19,0-.03,0-.06,0-.08,0-.19,0-.37,.04-.54,.1-.04,.01-.11,.02-.14,0-.08-.06-.17-.02-.25-.03-.05,0-.1,0-.15-.01-.05,0-.11-.02-.14,0-.1,.07-.2,.01-.29,0-.15-.01-.3-.02-.45-.02-.11,0-.22-.01-.33-.02-.23,0-.47,0-.7,0-.21,0-.41,0-.62,.02-.11,0-.22,.04-.33,.05-.07,0-.15-.01-.22-.01-.39-.01-.78-.03-1.17-.03-.23,0-.46,0-.69,0-.1,0-.19,0-.29,0-.16-.01-.32-.05-.48-.04-.1,0-.2-.02-.29-.03-.01,0-.03-.02-.03-.03,0-.01,.02-.03,.03-.03,0,0,.02,0,.02,0,.12,.01,.22-.06,.33-.08,.02,0,.04-.01,.06,0,.14,.04,.27,.01,.39-.08,.06,.06,.11,.1,.19,.04,0,0,.03,0,.05,0,.1,.07,.19,.04,.28,0,.05-.03,.07-.03,.11,.01,.07,.07,.13,0,.18-.04,.1,.1,.21,.08,.32,.03,.02,0,.06-.02,.07,0,.06,.07,.15,.04,.22,.05,.04,0,.09,.02,.13,0,.05,0,.09-.04,.14-.07,.1,.07,.11,.07,.23-.03,.02,.02,.04,.03,.05,.05,.04,.05,.09,.05,.14,.02,.06-.04,.1-.06,.16,0,.02,.03,.09,.02,.13,.01,.18-.02,.36-.06,.54-.08,.08,0,.16,.03,.24-.01,.03-.01,.08,.03,.11,.03,.09,0,.19-.03,.28-.01,.09,.02,.19-.02,.28,.06,.03,.02,.08,.01,.12,.01,.05,0,.11,0,.16,0,.04,0,.08-.02,.12-.04,.01,0,.02-.01,.03-.01,.12,.05,.24-.01,.36,0,.15,0,.3,.03,.46,.04,.05,0,.11,0,.17-.01,.05,0,.1,0,.15,0,.09,0,.18,.01,.27,.02,.04,0,.09,0,.13-.02,.05,0,.1-.04,.15,.02,.02,.02,.1,0,.15,0,.05,0,.09,0,.14,0,.01,0,.03,0,.04,0,.11-.05,.22,0,.33,.01,.04,0,.09-.03,.14-.03,.03,0,.08,.02,.08,.04,0,.04,0,.12-.02,.12Zm.04-.55c-.08,.01-.16,.03-.23,.05-.03,0-.07,.01-.11,.02,.01-.1-.04-.17-.13-.16-.31,0-.63,0-.94,.03-.1,0-.19-.02-.29,0-.1,.01-.2,0-.29,0-.15,0-.3,.02-.45,.03-.09,0-.17,0-.26-.01-.03,0-.06,0-.08,0-.07,.02-.14,.03-.22,0-.05-.02-.11,0-.17,0-.09,0-.18-.02-.28-.02-.1,0-.2,.01-.29,.01-.09,0-.17-.02-.26-.01-.16,0-.33,0-.49,.02-.12,.02-.24,.08-.36,.12-.03,0-.07,.02-.1,0-.15-.05-.3-.08-.46-.02-.02,0-.06,0-.09-.01-.11-.02-.22-.05-.33-.07-.12-.02-.24-.03-.36-.03-.1,0-.21,.01-.31,.01-.13,0-.26,0-.4-.01-.07,0-.14,0-.2,0-.15,0-.3,0-.45-.02-.2-.01-.39-.03-.59-.05-.01,0-.03-.02-.04-.02,.08-.1,.19-.15,.31-.17,.02,0,.03,0,.05,0,.16,.04,.33,.01,.49,.03,.15,.02,.31,.02,.46,.02,.17,0,.34-.01,.51,.01,.08,.01,.17-.01,.25-.02,.11,0,.22-.02,.33-.03,.08,0,.16-.03,.24-.04,.03,0,.06,0,.09,0,.11,.02,.21,.05,.31,.06,.15,0,.3-.02,.46-.01,.19,0,.37,.03,.56,.03,.07,0,.15-.03,.22-.04,.18-.03,.36-.05,.55,.01,.06,.02,.12,.01,.19,0,.15-.01,.31,.06,.46-.01,0,0,.02,0,.03,0,.08,.06,.16,.02,.23-.03,.04-.03,.07-.03,.12,0,.07,.03,.16,.03,.24,.04,.08,0,.16,.04,.23-.01,0,0,0,0,0,0,.12,.01,.25,.02,.37,.03,.06,0,.12,0,.18-.01,.11-.01,.22-.02,.32-.03,0,0,.01,0,.02,0,.11,.08,.25,.02,.37,.05,.13,.02,.27,.03,.4,.04,.1,0,.19,0,.29,0,.02,0,.06,.02,.06,.04,.02,.06-.09,.19-.16,.19Zm.45-.76c-.18-.02-.35-.04-.53,.02-.04,.01-.09,0-.13,0-.21,0-.42,.01-.63,.01-.26,0-.51,0-.77,0-.09,0-.19,0-.28,0-.15,0-.3-.01-.46-.01-.12,0-.24,0-.36,.01-.1,0-.21,0-.31,0-.14,0-.28,0-.42,0-.25,.01-.5,.04-.74,.05-.12,0-.24-.03-.36-.04-.15,0-.29,0-.44,0-.09,0-.19,0-.28,0-.04,0-.07,0-.11,0-.17,0-.33,0-.5,0-.18,0-.36,.02-.54,.03-.01,0-.02,0-.03,0-.25-.05-.5,0-.75-.02-.12,0-.24,0-.37,0-.02,0-.05,0-.07,.01-.1,.03-.2,.07-.31,.1-.1,.03-.16,0-.13-.11,.02-.07,0-.09-.07-.09-.03,0-.06-.02-.08-.03,0-.01,0-.02,0-.04,.05,0,.09,0,.14,0,.18-.02,.36-.04,.54-.05,.13,0,.25,0,.38,0,.16,0,.32,0,.48-.04,.07-.01,.12-.02,.18,.01,.04,.02,.11,0,.16-.02,.03,0,.05,0,.08,0,.03,0,.06,.03,.08,.02,.14-.06,.29,.05,.44-.03,.05-.03,.14,.02,.21,.03,.05,0,.07-.01,.07-.07,0-.09,.06-.12,.14-.07,.08,.05,.15,.03,.22,0,.11-.04,.22-.08,.3,.05,0,.01,.05,0,.07,0,.06-.01,.12-.03,.18-.03,.02,0,.05,0,.05,.02,.04,.08,.1,.04,.16,.02,.04-.02,.09-.04,.13-.05,.03,0,.06,0,.09,0,.04,0,.07,.04,.11,.03,.14-.02,.28,.06,.42-.03,.11,.07,.24-.06,.36,.03,.04,.03,.1,.02,.15,.02,.21,.02,.42,.05,.62,.06,.14,0,.28-.02,.42-.03,.06,0,.12,0,.18-.01,.11,0,.22-.02,.34-.02,.14,0,.27,.02,.41,.01,.08,0,.16-.03,.24-.05,.02,0,.06,0,.07,.01,.03,.06,.07,.05,.12,.06,.14,0,.29,.02,.43,.03,.03,0,.07-.01,.08-.03,.04-.08,.09-.06,.15-.03,.08,.05,.28,.08,.38,.07,.04,0,.08-.01,.12,0,.03,.01,.06,.05,.06,.08,0,.04,0,.1-.08,.09Zm.3-.7s-.04,.02-.06,.02c-.06,0-.12-.01-.17,0-.12,.03-.23,.02-.34-.03-.02-.01-.05,0-.08-.01-.04,0-.07,0-.11,0-.09,0-.19,.01-.28,.02-.11,0-.22,0-.33,.02-.09,0-.18,.03-.26,.04-.14,.01-.28,.02-.42,.03,0,0,0,0,0,0-.13,.05-.26-.01-.39,0-.14,.02-.3-.02-.45-.03-.02,0-.04-.01-.05,0-.14,.06-.27-.03-.4-.01-.18,.02-.36-.06-.53,.01-.22,.09-.45,.09-.68,.08-.12,0-.24-.04-.35-.04-.2,0-.39-.05-.59-.02-.2,.02-.41,.07-.61,0-.02,0-.05-.01-.06,0-.07,.06-.14,.01-.21,0-.06-.01-.12-.01-.18-.02-.06,0-.12,0-.18,0-.14,0-.28,0-.42,0-.11,0-.22,0-.34,0-.07,0-.13,0-.2,0-.1,0-.19,0-.29,0-.16-.01-.31-.04-.47-.05-.16,0-.33-.07-.49,0-.08,.03-.08-.06-.1-.1-.01-.03,0-.07,0-.1,.05,.01,.09,.02,.13,.03,0-.12,0-.12,.11-.12,.2,0,.39,.01,.59,.06,.12,.03,.26,0,.38-.02,.14-.02,.26-.02,.4,0,.13,.03,.28,0,.43-.02,.06,0,.1-.01,.15,.03,.08,.06,.18,.05,.28,0,.12-.05,.24-.08,.37,0,.04,.03,.12,.02,.18,.02,.13,0,.26,0,.38,0,.03,0,.06,0,.08,0,.05,0,.09,0,.14,.01,.01,0,.02,0,.03,0,.17,0,.34,0,.5-.02,.18-.02,.36-.06,.54-.03,.04,0,.08-.02,.12-.01,.07,0,.14,.02,.21,.03,.08,0,.17,0,.25,0,.14,0,.28,0,.43,0,.07,0,.13-.01,.2-.02,.08,0,.16-.03,.25-.03,.07,0,.13,.01,.2,.04,.11,.04,.23,.04,.35,.04,.15,0,.3-.02,.45-.03,.05,0,.1-.01,.15-.02,.03,0,.06,0,.08,0,.08,0,.16-.02,.24-.01,.05,0,.11,.02,.16,.04,.04,.02,.07,.03,.1-.01,.05-.07,.1-.08,.18-.04,.04,.02,.1,.02,.15,.03,.03,0,.08,.01,.09,.04,.03,.06,.07,.05,.11,.03,.05-.02,.08-.02,.12,.03,.06,.08,.16,.03,.24,.03,.07,0,.13-.03,.2-.04,.06-.01,.08,.03,.07,.08,0,.03,0,.06-.02,.09Zm.34-.66s-.05,0-.07,0c-.13-.08-.28-.06-.42-.05-.16,.01-.32,.02-.48,.03-.17,.01-.34,.02-.51,.03-.09,0-.19-.01-.28-.01-.19,0-.39,0-.58,0-.13,0-.26,.01-.4,.01-.07,0-.14-.01-.21-.01-.08,0-.15,.01-.23,0-.11,0-.21,0-.32-.01-.06,0-.11,0-.17,0-.05,0-.11,0-.16,0-.05,0-.09,0-.14,0-.1,0-.21,.01-.31,.02-.15,0-.3,0-.45,0h-1.43c-.11,0-.23,0-.34,0-.15,0-.3,.02-.45,.02-.17,0-.34,0-.52-.01-.05,0-.1,.01-.14,.01-.2,0-.39-.02-.59-.03-.15,0-.31,.01-.46,.01-.11,0-.22-.02-.32-.03-.02,0-.03,0-.05,0-.13-.01-.26-.03-.38-.03-.06,0-.14-.02-.19,.07,0,.02-.08,0-.12,0,0-.02,0-.02,0-.03,0-.18,0-.18,.18-.19,.24-.02,.48-.01,.73-.02,.1,0,.2,0,.3-.02,.03,0,.05-.02,.08-.03,.01,0,.02-.02,.03-.02,.1,0,.2,0,.3,0,.06,0,.11-.02,.17-.02,.04,0,.08,.01,.12,.02,.02,0,.04,.03,.06,.03,.09-.04,.18-.01,.27-.01,.02,0,.05,0,.07,.02,.05,.05,.11,.05,.17,.04,.15-.05,.3-.05,.45-.03,.16,.02,.32,.01,.48,.02,.05,0,.11,.02,.16,.01,.05,0,.11-.02,.16-.03,.02,0,.04,0,.06,0,.04,0,.07,.03,.1,.03,.15,0,.31,0,.46,0,.05,0,.1,0,.15,0,.13,0,.25,0,.38,0,.34,0,.68,0,1.02,0,.12,0,.24,.02,.36-.03,.05-.02,.11,.03,.16-.04,0,0,.04,.02,.05,.04,.02,.04,.03,.04,.08,.04,.09,0,.19,0,.28,0,.16,0,.32-.02,.48-.02,.04,0,.08,0,.12,0,.07,0,.15,0,.22,0,.05,0,.09,0,.14-.02,.04,0,.08-.03,.13-.03,.06,0,.11,0,.17,0,.2,.02,.39,.06,.6,.04,.22-.03,.44,0,.66,.03,.04,0,.09,0,.13,0,.07,0,.15,0,.22,0,.03,0,.09,.04,.09,.07,0,.05-.02,.1-.04,.15Zm.31-.83s-.03,.08-.05,.11c-.03,.05-.12,.06-.16,.02-.05-.05-.1-.09-.18-.06-.05,.02-.1-.01-.16-.01-.06,0-.13,.01-.19,.02-.23,.02-.46,.04-.69,.05-.11,0-.22,0-.33,0-.27,0-.53,0-.8,.01-.16,0-.33,0-.49,0-.18,0-.36,0-.54,0-.17,.01-.33,.05-.5,.07-.03,0-.06,0-.08,0-.13,0-.25,.02-.38,.02-.05,0-.1-.03-.14-.03-.04,0-.08,0-.11,0-.08,0-.15,.02-.23,.02-.1,0-.2,0-.3,.01-.01,0-.02,0-.03,0-.16-.01-.32-.02-.48-.04-.03,0-.05-.01-.08-.01-.09-.01-.18-.03-.26-.03-.12,0-.24-.01-.36-.02-.1,0-.2,0-.3,0-.09,0-.18,.01-.27,.01-.11,0-.22,0-.34,0-.36,0-.71,0-1.07,0-.16,0-.33,.01-.49-.02-.16-.03-.31,0-.47-.01-.15-.01-.31-.04-.46-.05-.07,0-.13,0-.2,0-.03,0-.06,0-.09,0,.06-.16,.17-.19,.3-.16,.01,0,.03,0,.04,0,.07-.05,.16-.02,.23-.02,.04,0,.08,0,.12,0,.06,0,.12,.01,.18,.01,.06,0,.13,0,.19,0,.03,0,.06,0,.09-.01,.05,0,.1,0,.14-.02,.07-.02,.14-.01,.21,0,.11,.02,.22,0,.33,0,.03,0,.07,0,.1,0,.05,0,.1,0,.15,0,0,0,.01,0,.02,0,.14,.01,.29,.03,.43,.04,.06,0,.12,0,.18,0,.12,.01,.23-.03,.36-.02,.11,.01,.24,.07,.36-.01,.01-.01,.05,0,.07,0,.04,0,.07,.03,.11,.03,.1,0,.2-.02,.3-.03,0,0,.01,0,.02,0,.09,.06,.16,.01,.24-.02,.02,0,.06,0,.08,.01,.08,.07,.15,.03,.23,0,.07-.02,.13-.03,.2,.01,.05,.02,.12,0,.18,0,.05,0,.11,0,.16-.01,.13,0,.26-.01,.4-.02,.04,0,.08,0,.13,0,.15,0,.29,0,.44-.01,.1,0,.19-.02,.29-.03,.04,0,.07-.01,.11-.02,.16-.03,.32,0,.48,.03,.03,0,.06,0,.09,0,.11,0,.21,.02,.32,.03,.03,0,.06,0,.08-.01,.08-.06,.08-.06,.15,.02,.03-.02,.06-.04,.1-.05,.03,0,.07-.02,.08-.01,.05,.04,.1,.05,.16,.03,.09-.03,.17-.03,.27-.02,.11,.01,.23-.02,.34,0,.16,.01,.32,.04,.48,.07,.03,0,.07,.01,.1,.01,.19,0,.38-.02,.58-.01,.2,0,.39,.02,.59,.03,.05,0,.07,.03,.05,.08Zm.08-.73c.09,.06,.23,.04,.33-.04,.03,.02,.07,.03,.1,.05,.01,.01,.01,.06,0,.06-.11,.05-.22,.13-.36,.1-.04,0-.08,0-.11-.02-.13-.06-.26-.03-.4-.02-.31,.03-.63,.02-.95,.02-.14,0-.28,0-.42,0-.15,0-.3,.04-.45,.02-.17-.02-.34,.03-.52,0-.17-.03-.35,0-.52,0-.05,0-.1,0-.16,0-.06,0-.12,0-.18,0-.21,0-.43,0-.64,0-.29,.02-.57,.05-.86,.08,0,0-.02,0-.02,0-.12-.06-.23,0-.35,.01-.02,0-.04,0-.05,0-.09-.08-.19-.04-.28-.03-.04,0-.08-.02-.13-.02-.15,0-.31-.01-.46-.02-.07,0-.14-.02-.21-.01-.05,0-.11,0-.16,.04-.09,.05-.16,.03-.24,0-.02,0-.05,0-.08,0-.13,.05-.26,.05-.39,0,0,0-.01-.01-.02-.01-.14,0-.28,0-.42,0-.01,0-.03,0-.04,0-.2-.04-.4-.03-.6-.03-.21,0-.43,0-.64,0-.15,0-.3-.02-.45-.02,0,.03,0,.07-.01,.13-.03-.03-.05-.05-.06-.08-.03-.07-.08-.06-.14-.06-.06,0-.11-.02-.17-.02-.06,0-.13,.01-.19,.03-.05,.01-.09,.04-.14,.07-.05,.03-.08,0-.06-.05,.04-.08,.08-.16,.14-.23,.02-.03,.09-.03,.13-.03,.14,.01,.27,.04,.41,.05,.07,0,.15,.03,.21-.03,.03-.03,.07-.03,.1,0,.07,.07,.16,.07,.24,0,.04-.03,.07-.05,.11-.01,0,0,.01,0,.01,0,.14-.04,.26,.07,.4,.03,.01,0,.03,0,.04,0,.05,.03,.09,.02,.14,0,.04-.03,.09-.04,.15-.02,.06,.02,.13-.01,.2-.02,.02,0,.04-.02,.05-.01,.11,.06,.22,.02,.33,.01,.1-.01,.21,0,.3-.06,.04-.03,.08-.03,.11,.02,.04,.06,.07,.04,.11,0,.02-.01,.06-.03,.07-.02,.05,.05,.1,.03,.16,0,.01,0,.04,0,.06,.01,.03,0,.06,.03,.1,.03,.06,0,.12-.03,.18,.03,0,.01,.04,0,.06,0,.03,0,.05-.01,.08-.01,.08,0,.17,0,.25,0,.13,0,.25,.02,.38,.01,.13,0,.25-.02,.38-.03,.02,0,.05,0,.07,0,.12,.01,.23,.03,.35,.03,.17,0,.34,.02,.52-.01,.04,0,.08,.01,.12,.01,.02,0,.04,0,.06-.01,.06-.06,.13-.05,.2-.04,.04,0,.1-.03,.14-.02,.11,.03,.21-.02,.31-.01,.09,0,.17,.02,.26-.03,.04-.02,.1,0,.14,0,.08,0,.17,0,.25,.02,.07,0,.14,.01,.22,.02,.11,0,.22,0,.32,0,.31,.01,.62,.02,.93,.03,.14,0,.27,.04,.41,.03,.1,0,.18,0,.26,.04,.08,.04,.12-.04,.19-.05,.05,.06,.11,.06,.18,.04,.08-.02,.19-.07,.26-.05,.13,.05,.28,0,.41,.08Zm-.5-2.45s-.05,0-.06-.02c-.06-.06-.14-.05-.21-.05-.09,0-.19-.02-.28-.02-.09,0-.17,.02-.26,.01-.16,0-.33-.02-.49-.03-.09,0-.19,.02-.28,.03-.05,0-.09,0-.14,0-.03,0-.07,0-.11,0-.05-.04-.11-.08-.17-.12,.01-.02,.02-.05,.03-.07,0,0,0,.01,.01,.02,.05-.02,.09-.05,.14-.07,.02,0,.04,0,.06,0,.14,0,.27,0,.41-.01,.03,0,.05,0,.07,0,.15,.01,.3,.02,.45,.04,.06,0,.13,.02,.19,.01,.05,0,.1-.03,.16-.04,.02,0,.05,0,.07,0,.09,.04,.18,.08,.29,.03,0,0,.02,0,.02,0,.13,.09,.28,.05,.42,.09,.12,.03,.13,.05,.12,.19-.14,0-.28,.02-.42,.02Zm.62-.77s-.05,.05-.09,.06c-.11,0-.22,0-.33,0h0c-.1,0-.2-.01-.3-.02-.29,0-.58,0-.86-.02-.09,0-.2-.01-.28-.09-.05-.05-.07-.1-.03-.14,.03-.04,.1-.06,.14-.06,.11,.01,.22,.05,.34,.02,.04-.01,.09,.04,.14,.04,.12,0,.25,.01,.37,0,.16-.02,.32,0,.48,0,.04,0,.07,0,.11-.01,.11-.02,.21,.02,.29,.09,.03,.02,.02,.09,0,.14Zm.71-.75s-.02,.03-.03,.04c-.02,.11-.11,.11-.18,.09-.14-.04-.26,.02-.39,.03-.11,0-.21,0-.32,0-.06,0-.12-.01-.18-.02-.2-.02-.39-.03-.59-.05,0,0-.02,0-.03,0-.04,0-.1,0-.11-.02-.03-.06-.05-.13-.05-.2,0-.08,.07-.05,.12-.05,.05,0,.11,0,.16,0,.04,0,.08-.01,.11,0,.12,.07,.24,.04,.37,.03,.03,0,.06,0,.09,0,.04,0,.08,.02,.11,.01,.15,0,.31-.03,.46-.01,.16,.02,.33-.05,.5,.08-.01,.02-.03,.05-.05,.07Zm.15-1.87s-.08,.02-.13,.03c0,0-.02,0-.03,0-.05-.01-.09-.03-.14-.04-.04-.01-.09-.01-.09-.08,0,0-.02-.03-.03-.03-.08,0-.08-.05-.1-.12,.02-.02,.05-.06,.07-.06,.13-.02,.26-.03,.39-.04,.02,0,.06,0,.07,.02,.04,.05,.08,.1,.1,.15,.04,.12,.01,.15-.13,.16Zm.39-.54c-.11-.01-.23,0-.34-.02-.05,0-.09-.05-.13-.09,0-.01,0-.06,.03-.08,.03-.03,.07-.06,.11-.09,.08,.06,.16,0,.24-.02,.06-.02,.11-.04,.13,.05,0,.01,.02,.03,.03,.04,.04,.03,.08,.06,.06,.12-.02,.06-.05,.11-.13,.1Zm1.62-.54s-.07,.02-.11,.03c-.2,0-.41,0-.61,0-.16,0-.32,0-.48-.02-.09,0-.17,0-.26-.02-.05,0-.09-.09-.07-.16,0-.03,0-.06,.02-.09,0-.02,.02-.04,.03-.05,.02,.02,.04,.03,.05,.05,0,.02,0,.04,.02,.07,.05-.03,.09-.07,.12-.07,.14,.02,.28-.03,.42,.04,.03,.02,.08,0,.12,0,.06,0,.11,.01,.17,.01,.05,0,.11,0,.16,0,.04,0,.08,.03,.12,.03,.13,0,.21,.12,.33,.13,0,0,0,.02,0,.03Z" /><path d="M9.74,11.25c-.11,0-.2,0-.29,0-.04,0-.08-.05-.12-.07-.01,0-.03-.02-.04-.03-.02-.02-.06-.04-.05-.05,.01-.03,.04-.07,.06-.07,.11,0,.22-.11,.34,0,0,0,.03,0,.05,0,0-.1,.02-.21,.02-.31,0-.04-.03-.08-.03-.13-.02-.16-.04-.33-.05-.49,0-.05,0-.09,0-.14,0-.05,.02-.1,.02-.15,0-.08,0-.17-.02-.25,0-.03,0-.06-.01-.09-.03-.14-.07-.27-.1-.41,0-.01,0-.03,0-.04,0-.05,0-.11-.01-.15-.04-.11-.06-.23-.05-.34,0-.13,.02-.27,.01-.4,0-.13-.04-.26-.06-.39-.02-.12-.04-.23-.06-.35-.01-.1,.01-.21-.02-.3-.05-.12-.08-.23-.1-.35-.02-.15-.05-.3-.08-.46,0-.03-.02-.07-.02-.1,0-.13,0-.26,0-.39,.09-.03,.04-.1,.04-.14-.05,0-.11,0-.11-.02-.03-.06-.07-.09-.11-.13-.09-.07-.16-.16-.23-.25-.09-.1-.18-.21-.27-.32-.06-.07-.13-.13-.19-.21-.08-.1-.16-.21-.24-.31-.01-.01-.06-.02-.07-.01-.07,.13-.16,.27-.11,.43,.02,.08,.07,.16,.09,.25,.01,.05,.02,.09,.07,.11,.04,.02,.07,.05,.03,.1-.01,.02,0,.06,0,.09,.02,.05,.05,.1,.07,.15,.02,.05,.03,.1,.04,.15,.01,.06,.04,.12,.04,.18,0,.09-.07,.18-.03,.28,0,.03,0,.06,0,.09,0,.06-.03,.12-.03,.18,0,.18-.06,.33-.16,.47-.1,.16-.24,.29-.44,.35-.11,.03-.21,0-.31,.01-.07,0-.15-.03-.21-.06-.09-.05-.2-.04-.25-.15-.02-.04-.05-.08-.07-.13-.05-.1-.1-.2-.1-.32,0-.13,.03-.25,.1-.36,.02-.03,.05-.06,.08-.08,.06-.04,.11-.09,.17-.13,.04-.02,.08-.04,.13-.07,.01,.14,.03,.16,.15,.16-.02-.03-.04-.05-.04-.07,0-.1-.07-.17-.15-.21-.17-.1-.35-.1-.53-.06-.11,.02-.22,.06-.29,.18-.06,.11-.13,.21-.19,.31-.04,.06-.07,.14-.13,.18-.09,.07-.14,.15-.13,.25,0,.1,0,.24,.07,.29,.09,.08,.08,.17,.08,.26,0,.06,0,.13,.03,.18,.09,.17,.2,.32,.23,.53,.03,.21,.04,.43,.03,.64,0,.07,0,.15,.01,.22,.01,0,.02,0,.03,.01,0-.01,.02-.03,.02-.04,.05-.11,.12-.21,.24-.24,.11-.03,.23-.05,.34-.07,0,0,0,0,.01,0,.08,.07,.18,.12,.23,.21,.07,.1,.09,.23,.13,.35,.02,.05,.02,.11,.08,.14,.03,.01,.05,.06,.05,.1,.01,.11,.09,.2,.19,.23,.1,.03,.14,.09,.14,.18,0,.02,.01,.05,.02,.06,.07,0,.07,.07,.09,.11,.02,.03,.04,.06,.07,.07,.11,.03,.14,.12,.16,.21,0,.03,.02,.07,.04,.1,.07,.09,.14,.19,.21,.28,.02,.02,.04,.03,.06,.05,.07,.06,.15,.1,.21,.17,.08,.09,.14,.21,.24,.28,.04,.03,.07,.1,.11,.12,.14,.05,.18,.2,.27,.29,.05,.05,.09,.12,.15,.16,.06,.04,.14,.04,.21,.06,.01,0,.03,0,.04-.01,.06-.05,.12-.04,.19,.02,0-.05,0-.09,.01-.12,0-.02-.01-.06,0-.07,.05-.07,0-.12-.02-.16Zm-.61-4.25s.03,.03,.05,.05c-.07,.05-.12,.13-.22,.09-.1,.09-.21,.03-.32,.04-.11,0-.21-.07-.24-.17-.03-.1,.02-.14,.11-.12,.02,0,.04,0,.06,0,.19-.02,.37,.05,.55,.11Zm-.61-.5c0-.08,.02-.17,.03-.24,.06,0,.1,0,.15-.01,.04,0,.21,.07,.22,.11,0,.01,0,.04,0,.04-.03,.03-.06,.07-.1,.08-.08,.03-.17,.05-.26,.06-.01,0-.04-.03-.04-.05Zm-.14-.78s.08-.03,.13-.03c.07,0,.14,.01,.21,.01,.06,0,.12,0,.17-.01,.06,0,.1,.02,.11,.08,.01,.06,0,.12-.07,.13-.12,.02-.24,.04-.4,.06-.04-.03-.11-.07-.18-.12-.06-.05-.03-.09,.03-.12Zm-2.18,.54s.05,0,.07,0c0,0,0-.01,0-.02,.05,.02,.11,.04,.15,.07,.05,.04,.03,.1,0,.13-.03,.03-.08,.03-.12,.04-.04,0-.09,0-.13-.01-.07,0-.1-.06-.09-.12,0-.05,.05-.1,.12-.09Zm.02,.91s-.09-.04-.12-.07c-.02-.02-.01-.08,0-.1,.04-.03,.09-.04,.13-.07,0,0,0,.01,0,.02,.1,0,.2-.02,.3-.03,.04,0,.12,.05,.13,.1,.01,.07-.04,.15-.1,.16-.12,0-.23,0-.35,0Zm.82,.68c-.07,0-.13,0-.2,0-.14,.01-.25-.05-.36-.1,0-.01,0-.02,0-.03,.06-.02,.12-.04,.18-.06,.04-.01,.08-.02,.11-.04,.1-.06,.2-.05,.3-.04,0,0,.01,0,.02,0,.13-.1,.28,0,.41-.02,.12-.02,.25-.03,.37-.05,.02,0,.05,0,.07,0,.16,.03,.32,.07,.49,.09,.07,0,.14-.03,.21-.04,.05,0,.09,0,.14,.02,.03,0,.06,.03,.08,.05,.05,.03,.06,.1,0,.13-.1,.06-.2,.11-.33,.07-.08-.02-.18,0-.27,0-.09,0-.19,0-.28,.02-.05,0-.1,.03-.15,.04-.03,0-.07,0-.08-.01-.03-.04-.05-.03-.09-.03-.07,.01-.14,0-.2,0-.11,0-.22,0-.32,0-.03,0-.06,0-.09,0Zm.06,.58s.04-.05,.05-.05c.08,0,.14-.05,.2-.09,.07-.05,.16-.1,.25-.03,.08,.06,.17,.06,.26,.05,.15-.02,.29-.05,.43-.06,.07,0,.14,0,.22,0,0,0,.01,0,.02,0,.11-.03,.21,0,.32,0,.08,0,.1,.01,.08,.1,0,0,.02,.01,.02,.02,.02,.02,.05,.04,.05,.05,0,.02-.03,.06-.05,.06-.09,.02-.18,.04-.28,.05-.09,0-.19,0-.28,0-.07,0-.13,0-.2,.04-.04,.03-.12,.05-.17-.01,0,0-.02-.01-.03-.01-.11,0-.22-.02-.34,.03,.02,.01,.04,.02,.05,.03v.02c-.2-.07-.39-.13-.6-.2Zm.85,.85v-.05c-.08-.02-.16-.04-.24-.07-.03,0-.04-.04-.07-.06,.02-.02,.04-.05,.06-.06,.07-.03,.13-.07,.2-.08,.08-.02,.17,0,.25-.02,.12-.01,.24-.03,.36-.04,.04,0,.08,.01,.12,.02,.04,.01,.08,.04,.13,.04,.11,.02,.23,.02,.34,.04,.07,0,.09,.06,.06,.12-.03,.06-.07,.11-.16,.09-.04,0-.09,.02-.12,.05-.08,.05-.27,.06-.35,.01-.01,0-.04,0-.06,0-.05,0-.11-.01-.16,0-.1,.01-.2-.07-.3,0-.02,.01-.05,0-.08,0Zm.37,.68s-.06,0-.07,0c-.06,.06-.12,.06-.2,.01,.03-.02,.06-.03,.1-.05-.02-.02-.04-.03-.05-.05-.03-.03-.1-.08-.09-.1,.02-.06,.06-.12,.1-.17,.03-.02,.09,0,.13-.02,.11-.05,.23-.03,.35-.04,.13,0,.25-.02,.35,.09,.01,.02,.04,.02,.07,.02,.07,.01,.14,.02,.2,.04,.05,.02,.07,.06,.03,.11-.05,.07-.1,.13-.2,.12-.08,0-.16,0-.18,.07-.06,0-.11-.02-.16-.02-.13,0-.25-.01-.38-.02Zm.82,.66s-.11,.02-.17,.02c-.02,0-.04,0-.06-.02-.02,0-.05,.02-.07,.02-.12,0-.2-.14-.14-.25,.04-.08,.11-.08,.18-.07,.12,.01,.24,.02,.36,0,.08,0,.16,.03,.24,.07,.02,0,.04,.09,.02,.11-.03,.03-.08,.06-.12,.06-.08,0-.16,0-.24,.05Z" /><path d="M16.76,6.56c-.05-.05-.1-.11-.04-.19,0,0,0-.02,0-.02-.03-.06-.05-.12-.08-.17-.08-.17-.21-.28-.37-.38-.05-.03-.13-.07-.19-.05-.12,.04-.24-.02-.36,0-.05,0-.11,.01-.14,.04-.04,.05-.07,.12-.09,.19-.02,.05,0,.09,.06,.11,.12,.03,.19,.12,.23,.24,.04,.12,.06,.24,.03,.37-.04,.16-.09,.32-.24,.4-.14,.08-.29,.16-.46,.08-.01,0-.04,0-.06,0-.08,.05-.14,0-.19-.05-.06-.05-.11-.11-.16-.16-.01-.01-.03-.02-.04-.02-.09,.02-.12-.06-.17-.11-.05-.05-.06-.12-.09-.18-.04-.11-.12-.21-.07-.34,.02-.04,.01-.09,.02-.14,0-.01,0-.02,0-.03-.03-.06-.01-.12,0-.18,.01-.08,0-.16,.03-.23,.03-.08,0-.19,.08-.26,0,0,0-.02,0-.02,.01-.05,.02-.11,.05-.15,.13-.16,.17-.35,.24-.53,.04-.1-.01-.2-.1-.25-.07-.04-.24,0-.27,.07-.04,.11-.14,.15-.21,.23-.02,.03-.04,.05-.06,.08-.03,.04-.05,.09-.08,.11-.11,.05-.21,.1-.28,.2,0,0,0,0,0,0-.12,.08-.13,.21-.14,.33-.01,.09-.02,.19-.03,.28-.01,.1-.05,.2-.03,.29,.03,.1,0,.18-.02,.27-.02,.1-.05,.19-.03,.29,.02,.07,0,.15,0,.23,0,.08-.05,.14-.06,.21-.03,.16-.04,.32-.04,.48,0,.14-.02,.27-.07,.39-.05,.12-.1,.24-.12,.38-.01,.13-.01,.26,.03,.39,.01,.03,.02,.07,0,.09-.1,.18-.15,.37-.14,.57,0,.04,0,.08-.01,.11-.03,.12-.08,.24-.11,.36-.03,.12-.07,.24-.03,.38,.03,.1,.02,.2-.05,.29,0,0,0,.03-.01,.04-.02,.16,.01,.33-.1,.47-.01,.01,0,.04,0,.06-.02,.1-.03,.21-.05,.31-.02,.09-.03,.18-.05,.28,.13,0,.23,.03,.29-.09,0-.02,.05-.02,.07-.02,.08-.02,.15-.04,.22-.08,.07-.03,.13-.08,.18-.13,.14-.13,.31-.21,.4-.38,.09-.15,.21-.26,.35-.37,.18-.13,.31-.31,.42-.5,.09-.17,.19-.33,.3-.5,.05-.08,.12-.15,.06-.26,0-.02,0-.05,.02-.07,.07-.11,.15-.23,.23-.34,0-.01,.02-.03,.03-.03,.1-.05,.1-.17,.16-.25,.01-.01,0-.04,0-.07,0-.06-.01-.12-.01-.18,0-.05,.02-.07,.08-.06,.05,0,.12-.01,.17-.04,.06-.03,.12-.06,.19-.03,.06,.03,.12,.07,.19,.08,.1,.01,.11,.07,.12,.14,.02,.08,.06,.14,.11,.21,.01,.02,.06,.02,.08,.02,.01,0,.03-.04,.03-.06,0-.04-.03-.08-.04-.12-.02-.04-.06-.08-.05-.12,.03-.15,.09-.29,.05-.44,0,0,0-.02,0-.02,.03-.08,.06-.16,.11-.22,.05-.08,.06-.13-.02-.18,.05-.09,.08-.19,.14-.27,.07-.09,.05-.19,.08-.29,.03-.09,.04-.19,.06-.28,0,0-.01,0-.02-.01,.03-.02,.05-.04,.08-.06,.06-.04,.07-.08,.02-.14Zm-2.12,.86c.06,.01,.12,.03,.2,.05-.1,.07-.15,0-.21-.02v-.03Zm-.34-.56s.04,.03,.06,.05c.03,.05,.04,.11,.11,.12,.01,0,.03,.05,.02,.06-.03,.03-.06,.05-.1,.08,0-.01,0-.02-.01-.03-.12,0-.24,.03-.36,.03-.06,0-.13-.03-.18-.07-.06-.05-.01-.2,.06-.22,.08-.02,.17-.03,.26-.03,.05,0,.1,0,.14,.02Zm-.48-1.17s.09,0,.14-.01c.03,0,.05,0,.08,0,.07,0,.12,.05,.11,.11,0,.04-.07,.08-.11,.1-.03,.02-.07,0-.11,0,0,0,0,0,0,0-.05,0-.1-.01-.16-.02-.07-.01-.1-.07-.08-.11,.02-.04,.08-.06,.13-.07Zm-.08,.55c.05-.04,.12-.05,.19-.01,.04,.02,.08,.02,.12,.04,.03,.02,.06,.04,.09,.06-.03,.03-.05,.08-.08,.08-.15,0-.17,.12-.22,.22-.11,.05-.09-.07-.13-.11-.01-.01-.01-.04-.02-.05-.01-.03-.05-.06-.04-.07,.02-.06,.05-.12,.09-.15Zm-.58,4.98c-.06,.04-.12,.02-.16-.04-.03-.05-.01-.12,.06-.14,.09-.03,.18-.03,.27,0,0,.01,0,.02,0,.03-.06,.05-.12,.11-.18,.16Zm.55-.64s0-.02-.01-.03c-.13,0-.27,0-.4,0-.07,0-.11-.05-.11-.11,0-.07,.04-.09,.11-.09,.1,0,.21-.03,.31-.05,.08-.02,.13,.03,.17,.08,.03,.03,.06,.09,.05,.11-.02,.04-.07,.06-.1,.09Zm.51-.71c-.09,0-.17,.02-.26,.02h0c-.13,0-.27,0-.4,0-.03,0-.07,0-.1-.02-.06-.01-.11-.04-.09-.1,.01-.04,.07-.08,.11-.08,.17-.02,.33-.04,.49-.08,.06-.02,.15,.03,.22,.05,.02,0,.03,.02,.05,.03,.05,0,.07,.04,.07,.09,0,.06-.04,.09-.09,.1Zm.62-.72s-.1,.04-.15,.04c-.09,.01-.18,.03-.27,.03-.08,0-.16-.02-.25-.03-.05,0-.09,0-.14,0-.1,0-.21,0-.31,0-.07,0-.14-.04-.21-.06-.02,0-.03-.04-.04-.06,0,0,.03-.03,.05-.03,.08-.03,.17-.05,.25-.07,0,0,0,.01,0,.02,.05-.01,.1-.01,.14-.04,.09-.06,.17-.02,.27,0,.09,.03,.2,.05,.3,0,.08-.04,.14-.03,.21,.03,.04,.04,.1,.05,.14,.08,.06,.03,.04,.08,0,.1Zm.3-.65c-.16,.05-.32,.03-.49,.03-.08,0-.16,0-.24,0-.1,0-.2,0-.29,.07-.05,.04-.1,.04-.17,0-.06-.04-.14-.07-.23-.07-.09,0-.18-.06-.27-.09,0-.01,0-.02,0-.03,.03-.01,.06-.03,.09-.04,.03-.01,.07-.02,.08-.04,.05-.08,.12-.07,.19-.08,.14,0,.27-.01,.41,.02,.08,.02,.18-.03,.27-.03,.17-.01,.33-.02,.5-.02,.03,0,.07,.02,.08,.05,.03,.09,.11,.08,.18,.09,.02,.13-.02,.12-.12,.15Zm.85-.73c-.08,.1-.18,.08-.29,.07-.19-.01-.38-.02-.56,.03-.03,0-.08,.01-.11,0-.1-.06-.19-.04-.29,0-.08,.03-.17,.06-.27,.02-.01,0-.03,0-.05,0-.02,0-.06,0-.06,0-.05-.08-.11-.06-.18-.05-.16,.03-.3-.04-.45-.08-.02,0-.03-.02-.06-.04,.04-.02,.06-.03,.09-.05,.04-.02,.08-.04,.12-.05,.12-.01,.22-.1,.35-.05,.05,.02,.13-.02,.2-.03,.03,0,.07,0,.1,0,.05,0,.09,0,.14,0,0,0,0,0,0,0,.13,.08,.28-.05,.42,.04,.04,.03,.12,0,.18-.01,.02,0,.04,0,.05,0,.07,.05,.14,.04,.22,.04,.14,0,.28,.01,.42,.05,.02,0,.05,.03,.07,.04-.02,.02-.04,.04-.05,.06Zm.46-.64c-.05,.09-.14,.12-.23,.13-.02,0-.05-.05-.07-.08,0,0,0-.01,.01-.02-.04,0-.08,0-.12,0-.07,0-.13-.05-.13-.12,0-.07,.04-.1,.12-.1,.13,0,.26-.02,.4-.04,.07,.07,.06,.15,.01,.23Zm-.06-.59c-.06,0-.11-.03-.17-.05-.03,0-.06-.02-.09-.02-.09,.01-.15-.04-.15-.12,0-.07,.06-.13,.16-.13,.07,0,.13,.02,.2,.04,.01,0,.01,.05,.02,.07,.01,.03,.03,.05,.05,.07,.03,.02,.06,.04,.08,.06-.04,.03-.07,.08-.11,.08Z" /></svg>