<?xml version="1.0" encoding="UTF-8"?><svg id="Layer_1" xmlns="http://www.w3.org/2000/svg" width="100mm" height="60mm" viewBox="0 0 283.46 170.08"><g><path d="M33.28,98.6h-.05c0-.29-.11-.55-.32-.76-.22-.21-.47-.31-.76-.31h-.21l-.02-.17h1.36v1.24Zm0,9.42v1.24h-1.36l.02-.17h.21c.29,0,.55-.11,.76-.32,.22-.21,.32-.46,.32-.76h.05Zm1.53-10.66v11.9h-1.58v-11.9h1.58Zm1,0c.81,0,1.5,.11,2.09,.34,.58,.23,1.03,.55,1.34,.98s.47,.94,.47,1.54c0,.5-.09,.93-.28,1.28-.19,.36-.43,.64-.72,.85-.29,.21-.61,.35-.93,.43,.59,.08,1.11,.27,1.55,.56,.45,.3,.79,.67,1.03,1.12,.24,.45,.36,.98,.36,1.56,0,.66-.17,1.23-.5,1.72-.34,.49-.82,.86-1.45,1.12-.63,.26-1.39,.39-2.28,.39h-1.82c.01-.23,.02-.45,.02-.66h1.51c.57,0,1.05-.1,1.45-.31,.4-.2,.71-.51,.92-.92s.32-.91,.32-1.5-.11-1.07-.32-1.45c-.22-.38-.49-.67-.83-.88-.34-.21-.72-.36-1.13-.44-.41-.08-.82-.13-1.22-.13v-.15c.26,0,.54-.03,.83-.1s.58-.19,.84-.36c.27-.17,.48-.42,.65-.74,.16-.32,.25-.74,.25-1.25s-.09-.98-.27-1.33c-.18-.36-.45-.62-.81-.8s-.79-.26-1.3-.26h-1.77s-.01-.07-.04-.16c-.03-.1-.07-.25-.13-.45h2.18Z" fill="#d5ba8c"/><path d="M49.66,97.13c1.27,0,2.38,.25,3.32,.77,.95,.51,1.69,1.23,2.21,2.16s.79,2.02,.79,3.26-.26,2.34-.79,3.26c-.53,.93-1.26,1.65-2.21,2.16-.95,.51-2.05,.77-3.32,.77s-2.35-.25-3.29-.77c-.95-.51-1.68-1.23-2.21-2.16-.53-.93-.79-2.02-.79-3.26s.26-2.33,.79-3.26,1.26-1.65,2.21-2.16c.95-.51,2.04-.77,3.29-.77Zm0,11.8c.92,0,1.71-.23,2.38-.7,.67-.46,1.19-1.12,1.56-1.96,.38-.84,.56-1.82,.56-2.96s-.18-2.12-.56-2.96c-.37-.84-.89-1.49-1.56-1.96s-1.46-.7-2.38-.7-1.68,.23-2.35,.7c-.68,.46-1.2,1.12-1.57,1.96-.38,.84-.56,1.83-.56,2.96s.19,2.12,.56,2.96c.37,.84,.9,1.49,1.57,1.96,.67,.47,1.46,.7,2.35,.7Z" fill="#d5ba8c"/><path d="M62.1,97.13c.19,0,.42,.01,.66,.03s.5,.05,.76,.09c.25,.04,.48,.08,.68,.12,.2,.04,.34,.08,.43,.13l-.07,2.02h-.15c0-.56-.2-1-.59-1.33s-.89-.49-1.5-.49c-.63,0-1.15,.18-1.54,.55s-.59,.8-.59,1.3c-.01,.25,.05,.51,.2,.79,.14,.28,.36,.54,.65,.77l3.32,2.77c.4,.31,.68,.66,.84,1.06,.17,.4,.24,.82,.23,1.25-.02,1-.36,1.8-1,2.4s-1.52,.9-2.62,.9c-.35,0-.73-.03-1.13-.1-.4-.07-.78-.17-1.13-.32-.35-.14-.64-.33-.85-.55-.05-.2-.08-.46-.08-.76,0-.3,.04-.61,.1-.93,.06-.32,.14-.6,.25-.85h.15c-.06,.58,.02,1.09,.25,1.55,.22,.45,.55,.8,.97,1.05,.42,.24,.92,.35,1.47,.33,.67-.02,1.22-.23,1.66-.62s.65-.9,.65-1.54c0-.33-.07-.63-.22-.9-.15-.27-.37-.52-.68-.73l-3.16-2.69c-.43-.32-.74-.69-.92-1.12s-.26-.86-.24-1.29c.02-.51,.16-.99,.41-1.44,.25-.45,.61-.8,1.08-1.07,.47-.27,1.04-.4,1.71-.4Zm2.53,.17v.36h-1.53v-.36h1.53Z" fill="#d5ba8c"/><path d="M79.29,104.3l-.08,2.75c-.28,.46-.65,.88-1.08,1.25s-.96,.66-1.57,.88-1.32,.32-2.12,.32c-1.25-.01-2.35-.27-3.31-.77-.96-.5-1.7-1.22-2.24-2.14-.53-.92-.8-2.02-.8-3.29s.26-2.33,.79-3.26c.53-.92,1.27-1.64,2.23-2.15,.96-.51,2.09-.77,3.41-.77,.86,0,1.64,.1,2.33,.31,.69,.21,1.28,.47,1.77,.77l.24,2.57h-.15c-.27-1.04-.78-1.82-1.52-2.32-.74-.5-1.61-.76-2.59-.76s-1.81,.23-2.52,.69-1.25,1.1-1.63,1.94c-.39,.83-.58,1.82-.58,2.95s.19,2.1,.57,2.94c.38,.84,.91,1.49,1.6,1.96s1.49,.72,2.41,.74c.83,0,1.57-.15,2.23-.44s1.2-.78,1.63-1.45c.43-.67,.72-1.58,.87-2.73h.14Z" fill="#d5ba8c"/><path d="M83.23,98.6h-.05c-.01-.29-.12-.55-.33-.76-.21-.21-.46-.31-.75-.31h-.22v-.17h1.36v1.24Zm0,9.42v1.24h-1.36v-.17h.22c.29,0,.55-.11,.75-.32,.21-.21,.32-.46,.33-.76h.05Zm1.53-10.66v11.9h-1.58v-11.9h1.58Zm6.63,5.71v.58h-6.8v-.58h6.8Zm-6.68-4.47v-1.24h1.36v.17h-.22c-.3,0-.55,.11-.76,.31-.21,.21-.32,.46-.33,.76h-.05Zm0,9.42h.05c.01,.29,.12,.55,.33,.76,.21,.21,.46,.32,.76,.32h.22v.17h-1.36v-1.24Zm6.58-9.42h-.05c0-.29-.11-.55-.32-.76-.22-.21-.47-.31-.76-.31h-.22v-.17h1.36v1.24Zm0,9.42v1.24h-1.36v-.17h.22c.29,0,.55-.11,.76-.32,.22-.21,.32-.46,.32-.76h.05Zm1.53-10.66v11.9h-1.58v-11.9h1.58Zm-.05,1.24v-1.24h1.36v.17h-.22c-.29,0-.55,.11-.76,.31-.21,.21-.32,.46-.33,.76h-.05Zm0,9.42h.05c0,.29,.12,.55,.33,.76,.21,.21,.46,.32,.76,.32h.22v.17h-1.36v-1.24Z" fill="#d5ba8c"/><path d="M98.27,98.6h-.05c0-.29-.11-.55-.32-.76-.22-.21-.47-.31-.76-.31h-.21l-.02-.17h1.36v1.24Zm0,9.42v1.24h-1.36v-.17h.22c.29,0,.55-.11,.75-.32,.21-.21,.32-.46,.33-.76h.05Zm1.53-10.66v11.9h-1.58v-11.9h1.58Zm4.63,0v.59h-4.68v-.59h4.68Zm-.77,5.75v.58h-3.91v-.58h3.91Zm.7,5.56l.14,.59h-4.74v-.59h4.61Zm1.11-2.4l-.92,2.99h-2.99l.61-.59c.59,0,1.08-.1,1.48-.3s.73-.48,.99-.84,.48-.78,.66-1.26h.17Zm-1.04-9.22v.49l-2.08-.19c.25,0,.51-.02,.79-.05,.28-.03,.54-.07,.77-.12,.24-.04,.41-.09,.51-.14Zm-.77,4.79v1.29h-1.19v-.03c.3-.01,.54-.12,.73-.32,.19-.2,.29-.45,.29-.73v-.2h.17Zm0,1.8v1.29h-.17v-.22c0-.28-.1-.53-.29-.73-.19-.2-.44-.31-.73-.31v-.03h1.19Zm.77-5.75v1.56h-.17v-.27c0-.35-.12-.65-.35-.88-.23-.24-.53-.36-.89-.37v-.03h1.41Z" fill="#d5ba8c"/><path d="M107.29,97.04c.11,.05,.28,.09,.52,.14,.23,.05,.49,.08,.77,.12,.28,.03,.55,.05,.78,.05l-2.07,.19v-.49Zm10.18,.31v.58h-10.18v-.58h10.18Zm-8.77,.53v.05c-.36,.01-.66,.13-.89,.37-.23,.23-.35,.53-.35,.89v.26l-.17,.02v-1.58h1.41Zm2.94,10.15v1.24h-1.36v-.17h.22c.29,0,.55-.11,.76-.32,.21-.21,.32-.46,.33-.76h.05Zm1.53-10.61v11.85h-1.58v-11.85h1.58Zm-.05,10.61h.05c.01,.29,.12,.55,.33,.76,.21,.21,.46,.32,.76,.32h.22v.17h-1.36v-1.24Zm4.35-10.98v.49l-2.07-.19c.25,0,.51-.02,.79-.05,.28-.03,.54-.07,.77-.12,.24-.05,.41-.09,.51-.14Zm0,.83v1.58l-.17-.02v-.26c0-.36-.12-.66-.35-.89-.23-.23-.53-.35-.89-.37v-.05h1.41Z" fill="#d5ba8c"/><path d="M119.63,97.04c.11,.05,.28,.09,.52,.14,.23,.05,.49,.08,.77,.12,.28,.03,.55,.05,.78,.05l-2.07,.19v-.49Zm10.18,.31v.58h-10.18v-.58h10.18Zm-8.77,.53v.05c-.36,.01-.66,.13-.89,.37-.23,.23-.35,.53-.35,.89v.26l-.17,.02v-1.58h1.41Zm2.94,10.15v1.24h-1.36v-.17h.22c.29,0,.55-.11,.76-.32,.21-.21,.32-.46,.33-.76h.05Zm1.53-10.61v11.85h-1.58v-11.85h1.58Zm-.05,10.61h.05c.01,.29,.12,.55,.33,.76,.21,.21,.46,.32,.76,.32h.22v.17h-1.36v-1.24Zm4.35-10.98v.49l-2.07-.19c.25,0,.51-.02,.79-.05,.28-.03,.54-.07,.77-.12,.24-.05,.41-.09,.51-.14Zm0,.83v1.58l-.17-.02v-.26c0-.36-.12-.66-.35-.89-.23-.23-.53-.35-.89-.37v-.05h1.41Z" fill="#d5ba8c"/><path d="M138.17,97.13c1.27,0,2.38,.25,3.32,.77,.95,.51,1.69,1.23,2.21,2.16s.79,2.02,.79,3.26-.26,2.34-.79,3.26c-.53,.93-1.26,1.65-2.21,2.16-.95,.51-2.05,.77-3.32,.77s-2.35-.25-3.29-.77c-.95-.51-1.68-1.23-2.21-2.16-.53-.93-.79-2.02-.79-3.26s.26-2.33,.79-3.26,1.26-1.65,2.21-2.16c.95-.51,2.04-.77,3.29-.77Zm0,11.8c.92,0,1.71-.23,2.38-.7,.67-.46,1.19-1.12,1.56-1.96,.38-.84,.56-1.82,.56-2.96s-.18-2.12-.56-2.96c-.37-.84-.89-1.49-1.56-1.96s-1.46-.7-2.38-.7-1.68,.23-2.35,.7c-.68,.46-1.2,1.12-1.57,1.96-.38,.84-.56,1.83-.56,2.96s.19,2.12,.56,2.96c.37,.84,.9,1.49,1.57,1.96,.67,.47,1.46,.7,2.35,.7Z" fill="#d5ba8c"/><path d="M163.38,104.3l-.08,2.75c-.28,.46-.65,.88-1.08,1.25s-.96,.66-1.57,.88-1.32,.32-2.12,.32c-1.25-.01-2.35-.27-3.31-.77-.96-.5-1.7-1.22-2.24-2.14-.53-.92-.8-2.02-.8-3.29s.26-2.33,.79-3.26c.53-.92,1.27-1.64,2.23-2.15,.96-.51,2.09-.77,3.41-.77,.86,0,1.64,.1,2.33,.31,.69,.21,1.28,.47,1.77,.77l.24,2.57h-.15c-.27-1.04-.78-1.82-1.52-2.32-.74-.5-1.61-.76-2.59-.76s-1.81,.23-2.52,.69-1.25,1.1-1.63,1.94c-.39,.83-.58,1.82-.58,2.95s.19,2.1,.57,2.94c.38,.84,.91,1.49,1.6,1.96s1.49,.72,2.41,.74c.83,0,1.57-.15,2.23-.44s1.2-.78,1.63-1.45c.43-.67,.72-1.58,.87-2.73h.14Z" fill="#d5ba8c"/><path d="M167.5,108.02c-.08,.23-.09,.42-.03,.58,.06,.16,.15,.28,.28,.37s.26,.13,.4,.13h.15v.17h-3.49v-.17h.15c.26,0,.53-.08,.81-.25s.51-.44,.69-.82h1.04Zm3.66-10.93l.14,1.48-4.25,10.64h-1.11l4.37-10.22s.05-.11,.13-.26c.08-.15,.15-.34,.24-.55s.16-.43,.23-.63c.07-.2,.1-.36,.1-.46h.15Zm2.19,7.74v.58h-5.2v-.58h5.2Zm-2.19-7.74l5.22,12.07h-1.99l-3.79-9.9,.56-2.18Zm2.79,10.93h1.92c.18,.39,.41,.66,.69,.82s.55,.25,.81,.25h.14v.17h-4.35v-.17h.15c.22,0,.42-.09,.59-.28s.19-.45,.05-.79Z" fill="#d5ba8c"/><path d="M181.15,108.02v1.24h-1.89v-.17h.27c.31,0,.58-.09,.82-.28,.24-.19,.38-.45,.42-.79h.37Zm.95-10.9h.15l.42,1.24-1.04,10.9h-1.02l1.48-12.14Zm-.37,11.17v.08c0,.18,.07,.35,.2,.5s.28,.23,.47,.23h.25v.15h-1.04v-.97h.12Zm.53-11.17l5.12,10.1-.58,2.31-4.9-9.79,.36-2.62Zm9.71,0l.14,1.38-4.52,9.25c-.19,.4-.34,.73-.43,1s-.16,.53-.18,.78h-.17l-.37-1.21,5.54-11.2Zm-.22,11.17h.12v.97h-1.04v-.15h.25c.19,0,.35-.08,.48-.23s.19-.32,.19-.5v-.08Zm.37-11.17l1.51,12.14h-1.8l-.9-9.47,1.04-2.67h.15Zm1,10.9h.36c.05,.34,.2,.6,.44,.79,.24,.19,.5,.28,.8,.28h.27v.17h-1.87v-1.24Z" fill="#d5ba8c"/><path d="M198.73,98.6h-.05c0-.29-.11-.55-.32-.76-.22-.21-.47-.31-.77-.31h-.2l-.02-.17h1.36v1.24Zm0,9.42v1.24h-1.36v-.17h.22c.29,0,.55-.11,.76-.32,.21-.21,.32-.46,.33-.76h.05Zm1.53-10.66v11.9h-1.58v-11.9h1.58Zm1.95,0c.82,0,1.5,.13,2.05,.4,.55,.27,.97,.65,1.26,1.14,.29,.49,.43,1.07,.43,1.74,0,.53-.09,1.02-.3,1.45-.21,.44-.49,.8-.84,1.1-.35,.3-.75,.51-1.2,.65-.45,.14-.91,.19-1.38,.14s-.94-.2-1.39-.46v-.17c.35,.03,.67,.04,.94,.02,.28-.02,.57-.09,.87-.2,.3-.11,.58-.31,.85-.58s.47-.64,.6-1.11c.03-.14,.06-.3,.08-.48,.02-.19,.03-.37,.02-.54-.01-.76-.21-1.37-.6-1.84-.39-.46-.95-.7-1.66-.7h-1.74c-.06-.19-.11-.39-.17-.58h2.18Zm-2.01,10.66h.05c.01,.29,.12,.55,.33,.76,.21,.21,.46,.32,.76,.32h.22v.17h-1.36v-1.24Z" fill="#d5ba8c"/><path d="M208.66,108.02c-.08,.23-.09,.42-.03,.58,.06,.16,.15,.28,.28,.37s.26,.13,.4,.13h.15v.17h-3.49v-.17h.15c.26,0,.53-.08,.81-.25s.51-.44,.69-.82h1.04Zm3.66-10.93l.14,1.48-4.25,10.64h-1.11l4.37-10.22s.05-.11,.13-.26c.08-.15,.15-.34,.24-.55s.16-.43,.23-.63c.07-.2,.1-.36,.1-.46h.15Zm2.19,7.74v.58h-5.2v-.58h5.2Zm-2.19-7.74l5.22,12.07h-1.99l-3.79-9.9,.56-2.18Zm2.79,10.93h1.92c.18,.39,.41,.66,.69,.82s.55,.25,.81,.25h.14v.17h-4.35v-.17h.15c.22,0,.42-.09,.59-.28s.19-.45,.05-.79Z" fill="#d5ba8c"/><path d="M230.78,104.3l-.08,2.75c-.28,.46-.65,.88-1.08,1.25s-.96,.66-1.57,.88-1.32,.32-2.12,.32c-1.25-.01-2.35-.27-3.31-.77-.96-.5-1.7-1.22-2.24-2.14-.53-.92-.8-2.02-.8-3.29s.26-2.33,.79-3.26c.53-.92,1.27-1.64,2.23-2.15,.96-.51,2.09-.77,3.41-.77,.86,0,1.64,.1,2.33,.31,.69,.21,1.28,.47,1.77,.77l.24,2.57h-.15c-.27-1.04-.78-1.82-1.52-2.32-.74-.5-1.61-.76-2.59-.76s-1.81,.23-2.52,.69-1.25,1.1-1.63,1.94c-.39,.83-.58,1.82-.58,2.95s.19,2.1,.57,2.94c.38,.84,.91,1.49,1.6,1.96s1.49,.72,2.41,.74c.83,0,1.57-.15,2.23-.44s1.2-.78,1.63-1.45c.43-.67,.72-1.58,.87-2.73h.14Z" fill="#d5ba8c"/><path d="M244.77,104.3l-.08,2.75c-.28,.46-.64,.88-1.08,1.25s-.96,.66-1.57,.88-1.32,.32-2.12,.32c-1.25-.01-2.35-.27-3.31-.77-.96-.5-1.7-1.22-2.23-2.14-.53-.92-.8-2.02-.8-3.29s.26-2.33,.79-3.26c.53-.92,1.27-1.64,2.23-2.15,.96-.51,2.09-.77,3.41-.77,.86,0,1.64,.1,2.33,.31s1.28,.47,1.77,.77l.24,2.57h-.15c-.27-1.04-.78-1.82-1.52-2.32-.74-.5-1.61-.76-2.59-.76s-1.81,.23-2.52,.69-1.25,1.1-1.63,1.94-.58,1.82-.58,2.95,.19,2.1,.57,2.94c.38,.84,.91,1.49,1.6,1.96,.68,.47,1.49,.72,2.41,.74,.82,0,1.57-.15,2.22-.44s1.2-.78,1.63-1.45,.72-1.58,.87-2.73h.14Z" fill="#d5ba8c"/><path d="M248.71,98.6h-.05c-.01-.29-.12-.55-.33-.76-.21-.21-.46-.31-.75-.31h-.22v-.17h1.36v1.24Zm0,9.42v1.24h-1.36v-.17h.22c.29,0,.55-.11,.75-.32,.21-.21,.32-.46,.33-.76h.05Zm1.53-10.66v11.9h-1.58v-11.9h1.58Zm-.05,1.24v-1.24h1.36v.17h-.22c-.3,0-.55,.11-.76,.31-.21,.21-.32,.46-.33,.76h-.05Zm0,9.42h.05c.01,.29,.12,.55,.33,.76,.21,.21,.46,.32,.76,.32h.22v.17h-1.36v-1.24Z" fill="#d5ba8c"/><path d="M113.75,117.76c.06,.03,.16,.05,.29,.08,.13,.03,.28,.05,.43,.07,.16,.02,.31,.03,.44,.03l-1.16,.1v-.28Zm5.89,.17v.36h-5.89v-.36h5.89Zm-4.97,.33v.03c-.25,0-.45,.09-.6,.24-.15,.15-.23,.35-.23,.6v.12h-.09s0-.99,0-.99h.92Zm1.48,5.65v.69h-.76v-.1h.12c.16,0,.31-.06,.42-.18,.12-.12,.18-.26,.19-.42h.03Zm1.13-5.94v6.64h-1.16v-6.64h1.16Zm-.03,5.94h.03c0,.17,.07,.31,.18,.42s.26,.18,.42,.18h.12v.1h-.76v-.69Zm2.39-6.15v.28l-1.16-.1c.14,0,.28,0,.44-.03,.15-.02,.3-.04,.43-.07,.13-.03,.23-.05,.28-.08Zm0,.5v1h-.09v-.13c0-.25-.08-.45-.23-.6s-.35-.23-.6-.24v-.03h.92Z" fill="#d5ba8c"/><path d="M125.08,117.81c.73,0,1.37,.14,1.92,.42s.97,.68,1.27,1.2c.3,.52,.45,1.13,.45,1.84s-.15,1.32-.45,1.84c-.3,.52-.72,.92-1.27,1.2s-1.19,.42-1.92,.42-1.38-.14-1.92-.42c-.55-.28-.97-.68-1.27-1.2-.3-.52-.45-1.13-.45-1.84s.15-1.32,.45-1.84c.3-.52,.72-.92,1.27-1.2,.55-.28,1.18-.42,1.92-.42Zm0,6.57c.48,0,.89-.13,1.24-.38s.62-.61,.82-1.08c.19-.46,.29-1.01,.29-1.65s-.1-1.18-.29-1.65c-.19-.46-.47-.82-.82-1.08s-.77-.38-1.24-.38-.89,.13-1.24,.38-.62,.61-.82,1.08c-.19,.46-.29,1.01-.29,1.65s.1,1.18,.29,1.65c.19,.46,.47,.82,.82,1.08s.77,.38,1.24,.38Z" fill="#d5ba8c"/><path d="M132.87,117.81c.12,0,.26,0,.43,.02,.16,.01,.33,.03,.5,.05,.17,.02,.32,.04,.45,.07s.22,.05,.28,.07l-.08,1.21h-.09c0-.32-.12-.58-.35-.77s-.53-.29-.9-.29-.66,.1-.88,.29c-.22,.19-.33,.42-.34,.69-.01,.16,.03,.31,.14,.46,.1,.15,.25,.29,.42,.41l1.84,1.36c.26,.17,.45,.38,.57,.62,.12,.24,.18,.52,.16,.82-.02,.58-.23,1.05-.63,1.39-.4,.34-.95,.51-1.64,.51-.24,0-.48-.02-.72-.06-.25-.04-.47-.1-.67-.19s-.36-.19-.48-.31c-.04-.13-.05-.28-.05-.46s.03-.37,.08-.56c.05-.19,.1-.36,.16-.49h.08c-.02,.32,.03,.62,.16,.88,.13,.26,.33,.47,.59,.62,.25,.15,.56,.22,.91,.21,.39-.01,.71-.12,.95-.33,.24-.21,.36-.48,.36-.81,0-.19-.05-.36-.15-.52-.1-.16-.26-.3-.48-.42l-1.72-1.3c-.29-.19-.5-.42-.62-.69s-.18-.55-.16-.84c.02-.3,.11-.58,.26-.83,.15-.25,.37-.45,.64-.59,.28-.15,.61-.22,1-.22Zm1.66,.09v.2h-1v-.2h1Z" fill="#d5ba8c"/><path d="M143.5,121.82l.02,1.59c-.15,.25-.34,.47-.58,.67-.24,.2-.53,.36-.88,.48-.35,.12-.75,.18-1.22,.18-.74,0-1.38-.15-1.94-.43-.56-.28-.99-.68-1.3-1.19-.31-.52-.46-1.13-.46-1.85s.15-1.32,.46-1.83c.31-.52,.74-.92,1.29-1.2,.56-.28,1.22-.42,1.99-.42,.49,0,.94,.06,1.33,.17,.39,.11,.72,.24,1,.4l.08,1.53h-.09c-.16-.6-.44-1.04-.84-1.32-.4-.28-.87-.41-1.41-.41s-.97,.13-1.35,.38c-.38,.25-.67,.61-.88,1.07-.21,.46-.31,1-.31,1.63s.1,1.18,.3,1.64,.48,.83,.85,1.08c.36,.26,.79,.39,1.28,.4,.48,0,.89-.08,1.24-.24s.64-.43,.87-.8c.22-.37,.38-.88,.47-1.5h.08Z" fill="#d5ba8c"/><path d="M146.54,123.91c-.05,.13-.06,.23-.03,.32,.03,.09,.08,.16,.16,.2s.15,.07,.23,.07h.08v.1h-2v-.1h.08c.15,0,.3-.05,.45-.14,.15-.09,.28-.25,.38-.46h.63Zm2.05-6.14l.05,1-2.37,5.81h-.65l2.46-5.65s.04-.09,.08-.19c.04-.1,.09-.21,.14-.34,.05-.13,.1-.25,.14-.37,.04-.12,.06-.21,.07-.27h.09Zm1.11,4.46v.36h-2.86v-.36h2.86Zm-1.11-4.46l3.01,6.78h-1.41l-2.05-5.26,.45-1.52Zm1.35,6.14h1.37c.1,.22,.23,.37,.38,.46,.15,.09,.31,.14,.45,.14h.08v.1h-2.73v-.1h.08c.12,0,.23-.05,.32-.16s.11-.25,.04-.44Z" fill="#d5ba8c"/><path d="M154.72,123.93v.68h-.79v-.1h.18c.16,0,.29-.06,.41-.17s.17-.25,.17-.41h.03Zm-.04-6.13l1.06,1.15v5.66s-1.05,0-1.05,0v-5.62c0-.34-.03-.74-.1-1.19h.09Zm0,0l5.89,5.83,.1,1.11-5.89-5.82-.11-1.12Zm1.07,6.13c0,.16,.06,.29,.17,.41,.11,.11,.25,.17,.41,.17h.18v.1h-.79v-.68h.03Zm3.1-5.99h.79v.68h-.02c0-.17-.07-.3-.18-.41-.11-.11-.25-.17-.42-.17h-.18v-.09Zm1.81,0v5.58c0,.23,0,.43,.03,.62,.02,.18,.05,.38,.08,.6h-.09l-1.05-1.19v-5.61h1.04Zm.76,0v.09h-.17c-.16,0-.3,.06-.41,.17-.12,.11-.18,.25-.18,.41h-.03v-.68h.79Z" fill="#d5ba8c"/><path d="M164.39,123.91c-.05,.13-.06,.23-.03,.32,.03,.09,.09,.16,.16,.2s.15,.07,.23,.07h.08v.1h-2v-.1h.08c.15,0,.3-.05,.45-.14,.15-.09,.28-.25,.38-.46h.63Zm2.05-6.14l.05,1-2.37,5.81h-.65l2.45-5.65s.04-.09,.08-.19,.09-.21,.14-.34c.05-.13,.1-.25,.14-.37,.04-.12,.06-.21,.07-.27h.08Zm1.12,4.46v.36h-2.87v-.36h2.87Zm-1.12-4.46l3.01,6.78h-1.41l-2.05-5.26,.45-1.52Zm1.35,6.14h1.37c.1,.22,.23,.37,.39,.46,.15,.09,.31,.14,.45,.14h.08v.1h-2.73v-.1h.09c.12,0,.23-.05,.32-.16,.09-.1,.11-.25,.04-.44Z" fill="#d5ba8c"/></g><g><path d="M136.44,53.64c.07-.03,.09-.03,.12-.05-.05-.09-.08-.19-.15-.27-.04-.05-.07-.07-.05-.14,.01-.04,.02-.1,0-.13-.12-.2-.27-.39-.3-.64,0-.03-.02-.06-.03-.09-.04-.1,.01-.22,.11-.26,.08-.04,.15-.09,.22-.14,.01,0,.02-.05,.01-.06-.13-.13,.02-.2,.06-.3,.03-.06,.07-.12,.11-.18,.05-.07,.08-.17,.14-.2,.14-.07,.3-.12,.45-.14,.07,0,.16,.09,.24,.13,.24,.13,.16,.35,.33,.55,.12,.14,.24,.29,.29,.48,.02,.05,.08,.1,.12,.14,.23-.14,.27-.25,.22-.5-.01-.05,.01-.11,.01-.17,0-.18,0-.36-.03-.54-.03-.15-.11-.3-.15-.45-.03-.11-.08-.21-.02-.33,.06-.12,.1-.25,.05-.4-.02-.08,.02-.17,0-.25-.02-.13-.04-.26-.09-.38-.02-.05,.1-.16-.09-.14,.09-.12,.08-.22,.01-.32-.04-.07-.1-.17,.03-.23,0,0,.01-.02,0-.03-.05-.24-.12-.47-.16-.71-.02-.11,.03-.57,.09-.64,.08-.1,.48-.16,.6-.23,.04-.02,.11-.02,.13-.05,.05-.06,.12-.05,.17-.07,.23-.1,.45,.03,.67-.04,.02,0,.03,0,.05-.01,.24-.08,.47-.19,.72-.24,.11-.02,.2-.06,.29-.1,.21-.09,.23-.23,.18-.48-.02-.1,.01-.13,.08-.2,.17-.18,.38-.19,.59-.23,.03,0,.07,0,.09,0,.08,.04,.14,0,.2-.05,.07-.05,.16-.1,.24-.12,.26-.04,.52-.06,.78-.09,.12-.01,.22,.02,.32,.11,.11,.09,.25,.15,.38,.23,.08,.05,.15,.09,.23,.15,.03,.02,.03,.06,.05,.09,.02,.03,.04,.07,.08,.09,.12,.08,.14,.12,.06,.25,.13,.07,.19,.22,.4,.19,.19-.02,.42,.05,.58,.16,.16,.11,.34,.15,.51,.22,.13,.05,.25,.16,.38,.18,.27,.05,.68,.34,.94,.39,.03,0,.08,.08,.07,.1-.11,.17,.06,.31,.04,.48-.02,.18-.03,.68-.05,.86-.04,.37-.1,.74-.15,1.1,0,.05-.02,.1-.03,.16-.04,.26-.09,.52-.13,.77-.03,.17-.05,.34-.05,.51,0,.07,.05,.14,.08,.2,.03,.06,.07,.12,.1,.16,.09,0-.07-.03,.01-.05,.05,0,.11-.05,.15-.09,.08-.1,.15-.22,.23-.33,.02-.02,.07-.04,.11-.03,.23,.03,.47,.05,.67,.19,.15,.1,.31,.19,.44,.31,.12,.1,.1,.26,.06,.4-.04,.15-.1,.29-.16,.43-.09,.22-.18,.43-.26,.64-.07,.18-.13,.36-.21,.52-.13,.24-.09,.5-.11,.75-.02,.29,.09,.52,.24,.75,.03,.05,.08,.09,.13,.13,.09,.08,.17,.19,.28,.24,.14,.06,.31,.09,.46,.11,.04,0,.11-.04,.13-.08,.08-.13,.15-.26,.2-.4,.04-.1-.04-.29-.13-.34-.02-.01-.06,0-.09,0-.07,.04-.14,.08-.2,.12-.12,.08-.3,.05-.39-.06-.03-.03-.06-.07-.09-.1-.13-.1-.17-.22-.09-.37,.08-.17,.2-.33,.24-.51,.04-.18,.13-.26,.3-.27,.02,0,.04,0,.05-.02,.07-.09,.17-.14,.29-.18,.12-.04,.23-.13,.35-.16,.12-.03,.25,0,.38,0,.1,0,.2,0,.29,.03,.14,.04,.27,.09,.41,.14,.11,.04,.22,.07,.33,.1,.06,.02,.12,.04,.16,.08,.09,.11,.16,.23,.25,.35,.06,.09,.15,.16,.2,.26,.07,.13,.12,.27,.16,.41,.05,.14,.08,.29,.11,.44,.04,.2,.05,.4-.03,.61-.07,.2-.2,.42-.11,.66,.02,.06-.01,.15-.03,.22-.05,.15-.1,.31-.18,.44-.07,.13-.13,.27-.28,.34-.07,.03-.12,.32-.08,.38,.02,.03,.03,.06,.03,.09,0,.14-.02,.28-.02,.41,0,.05,.02,.12,.06,.14,.16,.1,.15,.24,.13,.39-.01,.11-.01,.22-.06,.31-.05,.08-.16,.14-.25,.18-.08,.04-.17,.05-.28,.08-.05-.01-.14-.03-.22-.05-.09-.02-.18-.03-.29-.04,0-.14,0-.28,0-.42,0-.18-.14-.29-.27-.38-.09-.06-.2,0-.25,.08-.05,.07-.13,.15-.03,.26,.05,.05,.07,.14,.08,.22,.04,.2,.1,.37,.3,.46,.18,.09,.29,.26,.35,.44,.06,.21,.03,.14,.17,.29,.08,.09,.18,.16,.29,.26,.21-.17,.41-.33,.62-.5,.07-.06,.12-.13,.18-.2,.2-.2,.44-.35,.55-.63,.01-.04,.06-.07,.1-.09,.32-.17,.56-.44,.81-.7,.05-.05,.12-.09,.18-.13,.08-.05,.17-.1,.24-.17,.19-.17,.54-.53,.79-.57,.18-.02,.49,.2,.64,.29,.05,.03,.15,.02,.21,0,.25-.09,.48-.04,.7,.09,.07,.04,.15,.13,.25,.03,0,0,.03,0,.04,0,.12,.07,.24,.13,.35,.2,.09,.06,.19,.11,.28,.18,.04,.03,.07,.07,.1,.11,.03,.03,.04,.08,.08,.11,.06,.04,.11,.05,.12-.07,.03,.03,.06,.05,.07,.07,.09,.31,.26,.47,.6,.56,.03,0,.07,.04,.09,.07,.09,.13,.2,.23,.36,.28,.06,.02,.11,.05,.16,.09,.22,.18,.85,.49,1.08,.66,.14,.1,.13,.26,.19,.4,.02,.05,.12,.28,.15,.33,.09,.15-.04,.4,.05,.55,.01,.02,.01,.04,.01,.06,0,.12,0,.24,0,.35-.03,.33-.07,.65-.1,.98,0,.07,.02,.15,.02,.22,0,.11,.02,.23-.02,.33-.05,.15-.15,.28-.22,.43-.04,.09-.06,.18-.08,.28-.07,.31-.22,.58-.46,.8-.04,.03-.06,.09-.09,.13-.03,.04-.06,.08-.09,.12-.06,.07-.12,.15-.19,.22-.1,.11-.2,.24-.31,.34-.11,.09-.23,.16-.35,.24-.08,.06-.12,.03-.14-.06-.01-.11-.08-.13-.17-.15-.17-.04-.77-.22-.94-.27-.19-.05-.39-.11-.59-.15-.06-.01-.12,.03-.18,.03-.13,0-.25-.03-.38-.05-.09-.01-.17-.04-.26-.05-.17-.01-.34-.02-.51-.03-.23-.01-.47-.01-.7-.03-.11,0,.17,.02,.06,0-.18-.03-.37-.07-.55-.07-.08,0-.17,.08-.23,.15-.23,.29-.47,.55-.77,.77-.03,.02-.05,.05-.07,.08-.17,.29-.33,.59-.5,.88-.03,.05-.06,.08-.1,.13-.01,.02-.03,.04-.03,.06,.05,.12,.05,.22-.03,.33-.02,.03-.03,.08-.04,.12-.02,.08-.05,.17-.06,.25-.01,.07,0,.15,0,.23,0,.32,.02,.64-.11,.95-.04,.1,0,.23,0,.34,0,.12,.03-.09,.05,.02,.02,.12-.04,.06,0,.18-.04,.06-.02,.08-.02,.08,.02,.21-.08,.3,.11,.33,.11,.02,.28-.04,.33-.15,.02-.05,.07-.1,.11-.14,.13-.13,.26-.25,.38-.39,.07-.08,.11-.17,.18-.25,.06-.08,.14-.15,.21-.22,.01,0,.03,.02,.04,.03,0,.04-.02,.08-.04,.16,.13-.12,.23-.21,.34-.31,.19,.07,.68,.53,.86,.63,.09,.05,.21,.11,.2,.26,0,.04,.05,.1,.09,.12,.11,.06,.12,.15,.07,.24-.18,.31-.3,.67-.58,.91-.2,.17-.32,.39-.49,.58-.04,.04-.1,.06-.15,.09-.08,.06-.18,.11-.21,.19-.05,.12-.15,.23-.12,.39,0,.03-.02,.06-.04,.1-.04,.1-.08,.19-.12,.29-.02,.05-.04,.11-.07,.15-.21,.21-.32,.45-.36,.74,0,.02-.02,.06-.04,.07-.13,.03-.17,.16-.25,.24-.08,.08-.14,.19-.2,.29-.1,.19-.18,.38-.27,.57-.06,.13-.13,.26-.19,.39-.03,.06-.03,.12-.06,.17-.04,.08-.1,.16-.15,.24-.13,.22-.16,.46-.17,.7,0,.09,.01,.18,0,.27-.02,.11-.06,.22-.2,.25-.03,0-.07,.06-.07,.1-.02,.19-.03,.39-.05,.58,0,.06-.02,.11-.04,.16-.03,.07-.06,.15-.11,.21-.05,.07-.12,.13-.16,.2-.07,.11-.12,.23-.18,.34-.11,.17-.22,.34-.34,.5-.04,.06-.07,.12-.12,.17-.11,.11-.23,.2-.34,.3-.04,.03-.09,.06-.11,.1-.05,.11-.14,.19-.23,.26-.2,.16-.06,.37-.26,.52-.09,.07-.2,.1-.3,.15-.07,.04-.15,.07-.21,.13-.08,.07-.44,.13-.59,.11-.03,0-.07,.06-.11,.1,.02,.03,.04,.05,.05,.07-.06,.06-.11,.11-.18,.17,.01-.08,.03-.16,.04-.23-.09,.12-.27,.11-.34,.26-.02,.05-.12,.07-.19,.09-.05,.02-.14,.08-.17,.14-.02,.03-.05,.06-.08,.08-.02-.03-.05-.05-.09-.1,.01,.13,.02,.23,.02,.31-.12,.03-.27,.06-.41,.11-.02,0-.04,.08-.03,.1,.08,.18,.18,.35,.26,.53,.04,.08,.08,.16,.08,.24,0,.18,.06,.33,.11,.49,.01,.04,.02,.1,0,.11-.09,.07-.06,.17-.07,.26-.01,.09-.03,.18-.05,.27,0,.03,0,.06,0,.09,0,.03,.02,.06,.01,.07-.12,.12-.1,.32-.25,.43-.11,.08-.18,.22-.23,.35-.08,.21-.25,.43-.41,.56-.12,.1-.26,.13-.42,.14-.15,0-.31,.08-.46,.1-.14,.02-.61-.02-.75-.04-.16-.02-.32-.17-.49-.2,.02,.14,.18,.45,.19,.6,.01,.12,.02,.25,.02,.38,0,.08,0,.16,0,.25,0,.17-.19,.28-.29,.4-.2,.22-.57,.32-.85,.31-.02,0-.04,0-.05,0-.31,.14-.57-.06-.86-.11-.22-.03-.4-.15-.51-.3-.05-.06-.12-.11-.16-.17-.14-.18-.3-.52-.24-.76,.03-.11,0-.22,.14-.29,.08-.05,.1-.17,.17-.3-.18,.05-.33,.06-.45,.13-.17,.09-.34,.06-.51,.04-.25-.02-.5-.06-.74-.11-.08-.02-.15-.09-.23-.12-.15-.06-.36-.17-.42-.29-.1-.18-.17-.37-.26-.56-.02-.05-.07-.09-.1-.14-.08-.15-.2-.3-.22-.47-.02-.17-.12-.32-.1-.49,0-.08,.09-.16,.15-.25-.05-.07-.05-.13,0-.23,.07-.13,.1-.29,.14-.44,.03-.14,.05-.28,.05-.42,0-.09-.05-.17-.09-.25-.09-.17-.19-.34-.27-.51-.02-.04,0-.12,.02-.14,.1-.07,.06-.15,.01-.22-.14-.17-.49-.09-.7-.12-.16-.02,.03-.08-.13-.03-.09,.02-.15,.08-.26,.03-.06-.03-.16,.01-.25,.02-.07,0-.14,0-.21,0-.13-.02-.26-.05-.39-.08-.1-.02-.18-.06-.25-.16-.1-.16-.24-.29-.33-.45-.07-.12-.12-.26-.16-.4-.05-.2-.32-.46-.49-.56-.08-.05-.13-.12-.2-.18-.09-.07-.18-.15-.27-.21-.18-.13-.22-.26-.16-.47,.01-.04-.02-.1-.03-.15-.05-.18-.09-.36-.14-.54-.05-.18-.1-.35-.13-.53-.05-.26-.09-.53-.14-.8-.02-.09-.03-.18-.07-.27-.09-.2-.2-.38-.24-.6-.02-.11-.1-.2-.16-.31-.16-.32-.32-.64-.49-.96-.07-.13-.17-.24-.26-.36-.03-.05-.08-.1-.09-.16,0-.09-.06-.14-.12-.19-.07-.07-.11-.16-.16-.25-.04-.06-.06-.14-.11-.19-.11-.13-.24-.24-.33-.37-.07-.1-.12-.21-.27-.22-.02,0-.06-.07-.06-.11-.01-.17-.11-.3-.19-.44-.11-.19-.18-.41-.28-.61-.07-.14-.16-.27-.22-.4-.11-.22-.21-.44-.31-.67-.01-.03,0-.08,0-.11,.02-.05,.05-.09,.06-.13,.04-.23,.54-.47,.72-.6,.04-.03,.07-.07,.12-.11,.04,.03,.09,.06,.14,.1,.2,.14,.16,.16,.35,.02,.15-.11,.29-.06,.34,.11,.01,.04,.03,.08,.06,.12,.09,.14,.18,.28,.28,.41,.14,.17,.29,.33,.43,.49,.08,.1,.11,.02,.23,0,.18-.03,.12-.11,.18-.22,.09-.18,.06-.33,.01-.55-.03-.15-.05-.31,.06-.45,.09-.11,.09-.24,.05-.36-.09-.32-.17-.64-.28-.95-.06-.18-.18-.34-.21-.52-.03-.22-.17-.38-.25-.58-.03-.07-.12-.11-.16-.18-.1-.17-.18-.34-.27-.51-.02-.03-.04-.06-.06-.09-.13-.13-.26-.27-.4-.4-.03-.03-.08-.06-.12-.07-.14-.04-.3,0-.43-.1-.01-.01-.05,0-.07,0-.17,.06-.35,.12-.52,.18-.02,0-.04,0-.05,0-.17,0-.05-.06-.22-.07-.06,0-.13,0-.19,0-.18,0-.36,0-.55,0-.06,0-.11,.06-.16,.07-.11,.03-.23,.03-.34,.06-.13,.03-.25,.09-.37,.13-.06,.02-.12,.06-.17,.05-.17-.02-.32,.04-.43,.15-.19,.2-.79,.26-1.04,.34-.19,.06-.34-.04-.47-.15-.04-.04-.02-.15-.03-.25-.22,.02-.25-.21-.37-.34-.14-.14-.25-.31-.37-.46,0-.01-.02-.03-.03-.03-.18,0-.16-.16-.22-.27-.06-.12-.14-.24-.22-.35-.1-.14-.23-.26-.16-.46,0-.02,0-.05-.01-.08-.05-.15-.11-.29-.15-.45-.03-.11-.01-.23-.02-.35-.01-.14-.02-.28-.04-.41,0-.06-.02-.12,0-.17,.02-.13,.05-.25,.08-.37,.02-.13,.09-.24,.12-.35,.07-.22,.08-.46,.13-.69,.03-.13,.06-.26,.1-.4,.03-.12-.05-.35,.07-.29,.05-.14,.42-.29,.58-.29,.1,0,.25-.01,.3-.12,0-.02,.03-.04,.05-.06,.18-.14,.37-.27,.55-.41,.09-.07,.16-.17,.25-.24,.07-.05,.16-.06,.24-.11,.17-.11,.33-.23,.5-.34,.03-.02,.06-.03,.09-.05,.05-.03,.1-.05,.15-.09,.13-.12,.29-.23,.39-.37,.1-.15,.26-.2,.37-.32,.07-.08,.12-.11,.22-.07,.12,.05,.19-.06,.27-.12,.16-.11,.33-.16,.53-.13,.12,.02,.5-.08,.62-.11,.1-.03,.18,0,.26,.07,.15,.14,.44,.3,.6,.42,.13,.1,.29,.18,.43,.27,.03,.02,.05,.06,.08,.08,.06,.04,.13,.08,.19,.12,.04,.03,.09,.07,.12,.11,.24,.31,.48,.63,.72,.94,.1,.14,.19,.3,.29,.44,.07,.1,.14,.19,.23,.27,.15,.12,.15,.08,.31,.18,.08,.05,.35,0,.42-.08,.22-.22,.28-.2,.42-.36,.05-.15,.23-.24,.35-.36,.21-.19,.27-.4,.14-.65-.04-.08-.12-.14-.2-.19-.02-.02-.11,.01-.12,.04-.02,.06-.04,.14-.02,.2,.02,.06,.07,.13,.13,.16,.16,.09,.07,.18,0,.26-.15,.18-.37,.3-.6,.3-.16,0-.3-.13-.39-.28-.11-.19-.33-.38-.32-.61,.01-.2,.01-.4,.03-.6,.02-.27-.06-.52-.15-.76-.04-.11-.05-.23-.15-.32-.02-.02-.02-.06-.03-.1-.02-.07-.03-.14-.06-.2-.06-.11-.14-.2-.21-.3-.03-.04-.04-.1-.05-.15-.01-.05,0-.1-.03-.14-.13-.3,.09-.65-.02-.96-.07-.19,.05-.37,.23-.46,.02,0,.04-.02,.05-.04,.04-.09,.07-.18,.12-.26,.08-.14,.15-.28,.26-.39,.17-.18,.34-.35,.54-.48,.15-.1,.34-.16,.51-.19,.13-.02,.26-.06,.36-.14,.09-.06,.17-.07,.24-.02,.22,.16,.47,.24,.71,.35,.14,.07,.24,.22,.22,.42,0,.08,.07,.18,.11,.27,.01,.03,.04,.06,.04,.08-.03,.21-.06,.41-.11,.61-.01,.06-.09,.12-.15,.14-.05,.01-.14-.04-.16-.08-.07-.13-.15-.06-.24-.04-.11,.02-.13,.11-.12,.19,0,.08,.06,.14,.16,.14,.17,0,.26,.08,.29,.25,.02,.12,.09,.1,.19,.08,.2-.05,.34-.16,.45-.32,.07-.11,.14-.24,.16-.37,.03-.15,0-.32,0-.48,0-.13,0-.26,0-.39,0-.1,0-.2-.01-.3,0-.04-.05-.07-.09-.1-.04-.03-.08-.06-.13-.1m-5.28,16.02s-.04,.04-.04,.05c-.04,.15,.07,.43,.19,.54,.13,.12,.26,.25,.38,.37,.06,.06,.11,.14,.17,.2,.23,.2,.41,.43,.51,.73,.01,.04,.01,.11-.01,.14-.09,.09-.02,.13,.02,.2,.11,.14,.2,.3,.3,.44,.08,.11,.17,.23,.27,.33,.14,.15,.36,.24,.41,.47,.03,.13,.13,.25,.18,.38,.09,.22,.15,.46,.25,.67,.16,.34,.32,.67,.45,1.01,.12,.3,.18,.6,.22,.92,.02,.18,.05,.36,.1,.53,.05,.18,.13,.36,.2,.54,.08,.22,.14,.45,.22,.68,.05,.13,.11,.26,.2,.37,.18,.21,.38,.4,.57,.6,0,0,0,0,0,.01,.13,.21,.25,.42,.38,.62,.07-.03,.15-.04,.15-.03,.06,.14,.22,.1,.31,.18,.16,.13,.32,.24,.55,.21,.17-.02,.34,.11,.52,.03,.06-.02,.14-.07,.18-.05,.23,.1,.51,.12,.57,.46,.03,.18,.23,.3,.4,.3,.04,0,.07,.02,.11,.03-.03,.05-.05,.07-.07,.07-.12,0-.14,.05-.1,.15,0,.02,0,.06,0,.08,.05,.11,.08,.23,.16,.31,.1,.12,.24,.21,.35,.31,.06,.05,.09,.04,.15,0,.06-.04,.14-.08,.21-.09,.12,0,.25,.03,.37,.05,.03,0,.07,.02,.09,.05,.11,.13,.25,.2,.41,.25,.13,.04,.16,.17,.08,.27-.01,.01-.02,.03-.03,.04-.09,.17-.14,.19-.28,.06-.18-.16-.4-.21-.62-.24-.04,0-.08,.01-.11,.02-.07,.02-.15,.05-.22,.08-.1,.06-.2,.12-.29,.19-.03,.03-.05,.08-.08,.11-.32,.32-.35,.72-.29,1.12,.03,.2,.12,.4,.21,.58,.06,.12,.16,.23,.27,.32,.12,.11,.25,.21,.4,.28,.16,.07,.33,.14,.53,.12,.19-.02,.38,.01,.56-.02,.31-.05,.58-.23,.8-.45,.21-.21,.44-.43,.49-.75,0-.03,.03-.07,.05-.09,.06-.07,.2-.07,.22,0,.04,.14,.14,.22,.25,.3,.02,.02,.06,.06,.06,.08-.04,.15,.06,.21,.16,.28,.06,.04,.14,.06,.08,.17,0,.02,.03,.07,.05,.1,.11,.09,.22,.18,.35,.24,.07,.04,.16,.04,.24,.05,.05,0,.11,0,.16,.02,.2,.03,.39,.09,.59,.08,.14,0,.29-.1,.42-.18,.2-.12,.39-.25,.57-.39,.21-.16,.32-.37,.32-.64,0-.17,0-.36,.04-.52,.09-.33-.06-.64-.38-.71-.02,0-.06-.02-.07-.04-.05-.12-.14-.21-.23-.3-.09-.11-.18-.17-.32-.17-.14,0-.28,0-.46,0,.16-.18,.36-.13,.53-.22-.12-.03-.22-.04-.31-.07-.06-.02-.11-.05-.16-.08,.06-.04,.13-.08,.2-.11,.02,0,.06,.02,.09,.03,.12,0,.25,.04,.37,0,.05-.01,.08-.14,.11-.22,.07-.16,.16-.3,.36-.34,.1-.02,.23-.07,.28-.14,.14-.23,.42-.22,.61-.38,.13-.11,.35-.11,.53-.16,.12-.04,.24-.09,.35-.14,.08-.04,.16-.11,.25-.12,.22-.02,.33-.2,.46-.33,.1-.1,.19-.2,.29-.3,.06-.06,.16-.11,.2-.18,.15-.28,.42-.43,.64-.63,.17-.15,.33-.3,.5-.45,.01-.01,.03-.03,.03-.04,.02-.26,.26-.47,.21-.75-.01-.06,.02-.14,.03-.21,.03-.19,.06-.39,.08-.58,0-.06,0-.13,0-.19,.01-.1,.03-.19,.05-.28,.07-.26,.14-.52,.23-.77,.08-.21,.21-.4,.3-.61,.1-.23,.19-.47,.29-.71,.07-.18,.2-.3,.37-.41,.09-.05,.15-.15,.21-.24,.08-.11,.14-.24,.23-.33,.12-.11,.21-.22,.25-.39,.05-.21,.18-.38,.34-.52,.08-.07,.15-.16,.2-.26,.13-.25,.3-.48,.49-.7,.06-.07,.11-.15,.13-.24,.04-.18,.18-.29,.28-.42,.04-.05,.15-.36,.13-.42,0-.02-.02-.03-.03-.04-.06-.05-.12-.1-.18-.14-.03,.07-.06,.14-.1,.19-.1,.12-.22,.22-.31,.35-.06,.09-.14,.12-.22,.17-.2,.1-.4,.2-.6,.3,0,0-.01,.02-.02,.03-.14,.21-.31,.24-.52,.1-.16-.1-.32-.2-.48-.3-.12-.08-.24-.16-.24-.34,0-.03-.04-.06-.06-.08-.15-.18-.24-.36-.14-.6,.02-.04,.02-.09,.01-.13,0-.16-.03-.31-.02-.47,0-.29,.2-.54,.17-.84,0-.02,.02-.04,.03-.06,.04-.13,.13-.27,.12-.39-.02-.16,.03-.3,.05-.44,.02-.11,.07-.15,.17-.19,.13-.05,.24-.13,.28-.29,.05-.16,.11-.33,.21-.46,.13-.17,.28-.31,.28-.53,0-.02,.02-.05,.03-.07,.07-.21,.28-.28,.42-.42,.15-.14,.32-.24,.47-.38,.08-.08,.16-.11,.26-.06,0-.02,0-.03,0-.04,0-.01-.01-.03-.02-.03-.15-.14-.18-.31-.17-.51,0-.11-.02-.28-.09-.33-.17-.12-.1-.34-.25-.45,.04-.13,.04-.24-.05-.35,0,0,.02-.04,.02-.06,.02-.11,.1-.19,.1-.32,0-.09-.05-.21,.08-.29,.04-.02,.04-.13,.14-.15,.02,0,.04-.06,.04-.08-.09-.13,0-.22,.06-.33,.03-.07,.08-.13,.12-.19,.07-.11,.08-.26,.12-.39,.03-.09,.05-.18,.18-.12,.02,0,.07-.01,.09-.03,.07-.07,.13-.16,.2-.23,.17-.17,.3-.4,.56-.45,.16-.03,.33-.09,.48-.06,.4,.07,.79,.17,1.19,.26,.01,0,.02,.01,.04,.02,.2,.07,.39,.13,.59,.19,.02,0,.07-.02,.08-.04,.02-.06,.03-.12,.03-.18,0-.2-.11-.39-.05-.6,0-.02-.02-.05-.03-.07-.02-.05-.03-.11-.05-.16-.05-.15-.08-.3-.15-.44-.14-.28-.36-.47-.65-.62-.46-.23-.94-.25-1.41-.13-.39,.1-.73,.31-1.01,.6-.16,.16-.31,.32-.46,.49-.09,.09-.17,.19-.25,.29-.15,.17-.29,.35-.44,.52-.19,.21-.45,.35-.56,.62,0,0,0,.02-.01,.02-.12,.15-.25,.3-.37,.45-.06,.08-.13,.16-.19,.24-.12,.18-.24,.36-.36,.53-.11,.15-.24,.29-.36,.44-.18,.23-.37,.46-.55,.69-.05,.06-.09,.13-.14,.19-.18,.19-.36,.37-.54,.55-.12,.12-.24,.24-.36,.36-.05,.05-.11,.1-.16,.15-.14,.14-.27,.28-.41,.41-.25,.21-.5,.41-.76,.61-.32,.24-.64,.48-.98,.7-.11,.07-.16,.17-.11,.29,.06,.13,.02,.25-.04,.37-.03,.07-.05,.16-.07,.24-.01,.04-.02,.08-.03,.11-.13,.23-.27,.44-.39,.67-.11,.2-.19,.41-.29,.61-.13,.25-.3,.45-.54,.6-.16,.1-.29,.25-.43,.37-.02,.02,0,.07-.03,.08-.08,.07-.16,.17-.26,.21-.12,.05-.28,.02-.38,.09-.18,.11-.32,.26-.49,.39-.05,.04-.13,.07-.19,.07-.2,0-.4-.03-.59,.01-.24,.05-.4-.03-.56-.19-.05-.05-.12-.08-.18-.11-.07-.02-.14-.03-.21-.04-.13-.03-.26-.05-.38-.1-.16-.06-.33-.14-.48-.23-.07-.04-.13-.1-.19-.16-.04-.03-.07-.08-.09-.12-.05-.11-.12-.2-.26-.2-.02,0-.05,0-.07-.03-.08-.1-.17-.2-.24-.31-.1-.15-.2-.3-.3-.45-.09-.13-.18-.24-.26-.38-.09-.16-.16-.33-.26-.49-.11-.17-.2-.33-.14-.54,0-.03,0-.07-.02-.1-.02-.08-.04-.15-.06-.23-.06-.19-.11-.38-.17-.57-.01-.04-.06-.08-.1-.08-.18-.02-.29-.15-.43-.24-.24-.17-.47-.35-.7-.54-.06-.05-.1-.14-.15-.2-.03-.03-.06-.08-.09-.09-.19-.04-.28-.2-.43-.29-.01,0-.02-.04-.02-.06,0-.1-.06-.13-.13-.18-.08-.05-.18-.1-.23-.18-.24-.4-.65-.64-.9-1.03-.2-.07-.26-.3-.45-.39-.11-.05-.19-.17-.25-.28-.07-.12-.1-.26-.14-.39-.02-.05-.02-.1-.04-.15-.01-.03-.05-.05-.07-.08-.08-.18-.13-.37-.23-.54-.07-.13-.18-.24-.29-.35-.04-.04-.12-.02-.18-.04-.03,0-.07-.03-.1-.05-.13-.06-.22-.15-.21-.31,0-.03-.03-.06-.05-.08-.15-.14-.2-.38-.41-.47-.02-.01-.03-.05-.05-.08-.1-.12-.17-.27-.33-.35-.08-.04-.15-.11-.21-.18-.09-.09-.18-.18-.26-.28-.12-.13-.25-.25-.36-.39-.07-.1-.11-.2-.26-.19-.03,0-.07-.03-.1-.05-.05-.05-.49-.28-.55-.3-.05-.01-.09-.04-.14-.05-.09-.02-.19-.04-.28-.05-.05-.01-.12,0-.16-.04-.14-.1-.32-.1-.47-.01-.19,.11-.39,.22-.59,.31-.23,.11-.48,.19-.46,.51-.12-.11-.18-.09-.23,.08-.05,.17-.07,.34-.12,.52-.05,.22-.12,.44-.17,.67-.02,.07-.05,.16,.08,.18,.02,0,.03,.1,.04,.15,0,.03-.03,.06-.02,.08,.04,.1,.09,.21,.22,.2,.14,0,.15-.11,.16-.22,0-.01,0-.02,0-.03,.11-.04,.22-.07,.32-.1,.23-.06,.45-.11,.68-.16,.13-.03,.26-.04,.39-.08,.16-.06,.32-.03,.48-.02,.09,0,.19,.03,.26,.07,.11,.07,.2,.18,.31,.27,.1-.19,.29-.17,.45-.22,.15-.05,.31-.06,.45-.11,.19-.07,.43,.06,.46,.26,.03,.2-.16,.33-.34,.29-.12-.03-.24-.06-.35-.05-.21,.01-.39,0-.49-.22-.1,.05-.12,.11-.04,.18,.05,.04,.12,.06,.15,.11,.1,.16,.19,.32,.29,.48,.02,.04,.07,.08,.11,.09,.14,.05,.18,.13,.14,.28-.02,.07,.02,.16,.01,.24,0,.11,.05,.15,.14,.17,.02,0,.04,.05,.05,.08,.01,.18,.01,.36,.03,.54,.04,.27,.06,.55,.14,.81,.1,.31,.02,.55-.2,.77-.04,.03-.08,.1-.07,.13,.05,.17-.03,.2-.17,.19,0,0-.01,.01-.02,.02,.08,.16,.2-.02,.28,.03,.01-.04,.02-.07,.04-.13,.02,.05,.03,.08,.03,.09-.08,.11,0,.17,.08,.24,.2,.17,.38,.35,.57,.52,0,0,0,.02,.01,.02,.03,.15,.15,.19,.27,.22,.03,0,.07,.02,.09,.04,.05,.06,.1,.12,.14,.19,.01,.02,.02,.06,.02,.08-.04,.1,0,.17,.07,.24,.03,.03,.08,.07,.07,.09-.04,.16,.1,.25,.15,.37,.01,.04,.05,.07,.05,.11,0,.18,.2,.3,.15,.49,0,0,.01,.02,.02,.02,.15,.04,.18,.2,.26,.3,.02,.02,.02,.07,.02,.1-.02,.25-.04,.5,.03,.75,.06,.21,.09,.42-.1,.59-.03,.03-.03,.09-.03,.14,0,.13,.03,.28-.01,.4-.06,.15-.06,.31-.16,.45-.12,.17-.22,.37-.41,.45-.18,.08-.36,.2-.59,.1-.09-.04-.22-.01-.31-.06-.15-.07-.28-.16-.42-.25-.06-.04-.14-.09-.18-.15-.16-.26-.37-.48-.63-.67m10.02-22.4c.12,.04,.08,.11,.03,.19-.03,.05-.06,.1-.06,.15,0,.25,.11,.5,.03,.76,0,.03,.03,.07,.03,.1,.01,.11,.02,.22,.03,.33,0,.04-.04,.08-.03,.11,.04,.28,.11,.55,.14,.83,.03,.24,.09,.48-.06,.71-.03,.05-.03,.13-.02,.19,.02,.1,.08,.2,.08,.3,.02,.34,.15,.66,.12,1.01-.02,.26,0,.53,.02,.8,.05,.59-.08,1.16-.09,1.74,0,.28,0,.55,0,.83,0,.13,.02,.27,.02,.4,0,.16,0,.33,0,.49,.02,.25,.05,.5,.07,.76,0,.06-.02,.11-.02,.17,.02,.29,.06,.59,.07,.88,0,.24-.02,.48-.02,.71,0,.04,.02,.09,.02,.13,0,.15,0,.3,0,.46,0,.38-.01,.77-.02,1.15,0,.22-.04,.45-.03,.67,.03,.43,.09,.86,.13,1.29,.01,.13-.02,.28,0,.4,.05,.24,.04,.48,0,.73-.02,.08-.03,.17-.02,.25,.02,.19,.05,.38,.07,.57,.02,.15,.03,.29,.06,.43,.03,.15,.19,.23,.33,.18,.04-.01,.09,0,.13,.01,.2,.09,.24,.09,.38-.05,.1-.1,.14-.22,.14-.35,0-.24,0-.48,0-.72,0-.12,.03-.24,.02-.36-.01-.18-.06-.35-.02-.53,.03-.15,.07-.29,.1-.44,.03-.15,.09-.31,.07-.45-.02-.17-.02-.33,0-.5,.02-.17,.04-.34,.03-.51,0-.19-.05-.39-.07-.58-.01-.09-.03-.19-.03-.28,.02-.26,.07-.53,.07-.79,0-.19,0-.36,.06-.55,.05-.16,.05-.33,.06-.5,0-.17-.01-.35,0-.52,.03-.32,.04-.63-.02-.95-.03-.14-.05-.29-.06-.44,0-.18,.03-.36,.02-.54-.02-.32-.07-.64-.1-.95-.01-.17,0-.34,.02-.51,.01-.11,.06-.22,.08-.33,.03-.24,.02-.47,.06-.71,.03-.23,.13-.45,.11-.69-.02-.2,0-.4,0-.6,0-.27,.02-.54,.03-.81,0-.03,0-.06,0-.09-.02-.2-.04-.4-.05-.6,0-.04,.01-.08,.02-.12,.02-.26,.05-.51,.06-.77,0-.13,0-.25,0-.38,0-.13,0-.26,0-.4,0-.05-.02-.11,0-.16,.08-.24,.05-.48-.02-.72-.03-.09-.03-.2-.01-.3,.03-.18,.1-.34,.14-.52,.03-.14-.01-.29,.05-.44,.03-.06-.12-.27-.18-.25-.11,.04-.17-.02-.23-.09-.02-.02-.04-.02-.07-.03-.06-.02-.13-.03-.19-.04-.08-.01-.16-.02-.24-.02-.14-.01-.28,.17-.42,0,0,0-.03,0-.04,0-.16,.05-.29-.03-.43-.07-.07-.02-.18-.02-.21,.02-.06,.08-.19,.12-.14,.27,.07,.2,.02,.39-.05,.61m-1.4,16.01c0-.08,.02-.14,.02-.19,0-.04-.02-.09,0-.11,.08-.11,0-.19-.03-.25-.17,0-.32,.01-.47,0-.07,0-.12-.08-.19-.12-.02-.02-.05-.03-.07-.05-.03-.03-.09-.07-.09-.08,.02-.05,.07-.12,.1-.12,.18,0,.36-.17,.54,0,.01,.01,.05,0,.09,0,0-.17,.03-.33,.03-.49,0-.07-.04-.14-.05-.2-.03-.26-.06-.52-.08-.78,0-.07,0-.15,0-.22,0-.08,.03-.16,.03-.24,0-.13-.02-.27-.03-.4,0-.05-.01-.1-.02-.14-.05-.22-.11-.44-.16-.66,0-.02,0-.04,0-.06,0-.08,.01-.17-.02-.25-.07-.18-.09-.36-.08-.55,.01-.21,.03-.43,.02-.64-.01-.21-.06-.42-.09-.63-.03-.19-.07-.37-.09-.56-.02-.16,.02-.34-.04-.48-.07-.18-.13-.37-.15-.56-.03-.24-.09-.49-.13-.73,0-.05-.02-.1-.03-.16,0-.21,0-.41,0-.62,.14-.05,.07-.17,.07-.23-.07-.01-.17,0-.18-.04-.04-.09-.1-.15-.18-.21-.14-.11-.25-.26-.37-.39-.15-.17-.29-.34-.43-.51-.1-.11-.21-.21-.31-.33-.13-.16-.25-.33-.38-.49-.02-.02-.1-.03-.1-.02-.11,.22-.26,.43-.18,.69,.04,.13,.11,.26,.14,.39,.02,.08,.03,.14,.11,.17,.07,.03,.11,.07,.05,.16-.02,.03-.01,.1,0,.15,.03,.08,.07,.15,.11,.24,.03,.08,.05,.16,.07,.24,.02,.1,.06,.2,.06,.29-.01,.15-.1,.29-.04,.45,.02,.04,0,.1,0,.15-.01,.1-.04,.19-.04,.29,0,.28-.1,.53-.25,.75-.17,.25-.38,.46-.7,.55-.17,.05-.33,.01-.49,.02-.11,0-.24-.05-.34-.1-.14-.07-.33-.06-.41-.24-.03-.07-.08-.13-.12-.2-.08-.16-.17-.32-.16-.51,0-.21,.04-.4,.16-.57,.03-.05,.09-.09,.13-.13,.09-.07,.18-.14,.27-.2,.06-.04,.12-.07,.2-.11,.02,.22,.06,.26,.24,.25-.02-.04-.06-.07-.06-.11-.01-.17-.11-.26-.25-.34-.27-.15-.56-.16-.84-.1-.17,.04-.36,.1-.46,.29-.09,.17-.2,.33-.31,.49-.06,.1-.12,.22-.21,.29-.14,.11-.22,.24-.21,.4,0,.16,0,.38,.11,.47,.14,.14,.12,.26,.13,.41,0,.1,0,.21,.04,.29,.14,.27,.32,.51,.36,.84,.05,.34,.07,.68,.05,1.02,0,.12,.01,.23,.02,.35,.02,0,.03,.01,.05,.02,.01-.02,.03-.05,.04-.07,.09-.17,.19-.33,.39-.38,.18-.05,.36-.08,.55-.12,0,0,.02,0,.02,.01,.13,.11,.29,.2,.37,.34,.11,.17,.15,.37,.21,.56,.03,.08,.04,.17,.13,.22,.04,.02,.07,.1,.08,.15,.02,.17,.14,.32,.31,.37,.15,.04,.22,.14,.22,.29,0,.03,.02,.09,.04,.09,.11,.02,.11,.12,.15,.18,.03,.04,.06,.09,.11,.11,.17,.05,.22,.19,.26,.33,.02,.05,.03,.11,.06,.15,.11,.15,.22,.3,.34,.44,.02,.03,.06,.05,.09,.07,.11,.09,.24,.17,.34,.27,.13,.15,.22,.33,.38,.45,.07,.05,.1,.16,.18,.19,.22,.08,.28,.31,.44,.46,.09,.08,.15,.19,.25,.25,.09,.06,.22,.06,.33,.09,.02,0,.05,0,.06-.02,.09-.09,.18-.07,.3,.03m11.05-7.71s-.02-.01-.03-.02c.04-.03,.08-.07,.12-.1,.09-.06,.11-.13,.04-.22-.07-.09-.16-.17-.06-.3,0,0,0-.03,0-.04-.04-.09-.08-.19-.12-.28-.13-.27-.34-.45-.58-.6-.09-.05-.21-.11-.3-.08-.2,.06-.39-.02-.58,0-.08,0-.18,.02-.23,.07-.07,.08-.1,.19-.14,.3-.03,.08,0,.14,.1,.18,.19,.05,.31,.2,.37,.38,.06,.19,.1,.39,.04,.59-.07,.25-.15,.5-.39,.64-.23,.13-.47,.25-.74,.12-.02-.01-.06,0-.09,.01-.13,.08-.22,0-.31-.08-.09-.08-.17-.17-.26-.25-.02-.02-.05-.03-.07-.03-.15,.03-.2-.1-.27-.17-.07-.07-.1-.19-.14-.29-.07-.18-.2-.34-.11-.55,.03-.07,.02-.15,.03-.22,0-.02,0-.04,0-.05-.05-.1-.02-.19,0-.29,.02-.12,0-.25,.04-.37,.05-.14,0-.3,.12-.41,0,0,0-.03,0-.04,.02-.08,.02-.18,.07-.24,.21-.25,.27-.56,.38-.85,.06-.16-.02-.33-.16-.4-.12-.06-.38-.02-.43,.11-.07,.17-.23,.25-.33,.37-.03,.04-.06,.08-.1,.13-.04,.06-.07,.15-.13,.17-.18,.08-.33,.17-.44,.33,0,0,0,0-.01,0-.19,.13-.21,.33-.23,.53-.02,.15-.03,.3-.05,.45-.02,.15-.08,.32-.05,.46,.04,.16,0,.29-.03,.42-.04,.15-.09,.3-.04,.46,.03,.12,0,.24,0,.37,.01,.13-.08,.23-.1,.34-.05,.25-.06,.51-.06,.76,0,.22-.03,.43-.12,.62-.09,.2-.16,.39-.19,.6-.02,.21-.02,.42,.05,.63,.02,.05,.03,.11,0,.15-.17,.28-.24,.58-.23,.91,0,.06,0,.12-.02,.18-.06,.19-.13,.38-.17,.58-.04,.2-.11,.39-.05,.6,.05,.16,.04,.32-.09,.46-.01,.01-.01,.04-.02,.06-.04,.25,.02,.52-.16,.74-.02,.02,0,.06,0,.09-.02,.17-.05,.33-.08,.5-.02,.15-.05,.29-.08,.44,.2,.01,.37,.05,.47-.14,.01-.03,.08-.03,.12-.04,.12-.04,.25-.07,.36-.12,.11-.05,.2-.13,.29-.21,.22-.2,.49-.34,.65-.61,.14-.24,.34-.42,.56-.58,.29-.21,.5-.49,.67-.8,.15-.27,.31-.53,.47-.8,.08-.13,.19-.24,.09-.41-.01-.03,0-.08,.03-.12,.12-.18,.24-.36,.37-.54,.01-.02,.02-.04,.04-.05,.16-.08,.16-.27,.25-.39,.02-.02,0-.07,0-.11,0-.09-.02-.19-.02-.28,0-.07,.03-.11,.13-.1,.09,.01,.19-.02,.27-.06,.1-.05,.19-.1,.3-.05,.1,.05,.2,.12,.3,.13,.16,.02,.17,.11,.2,.23,.03,.12,.1,.23,.17,.34,.02,.03,.09,.04,.13,.03,.02,0,.05-.07,.05-.1-.01-.07-.04-.13-.07-.2-.03-.07-.09-.13-.08-.19,.04-.23,.15-.46,.07-.7,0-.01,0-.03,0-.04,.05-.12,.09-.25,.17-.36,.09-.12,.09-.21-.03-.29,.08-.15,.13-.31,.23-.43,.11-.14,.08-.31,.13-.46,.05-.14,.07-.3,.1-.45m-6.81,7.74c.11-.22,.18-.46,.13-.66-.06-.22,0-.44-.06-.65-.04-.2,.12-.34,.16-.51,.05-.19,.12-.38,.16-.57,.04-.21,.02-.44,.08-.65,.12-.36,.13-.74,.19-1.11,.05-.29,.09-.59,.13-.88,.03-.21,.06-.43,.05-.64-.01-.28,.04-.53,.11-.79,.06-.21,.08-.42,.1-.64,.02-.15,0-.31,.02-.46,.01-.09,.08-.17,.08-.26,0-.25-.02-.49-.03-.74,0-.09,0-.17,0-.26,0-.07-.02-.15,.01-.2,.14-.26,.21-.53,.16-.83-.02-.14,0-.28-.04-.41-.04-.13,0-.23,.05-.33,.11-.21,.29-.39,.25-.66,0-.07,.02-.14,.02-.21,0-.1,0-.2,.02-.3,.01-.1,.04-.2,.06-.31,.05-.21,.12-.42,.06-.64,0-.03,.02-.07,.03-.1,.09-.26,.15-.52,.13-.8,0-.16,.03-.32,.05-.48,.02-.13,.05-.26,.05-.39,0-.14-.01-.29-.03-.43,0-.03-.02-.07-.04-.1-.05-.06-.09-.12-.15-.17-.04-.03-.08-.07-.13-.08-.26-.05-.55-.2-.75-.4-.03-.03-.08-.05-.13-.06-.19-.04-.37-.08-.56-.11-.13-.02-.27,0-.41,0-.03,0-.08,.03-.08,.05-.03,.12-.07,.24-.06,.35,.02,.25,.08,.49,.11,.73,0,.05-.02,.1-.04,.15,0,.02-.04,.03-.04,.04-.01,.15-.03,.29-.02,.44,0,.14,.04,.27,.04,.41,0,.22-.03,.44-.02,.66,0,.21,.03,.42,.05,.63,0,.06,.03,.11,.02,.17-.02,.13-.06,.26-.07,.39-.02,.26-.02,.52-.03,.78,0,.13-.03,.25-.05,.38-.03,.22-.06,.43-.08,.65,0,.07,.02,.14,.02,.21,0,.14-.04,.27-.05,.41,0,.27,0,.53,0,.8,0,.21,.02,.42,.02,.63,0,.13,0,.25,0,.38,0,.06,0,.13,0,.19,0,.19-.03,.37-.03,.56,0,.22,.03,.44,.05,.67,0,.03,.01,.06,.02,.09,0,.02,0,.06,0,.07-.15,.15-.1,.35-.14,.53-.02,.1,.03,.22,.02,.32-.02,.21-.02,.41,.08,.6,.01,.03,.02,.07,0,.09-.06,.14-.05,.27,0,.41,0,.02,0,.04,0,.07-.04,.24-.07,.48-.11,.72-.02,.09-.06,.18-.07,.27-.02,.17-.04,.34-.03,.51,0,.11,.05,.21,.07,.32,.02,.11,.05,.23,.02,.33-.07,.23-.05,.46-.02,.69,0,.05-.02,.13-.05,.16-.07,.05-.06,.1-.04,.16,.01,.04,.02,.07,.02,.11,0,.12,0,.25,0,.37,.12,.02,.19,.05,.26,.07,.15,.05,.34,.02,.4,.24m-4.79-10.03c0,.08-.02,.16,.02,.2,.05,.06,.06,.11,.05,.18,0,.03,.01,.06,.01,.09,.02,.17,.05,.33,.05,.5,0,.13-.01,.26,.09,.37,.02,.02,.03,.05,.03,.08,.04,.4,.07,.81,.11,1.21,0,.04,0,.1-.03,.12-.12,.07-.08,.18-.04,.26,.14,.27,.19,.56,.21,.86,0,.06,.01,.12,0,.18-.02,.24-.06,.48-.01,.74,.08,.44,.24,.87,.18,1.34-.03,.17,0,.36,.02,.54,.03,.27,.06,.54,.1,.81,.03,.21,.07,.41,.09,.62,.03,.3,.04,.6,.06,.9,0,.13,0,.27,.04,.4,.03,.1,.05,.19,.03,.29,0,.05,.02,.11,.05,.15,.02,.02,.08,0,.12-.02,.08-.03,.15-.08,.25-.04,.05,.02,.12-.01,.18-.03,.08-.02,.17-.04,.25-.08,.04-.02,.09-.06,.09-.09,.01-.15,0-.31,.02-.46,.03-.14,0-.27,0-.4-.02-.25-.03-.49-.04-.74,0-.15,0-.3,0-.45,0-.12-.04-.25-.05-.37-.03-.27-.02-.56-.09-.82-.11-.37-.03-.71,0-1.07,.02-.2,.04-.41,.06-.61,0-.09-.02-.19-.02-.28,0-.37,.02-.75,.03-1.12,0-.17,.02-.33,.03-.5,0-.16,.03-.32,.02-.48,0-.29-.03-.59-.05-.88-.01-.19-.04-.38-.06-.57-.01-.13-.01-.26-.02-.39-.01-.18-.05-.36-.05-.54,0-.24-.04-.47,.02-.71,.01-.05,.04-.11,.04-.16,0-.17-.03-.33-.04-.49-.05-.04-.09-.07-.16-.12,.08-.01,.12-.02,.17-.02,0-.03,0-.06-.01-.07-.14-.08-.12-.21-.12-.34,0-.21,0-.42,0-.63,0-.09-.05-.18-.05-.27,0-.17,.09-.34,0-.52-.01-.02,0-.06,0-.09,.02-.24,.05-.48,.05-.72,0-.29-.06-.59-.07-.88,0-.16,.02-.32,.02-.49,0-.18-.17-.29-.33-.24-.17,.05-.34,.1-.5,.16-.12,.04-.23,.08-.34,.14-.15,.08-.3,.15-.48,.13-.11-.01-.15,.05-.19,.14-.04,.1-.08,.19-.12,.29-.01,.04-.01,.09-.02,.13,0,.07,0,.14,0,.21,0,.1-.06,.2-.03,.29,.05,.16,.03,.31,.02,.47-.02,.34,.1,.66,.17,.99,.03,.12,.08,.22,.11,.34,.04,.12,0,.16-.11,.15-.08,0-.1,.03-.1,.11,.02,.18,.02,.36,.06,.54,.02,.1,.08,.2,.12,.3,.01,.03,.03,.05,.04,.08,.03,.2,.06,.39,.08,.59,0,.1-.02,.19-.02,.29,0,.13,0,.26,0,.4,0,.08,0,.16,.07,.12m9.71,6.46c-.12,.09-.3,.15-.26,.37,0,.01-.02,.03-.04,.05-.08,.08-.18,.15-.24,.24-.07,.1-.09,.22-.15,.33-.17,.29-.36,.56-.53,.85-.08,.13-.14,.26-.28,.35-.05,.03-.09,.09-.13,.13-.13,.13-.26,.27-.38,.41-.11,.12-.22,.25-.31,.39-.13,.18-.23,.39-.45,.48-.05,.02-.13,0-.16,.04-.07,.07-.14,.07-.23,.07-.1,0-.22,0-.3,.1-.06,.08-.11,.17-.17,.26-.1,.14-.02,.28,.03,.4,.12,.27,.35,.45,.46,.74,.08,.21,.11,.4,.11,.61,0,.08,.01,.11,.1,.07,.19-.08,.38-.17,.57-.25,.05-.02,.1-.05,.14-.04,.11,.03,.25-.01,.3-.11,.02-.04,.07-.07,.11-.1,.03-.02,.07-.04,.1-.06,.1-.08,.21-.15,.31-.23,.07-.06,.14-.13,.21-.19,.05-.05,.09-.09,.14-.14,.12-.11,.24-.21,.36-.32,.08-.09,.15-.19,.23-.28,.03-.04,.07-.08,.09-.13,.05-.12,.11-.22,.25-.24,.05,0,.11-.04,.14-.08,.11-.16,.21-.34,.31-.5,.12-.19,.23-.37,.35-.56,.08-.12,.19-.23,.26-.36,.08-.14,.15-.3,.21-.45,.04-.09,.12-.19-.02-.27-.01,0-.02-.04-.02-.06,.03-.14-.04-.25-.13-.34-.16-.16-.33-.3-.49-.45-.03-.03-.05-.07-.06-.11-.01-.05,0-.11,0-.16,0-.11-.04-.17-.15-.18-.02,0-.06-.06-.06-.08,.03-.1-.03-.12-.11-.13-.04,0-.07-.02-.11-.04m-10.72,6.21s.03-.02,.05-.03c-.01-.04-.02-.09-.05-.13-.07-.14-.02-.25,.06-.37,.05-.07,.07-.17,.1-.25,.03-.07,.04-.14,.08-.2,.07-.1,.18-.18,.23-.29,.1-.21,.18-.43,.26-.65,.01-.03,0-.08,0-.11-.01-.06-.03-.12-.04-.18,0-.03,0-.08,0-.09-.1-.1-.22-.19-.3-.3-.17-.27-.42-.46-.64-.68-.07-.08-.14-.16-.21-.24-.13-.14-.27-.27-.41-.4-.1-.1-.18-.23-.29-.32-.24-.2-.57-.29-.67-.64,0-.02-.03-.02-.04-.04-.06-.09-.14-.17-.19-.26-.06-.11-.07-.24-.15-.34-.16-.2-.34-.38-.51-.58-.03-.03-.04-.11-.02-.14,.09-.13,.08-.19-.08-.27,.02,.13,.02,.13-.1,.17-.08,.02-.12,.05-.1,.15,.04,.16,.03,.18-.14,.22-.12,.03-.21,.08-.24,.21-.01,.06-.05,.13-.1,.17-.12,.12-.15,.25-.14,.41,0,.04-.03,.09-.06,.13-.08,.07-.16,.14-.24,.2,.05,.09,.07,.17,.12,.24,.12,.19,.28,.37,.37,.58,.06,.15,.14,.27,.23,.39,.09,.13,.18,.26,.27,.39,.05,.07,.12,.14,.18,.2,.07,.07,.15,.14,.19,.22,.05,.12,.11,.2,.22,.27,.09,.06,.17,.16,.25,.25,.04,.04,.05,.11,.09,.16,.13,.19,.31,.34,.38,.57,.02,.07,.1,.13,.16,.19,.11,.09,.23,.17,.34,.26,.12,.1,.22,.21,.34,.31,.06,.05,.15,.07,.2,.13,.2,.23,.4,.46,.59,.69m3.21,2.64c-.18-.12-.15-.28-.15-.43,0-.17,.08-.32-.02-.5-.07-.12-.08-.25-.25-.29-.04,0-.09-.08-.11-.13-.04-.07-.06-.15-.09-.22-.09-.29-.12-.59-.06-.89,.02-.08,.07-.14,.08-.22,.06-.26,.22-.45,.39-.63,.05-.05,.11-.11,.11-.16,0-.16-.01-.32-.02-.48,0-.06,0-.13,0-.19,0-.17,.03-.35,0-.51-.02-.08-.03-.16-.04-.25-.02-.08-.06-.16-.17-.13-.02,0-.05-.01-.07-.02-.13-.02-.25-.05-.38-.05-.07,0-.13,.07-.19,.11-.04,.02-.07,.05-.11,.07-.04,.02-.1,0-.12,.03-.07,.07-.12,.16-.17,.24-.12,.19-.15,.45-.41,.55-.14,.05-.25,.18-.36,.28-.12,.1-.23,.2-.2,.38,0,.06-.01,.14-.05,.18-.18,.19-.14,.39-.1,.61,.02,.11,.05,.23,.04,.34-.04,.31-.02,.62,.11,.91,.04,.1,.07,.21,.08,.32,.02,.17,.04,.33,.17,.47,.09,.1,.16,.21,.29,.28,.11,.07,.22,.2,.24,.32,.02,.15,.11,.25,.18,.36,.06,.1,.13,.19,.21,.27,.1,.1,.23,.18,.33,.29,.14,.14,.26,.2,.47,.09,.27-.14,.44-.5,.32-.78-.04-.1-.09-.19,.08-.23m1.77,.99c.06,.04,.11,.06,.15,.1,.08,.07,.14,.05,.21-.01,.07-.06,.15-.09,.23-.14,.03-.02,.07-.04,.1-.07,.1-.1,.21-.2,.31-.31,.05-.06,.09-.13,.14-.19,.05-.06,.11-.13,.18-.18,.11-.07,.22-.14,.24-.28,.01-.07,.04-.14,.07-.2,.06-.13,.16-.25,.19-.39,.07-.31,.18-.6,.29-.89,.07-.18,.03-.39,.05-.59,0-.08,.03-.17,.02-.25-.01-.26-.03-.52-.05-.78-.01-.15-.05-.28-.21-.34-.03-.01-.05-.05-.06-.09-.03-.07-.06-.15-.09-.23-.03-.08-.06-.16-.1-.24-.02-.03-.05-.07-.08-.09-.11-.1-.23-.19-.34-.29-.16-.14-.29-.33-.54-.24-.09,.03-.15,0-.21-.05-.1-.08-.2-.09-.25,.01-.05,.09-.07,.21-.09,.32-.02,.14,0,.29-.02,.43-.04,.26-.12,.53,.12,.75,.02,.02,.02,.06,.02,.09,0,.13,.02,.24,.12,.33,.03,.03,.07,.06,.08,.1,.02,.19,.24,.33,.14,.55,0,.01,0,.03,.01,.05,.01,.05,.05,.11,.03,.16-.07,.33-.09,.69-.31,.97-.07,.09-.17,.2-.28,.23-.15,.05-.21,.08-.22,.24,0,.17-.02,.33-.03,.5,0,.2-.01,.39,.11,.56,.03,.05,.08,.15,.07,.16-.12,.1,0,.2,0,.28m-16.79-4.39c.19,.03,.73,0,.89-.12,.04-.03,.09-.06,.13-.09,.02-.01,.07-.02,.08,0,.06,.09,.13,.05,.2,.01,.09-.04,.17-.12,.27-.03,0,0,.03,0,.05,0,.09,0,.17,0,.26-.02,.1-.02,.22-.02,.28-.09,.07-.07-.06-.36-.15-.43-.12-.09-.24-.19-.19-.35,.03-.1,.01-.16-.06-.23-.19-.16-.32-.34-.31-.61,0-.12-.05-.25-.08-.37-.07-.26-.15-.52-.21-.78-.05-.21-.08-.43-.11-.65-.02-.11-.05-.22-.05-.33,0-.09,.04-.19,.05-.29,0-.08,0-.16,0-.24,.01-.1,.05-.2-.1-.24-.1-.02-.19-.09-.28-.09-.11,0-.22,.05-.31,.11-.11,.07-.2,.17-.29,.26-.17,.18-.38,.33-.46,.59,0,.02-.03,.04-.03,.06-.01,.05-.02,.09-.03,.14-.01,.09,.06,.2-.1,.24-.05,.01-.09,.08-.11,.13-.04,.11-.08,.22-.1,.33-.02,.08-.03,.16-.02,.23,.04,.22,.1,.45,.15,.67,.03,.15,.03,.32,.09,.45,.07,.14,.03,.34,.21,.44,.04,.02,.06,.1,.09,.16,.07,.11,.13,.23,.2,.34,.05,.08,.1,.14,.15,.22,.07,.12-.32,.31-.18,.42,.05,.04,.07,.11,.11,.17m30.48-.22c.13-.11,.16-.09,.33-.06,.09,.02,.2-.03,.3-.06,.04-.01,.08-.04,.11-.06,.16-.13,.32-.26,.47-.41,.1-.11,.19-.25,.25-.39,.07-.17,.12-.35,.16-.53,.02-.1,0-.21,0-.31,0-.06,0-.12,0-.18,0-.19-.05-.38-.02-.56,.05-.26,.06-.49-.06-.72-.02-.03-.03-.07-.03-.1-.02-.31-.33-.48-.39-.77,0-.01-.02-.02-.03-.03-.19-.12-.38-.25-.58-.36-.1-.06-.22,0-.25,.12-.02,.09-.05,.19-.07,.28-.08,.35-.08,.7-.01,1.06,.03,.18,.1,.37-.11,.5-.02,.01-.03,.04-.04,.07-.14,.29-.29,.58-.43,.86-.06,.11-.11,.23-.18,.34-.07,.12-.17,.22-.25,.33-.06,.08-.11,.17-.17,.25-.06,.1-.15,.19-.19,.29-.05,.12,.05,.27,.18,.3,.26,.08,.52,.13,.79,.11,.07,0,.13,.02,.21,.04m-3.05-2.54c0-.19,0-.37,.03-.54,.01-.07,.09-.18,.15-.19,.07,0,.21-.04,.23,.13,0,.06,.07,.12,.11,.18,.07,.09,.12,.08,.16-.03,.02-.06,.04-.13,.09-.17,.15-.13,.25-.27,.21-.48-.01-.06,.01-.14-.02-.18-.12-.16-.31-.23-.49-.26-.11-.02-.25,.05-.36,.11-.14,.08-.26,.19-.39,.28-.09,.06-.19,.1-.26,.17-.14,.16-.17,.36-.2,.57-.02,.13-.05,.28-.12,.39-.13,.21-.16,.41-.06,.64,.01,.03,.02,.06,.01,.09-.02,.13,.02,.27-.07,.4-.05,.08,0,.24,.02,.37,0,.04,.05,.09,.04,.12-.04,.22,.06,.4,.14,.59,.02,.05,.06,.1,.15,.09,.2,0,.4,.03,.6,.04,.13,0,.26-.03,.39-.04,.04,0,.09,0,.13,.01,.31,.08,.53,0,.66-.23,.07-.13,.13-.27,.19-.4,.01-.03,.05-.05,.08-.07,.14-.1,.25-.22,.22-.41,0-.05,.04-.11,.04-.17,0-.04,0-.09-.03-.11-.09-.05-.18-.08-.27-.13-.19-.11-.44-.12-.6-.31-.02-.03-.08-.03-.12-.04-.06-.03-.15-.04-.18-.09-.12-.2-.27-.32-.5-.32m-23.69-1.23c-.34,.08-.34,.08-.34,.43,0,.14,0,.28-.03,.41-.04,.18-.05,.18,.14,.2,.04-.1,0-.22,.18-.27,.17-.05,.34-.06,.43,.1,.03,.05,.05,.1,.07,.16,.08,.2-.02,.52-.22,.59-.36,.13-.74,.22-1.11,.36-.2,.07-.45,0-.6,.26-.07,.12-.1,.23-.15,.35-.04,.11,0,.18,.09,.26,.16,.13,.32,.26,.38,.47,.03,.09,.09,.13,.17,.16,.13,.05,.26,.11,.41,.17,.13-.06,.28-.14,.47-.07,.03,.01,.07,.01,.09,0,.22-.09,.46,0,.69-.1,.14-.06,.29-.1,.38-.22,.12-.16,.21-.35,.29-.53,.05-.1,.07-.21,.08-.32,0-.13-.02-.27-.02-.4,0-.29,.02-.58-.1-.86-.16-.34-.31-.66-.72-.76-.04,0-.07-.04-.09-.07-.04-.06-.07-.12-.11-.18-.1-.15-.22-.27-.43-.23,0,0-.01,0-.03,.02,.02,.02,.05,.04,.08,.07m12.67,24.21c0-.09-.03-.17-.03-.25,0-.12-.14-.21-.1-.35,0-.02-.06-.06-.09-.09-.12-.13-.23-.27-.34-.4-.04-.05-.08-.11-.12-.16-.03-.05-.06-.09-.12-.02-.05,.08-.11,.15-.17,.22-.09,.1-.19,.18-.27,.28-.08,.11-.21,.2-.14,.37,.01,.03-.01,.08-.03,.12-.02,.06-.04,.12-.08,.18-.02,.04-.07,.06-.1,.09-.02,.01-.04,.02-.05,.03-.13,.27-.07,.67,.2,.85,.35,.23,.73,.26,1.11,.1,.45-.18,.5-.6,.41-.98-.01-.06-.04-.1-.1,0m-14.41-24.02s-.04-.05-.05-.08c-.05-.12-.16-.1-.25-.1-.09,0-.1,.07-.11,.15-.02,.12-.03,.23-.02,.36,0,.13,.03,.25,.09,.36,.04,.07,.07,.16,.06,.24-.03,.2,0,.38,.09,.55,.04,.07,.12,.14,.19,.16,.04,.01,.11-.07,.17-.1,.04-.02,.08-.05,.12-.06,.22-.05,.44-.09,.66-.13-.01-.09,0-.15-.03-.2-.07-.17-.14-.35-.22-.52-.03-.07-.07-.13-.11-.19-.08-.1-.08-.14,.04-.18,.04-.01,.07-.03,.08-.03,.05-.14,.09-.26,.13-.38,.01-.03,.02-.07,.02-.11-.04,0-.09-.03-.12-.02-.25,.08-.5,.18-.76,.27m14.11,6.72c-.18,.12-.35,.13-.55,.04-.1-.05-.12-.01-.13,.08-.02,.16-.05,.31-.08,.47,0,.06-.03,.11-.03,.17,.02,.31,.05,.61,.09,.92,0,.06,.04,.13,.08,.19,.06,.11,.16,.13,.28,.12,.18-.02,.38,.05,.51-.08,.07,0,.12,0,.17,0,0-.07,0-.13-.03-.2-.01-.04-.06-.07-.07-.11-.01-.06-.02-.13,0-.18,.03-.1-.03-.16-.05-.24-.06-.18-.03-.4-.09-.58-.05-.16-.06-.3-.06-.46,0-.05-.02-.09-.03-.15m13.74-6.4s-.01,0-.02,0c0-.07,.03-.15,.02-.22,0-.06-.04-.14-.08-.15-.23-.07-.47-.12-.71-.18-.12-.03-.23,.07-.23,.19,0,.19-.03,.38-.05,.57,0,.07-.03,.15-.07,.21-.08,.14-.08,.36,.02,.48,.02,.02,.06,.03,.09,.04,.07,.02,.16,.02,.21,.06,.1,.08,.19,.1,.3,.02,.06-.04,.12-.04,.16,.03,.05,.09,.09,.06,.12,0,.03-.07,.06-.15,.08-.23,.02-.07,.02-.15,.04-.22,.04-.2,.07-.4,.11-.6m-14.01,5.36s0-.01,.01-.02c.03,0,.07,0,.1-.03,.07-.04,.16-.08,.18-.14,.06-.12,.11-.26,.1-.38-.01-.19-.17-.45-.41-.45-.11,0-.21,.02-.32,.05-.19,.05-.21,.09-.21,.28,0,.06-.02,.11-.02,.17,0,.12,0,.27,.11,.33,.14,.08,.3,.12,.45,.17" fill="#d5ba8c"/><path d="M149.27,70.97c.08,.1,.17,.09,.29,.06,.13-.04,.3-.11,.41-.07,.21,.07,.44,0,.66,.13,.15,.09,.36,.06,.52-.06,.06,.03,.11,.05,.15,.09,.02,.02,.02,.09,.01,.09-.18,.08-.35,.21-.57,.17-.06-.01-.13,0-.18-.03-.21-.09-.42-.05-.64-.03-.5,.05-1.01,.03-1.51,.03-.22,0-.45,0-.67,0-.24,0-.48,.06-.71,.04-.28-.03-.54,.04-.83-.01-.27-.05-.55,0-.83,.01-.08,0-.17,0-.25,0-.1,0-.19,.01-.29,.02-.34,0-.69-.02-1.03,0-.46,.03-.91,.08-1.37,.12-.01,0-.03,0-.04,0-.19-.1-.37,.01-.55,.02-.02,0-.06,0-.07-.01-.14-.13-.3-.06-.45-.06-.07,0-.13-.03-.2-.03-.25-.01-.49-.02-.74-.03-.11,0-.22-.03-.33-.02-.09,0-.18,.02-.25,.06-.14,.08-.26,.04-.39-.01-.03-.01-.08,0-.12,0-.21,.08-.42,.08-.63,0-.01,0-.02-.02-.04-.02-.22,0-.45,0-.68,.02-.02,0-.05,0-.07,0-.31-.07-.63-.05-.95-.05-.34,0-.68,0-1.02,0-.24,0-.47-.02-.73-.04,0,.05,0,.11-.02,.2-.04-.05-.08-.08-.1-.12-.05-.11-.13-.1-.23-.1-.09,0-.18-.03-.27-.02-.1,0-.2,.02-.3,.04-.08,.02-.15,.07-.22,.11-.08,.04-.13-.01-.1-.07,.06-.13,.13-.26,.22-.37,.03-.04,.14-.05,.21-.04,.22,.02,.43,.07,.65,.09,.11,0,.24,.05,.34-.05,.05-.05,.1-.04,.16,.02,.12,.12,.26,.12,.38,0,.06-.05,.11-.08,.17-.02,0,0,.02,.02,.02,.01,.22-.07,.42,.11,.64,.05,.02,0,.04,0,.06,0,.08,.05,.15,.03,.22-.01,.07-.04,.14-.06,.23-.03,.09,.03,.21-.02,.32-.03,.03,0,.06-.03,.07-.02,.17,.1,.35,.04,.52,.02,.16-.02,.34,0,.49-.1,.07-.04,.13-.04,.17,.03,.06,.09,.11,.06,.18,.01,.03-.02,.1-.05,.12-.03,.09,.07,.16,.04,.25,0,.02-.01,.06,0,.09,.02,.05,.02,.1,.05,.15,.05,.1,0,.2-.05,.28,.05,.01,.02,.07,0,.1,0,.04,0,.09-.02,.13-.02,.13,0,.26,0,.4,0,.2,0,.4,.03,.61,.02,.2,0,.4-.03,.6-.04,.04,0,.07,0,.11,0,.19,.02,.37,.04,.56,.05,.28,0,.55,.03,.83-.02,.06-.01,.13,.02,.2,.02,.03,0,.07,0,.09-.02,.09-.09,.2-.08,.32-.07,.07,0,.15-.05,.22-.03,.17,.04,.33-.03,.49-.02,.15,0,.28,.03,.42-.05,.06-.03,.15,0,.23,0,.13,0,.27,.02,.4,.02,.12,0,.23,.02,.35,.03,.17,0,.35,0,.52,0,.49,.02,.99,.03,1.48,.06,.22,0,.44,.06,.65,.04,.16-.02,.29,.01,.42,.07,.13,.06,.2-.07,.31-.08" fill="#d5ba8c"/><path d="M134.17,72.38c.09-.26,.27-.3,.48-.25,.02,0,.05,0,.06-.02,.12-.08,.25-.03,.37-.03,.06,0,.13,0,.19,0,.09,0,.19,.02,.28,.02,.1,0,.21,0,.31,0,.05,0,.1-.01,.15-.02,.07,0,.15,0,.22-.03,.12-.04,.22-.02,.34,0,.17,.03,.35,0,.53,0,.05,0,.11,0,.16,0,.08,0,.16,0,.23,0,0,0,.02,0,.03,0,.23,.02,.46,.04,.69,.06,.1,0,.19,0,.29,0,.19,.02,.37-.05,.57-.03,.18,.02,.39,.12,.57-.02,.02-.02,.07,0,.11,.01,.06,.02,.11,.05,.17,.05,.16,0,.31-.03,.47-.05,0,0,.02,0,.03,0,.14,.09,.26,.02,.39-.02,.04-.01,.1,0,.13,.02,.12,.11,.24,.05,.36,.01,.11-.03,.2-.04,.32,.02,.07,.04,.19,0,.28,0,.08,0,.17-.01,.25-.02,.21,0,.42-.02,.63-.03,.07,0,.13,.01,.2,0,.23,0,.46,0,.7-.02,.15,0,.31-.03,.46-.05,.06,0,.11-.02,.17-.03,.26-.04,.51,0,.76,.05,.05,.01,.1,0,.15,0,.17,.01,.34,.03,.51,.04,.04,0,.09,0,.13-.02,.13-.09,.13-.1,.23,.03,.05-.03,.1-.06,.16-.08,.04-.02,.11-.04,.14-.02,.08,.07,.16,.07,.26,.04,.14-.05,.28-.05,.43-.04,.18,.02,.37-.03,.55-.02,.25,.02,.51,.07,.76,.11,.05,0,.1,.02,.16,.02,.31,0,.61-.03,.92-.02,.31,0,.62,.03,.94,.05,.08,0,.11,.04,.08,.12-.02,.06-.05,.12-.08,.18-.05,.09-.19,.09-.26,.02-.08-.08-.16-.14-.29-.1-.07,.02-.17-.02-.25-.02-.1,0-.2,.02-.31,.03-.36,.03-.73,.06-1.09,.08-.17,0-.35,0-.53,0-.42,0-.85,.02-1.27,.02-.26,0-.52,0-.78,0-.29,0-.57-.02-.86,0-.27,.02-.53,.08-.8,.12-.04,0-.09,.01-.13,.01-.2,0-.4,.02-.6,.02-.08,0-.15-.04-.23-.06-.06,0-.12,0-.18,0-.12,0-.25,.03-.37,.03-.16,0-.31,.01-.47,.02-.02,0-.04,0-.05,0-.25-.02-.51-.04-.76-.06-.04,0-.09-.02-.13-.02-.14-.02-.28-.04-.42-.05-.19-.01-.38-.02-.58-.03-.16,0-.32,0-.48,0-.15,0-.29,.02-.44,.02-.18,0-.36,0-.54,0-.57,0-1.13,.01-1.7,.02-.26,0-.53,.02-.78-.02-.25-.04-.5,0-.75-.02-.25-.02-.49-.06-.74-.09-.11,0-.21,0-.32,0-.05,0-.09,0-.14-.01" fill="#d5ba8c"/><path d="M135.04,74.31c.08,.02,.14,.03,.2,.05,0-.2,0-.2,.18-.2,.32,0,.63,.02,.94,.1,.19,.04,.41,0,.61-.03,.22-.03,.42-.04,.64,.02,.21,.05,.45,0,.68-.04,.09-.01,.16-.02,.24,.05,.13,.1,.29,.07,.44,.01,.2-.08,.39-.13,.59,0,.07,.05,.19,.02,.29,.02,.2,0,.41,0,.61,0,.04,0,.09,0,.13,0,.08,0,.15,.01,.23,.02,.02,0,.03,.01,.05,.01,.27-.01,.54-.01,.81-.04,.29-.03,.57-.1,.86-.05,.06,.01,.13-.03,.2-.02,.11,0,.22,.04,.34,.04,.14,0,.27,0,.41,0,.23,0,.45,0,.68,0,.11,0,.21-.02,.32-.03,.13-.02,.26-.04,.4-.05,.11,0,.21,.02,.32,.06,.17,.07,.37,.07,.56,.06,.24,0,.48-.03,.72-.05,.08,0,.16-.02,.24-.03,.04,0,.09-.01,.13-.02,.13,0,.25-.03,.38-.02,.08,0,.17,.03,.25,.06,.06,.03,.11,.05,.16-.02,.07-.11,.16-.13,.28-.06,.07,.03,.16,.03,.23,.04,.05,.01,.13,.02,.15,.06,.05,.1,.11,.08,.18,.05,.08-.04,.12-.02,.19,.05,.1,.12,.25,.05,.38,.05,.11,0,.21-.05,.32-.07,.1-.02,.13,.04,.11,.13,0,.05-.01,.1-.03,.14-.01,.02-.06,.03-.09,.03-.09,0-.19-.02-.27,0-.19,.05-.36,.02-.54-.05-.04-.02-.09-.02-.13-.02-.06,0-.12,0-.18,0-.15,0-.3,.02-.45,.03-.17,0-.35,.01-.52,.03-.14,.01-.28,.05-.42,.06-.22,.02-.45,.03-.67,.05,0,0,0,0-.01,0-.21,.08-.42-.02-.63,.01-.23,.04-.48-.03-.72-.05-.03,0-.06-.02-.08-.02-.22,.09-.43-.05-.63-.02-.29,.03-.58-.1-.85,.02-.35,.15-.72,.14-1.08,.13-.19,0-.38-.06-.56-.06-.31,0-.62-.07-.94-.03-.32,.04-.65,.12-.97,0-.03-.01-.07-.02-.09,0-.11,.09-.22,.02-.33,0-.1-.02-.2-.02-.29-.03-.1,0-.19,0-.29,0-.22,0-.44,0-.66-.01-.18,0-.36,0-.54,0-.1,0-.21,.01-.31,.01-.15,0-.31,.01-.46,0-.25-.02-.5-.07-.75-.07-.26,0-.52-.11-.79,0-.13,.06-.12-.09-.15-.16-.02-.05,0-.11,0-.16" fill="#d5ba8c"/><path d="M134.49,73.6s-.01-.04-.01-.05c0-.29,.01-.29,.29-.3,.39-.03,.77-.02,1.16-.03,.16,0,.32-.02,.48-.03,.04,0,.08-.02,.12-.04,.02,0,.04-.03,.06-.03,.16,0,.32,0,.48,0,.09,0,.18-.03,.27-.03,.06,0,.13,.02,.19,.04,.03,0,.07,.05,.09,.04,.14-.06,.29-.02,.43-.02,.04,0,.08,.01,.11,.04,.08,.08,.18,.09,.27,.06,.24-.07,.47-.08,.72-.05,.25,.03,.51,.02,.76,.03,.08,0,.17,.03,.25,.02,.09,0,.17-.04,.25-.05,.03,0,.07,0,.1,0,.06,.01,.11,.04,.17,.04,.25,0,.49,0,.74-.01,.08,0,.15,0,.23,0,.2,0,.41,0,.61,0,.54,0,1.08,0,1.63,0,.19,0,.38,.03,.57-.04,.07-.03,.18,.04,.25-.06,0,0,.07,.03,.08,.06,.02,.07,.05,.07,.12,.06,.15,0,.3,.01,.45,0,.25,0,.51-.03,.76-.04,.06,0,.12,0,.18,0,.12,0,.24,0,.36-.01,.07,0,.15-.01,.22-.03,.07-.01,.13-.04,.2-.05,.09,0,.18-.01,.27,0,.32,.04,.63,.1,.95,.06,.35-.05,.71,0,1.06,.05,.07,0,.14,0,.21,0,.12,0,.24-.01,.35,0,.05,0,.14,.06,.15,.1,0,.08-.03,.17-.06,.25,0,.01-.09,0-.12,0-.21-.12-.44-.1-.68-.08-.25,.02-.51,.04-.76,.06-.27,.02-.54,.04-.81,.05-.15,0-.3-.02-.44-.02-.31,0-.62,0-.92,0-.21,0-.42,.02-.63,.02-.11,0-.22-.02-.34-.02-.12,0-.24,.02-.37,.02-.17,0-.34-.01-.51-.02-.09,0-.18,0-.27,0-.09,0-.17,0-.26,0-.07,0-.14,0-.22,0-.17,0-.33,.02-.5,.02-.24,0-.48,0-.72,0h-2.28c-.18,0-.36,0-.54,0-.24,0-.48,.02-.72,.02-.27,0-.55-.02-.82-.02-.08,0-.15,.02-.23,.02-.31-.01-.63-.04-.94-.05-.24,0-.49,.02-.73,.02-.17,0-.34-.03-.52-.05-.03,0-.05,0-.08,0-.2-.02-.41-.05-.61-.05-.1,0-.23-.03-.3,.11-.01,.03-.13,0-.19,0" fill="#d5ba8c"/><path d="M135.19,75.58c.07,0,.15,0,.22,0,.29-.02,.58-.06,.87-.08,.2-.01,.4,0,.6,0,.25-.01,.51-.02,.76-.06,.11-.02,.19-.04,.29,.02,.06,.04,.17-.02,.26-.02,.04,0,.08,0,.13,0,.04,0,.09,.05,.12,.03,.23-.1,.47,.07,.71-.04,.08-.04,.22,.03,.33,.04,.08,.01,.11-.02,.12-.11,0-.14,.09-.19,.22-.11,.13,.08,.24,.05,.35,0,.18-.07,.35-.12,.48,.08,.01,.02,.08,0,.12,0,.1-.02,.19-.04,.29-.05,.03,0,.07,0,.08,.02,.07,.14,.16,.07,.25,.03,.07-.03,.14-.06,.21-.07,.04,0,.09,0,.14,.01,.06,.01,.12,.06,.17,.05,.22-.03,.45,.09,.67-.04,.18,.12,.38-.09,.57,.04,.06,.04,.15,.02,.23,.03,.33,.03,.66,.08,1,.09,.22,0,.45-.03,.67-.04,.09,0,.19-.01,.28-.02,.18,0,.36-.03,.54-.03,.22,0,.43,.03,.65,.02,.13,0,.26-.05,.39-.08,.04,0,.1,0,.11,.02,.04,.09,.11,.08,.19,.09,.23,.01,.46,.04,.69,.05,.04,0,.11-.02,.12-.05,.06-.13,.15-.1,.24-.05,.13,.07,.45,.13,.6,.1,.06-.01,.13-.02,.19,0,.04,.02,.1,.08,.09,.12-.01,.06,0,.16-.14,.15-.28-.04-.56-.06-.84,.03-.06,.02-.14,0-.21,0-.33,0-.67,.02-1,.02-.41,0-.81,0-1.22,0-.15,0-.3,0-.45,0-.24,0-.49-.02-.73-.02-.19,0-.38,.02-.57,.02-.16,0-.33,0-.49,0-.22,0-.44,0-.67,0-.4,.02-.79,.06-1.19,.07-.19,0-.38-.05-.57-.06-.23-.01-.47,0-.7,0-.15,0-.3,0-.45,0-.06,0-.12,0-.17,0-.27,0-.53,0-.8,0-.29,0-.57,.03-.86,.05-.02,0-.04,0-.05,0-.4-.08-.8-.01-1.2-.02-.19,0-.39,0-.58,0-.04,0-.08,0-.12,.02-.16,.05-.33,.11-.49,.16-.16,.05-.25-.02-.2-.18,.03-.12,0-.14-.11-.14-.04,0-.09-.03-.13-.04,0-.02,0-.04,0-.06" fill="#d5ba8c"/><path d="M135.17,76.72c.13-.17,.3-.24,.49-.28,.03,0,.06,0,.08,0,.26,.06,.53,.02,.79,.05,.24,.03,.49,.03,.74,.03,.27,0,.54-.02,.82,.02,.13,.02,.27-.02,.4-.03,.18-.02,.36-.03,.53-.05,.13-.02,.25-.05,.38-.07,.05,0,.1-.01,.15,0,.17,.03,.33,.09,.5,.09,.24,.01,.49-.02,.73-.02,.3,0,.6,.04,.9,.05,.12,0,.23-.04,.35-.06,.29-.05,.58-.08,.87,.02,.09,.03,.2,.02,.3,.01,.24-.02,.49,.1,.73-.02,.01,0,.04,0,.05,0,.14,.09,.26,.03,.37-.04,.07-.04,.11-.05,.2,0,.11,.05,.25,.05,.38,.06,.12,0,.25,.06,.37-.02,0,0,0,0,.01,0,.2,.02,.39,.04,.59,.05,.1,0,.2-.01,.29-.02,.17-.02,.34-.03,.52-.05,0,0,.02,0,.03,0,.18,.13,.39,.04,.59,.07,.21,.04,.43,.05,.64,.06,.15,0,.31,0,.46,0,.03,0,.09,.03,.1,.06,.03,.1-.15,.3-.25,.31-.13,.02-.25,.05-.37,.08-.06,.01-.11,.02-.17,.03,.02-.16-.07-.27-.21-.26-.5,.01-1,0-1.5,.05-.16,.01-.31-.03-.47-.01-.15,.02-.31,0-.47,0-.24,.01-.48,.04-.72,.05-.14,0-.28-.01-.42-.02-.04,0-.09-.02-.13,0-.12,.04-.23,.05-.35,0-.08-.03-.18,0-.27,0-.15,0-.29-.02-.44-.02-.16,0-.31,.02-.47,.02-.14,0-.28-.02-.41-.02-.26,0-.52,0-.78,.03-.2,.03-.39,.13-.58,.19-.05,.02-.11,.03-.15,.01-.24-.08-.48-.12-.73-.03-.04,.02-.09,0-.14-.02-.18-.04-.35-.08-.53-.11-.19-.03-.38-.05-.57-.05-.17,0-.33,.02-.5,.02-.21,0-.42-.02-.63-.02-.11,0-.22,0-.33,0-.24,0-.48-.01-.71-.03-.32-.02-.63-.05-.95-.08-.02,0-.04-.03-.06-.04" fill="#d5ba8c"/><path d="M137.29,77.49c.09,.1,.18,.16,.31,.07,.01,0,.05,0,.07,.01,.15,.11,.31,.07,.45,0,.08-.04,.11-.05,.17,.02,.1,.11,.2,.01,.29-.07,.16,.16,.34,.13,.52,.05,.03-.02,.1-.02,.12,0,.1,.11,.23,.07,.36,.07,.07,0,.14,.03,.21,.02,.07-.02,.14-.07,.22-.11,.16,.11,.18,.11,.36-.05,.03,.02,.06,.05,.09,.08,.07,.08,.15,.08,.23,.03,.09-.07,.16-.1,.25,0,.04,.04,.14,.03,.21,.02,.29-.04,.58-.09,.87-.12,.13-.01,.26,.04,.39-.02,.04-.02,.12,.04,.18,.04,.15,0,.3-.04,.44-.02,.15,.02,.31-.02,.44,.09,.04,.03,.12,.02,.19,.02,.09,0,.17,0,.26,0,.06,0,.12-.04,.18-.06,.02,0,.04-.02,.05-.02,.2,.08,.39-.02,.58-.01,.24,0,.49,.04,.73,.06,.09,0,.18-.02,.26-.02,.08,0,.15,0,.23,0,.14,0,.29,.02,.43,.02,.07,0,.14-.02,.21-.02,.08-.01,.16-.06,.24,.04,.03,.04,.15,0,.23,0,.07,0,.15,0,.22,0,.02,0,.05,.01,.07,0,.18-.08,.35,0,.52,.02,.07,0,.14-.04,.22-.05,.04,0,.12,.03,.13,.06,0,.07,0,.19-.03,.2-.14,.04-.28,.05-.42,.06-.1,0-.21,0-.31,.02-.04,0-.09,.02-.13,.02-.3,0-.59,.06-.87,.15-.07,.02-.18,.04-.22,0-.13-.1-.26-.04-.4-.05-.08,0-.16-.02-.24-.02-.08,0-.18-.03-.23,0-.16,.12-.31,.02-.47,0-.24-.02-.48-.03-.72-.04-.17,0-.35-.02-.52-.03-.37,0-.75,0-1.12,0-.33,0-.66,0-.98,.03-.18,.01-.35,.06-.52,.07-.12,0-.24-.02-.36-.02-.62-.02-1.24-.04-1.87-.05-.37,0-.74,0-1.1,0-.15,0-.31,0-.46,0-.25-.02-.5-.08-.76-.06-.15,.01-.31-.03-.47-.05-.02,0-.05-.03-.04-.04,0-.02,.03-.04,.05-.06,0,0,.03,0,.04,0,.19,.02,.35-.09,.52-.13,.03,0,.07-.02,.1,0,.23,.07,.44,.02,.62-.14" fill="#d5ba8c"/><path d="M142.22,80.8c.14,.08,.26,.16,.39,.21,.12,.05,.18,.12,.21,.25,.03,.15,.08,.3,.03,.46,0,.02,.03,.06,.04,.09,.03,.1,.09,.18,.1,.3,0,.1,.11,.2,.17,.29,.02,0,.03,0,.05,0,.02-.14,.04-.29,.06-.43,0-.03,0-.07,.03-.08,.11-.09,.23-.17,.35-.25,.03-.02,.08,0,.12,0-.01,.04-.01,.08-.03,.11-.14,.27-.32,.54-.32,.86,0,.08,.06,.17,.11,.24,.07,.07,.16,.12,.24,.18,.05,.03,.12,.05,.17,.08,.04,.03,.09,.07,.11,.11,.05,.09,.1,.16,.21,.16,.13,0,.22-.07,.26-.19,.01-.03-.02-.1-.05-.13-.11-.11-.22-.21-.35-.33,.07-.07,.12-.16,.2-.21,.04-.03,.13-.03,.17,0,.13,.08,.23,.18,.36,.26,.16,.1,.2,.21,.16,.39-.02,.08-.01,.18-.03,.26-.03,.15-.07,.29-.12,.47-.07-.12-.1-.19-.15-.26-.08-.11-.16-.12-.26-.02-.07,.07-.14,.14-.21,.21,0,0,0,0-.03,0-.03-.04-.06-.1-.11-.14-.15-.11-.3-.22-.46-.32-.24-.14-.52-.23-.7-.46-.12-.16-.27-.29-.29-.51-.01-.09-.09-.16-.12-.24-.05-.14-.07-.29-.12-.43-.03-.11-.3-.32-.4-.3-.05,0-.13,.03-.14,.07-.04,.12-.06,.26-.09,.39-.02,.13-.06,.27-.06,.4,0,.2-.18,.29-.24,.45,0,.03-.05,.04-.08,.07-.11,.09-.22,.18-.33,.26-.15,.1-.3,.19-.46,.28-.08,.05-.16,.07-.21,.19-.02,.07-.19,.14-.27,.13-.15-.03-.27-.03-.37,.11-.01,.02-.03,.03-.06,.05-.09-.11-.13-.31-.35-.19-.05-.15-.11-.28-.06-.43,0-.02,0-.05,0-.08-.06-.22-.01-.42,.11-.59,.11-.16,.3-.23,.48-.28,.16-.05,.26,.02,.27,.19-.08,.02-.16,.05-.24,.07-.18,.06-.21,.11-.19,.3,0,.02-.01,.05-.02,.07-.05,.12-.02,.23,.09,.3,.18,.12,.28,.11,.46,0,.14-.09,.29-.16,.43-.26,.07-.05,.11-.14,.17-.21,.03-.04,.08-.07,.13-.08,.15-.05,.23-.14,.25-.29,0-.02,0-.05,0-.05,.2-.14,.19-.4,.32-.58,.08-.12,.13-.27,.19-.4,.07-.16,.13-.31,.21-.47,.01-.02,.07-.03,.11-.03,.06,0,.12,0,.15,0" fill="#d5ba8c"/><path d="M146.54,79.01c-.37,0-.73,.02-1.09,.02-.25,0-.5-.03-.75-.02-.55,0-1.1,.03-1.66,.04-.03,0-.07-.01-.1-.01-.24,0-.48-.01-.71,.04-.22,.05-.43,0-.64-.02-.29-.02-.57-.01-.86-.01-.1,0-.21,.02-.31,.02-.2,0-.4,0-.59,0-.14,0-.29-.01-.43-.01-.51,0-1.02,0-1.53,0-.03,0-.06,.02-.09,.02-.15,.03-.29,.08-.44,.07-.1,0-.2-.08-.29-.14-.05-.02-.08-.07-.13-.09-.11-.05-.11-.12-.06-.21,.06-.1,.12-.06,.19-.01,.04,.03,.06,.07,.1,.09,.05,.02,.13,.05,.17,.02,.08-.06,.15-.03,.24-.03,.14,.01,.29,0,.43-.01,.18-.01,.36-.03,.53-.04,.02,0,.03,.02,.05,.01,.26-.06,.52-.11,.77-.17,.07-.01,.14-.02,.21,0,.2,.04,.4,.04,.59-.04,.04-.02,.11,0,.16,0,.08,.01,.16,.06,.23,.04,.1-.02,.16,.02,.24,.05,.08,.03,.17,.03,.26,.04,.1,.01,.2,.02,.3,.03,.03,0,.06,.02,.08,.02,.22-.08,.47,.02,.67-.07,.17-.07,.25,.09,.38,.05,.01,0,.04,.02,.05,.01,.22-.12,.46-.04,.68-.11,.05-.02,.12,0,.18,0,.21,0,.41-.02,.62-.03,.03,0,.09,0,.1,.01,.09,.11,.19,.04,.28,.01,.06-.02,.11-.04,.14,.04,0,.02,.06,.04,.1,.04,.26,0,.52-.01,.78-.01,.22,0,.44,.01,.67,.02,.15,0,.29,.03,.44,.03,.06,0,.12-.04,.18-.07,.08-.03,.16-.08,.24-.08,.13,0,.27,0,.4,.02,.04,0,.08,.03,.1,.06,.08,.12-.05,.2-.08,.3,0,.02-.08,0-.12,.02-.05,.02-.11,.03-.14,.07-.09,.11-.18,.17-.32,.11-.08-.03-.21,.01-.22-.12" fill="#d5ba8c"/><path d="M134.51,70.45c-.02-.18,.06-.3,.23-.34,.16-.04,.32-.07,.47-.11,.07-.02,.14-.05,.23-.08,.09,.04,.2,.06,.31-.03,.02-.02,.07,0,.1,0,.04,0,.09,.02,.13,0,.1-.05,.17-.05,.26,.04,.03,.03,.13,.02,.19,0,.11-.01,.21-.05,.31,.04,.02,.02,.07,.03,.1,.03,.17,0,.33-.02,.5-.02,.19,0,.39,.02,.58,.02,.09,0,.18-.02,.27-.02,.28,0,.55,0,.83,0,.12,0,.23,.03,.33-.06,.01-.01,.08,0,.08,.02,.07,.16,.21,.13,.33,.14,.16,.02,.18,.04,.16,.2-.01,.09-.06,.11-.15,.09-.16-.03-.33-.08-.48-.07-.22,.02-.44-.01-.65,.09-.09,.05-.23,0-.34,0-.21,.01-.43,.05-.64,.05-.14,0-.28-.06-.42-.09-.02,0-.05-.03-.07-.03-.29,0-.59,0-.88,0-.11,0-.23,0-.34,0-.24,0-.48,0-.73,0-.07,0-.13,.04-.2,.05-.17,.03-.34,.05-.51,.07" fill="#d5ba8c"/><path d="M145.79,70.23s.05-.04,.1-.08c-.14-.01-.25-.04-.35-.02-.16,.03-.3,.01-.46,0-.19-.02-.37-.03-.56-.06-.03,0-.09-.07-.08-.1,.02-.04,.06-.1,.1-.11,.09-.01,.18,0,.27,0,.2,.01,.4,.04,.6,.04,.22,0,.45-.02,.67-.03,.02,0,.04,0,.05-.01,.07-.12,.16-.05,.24-.03,.1,.02,.2,.03,.3,.04,.05,0,.1,.01,.15,0,.12-.02,.25-.08,.36,.03,.12-.11,.25-.02,.37-.03,.2,0,.42-.03,.61,0,.37,.08,.75,.03,1.12,.03,.15,0,.31,.06,.46,.1,.09,.02,.08,.07,.03,.14-.03,.04-.04,.1-.07,.14-.03,.04-.08,.1-.12,.1-.29,0-.58,.01-.86-.04-.16-.03-.31-.1-.49-.09-.22,0-.44,0-.66,0-.22,0-.43,.02-.65,.02-.16,0-.31-.02-.47-.02-.14,0-.29,.02-.43,.03-.08,0-.16-.01-.25-.02,0-.02,0-.03,0-.05" fill="#d5ba8c"/><path d="M146.79,68.24s-.04-.1-.06-.1c-.04,0-.08,.04-.13,.05-.05,.02-.09,.04-.14,.04-.08,0-.16-.04-.24-.05-.11,0-.13-.05-.08-.14,.09-.17,.24-.22,.41-.26,.03,0,.08,0,.1-.03,.12-.17,.3-.14,.46-.14,.26,0,.52-.01,.78-.07,.03,0,.08,0,.1,.01,.13,.14,.25,.04,.37,0,.13-.04,.25-.06,.35,.03,.09,.08,.17,.07,.26,.02,.04-.02,.09-.04,.13-.07,.08-.05,.13-.07,.18,.05,.02,.06,.13,.1,.21,.14,.05,.02,.1,.03,.15,.04,.18,.03,.36,.06,.54,.08-.03,.14-.16,.24-.26,.23-.03,0-.09,0-.1,.02-.09,.1-.19,.1-.31,.06-.02,0-.04-.01-.06-.02-.26,0-.52-.02-.78-.03-.28,0-.56-.02-.83-.02s-.55,0-.83,.03c-.07,0-.14,.08-.2,.11" fill="#d5ba8c"/><path d="M134.82,67.06c-.1,.12-.14,.11-.29,0-.06-.04-.17-.03-.26-.03-.04,0-.08,.02-.15,.04,0-.07,0-.11,0-.16,0-.08,.02-.11,.11-.12,.15-.02,.31-.04,.45-.09,.08-.02,.14-.1,.22-.13,.05-.02,.14-.03,.18,0,.16,.12,.35,.09,.52,.14,.03,0,.07-.01,.1-.02,.19-.05,.37-.11,.56-.16,.02,0,.05,0,.08,0,.25,.06,.51,.07,.77,.03,.07,0,.14,.02,.21,.04,.18,.05,.36,.1,.54,.14,.08,.02,.19,0,.2,.12,0,.09-.2,.2-.29,.2-.2-.01-.39,0-.59-.02-.09,0-.17-.02-.26-.02-.07,0-.16-.02-.22,.01-.18,.08-.36,.09-.55,.08-.03,0-.07,.03-.1,.03-.06,0-.12,.01-.18,0-.06-.01-.12-.04-.18-.06-.15-.05-.28-.01-.43,.02-.13,.03-.28-.03-.44-.05" fill="#d5ba8c"/><path d="M134.55,68.98c.27,.08,.34-.14,.46-.31,.06,.14,.16,.15,.27,.11,.11-.04,.2,.01,.3,.06,.05,.02,.11,.05,.16,.05,.19,0,.37,0,.56,0,.03,0,.06,0,.08,0,.18-.11,.37-.04,.55-.01,.18,.03,.35,.01,.51-.05,.11-.05,.22-.04,.31,0,.18,.06,.36,.06,.55,.06,.16,0,.32,.04,.48,.07,.03,0,.08,.04,.08,.06,0,.03-.03,.07-.06,.08-.36,.14-.73,.25-1.13,.2-.03,0-.06-.02-.09-.02-.12,0-.23-.07-.37-.02-.15,.06-.32,.03-.49,.04-.02,0-.04,0-.05,.01-.11,.08-.22,.09-.32-.02-.02-.02-.09,0-.13,.02-.09,.04-.18,.08-.27-.01-.02-.02-.07,0-.11,0-.14,0-.32,.07-.42,.01-.22-.14-.47-.06-.69-.17-.06-.03-.12-.06-.18-.09,0-.02,0-.04,0-.05" fill="#d5ba8c"/><path d="M149.76,69.24c-.05-.02-.1-.03-.14-.05-.18-.11-.35-.11-.55-.04-.12,.05-.26,.02-.4,.03-.14,0-.29,.01-.43,.02-.17,.01-.35-.03-.51,.08-.04,.03-.12-.01-.18-.02-.07,0-.13-.02-.2-.03-.21-.02-.42-.04-.63-.05-.08,0-.16,0-.24,0-.2-.02-.41-.04-.61-.05-.23-.02-.23-.02-.34-.08,0-.04,0-.09,0-.13,0-.09,.05-.1,.12-.08,.14,.05,.28,.03,.4-.01,.16-.05,.32-.06,.48,0,.13,.05,.28,.07,.41-.03,.03-.02,.09-.03,.13-.01,.13,.05,.24,0,.36-.04,.05-.02,.11-.03,.16-.01,.17,.05,.33,.07,.51,.05,.16-.02,.35,0,.52,0,.11,0,.23,.02,.34,0,.22-.01,.43,0,.63,.11,.01,0,.02,.01,.04,.02,.18,.07,.21,.13,.12,.33" fill="#d5ba8c"/><path d="M134.47,67.93c.07-.01,.14-.01,.21-.03,.24-.08,.48-.09,.73-.08,.23,.01,.48,0,.7-.1,.05-.02,.14,.02,.2,.03,.09,0,.18,.02,.28,.02,.25,.01,.49,.03,.74,.04,.06,0,.12,0,.18,0,.03,0,.06-.03,.09-.02,.16,.04,.3,0,.45-.06,.11-.04,.13,0,.1,.12,.02,0,.05,0,.07,.02,.03,.03,.08,.06,.08,.09,0,.03-.05,.07-.08,.09-.06,.03-.13,.04-.18,.07-.11,.08-.21,.12-.34,.04-.02-.01-.05-.01-.07,0-.17,.13-.33,.06-.5,0-.02,0-.05,0-.07,.01-.05,0-.1,0-.15,.01-.04,0-.08,0-.12,0-.06,0-.11,0-.17,.01-.03,0-.06,0-.1,0-.05,0-.11,0-.16,0-.07,0-.13-.01-.21,.02-.07,.03-.16,0-.24,0-.04,0-.1-.02-.13,0-.11,.07-.2,.03-.28-.03-.07-.06-.13-.07-.21-.03,0,0-.02,.01-.02,.01-.17-.07-.37,.03-.53-.09-.04-.03-.09-.04-.13-.06-.05-.02-.1-.03-.16-.05,0-.02,0-.04,0-.06" fill="#d5ba8c"/><path d="M150.49,67.13c-.23,.01-.45,.03-.67,.04-.03,0-.08,0-.1-.03-.1-.1-.22-.08-.34-.08-.15,0-.3-.02-.45-.02-.14,0-.28,.03-.41,.02-.26,0-.53-.04-.79-.04-.15,0-.3,.04-.45,.05-.07,0-.15,0-.22,0-.06,0-.11,0-.17,0-.08-.06-.18-.12-.28-.2,.02-.04,.03-.07,.05-.11,0,.01,.01,.02,.02,.03,.07-.04,.14-.07,.22-.11,.03-.01,.06-.01,.09-.01,.22,0,.43-.01,.65-.02,.04,0,.08-.01,.12,0,.24,.02,.47,.04,.71,.06,.1,0,.21,.03,.31,.02,.08,0,.17-.05,.25-.07,.04,0,.08-.01,.11,0,.15,.07,.29,.13,.46,.06,.01,0,.03-.01,.04,0,.2,.15,.45,.08,.67,.14,.19,.05,.21,.08,.19,.3" fill="#d5ba8c"/><path d="M152.02,64.63s-.05,.07-.08,.11c-.01,.02-.04,.04-.04,.06-.04,.18-.18,.17-.29,.14-.22-.06-.41,.04-.62,.04-.17,0-.34,0-.51,0-.1,0-.19-.02-.29-.03-.31-.03-.63-.05-.94-.08-.01,0-.03,0-.04,0-.06,0-.16,0-.17-.03-.04-.1-.07-.21-.07-.32,0-.12,.11-.08,.19-.09,.09,0,.17,0,.26,0,.06,0,.13-.02,.17,0,.19,.11,.39,.06,.59,.05,.05,0,.09,0,.14,0,.06,0,.12,.02,.18,.02,.25,0,.5-.04,.74-.02,.26,.02,.53-.09,.79,.12" fill="#d5ba8c"/><path d="M150.16,66.06c-.16-.02-.32-.04-.48-.05-.46-.01-.92,0-1.38-.04-.15,0-.32-.02-.44-.15-.07-.08-.11-.16-.05-.23,.05-.06,.16-.1,.23-.09,.18,.02,.35,.08,.54,.03,.06-.02,.15,.07,.22,.07,.2,0,.39,.02,.59,0,.25-.03,.51,0,.77,.01,.06,0,.11-.01,.17-.02,.18-.04,.34,.04,.47,.14,.04,.03,.03,.15,.01,.22-.01,.04-.09,.09-.14,.09-.17,.01-.35,0-.52,0v.02" fill="#d5ba8c"/><path d="M132.46,64.69c.17-.02,.27-.2,.47-.14,.04,.01,.09-.02,.13-.04,.11-.07,.2-.08,.32,0,.04,.03,.13,0,.19,0,.08,0,.17,0,.25,0,.06,0,.11,0,.2,.01,.02,0,.07,.03,.12,.03,.18,.01,.37,.03,.55,.01,.11-.01,.21-.1,.32-.14,.05-.02,.1-.02,.15-.02,.02,0,.03,.04,.05,.05,.02,.02,.04,.03,.06,.04,.06-.11,.1,.01,.14,.02,.07,.02,.12,.07,.18,.11,.03,.02,.06,.04,.09,.06-.03,.03-.05,.08-.08,.09-.17,.05-.32,.15-.51,.11-.06-.01-.13,.03-.2,.04-.03-.09-.26-.1-.42,.02-.06-.07-.25-.09-.34-.05-.03,.01-.07,.02-.1,.01-.18,0-.36-.02-.54-.03-.2,0-.41,.02-.61,0-.14-.02-.27-.1-.4-.15v-.05" fill="#d5ba8c"/><path d="M135.37,65.51c-.02,.07-.02,.1,.09,.1,.37,0,.74,.03,1.11,.05,.09,0,.19,0,.28-.01,.08-.01,.13,.01,.16,.09,.03,.08,.02,.14-.06,.16-.08,.02-.17,.03-.25,.04-.11,.02-.22,.03-.32,.05-.09,.01-.18,.03-.27,.04-.04,0-.08-.01-.13-.02-.08,0-.17-.03-.23,0-.2,.1-.38,.09-.57-.02-.07-.04-.16-.04-.24-.03-.19,0-.39,.03-.58,.04-.04,0-.07-.02-.11-.04-.05-.03-.11-.06-.16-.1-.04-.02-.07-.04-.11-.06,.03-.03,.06-.08,.09-.1,.05-.03,.12-.04,.17-.06,.09-.03,.17-.07,.26-.11v.08c.29-.04,.57-.08,.86-.12" fill="#d5ba8c"/><path d="M133.99,63.27c.08,.04,.14,.07,.2,.09,.13,.05,.27,.09,.39,.16,.11,.06,.1,.13,0,.19-.15,.08-.29,.16-.47,.09-.07-.03-.17,.02-.26,.02-.2,0-.39-.03-.59-.02-.2,0-.41,.05-.61,.04-.11,0-.22-.11-.33-.17,0,0,.03-.1,.06-.11,.19-.07,.37-.13,.56-.18,.05-.01,.12,.01,.18,.02,.04,0,.07,.04,.11,.04,.18,.01,.35,.02,.53,.02,.02,0,.06,0,.07-.01,.07-.07,.13-.14,.16-.19" fill="#d5ba8c"/><path d="M153.12,59.74c.07-.04,.14-.11,.19-.11,.22,.04,.45-.04,.67,.06,.05,.03,.12,.01,.19,.02,.09,0,.18,.02,.26,.02,.09,0,.17,0,.26,0,.06,0,.13,.04,.19,.04,.21,0,.33,.19,.53,.21,0,.01,0,.03,0,.04-.06,.01-.11,.04-.17,.04-.33,0-.65,0-.98,0-.26,0-.51-.02-.77-.03-.14,0-.28-.01-.42-.03-.08,0-.14-.14-.12-.25,0-.05,.01-.1,.02-.14,0-.03,.03-.06,.05-.08,.03,.02,.06,.05,.08,.08,.02,.03,.01,.07,.02,.12" fill="#d5ba8c"/><path d="M132.21,62.56c.12-.2,.32-.13,.48-.18,.08-.02,.17-.05,.24-.09,.08-.04,.14-.09,.23-.02,.02,.02,.06,.03,.1,.04,.11,.02,.21,.04,.32,.04,.1,0,.21-.01,.31,0,.11,.02,.21,.09,.31,.13,.01,0,.02,.03,.02,.05,.02,.1-.09,.33-.19,.35-.08,.01-.18-.02-.26-.05-.33-.11-.67-.16-1.01-.09-.21,.04-.46-.05-.54-.19" fill="#d5ba8c"/><path d="M150.27,63.33c.19,.02,.37,.05,.54,.06,.1,0,.21,0,.32,0,.2,0,.41-.03,.61-.02,.08,0,.16,.08,.21,.14,.02,.02-.02,.12-.06,.17-.04,.07-.03,.19-.16,.18-.09,0-.2-.01-.27-.06-.17-.11-.34-.07-.51-.03-.07,.02-.15,0-.23,.01-.02,0-.04,0-.05,0-.05,.01-.13,.06-.16,.04-.12-.08-.24-.18-.34-.28-.06-.06,.03-.21,.1-.21" fill="#d5ba8c"/><path d="M143.97,80.13c-.2,.01-.41,.05-.61,.03-.25-.02-.52,.02-.74-.13-.04-.03-.07-.1-.07-.15,0-.06,.05-.08,.13-.06,.06,.01,.15-.02,.18-.07,.07-.08,.13-.09,.23-.07,.25,.05,.51,.09,.76,.1,.14,.01,.29-.03,.44-.03,.03,0,.1,.04,.1,.06,0,.07,0,.17-.03,.19-.12,.07-.25,.11-.38,.16,0-.01,0-.02-.01-.04" fill="#d5ba8c"/><path d="M128.78,60.05c.1-.11,.21-.18,.36-.14,.06,.01,.13-.01,.19-.01,.38,0,.76,0,1.14,0,.15,0,.28,.08,.28,.16,0,.07-.17,.19-.28,.19-.39,0-.78,0-1.16,0-.19,0-.39,0-.53-.19" fill="#d5ba8c"/><path d="M133.02,61.8c-.12-.03-.26-.08-.39-.11-.05,0-.11,.03-.16,.05-.05,.02-.11,.06-.15,.06-.03,0-.06-.07-.09-.11-.02-.03-.04-.07-.07-.1-.12-.09-.11-.21,.03-.25,.13-.04,.25-.12,.41-.05,.1,.04,.24,0,.36,.01,.06,0,.14,.02,.17,.06,.06,.08,.12,.08,.2,.05,.04-.01,.1,.02,.15,.03-.02,.04-.03,.1-.07,.13-.1,.11-.23,.2-.4,.22" fill="#d5ba8c"/><path d="M141.08,79.72c.07,.1,.2,.04,.31,.05,.08,0,.18-.03,.17,.12,0,.13-.07,.14-.17,.15-.06,0-.12,.04-.18,.06-.06,.02-.12,.04-.18,.04-.11,.01-.22-.02-.33,.07-.05,.04-.17,0-.26-.02-.08-.01-.16-.04-.24-.05-.11,0-.2-.06-.2-.16,0-.1,.09-.16,.2-.16,.19,0,.38-.01,.58-.03,.09,0,.18-.05,.3-.08" fill="#d5ba8c"/><path d="M144.58,84.19c-.3,.26-.63,.42-1.04,.3-.2-.06-.36-.23-.32-.48,0-.07,.11-.14,.17-.11,.12,.05,.23,.14,.35,.17,.22,.06,.43,.22,.68,.15,.05-.02,.1-.04,.15-.06,0,.01,0,.03,.01,.04" fill="#d5ba8c"/><path d="M151.37,61.38s.08-.09,.12-.1c.21-.03,.42-.04,.63-.06,.04,0,.09,.01,.11,.04,.06,.08,.13,.16,.16,.25,.06,.2,.02,.23-.2,.25-.07,0-.14,.04-.2,.06-.01,0-.03,0-.04,0-.07-.02-.15-.05-.22-.07-.07-.02-.15-.02-.14-.12,0-.02-.04-.05-.05-.05-.13,0-.13-.08-.15-.2" fill="#d5ba8c"/><path d="M139.93,84.34c.23-.17,.42-.32,.62-.45,.04-.03,.11,0,.17-.02,.11-.03,.23-.07,.34-.1,.02,0,.06-.01,.07,0,.01,.01,.02,.05,.02,.07-.07,.21-.14,.43-.34,.53-.15,.07-.33,.07-.5,.06-.11,0-.23-.06-.36-.1" fill="#d5ba8c"/><path d="M153.85,59.24s-.02,.07-.04,.08c-.03,.02-.07,.02-.1,.02-.02,0-.04-.04-.04-.06,0-.12,.11-.28,.23-.3,.12-.02,.25,0,.38-.01,.11,0,.22-.03,.33-.02,.1,0,.21,.03,.31,.07,.04,.02,.07,.12,.06,.16-.02,.05-.09,.11-.14,.11-.28,.01-.57,0-.85,0-.05,0-.09-.03-.14-.05" fill="#d5ba8c"/><path d="M151.78,62.93c-.09-.05-.16-.1-.23-.13-.05-.03-.11-.07-.16-.06-.17,.03-.32,0-.44-.11-.04-.03-.06-.12-.06-.18,0-.11,.08-.1,.15-.1,.07,0,.14,0,.21-.03,.16-.06,.29,.02,.43,.06,0,0,.02,0,.03,0,.01,.01,.04,.02,.04,.04,0,.16,.24,.21,.17,.39-.02,.04-.07,.07-.12,.11" fill="#d5ba8c"/><path d="M152.28,60.44c.13,.1,.26,0,.39-.03,.1-.03,.18-.06,.21,.08,0,.02,.03,.04,.05,.06,.07,.05,.13,.1,.09,.19-.04,.1-.08,.17-.21,.16-.18-.02-.37,0-.55-.03-.08-.01-.15-.08-.21-.14-.02-.02,.02-.1,.04-.13,.04-.05,.11-.09,.18-.15" fill="#d5ba8c"/><path d="M130.57,59.25c0,.12-.15,.2-.3,.18-.08-.01-.17,0-.25,0-.16,0-.31,0-.46-.04-.06-.01-.12-.1-.13-.17-.01-.06,.15-.15,.24-.15,.1,0,.19,.02,.28,.06,.1,.04,.23,.07,.35-.04,.1-.09,.28,.03,.29,.16" fill="#d5ba8c"/><path d="M134.55,57.07c.1-.03,.19-.07,.29-.1,.06-.02,.12-.02,.17-.06,.15-.1,.31-.08,.48-.06,0,0,.02,0,.03,0,.21-.16,.44,0,.66-.02,.2-.03,.39-.05,.59-.08,.04,0,.07-.01,.11,0,.26,.05,.52,.11,.78,.15,.11,.01,.22-.05,.33-.06,.07,0,.15,0,.22,.03,.05,.01,.09,.05,.13,.08,.08,.05,.09,.15,0,.2-.16,.09-.32,.18-.53,.12-.13-.04-.28-.01-.42,0-.15,0-.3,.01-.44,.03-.08,0-.16,.04-.24,.06-.04,0-.12,0-.13-.02-.04-.07-.08-.05-.14-.04-.11,.02-.22,0-.33,0-.17,0-.34,0-.52,0-.05,0-.09,0-.14,0-.1,0-.21,0-.31,0-.22,.02-.39-.08-.58-.16,0-.02,0-.04,0-.06" fill="#d5ba8c"/><path d="M136.49,58.54c-.31-.11-.61-.21-.95-.32,.05-.05,.07-.07,.08-.07,.13,0,.22-.08,.32-.15,.11-.07,.26-.16,.4-.05,.13,.1,.27,.09,.41,.08,.23-.03,.46-.07,.69-.1,.11-.01,.23,0,.34,0,0,0,.02,0,.03,0,.17-.05,.34-.01,.51,0,.13,0,.15,.02,.13,.16,.01,0,.03,.02,.04,.03,.03,.03,.08,.07,.08,.08-.01,.04-.05,.09-.09,.1-.14,.04-.29,.07-.44,.08-.15,.01-.3,0-.45,0-.11,0-.21-.01-.32,.07-.07,.06-.18,.08-.27-.02,0-.01-.03-.02-.05-.02-.18,0-.36-.03-.55,.05,.04,.02,.06,.04,.08,.05v.04Z" fill="#d5ba8c"/><path d="M136.9,59.57v-.08c-.13-.04-.26-.07-.38-.11-.04-.01-.07-.06-.11-.09,.03-.03,.06-.08,.1-.1,.1-.05,.21-.11,.32-.13,.13-.03,.27-.01,.4-.03,.19-.02,.38-.04,.57-.06,.06,0,.13,.02,.19,.04,.07,.02,.13,.06,.2,.07,.18,.03,.36,.04,.54,.06,.1,.01,.15,.1,.1,.19-.05,.09-.11,.17-.25,.14-.06-.01-.14,.04-.2,.08-.12,.08-.43,.1-.56,.02-.02-.01-.06,0-.09,0-.08,0-.17-.02-.25,0-.16,.02-.32-.12-.48,0-.02,.02-.08,0-.12,0" fill="#d5ba8c"/><path d="M138.35,60.71c-.1-.01-.18-.03-.25-.04-.2-.01-.4-.02-.61-.03-.04,0-.1-.01-.12,0-.1,.09-.19,.09-.32,.02,.05-.03,.1-.05,.16-.08-.03-.03-.06-.05-.08-.08-.05-.05-.15-.12-.14-.16,.03-.1,.09-.2,.16-.27,.04-.04,.14,0,.2-.04,.18-.08,.37-.05,.56-.06,.21-.01,.4-.04,.56,.14,.02,.03,.07,.03,.11,.04,.11,.02,.22,.03,.33,.06,.08,.03,.11,.1,.05,.17-.08,.11-.16,.21-.32,.2-.13-.02-.25,0-.29,.12" fill="#d5ba8c"/><path d="M138.45,61.7s-.08,.03-.12,.03c-.2,0-.31-.22-.22-.4,.06-.13,.18-.12,.29-.11,.19,.02,.38,.03,.57,.02,.12,0,.26,.05,.38,.11,.03,.02,.06,.14,.03,.18-.04,.05-.13,.09-.2,.1-.13,.01-.25,0-.38,.08-.07,.04-.18,.03-.27,.03-.03,0-.06-.02-.09-.02" fill="#d5ba8c"/><path d="M138.87,56c-.11,.09-.19,.21-.35,.14-.16,.14-.34,.06-.51,.07-.18,.01-.33-.11-.38-.27-.05-.15,.03-.23,.18-.19,.03,0,.06,.01,.09,0,.31-.03,.59,.08,.88,.17,.03,0,.05,.04,.09,.08" fill="#d5ba8c"/><path d="M137.83,54.26c-.07-.04-.18-.11-.28-.19-.09-.07-.04-.15,.05-.18,.06-.03,.13-.05,.2-.05,.11,0,.22,.02,.33,.02,.09,0,.19-.02,.28-.02,.09,0,.15,.04,.17,.13,.02,.1,0,.19-.11,.21-.19,.04-.38,.06-.64,.09" fill="#d5ba8c"/><path d="M134.17,55.85c.16-.02,.32-.03,.48-.05,.07,0,.19,.08,.2,.16,.02,.11-.06,.24-.15,.25-.19,0-.37,.01-.56,0-.07,0-.15-.06-.2-.12-.03-.03-.02-.13,0-.16,.06-.05,.14-.07,.21-.1,0,0,0,.02,.01,.03" fill="#d5ba8c"/><path d="M137.86,54.75c.09,0,.17-.01,.24-.02,.07,0,.33,.11,.36,.17,0,.02,0,.06-.01,.07-.05,.05-.1,.11-.16,.13-.14,.05-.28,.08-.42,.1-.02,0-.07-.05-.07-.07,.01-.13,.04-.27,.05-.38" fill="#d5ba8c"/><path d="M134.23,54.72c.08,.04,.18,.06,.24,.11,.07,.06,.05,.16,0,.21-.05,.04-.13,.05-.2,.06-.07,0-.14-.01-.21-.02-.11-.01-.16-.1-.14-.19,.02-.09,.08-.16,.19-.15,.04,0,.07,0,.11,0,0,0,0-.02,.01-.03" fill="#d5ba8c"/><path d="M146.04,57.04c.06-.03,.1-.05,.14-.07,.06-.03,.13-.07,.19-.08,.18-.02,.35-.16,.56-.07,.08,.04,.21-.03,.32-.04,.05,0,.11,0,.16,0,.07,0,.15,0,.22,0,0,0,0,0,.01,0,.21,.12,.45-.08,.66,.06,.06,.04,.19-.01,.28-.02,.03,0,.07-.01,.09,0,.11,.09,.23,.07,.35,.06,.23-.01,.45,.02,.67,.08,.04,.01,.07,.04,.11,.07-.03,.03-.06,.06-.08,.1-.13,.16-.29,.13-.46,.11-.3-.02-.6-.04-.89,.05-.05,.02-.13,.02-.18,0-.16-.09-.3-.06-.46,0-.13,.05-.28,.09-.42,.03-.02,0-.05,0-.07,0-.04,0-.09,.01-.1,0-.08-.13-.18-.09-.29-.07-.25,.04-.48-.07-.71-.13-.03,0-.05-.03-.09-.06" fill="#d5ba8c"/><path d="M148.57,58.06c.03,.2-.02,.18-.19,.24-.26,.08-.52,.05-.78,.06-.13,0-.25,0-.38,0-.16,0-.33-.01-.47,.11-.07,.06-.16,.06-.26,0-.1-.06-.22-.11-.36-.12-.14,0-.28-.09-.43-.14,0-.02,0-.03,0-.05,.05-.02,.09-.04,.14-.06,.04-.02,.11-.03,.13-.06,.07-.12,.2-.12,.3-.12,.22-.01,.44-.02,.66,.04,.13,.03,.29-.04,.43-.05,.26-.02,.53-.03,.79-.04,.05,0,.12,.04,.13,.07,.05,.14,.17,.13,.28,.14" fill="#d5ba8c"/><path d="M146.21,59.05c.07-.02,.16-.02,.22-.06,.15-.1,.28-.04,.42,0,.15,.05,.32,.08,.48,0,.12-.06,.23-.04,.33,.05,.06,.06,.15,.08,.23,.12,.1,.05,.07,.13,0,.17-.07,.04-.16,.06-.24,.07-.14,.02-.29,.05-.43,.05-.13,0-.26-.03-.39-.04-.07,0-.14,0-.22,0-.17,0-.34,.01-.5,0-.11-.01-.23-.06-.34-.1-.03-.01-.05-.06-.06-.1,0-.01,.05-.05,.09-.06,.13-.04,.27-.08,.4-.12,0,0,0,.02,0,.02" fill="#d5ba8c"/><path d="M146.49,60.51c-.21,0-.42,0-.64,0-.05,0-.1-.02-.16-.03-.09-.02-.17-.07-.14-.16,.02-.06,.11-.13,.18-.13,.26-.02,.52-.07,.78-.13,.1-.03,.23,.05,.35,.08,.03,0,.05,.04,.08,.04,.08,.01,.12,.06,.11,.14,0,.09-.06,.15-.15,.16-.14,.02-.27,.03-.41,.04h0Z" fill="#d5ba8c"/><path d="M147.15,56.15c-.19,.02-.39,.05-.58,.04-.1,0-.21-.05-.29-.12-.09-.07-.02-.31,.1-.35,.14-.03,.28-.05,.42-.06,.07,0,.15,0,.22,.03,.04,0,.07,.05,.09,.09,.05,.08,.06,.17,.17,.19,.02,0,.05,.08,.04,.1-.04,.05-.1,.08-.16,.13,0-.02-.01-.03-.02-.05" fill="#d5ba8c"/><path d="M150.44,55.74c.1,.11,.09,.24,.02,.37-.08,.14-.22,.19-.37,.2-.03,0-.07-.08-.11-.12,0-.01,.01-.02,.02-.03-.06,0-.12,0-.19,0-.12,0-.21-.08-.21-.19,0-.11,.07-.15,.19-.16,.21,0,.42-.04,.64-.06" fill="#d5ba8c"/><path d="M146.07,61.57c-.21,0-.43,0-.64,0-.11,0-.17-.07-.18-.18,0-.11,.06-.14,.17-.15,.17-.01,.33-.05,.49-.09,.12-.02,.2,.05,.27,.13,.04,.05,.09,.14,.07,.18-.02,.06-.11,.1-.17,.15,0-.02-.01-.03-.02-.05" fill="#d5ba8c"/><path d="M146.3,55.33c-.18,.07-.15-.11-.21-.18-.02-.02-.02-.06-.03-.09-.02-.04-.08-.09-.07-.12,.03-.09,.08-.19,.15-.24,.08-.07,.2-.09,.31-.02,.06,.03,.13,.04,.19,.07,.05,.03,.1,.07,.15,.1-.04,.04-.09,.13-.13,.13-.23,0-.27,.2-.36,.35" fill="#d5ba8c"/><path d="M149.72,54.86c0-.11,.1-.21,.26-.21,.11,0,.22,.03,.32,.06,.02,0,.02,.08,.04,.12,.02,.04,.05,.08,.08,.11,.04,.04,.09,.07,.13,.1-.06,.05-.12,.13-.18,.13-.09,0-.18-.05-.27-.08-.05-.01-.1-.03-.14-.03-.14,.02-.24-.06-.24-.2" fill="#d5ba8c"/><path d="M146.42,54.16c-.08-.01-.17-.02-.25-.03-.1-.02-.16-.11-.13-.18,.03-.06,.14-.09,.21-.12,.07-.02,.15-.02,.22-.02,.04,0,.08,0,.12,0,.11,.01,.19,.08,.17,.18-.01,.06-.11,.12-.18,.16-.05,.02-.11,0-.17,0,0,0,0,0,0,.01" fill="#d5ba8c"/><path d="M145.5,62.4c-.1,.08-.19,.17-.29,.25-.09,.07-.2,.04-.26-.07-.05-.09-.02-.19,.09-.22,.14-.04,.29-.05,.44-.01,0,.02,0,.03,.02,.05" fill="#d5ba8c"/><path d="M147.58,56.59c.09,.02,.19,.04,.31,.07-.16,.11-.23,0-.33-.03l.02-.04Z" fill="#d5ba8c"/><path d="M141.94,85.02c.09-.01,.16-.02,.23-.03,0,.02,.01,.05,0,.07-.12,.24,0,.42,.13,.59,.16,.2,.16,.29-.02,.47-.02,.02-.04,.06-.06,.09-.11,.15-.24,.15-.35,0-.05-.07-.13-.12-.17-.19-.08-.15-.01-.28,.09-.39,.12-.13,.15-.28,.15-.45,0-.06,0-.12,0-.17" fill="#d5ba8c"/></g></svg>